M48
INCH,TZ
T10C0.122
T11C0.118
T12C0.067
T13C0.040
T14C0.039
T15C0.032
%
T10
X020500Y020100
X011500Y020100
T11
X001500Y020000
X001500Y001500
X037500Y020000
X037500Y001500
T12
X030000Y012661
X030000Y014221
X030000Y015780
X030000Y017339
X035500Y012661
X035500Y014221
X035500Y015780
X035500Y017339
T13
X007000Y015500
X007000Y014500
X006000Y015500
X006000Y014500
X005000Y015500
X005000Y014500
X004000Y015500
X004000Y014500
T14
X011500Y015000
X012500Y015000
X013500Y015000
X014500Y015000
X015500Y015000
X016500Y015000
X017500Y015000
X018500Y015000
X019500Y015000
X020500Y015000
T15
X021500Y009500
X013500Y008500
X013500Y009500
X012500Y009500
X004500Y009500
X003500Y009500
X025500Y013000
X024500Y013000
X025500Y015000
X024500Y015000
X022500Y009500
X030500Y009500
X031500Y009500
X004500Y008500
X003500Y008500
X022500Y008500
X012500Y008500
X030500Y008500
X031500Y008500
X021500Y008500
M30

