M48
INCH,TZ
T10C0.118
T11C0.067
T12C0.032
T13C0.026
%
T10
X047500Y001500
X047500Y039000
X001500Y039000
X001500Y001500
T11
X023721Y032000
X003161Y032000
X022161Y032000
X017839Y032000
X016280Y032000
X014721Y032000
X013161Y032000
X042000Y010339
X042000Y008780
X042000Y007221
X042000Y005661
X034280Y037000
X032721Y037000
X007839Y032000
X006280Y032000
X004721Y032000
X025280Y037000
X044280Y032000
X023721Y037000
X006280Y037000
X004721Y037000
X016780Y037000
X015221Y037000
X044280Y037000
X042721Y037000
X045839Y032000
X025280Y032000
X042721Y032000
X041161Y032000
X035839Y032000
X034280Y032000
X032721Y032000
X031161Y032000
X026839Y032000
T12
X027000Y003500
X020000Y003500
X019000Y003500
X016000Y003500
X016000Y009500
X017000Y009500
X018000Y009500
X017000Y003500
X018000Y003500
X021000Y003500
X029500Y005500
X029500Y006500
X029500Y007500
X023000Y003500
X024000Y003500
X025000Y003500
X026000Y003500
X030500Y005500
X022000Y009500
X030000Y009500
X029000Y009500
X028000Y009500
X027000Y009500
X026000Y009500
X025000Y009500
X024000Y009500
X023000Y009500
X030500Y007500
X021000Y009500
X020000Y009500
X019000Y009500
X030000Y003500
X029000Y003500
X028000Y003500
X022000Y003500
X030500Y006500
T13
X024000Y027000
X023000Y027000
X025000Y027000
X026000Y027000
X027000Y027000
X013500Y017000
X014500Y017000
X015500Y017000
X016500Y017000
X012500Y027000
X013500Y027000
X014500Y027000
X015500Y027000
X016500Y027000
X017500Y027000
X004000Y017000
X005000Y017000
X006000Y017000
X007000Y017000
X003000Y027000
X004000Y027000
X005000Y027000
X006000Y027000
X007000Y027000
X008000Y027000
X045000Y017000
X032500Y027000
X031500Y027000
X035500Y017000
X034500Y017000
X033500Y017000
X032500Y017000
X046000Y027000
X045000Y027000
X044000Y027000
X043000Y027000
X042000Y027000
X041000Y027000
X033500Y027000
X044000Y017000
X043000Y017000
X042000Y017000
X034500Y027000
X035500Y027000
X036500Y027000
X023000Y017000
X024000Y017000
X025000Y017000
X026000Y017000
X022000Y027000
M30

