G04 EAGLE Gerber X2 export*
G75*
%MOIN*%
%FSLAX25Y25*%
%LPD*%
%AMOC8*
5,1,8,0,0,1.08239X$1,22.5*%
G01*
%ADD10C,0.070866*%
%ADD11C,0.070866*%
%ADD12C,0.064961*%
%ADD13C,0.106299*%
%ADD14C,0.039370*%
%ADD15C,0.010000*%

G36*
X487661Y1971D02*
X487661Y1971D01*
X487669Y1970D01*
X487708Y1978D01*
X487748Y1985D01*
X487755Y1989D01*
X487763Y1990D01*
X487798Y2011D01*
X487834Y2030D01*
X487839Y2036D01*
X487846Y2040D01*
X487872Y2071D01*
X487900Y2100D01*
X487904Y2108D01*
X487909Y2114D01*
X487924Y2152D01*
X487941Y2188D01*
X487942Y2196D01*
X487945Y2204D01*
X487952Y2268D01*
X487952Y401432D01*
X487951Y401440D01*
X487952Y401448D01*
X487943Y401488D01*
X487936Y401528D01*
X487933Y401535D01*
X487931Y401543D01*
X487910Y401577D01*
X487891Y401613D01*
X487885Y401619D01*
X487881Y401626D01*
X487850Y401652D01*
X487821Y401680D01*
X487814Y401683D01*
X487807Y401688D01*
X487770Y401704D01*
X487733Y401721D01*
X487725Y401721D01*
X487718Y401724D01*
X487653Y401732D01*
X2268Y401732D01*
X2261Y401730D01*
X2253Y401731D01*
X2213Y401722D01*
X2173Y401716D01*
X2166Y401712D01*
X2158Y401710D01*
X2123Y401690D01*
X2087Y401671D01*
X2082Y401665D01*
X2075Y401661D01*
X2049Y401630D01*
X2021Y401600D01*
X2018Y401593D01*
X2012Y401587D01*
X1997Y401549D01*
X1980Y401513D01*
X1979Y401505D01*
X1976Y401497D01*
X1969Y401432D01*
X1969Y2268D01*
X1971Y2261D01*
X1970Y2253D01*
X1978Y2213D01*
X1985Y2173D01*
X1989Y2166D01*
X1990Y2158D01*
X2011Y2123D01*
X2030Y2087D01*
X2036Y2082D01*
X2040Y2075D01*
X2071Y2049D01*
X2100Y2021D01*
X2108Y2018D01*
X2114Y2012D01*
X2152Y1997D01*
X2188Y1980D01*
X2196Y1979D01*
X2204Y1976D01*
X2268Y1969D01*
X487653Y1969D01*
X487661Y1971D01*
G37*
%LPC*%
G36*
X239012Y10031D02*
X239012Y10031D01*
X237185Y10787D01*
X225787Y22185D01*
X225031Y24012D01*
X225031Y26510D01*
X225030Y26517D01*
X225030Y26524D01*
X225026Y26543D01*
X225025Y26567D01*
X225018Y26586D01*
X225015Y26606D01*
X225010Y26615D01*
X225010Y26618D01*
X225002Y26631D01*
X224992Y26657D01*
X224979Y26673D01*
X224970Y26691D01*
X224960Y26700D01*
X224960Y26701D01*
X224956Y26704D01*
X224949Y26711D01*
X224932Y26733D01*
X224914Y26744D01*
X224900Y26758D01*
X224874Y26770D01*
X224850Y26785D01*
X224830Y26790D01*
X224812Y26799D01*
X224784Y26802D01*
X224756Y26809D01*
X224736Y26807D01*
X224716Y26809D01*
X224688Y26803D01*
X224660Y26801D01*
X224641Y26793D01*
X224636Y26792D01*
X224633Y26791D01*
X224621Y26788D01*
X224597Y26774D01*
X224571Y26763D01*
X224554Y26749D01*
X224548Y26746D01*
X224545Y26743D01*
X224538Y26739D01*
X224532Y26732D01*
X224520Y26722D01*
X223707Y25909D01*
X221302Y24913D01*
X218698Y24913D01*
X216293Y25909D01*
X215212Y26990D01*
X215205Y26995D01*
X215200Y27001D01*
X215166Y27023D01*
X215133Y27047D01*
X215125Y27049D01*
X215119Y27054D01*
X215079Y27063D01*
X215041Y27075D01*
X215033Y27075D01*
X215025Y27077D01*
X214984Y27074D01*
X214944Y27073D01*
X214936Y27070D01*
X214928Y27069D01*
X214891Y27053D01*
X214853Y27039D01*
X214847Y27034D01*
X214839Y27031D01*
X214788Y26990D01*
X213707Y25909D01*
X211302Y24913D01*
X208698Y24913D01*
X206293Y25909D01*
X205212Y26990D01*
X205205Y26995D01*
X205200Y27001D01*
X205166Y27023D01*
X205133Y27047D01*
X205125Y27049D01*
X205119Y27054D01*
X205079Y27063D01*
X205041Y27075D01*
X205033Y27075D01*
X205025Y27077D01*
X204984Y27074D01*
X204944Y27073D01*
X204936Y27070D01*
X204928Y27069D01*
X204891Y27053D01*
X204853Y27039D01*
X204847Y27034D01*
X204839Y27031D01*
X204788Y26990D01*
X203707Y25909D01*
X201302Y24913D01*
X198698Y24913D01*
X196293Y25909D01*
X195212Y26990D01*
X195205Y26995D01*
X195200Y27001D01*
X195166Y27023D01*
X195133Y27047D01*
X195125Y27049D01*
X195119Y27054D01*
X195079Y27063D01*
X195041Y27075D01*
X195033Y27075D01*
X195025Y27077D01*
X194984Y27074D01*
X194944Y27073D01*
X194936Y27070D01*
X194928Y27069D01*
X194891Y27053D01*
X194853Y27039D01*
X194847Y27034D01*
X194839Y27031D01*
X194788Y26990D01*
X193707Y25909D01*
X191302Y24913D01*
X188698Y24913D01*
X186293Y25909D01*
X185212Y26990D01*
X185205Y26995D01*
X185200Y27001D01*
X185166Y27023D01*
X185133Y27047D01*
X185125Y27049D01*
X185119Y27054D01*
X185079Y27063D01*
X185041Y27075D01*
X185033Y27075D01*
X185025Y27077D01*
X184984Y27074D01*
X184944Y27073D01*
X184936Y27070D01*
X184928Y27069D01*
X184891Y27053D01*
X184853Y27039D01*
X184847Y27034D01*
X184839Y27031D01*
X184788Y26990D01*
X183707Y25909D01*
X181302Y24913D01*
X178698Y24913D01*
X176293Y25909D01*
X175212Y26990D01*
X175205Y26995D01*
X175200Y27001D01*
X175166Y27023D01*
X175133Y27047D01*
X175125Y27049D01*
X175119Y27054D01*
X175079Y27063D01*
X175041Y27075D01*
X175033Y27075D01*
X175025Y27077D01*
X174984Y27074D01*
X174944Y27073D01*
X174936Y27070D01*
X174928Y27069D01*
X174891Y27053D01*
X174853Y27039D01*
X174847Y27034D01*
X174839Y27031D01*
X174788Y26990D01*
X173707Y25909D01*
X171302Y24913D01*
X168698Y24913D01*
X166293Y25909D01*
X165212Y26990D01*
X165205Y26995D01*
X165200Y27001D01*
X165166Y27023D01*
X165133Y27047D01*
X165125Y27049D01*
X165119Y27054D01*
X165079Y27063D01*
X165041Y27075D01*
X165033Y27075D01*
X165025Y27077D01*
X164984Y27074D01*
X164944Y27073D01*
X164936Y27070D01*
X164928Y27069D01*
X164891Y27053D01*
X164853Y27039D01*
X164847Y27034D01*
X164839Y27031D01*
X164788Y26990D01*
X163707Y25909D01*
X161302Y24913D01*
X158698Y24913D01*
X156293Y25909D01*
X154452Y27750D01*
X153456Y30155D01*
X153456Y39845D01*
X154452Y42250D01*
X156293Y44091D01*
X158698Y45087D01*
X161302Y45087D01*
X163707Y44091D01*
X164788Y43010D01*
X164795Y43005D01*
X164800Y42999D01*
X164834Y42977D01*
X164867Y42953D01*
X164875Y42951D01*
X164881Y42946D01*
X164921Y42937D01*
X164959Y42925D01*
X164967Y42925D01*
X164975Y42923D01*
X165016Y42926D01*
X165056Y42927D01*
X165064Y42930D01*
X165072Y42931D01*
X165109Y42947D01*
X165147Y42961D01*
X165153Y42966D01*
X165161Y42969D01*
X165212Y43010D01*
X166293Y44091D01*
X168698Y45087D01*
X171302Y45087D01*
X173707Y44091D01*
X174788Y43010D01*
X174795Y43005D01*
X174800Y42999D01*
X174834Y42977D01*
X174867Y42953D01*
X174875Y42951D01*
X174881Y42946D01*
X174921Y42937D01*
X174959Y42925D01*
X174967Y42925D01*
X174975Y42923D01*
X175016Y42926D01*
X175056Y42927D01*
X175064Y42930D01*
X175072Y42931D01*
X175109Y42947D01*
X175147Y42961D01*
X175153Y42966D01*
X175161Y42969D01*
X175212Y43010D01*
X176293Y44091D01*
X178698Y45087D01*
X181302Y45087D01*
X183707Y44091D01*
X184788Y43010D01*
X184795Y43005D01*
X184800Y42999D01*
X184834Y42977D01*
X184867Y42953D01*
X184875Y42951D01*
X184881Y42946D01*
X184921Y42937D01*
X184959Y42925D01*
X184967Y42925D01*
X184975Y42923D01*
X185016Y42926D01*
X185056Y42927D01*
X185064Y42930D01*
X185072Y42931D01*
X185109Y42947D01*
X185147Y42961D01*
X185153Y42966D01*
X185161Y42969D01*
X185212Y43010D01*
X186293Y44091D01*
X188698Y45087D01*
X191302Y45087D01*
X193707Y44091D01*
X194788Y43010D01*
X194795Y43005D01*
X194800Y42999D01*
X194834Y42977D01*
X194867Y42953D01*
X194875Y42951D01*
X194881Y42946D01*
X194921Y42937D01*
X194959Y42925D01*
X194967Y42925D01*
X194975Y42923D01*
X195016Y42926D01*
X195056Y42927D01*
X195064Y42930D01*
X195072Y42931D01*
X195109Y42947D01*
X195147Y42961D01*
X195153Y42966D01*
X195161Y42969D01*
X195212Y43010D01*
X196293Y44091D01*
X198698Y45087D01*
X201302Y45087D01*
X203707Y44091D01*
X204788Y43010D01*
X204795Y43005D01*
X204800Y42999D01*
X204834Y42977D01*
X204867Y42953D01*
X204875Y42951D01*
X204881Y42946D01*
X204921Y42937D01*
X204959Y42925D01*
X204967Y42925D01*
X204975Y42923D01*
X205016Y42926D01*
X205056Y42927D01*
X205064Y42930D01*
X205072Y42931D01*
X205109Y42947D01*
X205147Y42961D01*
X205153Y42966D01*
X205161Y42969D01*
X205212Y43010D01*
X206293Y44091D01*
X208698Y45087D01*
X211302Y45087D01*
X213707Y44091D01*
X214788Y43010D01*
X214795Y43005D01*
X214800Y42999D01*
X214834Y42977D01*
X214867Y42953D01*
X214875Y42951D01*
X214881Y42946D01*
X214921Y42937D01*
X214959Y42925D01*
X214967Y42925D01*
X214975Y42923D01*
X215016Y42926D01*
X215056Y42927D01*
X215064Y42930D01*
X215072Y42931D01*
X215109Y42947D01*
X215147Y42961D01*
X215153Y42966D01*
X215161Y42969D01*
X215212Y43010D01*
X216293Y44091D01*
X218698Y45087D01*
X221302Y45087D01*
X223707Y44091D01*
X224788Y43010D01*
X224795Y43005D01*
X224800Y42999D01*
X224834Y42977D01*
X224867Y42953D01*
X224875Y42951D01*
X224881Y42946D01*
X224921Y42937D01*
X224959Y42925D01*
X224967Y42925D01*
X224975Y42923D01*
X225016Y42926D01*
X225056Y42927D01*
X225064Y42930D01*
X225072Y42931D01*
X225109Y42947D01*
X225147Y42961D01*
X225153Y42966D01*
X225161Y42969D01*
X225212Y43010D01*
X226293Y44091D01*
X228698Y45087D01*
X231302Y45087D01*
X233707Y44091D01*
X234788Y43010D01*
X234795Y43005D01*
X234800Y42999D01*
X234834Y42977D01*
X234867Y42953D01*
X234875Y42951D01*
X234881Y42946D01*
X234921Y42937D01*
X234959Y42925D01*
X234967Y42925D01*
X234975Y42923D01*
X235016Y42926D01*
X235056Y42927D01*
X235064Y42930D01*
X235072Y42931D01*
X235109Y42947D01*
X235147Y42961D01*
X235153Y42966D01*
X235161Y42969D01*
X235212Y43010D01*
X236293Y44091D01*
X238698Y45087D01*
X241302Y45087D01*
X243707Y44091D01*
X244788Y43010D01*
X244795Y43005D01*
X244800Y42999D01*
X244834Y42977D01*
X244867Y42953D01*
X244875Y42951D01*
X244881Y42946D01*
X244921Y42937D01*
X244959Y42925D01*
X244967Y42925D01*
X244975Y42923D01*
X245016Y42926D01*
X245056Y42927D01*
X245064Y42930D01*
X245072Y42931D01*
X245109Y42947D01*
X245147Y42961D01*
X245153Y42966D01*
X245161Y42969D01*
X245212Y43010D01*
X246293Y44091D01*
X248698Y45087D01*
X251302Y45087D01*
X253707Y44091D01*
X254788Y43010D01*
X254795Y43005D01*
X254800Y42999D01*
X254834Y42977D01*
X254867Y42953D01*
X254875Y42951D01*
X254881Y42946D01*
X254921Y42937D01*
X254959Y42925D01*
X254967Y42925D01*
X254975Y42923D01*
X255016Y42926D01*
X255056Y42927D01*
X255064Y42930D01*
X255072Y42931D01*
X255109Y42947D01*
X255147Y42961D01*
X255153Y42966D01*
X255161Y42969D01*
X255212Y43010D01*
X256293Y44091D01*
X258698Y45087D01*
X261302Y45087D01*
X263707Y44091D01*
X264520Y43278D01*
X264543Y43262D01*
X264563Y43242D01*
X264582Y43234D01*
X264598Y43222D01*
X264626Y43213D01*
X264651Y43201D01*
X264671Y43199D01*
X264691Y43193D01*
X264719Y43194D01*
X264747Y43191D01*
X264767Y43195D01*
X264788Y43196D01*
X264814Y43205D01*
X264842Y43212D01*
X264859Y43222D01*
X264879Y43229D01*
X264901Y43247D01*
X264925Y43261D01*
X264938Y43277D01*
X264954Y43290D01*
X264969Y43313D01*
X264988Y43335D01*
X264995Y43354D01*
X265006Y43371D01*
X265013Y43398D01*
X265024Y43425D01*
X265027Y43453D01*
X265030Y43465D01*
X265029Y43474D01*
X265031Y43490D01*
X265031Y55318D01*
X265025Y55353D01*
X265022Y55389D01*
X265017Y55401D01*
X265015Y55413D01*
X264998Y55445D01*
X264984Y55478D01*
X264974Y55491D01*
X264970Y55499D01*
X264961Y55507D01*
X264943Y55529D01*
X243029Y77443D01*
X243000Y77464D01*
X242972Y77488D01*
X242961Y77492D01*
X242951Y77500D01*
X242916Y77510D01*
X242883Y77524D01*
X242867Y77525D01*
X242858Y77528D01*
X242846Y77528D01*
X242818Y77531D01*
X116512Y77531D01*
X114685Y78287D01*
X35787Y157185D01*
X35031Y159012D01*
X35031Y162760D01*
X35025Y162796D01*
X35022Y162832D01*
X35017Y162843D01*
X35015Y162856D01*
X34998Y162888D01*
X34984Y162921D01*
X34974Y162933D01*
X34970Y162941D01*
X34961Y162950D01*
X34943Y162972D01*
X34703Y163212D01*
X33751Y165509D01*
X33751Y174491D01*
X34703Y176788D01*
X34943Y177028D01*
X34964Y177058D01*
X34988Y177085D01*
X34992Y177097D01*
X35000Y177107D01*
X35010Y177141D01*
X35024Y177175D01*
X35025Y177191D01*
X35028Y177199D01*
X35028Y177212D01*
X35031Y177240D01*
X35031Y178488D01*
X35787Y180315D01*
X37227Y181755D01*
X40745Y185273D01*
X42185Y186713D01*
X44012Y187469D01*
X123488Y187469D01*
X123635Y187408D01*
X123671Y187400D01*
X123705Y187389D01*
X123718Y187389D01*
X123730Y187386D01*
X123766Y187390D01*
X123802Y187390D01*
X123817Y187395D01*
X123826Y187395D01*
X123837Y187400D01*
X123865Y187408D01*
X124012Y187469D01*
X218488Y187469D01*
X218635Y187408D01*
X218671Y187400D01*
X218705Y187389D01*
X218718Y187389D01*
X218730Y187386D01*
X218766Y187390D01*
X218802Y187390D01*
X218817Y187395D01*
X218826Y187395D01*
X218837Y187400D01*
X218865Y187408D01*
X219012Y187469D01*
X313488Y187469D01*
X313635Y187408D01*
X313671Y187400D01*
X313705Y187389D01*
X313718Y187389D01*
X313730Y187386D01*
X313766Y187390D01*
X313802Y187390D01*
X313817Y187395D01*
X313826Y187395D01*
X313837Y187400D01*
X313865Y187408D01*
X314012Y187469D01*
X408488Y187469D01*
X408635Y187408D01*
X408671Y187400D01*
X408705Y187389D01*
X408718Y187389D01*
X408730Y187386D01*
X408766Y187390D01*
X408802Y187390D01*
X408817Y187395D01*
X408826Y187395D01*
X408837Y187400D01*
X408865Y187408D01*
X409012Y187469D01*
X453488Y187469D01*
X455315Y186713D01*
X464213Y177815D01*
X464969Y175988D01*
X464969Y144012D01*
X464213Y142185D01*
X462773Y140745D01*
X431456Y109428D01*
X431451Y109422D01*
X431445Y109417D01*
X431423Y109383D01*
X431399Y109350D01*
X431397Y109342D01*
X431393Y109335D01*
X431383Y109296D01*
X431371Y109257D01*
X431371Y109249D01*
X431369Y109241D01*
X431372Y109201D01*
X431374Y109160D01*
X431376Y109153D01*
X431377Y109145D01*
X431393Y109108D01*
X431407Y109070D01*
X431412Y109063D01*
X431415Y109056D01*
X431456Y109005D01*
X432365Y108096D01*
X433631Y105040D01*
X433631Y101732D01*
X432365Y98675D01*
X430025Y96336D01*
X426969Y95070D01*
X413031Y95070D01*
X409975Y96336D01*
X407635Y98675D01*
X406369Y101732D01*
X406369Y105040D01*
X407635Y108096D01*
X409975Y110436D01*
X413031Y111702D01*
X419550Y111702D01*
X419586Y111707D01*
X419622Y111710D01*
X419633Y111715D01*
X419645Y111717D01*
X419677Y111734D01*
X419711Y111748D01*
X419723Y111758D01*
X419731Y111762D01*
X419740Y111771D01*
X419762Y111789D01*
X454943Y146971D01*
X454964Y147000D01*
X454988Y147028D01*
X454992Y147039D01*
X455000Y147049D01*
X455010Y147084D01*
X455024Y147117D01*
X455025Y147133D01*
X455028Y147142D01*
X455028Y147154D01*
X455031Y147182D01*
X455031Y172818D01*
X455025Y172853D01*
X455022Y172889D01*
X455017Y172901D01*
X455015Y172913D01*
X454998Y172945D01*
X454984Y172978D01*
X454974Y172991D01*
X454970Y172999D01*
X454961Y173007D01*
X454943Y173029D01*
X454760Y173213D01*
X454737Y173229D01*
X454716Y173249D01*
X454698Y173257D01*
X454681Y173269D01*
X454654Y173278D01*
X454628Y173289D01*
X454608Y173292D01*
X454589Y173298D01*
X454560Y173297D01*
X454532Y173300D01*
X454512Y173296D01*
X454492Y173295D01*
X454465Y173285D01*
X454438Y173279D01*
X454420Y173269D01*
X454401Y173262D01*
X454379Y173244D01*
X454355Y173230D01*
X454341Y173214D01*
X454325Y173201D01*
X454310Y173177D01*
X454292Y173156D01*
X454284Y173137D01*
X454273Y173120D01*
X454266Y173092D01*
X454256Y173066D01*
X454253Y173038D01*
X454250Y173026D01*
X454251Y173017D01*
X454249Y173001D01*
X454249Y170599D01*
X450300Y170599D01*
X450292Y170598D01*
X450284Y170599D01*
X450245Y170590D01*
X450205Y170584D01*
X450197Y170580D01*
X450190Y170578D01*
X450155Y170557D01*
X450119Y170538D01*
X450114Y170532D01*
X450107Y170528D01*
X450080Y170497D01*
X450052Y170468D01*
X450049Y170461D01*
X450044Y170455D01*
X450029Y170417D01*
X450012Y170380D01*
X450011Y170372D01*
X450008Y170365D01*
X450001Y170300D01*
X450001Y169999D01*
X449700Y169999D01*
X449692Y169998D01*
X449684Y169999D01*
X449645Y169990D01*
X449605Y169984D01*
X449597Y169980D01*
X449590Y169978D01*
X449555Y169957D01*
X449519Y169938D01*
X449513Y169932D01*
X449507Y169928D01*
X449480Y169897D01*
X449452Y169868D01*
X449449Y169861D01*
X449444Y169855D01*
X449429Y169817D01*
X449412Y169780D01*
X449411Y169772D01*
X449408Y169765D01*
X449401Y169700D01*
X449401Y162545D01*
X449005Y162608D01*
X448369Y162814D01*
X447773Y163118D01*
X447232Y163511D01*
X446759Y163984D01*
X446358Y164537D01*
X446355Y164544D01*
X446333Y164567D01*
X446314Y164593D01*
X446300Y164602D01*
X446289Y164615D01*
X446261Y164630D01*
X446235Y164649D01*
X446219Y164653D01*
X446204Y164661D01*
X446173Y164667D01*
X446142Y164676D01*
X446125Y164675D01*
X446109Y164678D01*
X446077Y164674D01*
X446045Y164672D01*
X446030Y164667D01*
X446013Y164664D01*
X445985Y164650D01*
X445955Y164638D01*
X445942Y164628D01*
X445927Y164620D01*
X445905Y164597D01*
X445880Y164577D01*
X445871Y164563D01*
X445860Y164551D01*
X445830Y164497D01*
X445829Y164495D01*
X445829Y164494D01*
X445828Y164494D01*
X445297Y163212D01*
X445057Y162972D01*
X445036Y162942D01*
X445012Y162915D01*
X445008Y162903D01*
X445000Y162893D01*
X444990Y162859D01*
X444976Y162825D01*
X444975Y162809D01*
X444972Y162801D01*
X444972Y162788D01*
X444969Y162760D01*
X444969Y149012D01*
X444213Y147185D01*
X427815Y130787D01*
X425988Y130031D01*
X284682Y130031D01*
X284647Y130025D01*
X284611Y130022D01*
X284599Y130017D01*
X284587Y130015D01*
X284555Y129998D01*
X284522Y129984D01*
X284509Y129974D01*
X284501Y129970D01*
X284493Y129961D01*
X284471Y129943D01*
X260126Y105598D01*
X260109Y105575D01*
X260090Y105555D01*
X260081Y105536D01*
X260069Y105520D01*
X260061Y105493D01*
X260049Y105467D01*
X260047Y105447D01*
X260041Y105427D01*
X260042Y105399D01*
X260039Y105371D01*
X260043Y105351D01*
X260043Y105330D01*
X260053Y105304D01*
X260059Y105276D01*
X260070Y105259D01*
X260077Y105240D01*
X260094Y105217D01*
X260109Y105193D01*
X260125Y105180D01*
X260137Y105164D01*
X260161Y105149D01*
X260183Y105130D01*
X260202Y105123D01*
X260219Y105112D01*
X260246Y105105D01*
X260272Y105094D01*
X260301Y105091D01*
X260313Y105088D01*
X260322Y105089D01*
X260337Y105087D01*
X261302Y105087D01*
X263707Y104091D01*
X264788Y103010D01*
X264795Y103005D01*
X264800Y102999D01*
X264834Y102977D01*
X264867Y102953D01*
X264875Y102951D01*
X264881Y102946D01*
X264921Y102937D01*
X264959Y102925D01*
X264967Y102925D01*
X264975Y102923D01*
X265016Y102926D01*
X265056Y102927D01*
X265064Y102930D01*
X265072Y102931D01*
X265109Y102947D01*
X265147Y102961D01*
X265153Y102966D01*
X265161Y102969D01*
X265212Y103010D01*
X266293Y104091D01*
X268698Y105087D01*
X271302Y105087D01*
X273707Y104091D01*
X274788Y103010D01*
X274795Y103005D01*
X274800Y102999D01*
X274834Y102977D01*
X274867Y102953D01*
X274875Y102951D01*
X274881Y102946D01*
X274921Y102937D01*
X274959Y102925D01*
X274967Y102925D01*
X274975Y102923D01*
X275016Y102926D01*
X275056Y102927D01*
X275064Y102930D01*
X275072Y102931D01*
X275109Y102947D01*
X275147Y102961D01*
X275153Y102966D01*
X275161Y102969D01*
X275212Y103010D01*
X276293Y104091D01*
X278698Y105087D01*
X281302Y105087D01*
X283707Y104091D01*
X284788Y103010D01*
X284795Y103005D01*
X284800Y102999D01*
X284834Y102977D01*
X284867Y102953D01*
X284875Y102951D01*
X284881Y102946D01*
X284921Y102937D01*
X284959Y102925D01*
X284967Y102925D01*
X284975Y102923D01*
X285016Y102926D01*
X285056Y102927D01*
X285064Y102930D01*
X285072Y102931D01*
X285109Y102947D01*
X285147Y102961D01*
X285153Y102966D01*
X285161Y102969D01*
X285212Y103010D01*
X286293Y104091D01*
X288698Y105087D01*
X291302Y105087D01*
X293707Y104091D01*
X294788Y103010D01*
X294795Y103005D01*
X294800Y102999D01*
X294834Y102977D01*
X294867Y102953D01*
X294875Y102951D01*
X294881Y102946D01*
X294921Y102937D01*
X294959Y102925D01*
X294967Y102925D01*
X294975Y102923D01*
X295016Y102926D01*
X295056Y102927D01*
X295064Y102930D01*
X295072Y102931D01*
X295109Y102947D01*
X295147Y102961D01*
X295153Y102966D01*
X295161Y102969D01*
X295212Y103010D01*
X296293Y104091D01*
X298698Y105087D01*
X301302Y105087D01*
X303707Y104091D01*
X305548Y102250D01*
X306544Y99845D01*
X306544Y90155D01*
X305548Y87750D01*
X303707Y85909D01*
X301302Y84913D01*
X298698Y84913D01*
X296293Y85909D01*
X295212Y86990D01*
X295205Y86995D01*
X295200Y87001D01*
X295166Y87023D01*
X295133Y87047D01*
X295125Y87049D01*
X295119Y87054D01*
X295079Y87063D01*
X295041Y87075D01*
X295033Y87075D01*
X295025Y87077D01*
X294984Y87074D01*
X294944Y87073D01*
X294936Y87070D01*
X294928Y87069D01*
X294891Y87053D01*
X294853Y87039D01*
X294847Y87034D01*
X294839Y87031D01*
X294788Y86990D01*
X293707Y85909D01*
X291302Y84913D01*
X288698Y84913D01*
X286293Y85909D01*
X285212Y86990D01*
X285205Y86995D01*
X285200Y87001D01*
X285166Y87023D01*
X285133Y87047D01*
X285125Y87049D01*
X285119Y87054D01*
X285079Y87063D01*
X285041Y87075D01*
X285033Y87075D01*
X285025Y87077D01*
X284984Y87074D01*
X284944Y87073D01*
X284936Y87070D01*
X284928Y87069D01*
X284891Y87053D01*
X284853Y87039D01*
X284847Y87034D01*
X284839Y87031D01*
X284788Y86990D01*
X283707Y85909D01*
X281302Y84913D01*
X278698Y84913D01*
X276293Y85909D01*
X275212Y86990D01*
X275205Y86995D01*
X275200Y87001D01*
X275166Y87023D01*
X275133Y87047D01*
X275125Y87049D01*
X275119Y87054D01*
X275079Y87063D01*
X275041Y87075D01*
X275033Y87075D01*
X275025Y87077D01*
X274984Y87074D01*
X274944Y87073D01*
X274936Y87070D01*
X274928Y87069D01*
X274891Y87053D01*
X274853Y87039D01*
X274847Y87034D01*
X274839Y87031D01*
X274788Y86990D01*
X273707Y85909D01*
X271302Y84913D01*
X268698Y84913D01*
X266293Y85909D01*
X265212Y86990D01*
X265205Y86995D01*
X265200Y87001D01*
X265166Y87023D01*
X265133Y87047D01*
X265125Y87049D01*
X265119Y87054D01*
X265079Y87063D01*
X265041Y87075D01*
X265033Y87075D01*
X265025Y87077D01*
X264984Y87074D01*
X264944Y87073D01*
X264936Y87070D01*
X264928Y87069D01*
X264891Y87053D01*
X264853Y87039D01*
X264847Y87034D01*
X264839Y87031D01*
X264788Y86990D01*
X263707Y85909D01*
X261302Y84913D01*
X258698Y84913D01*
X256293Y85909D01*
X255212Y86990D01*
X255205Y86995D01*
X255200Y87001D01*
X255166Y87023D01*
X255133Y87047D01*
X255125Y87049D01*
X255119Y87054D01*
X255079Y87063D01*
X255041Y87075D01*
X255033Y87075D01*
X255025Y87077D01*
X254984Y87074D01*
X254944Y87073D01*
X254936Y87070D01*
X254928Y87069D01*
X254891Y87053D01*
X254853Y87039D01*
X254847Y87034D01*
X254839Y87031D01*
X254788Y86990D01*
X253707Y85909D01*
X251302Y84913D01*
X250337Y84913D01*
X250309Y84908D01*
X250281Y84907D01*
X250262Y84900D01*
X250242Y84897D01*
X250217Y84884D01*
X250190Y84874D01*
X250174Y84861D01*
X250156Y84852D01*
X250137Y84831D01*
X250115Y84813D01*
X250104Y84796D01*
X250090Y84781D01*
X250078Y84756D01*
X250063Y84732D01*
X250058Y84712D01*
X250049Y84694D01*
X250046Y84666D01*
X250039Y84638D01*
X250041Y84618D01*
X250039Y84598D01*
X250045Y84570D01*
X250047Y84542D01*
X250055Y84523D01*
X250059Y84503D01*
X250074Y84479D01*
X250085Y84453D01*
X250103Y84431D01*
X250109Y84420D01*
X250116Y84414D01*
X250126Y84402D01*
X272773Y61755D01*
X274213Y60315D01*
X274969Y58488D01*
X274969Y43490D01*
X274974Y43462D01*
X274975Y43433D01*
X274982Y43414D01*
X274985Y43394D01*
X274998Y43369D01*
X275008Y43343D01*
X275021Y43327D01*
X275030Y43309D01*
X275051Y43289D01*
X275068Y43267D01*
X275086Y43256D01*
X275100Y43242D01*
X275126Y43230D01*
X275150Y43215D01*
X275170Y43210D01*
X275188Y43201D01*
X275216Y43198D01*
X275244Y43191D01*
X275264Y43193D01*
X275284Y43191D01*
X275312Y43197D01*
X275340Y43199D01*
X275359Y43207D01*
X275379Y43212D01*
X275403Y43226D01*
X275429Y43237D01*
X275451Y43255D01*
X275462Y43261D01*
X275468Y43268D01*
X275480Y43278D01*
X276293Y44091D01*
X278698Y45087D01*
X281302Y45087D01*
X283707Y44091D01*
X285548Y42250D01*
X285898Y41404D01*
X285920Y41369D01*
X285940Y41332D01*
X285946Y41328D01*
X285949Y41322D01*
X285981Y41295D01*
X286012Y41267D01*
X286018Y41264D01*
X286024Y41260D01*
X286063Y41245D01*
X286101Y41228D01*
X286108Y41228D01*
X286114Y41225D01*
X286156Y41224D01*
X286197Y41220D01*
X286204Y41222D01*
X286211Y41221D01*
X286251Y41233D01*
X286291Y41243D01*
X286297Y41246D01*
X286304Y41248D01*
X286338Y41272D01*
X286373Y41294D01*
X286379Y41301D01*
X286383Y41304D01*
X286390Y41313D01*
X286417Y41342D01*
X286534Y41504D01*
X287040Y42009D01*
X287618Y42430D01*
X288256Y42754D01*
X288936Y42975D01*
X289401Y43049D01*
X289401Y35300D01*
X289402Y35292D01*
X289401Y35284D01*
X289410Y35245D01*
X289416Y35205D01*
X289420Y35197D01*
X289422Y35190D01*
X289443Y35155D01*
X289462Y35119D01*
X289468Y35114D01*
X289472Y35107D01*
X289503Y35080D01*
X289532Y35052D01*
X289539Y35049D01*
X289545Y35044D01*
X289583Y35029D01*
X289620Y35012D01*
X289628Y35011D01*
X289635Y35008D01*
X289700Y35001D01*
X290300Y35001D01*
X290308Y35002D01*
X290316Y35001D01*
X290356Y35010D01*
X290395Y35016D01*
X290403Y35020D01*
X290410Y35022D01*
X290445Y35043D01*
X290481Y35062D01*
X290486Y35068D01*
X290493Y35072D01*
X290520Y35103D01*
X290548Y35132D01*
X290551Y35139D01*
X290556Y35145D01*
X290571Y35183D01*
X290588Y35220D01*
X290589Y35228D01*
X290592Y35235D01*
X290599Y35300D01*
X290599Y43049D01*
X291064Y42975D01*
X291744Y42754D01*
X292382Y42430D01*
X292960Y42009D01*
X293466Y41504D01*
X293583Y41342D01*
X293613Y41313D01*
X293641Y41283D01*
X293647Y41279D01*
X293652Y41274D01*
X293689Y41256D01*
X293725Y41236D01*
X293732Y41235D01*
X293739Y41232D01*
X293780Y41226D01*
X293821Y41219D01*
X293828Y41220D01*
X293835Y41219D01*
X293875Y41227D01*
X293916Y41233D01*
X293923Y41237D01*
X293930Y41238D01*
X293966Y41258D01*
X294003Y41277D01*
X294008Y41282D01*
X294014Y41286D01*
X294041Y41317D01*
X294070Y41347D01*
X294074Y41354D01*
X294078Y41358D01*
X294083Y41369D01*
X294102Y41404D01*
X294452Y42250D01*
X296293Y44091D01*
X298698Y45087D01*
X301302Y45087D01*
X303707Y44091D01*
X305548Y42250D01*
X306544Y39845D01*
X306544Y30155D01*
X305603Y27883D01*
X305599Y27865D01*
X305591Y27849D01*
X305588Y27818D01*
X305581Y27789D01*
X305583Y27771D01*
X305581Y27753D01*
X305587Y27723D01*
X305590Y27692D01*
X305597Y27676D01*
X305601Y27658D01*
X305617Y27632D01*
X305629Y27604D01*
X305642Y27591D01*
X305651Y27575D01*
X305674Y27555D01*
X305695Y27533D01*
X305711Y27524D01*
X305725Y27512D01*
X305753Y27501D01*
X305780Y27486D01*
X305798Y27483D01*
X305815Y27476D01*
X305868Y27470D01*
X305875Y27469D01*
X305877Y27470D01*
X305879Y27469D01*
X362818Y27469D01*
X362853Y27475D01*
X362889Y27478D01*
X362901Y27483D01*
X362913Y27485D01*
X362945Y27502D01*
X362978Y27516D01*
X362991Y27526D01*
X362999Y27530D01*
X363007Y27539D01*
X363029Y27557D01*
X406282Y70809D01*
X406303Y70839D01*
X406326Y70866D01*
X406331Y70878D01*
X406338Y70888D01*
X406349Y70922D01*
X406362Y70956D01*
X406364Y70972D01*
X406367Y70980D01*
X406366Y70993D01*
X406369Y71021D01*
X406369Y73859D01*
X407635Y76915D01*
X409975Y79254D01*
X413031Y80520D01*
X426969Y80520D01*
X430025Y79254D01*
X432365Y76915D01*
X433631Y73859D01*
X433631Y70551D01*
X432365Y67494D01*
X430025Y65155D01*
X428893Y64686D01*
X428869Y64671D01*
X428843Y64659D01*
X428828Y64646D01*
X428811Y64635D01*
X428793Y64613D01*
X428772Y64594D01*
X428762Y64576D01*
X428749Y64560D01*
X428739Y64534D01*
X428725Y64509D01*
X428722Y64489D01*
X428714Y64470D01*
X428713Y64442D01*
X428708Y64414D01*
X428711Y64394D01*
X428710Y64373D01*
X428718Y64346D01*
X428722Y64318D01*
X428732Y64300D01*
X428737Y64280D01*
X428754Y64257D01*
X428766Y64232D01*
X428781Y64218D01*
X428793Y64201D01*
X428815Y64184D01*
X428836Y64164D01*
X428860Y64151D01*
X428870Y64143D01*
X428879Y64141D01*
X428893Y64133D01*
X430025Y63664D01*
X432365Y61325D01*
X433631Y58268D01*
X433631Y54960D01*
X432365Y51904D01*
X430025Y49564D01*
X426969Y48298D01*
X420450Y48298D01*
X420414Y48293D01*
X420378Y48290D01*
X420367Y48285D01*
X420355Y48283D01*
X420323Y48266D01*
X420289Y48252D01*
X420277Y48242D01*
X420269Y48238D01*
X420260Y48228D01*
X420238Y48211D01*
X382815Y10787D01*
X380988Y10031D01*
X239012Y10031D01*
G37*
%LPD*%
%LPC*%
G36*
X313757Y260503D02*
X313757Y260503D01*
X311460Y261455D01*
X309703Y263212D01*
X308751Y265509D01*
X308751Y274491D01*
X309703Y276788D01*
X311460Y278545D01*
X313757Y279497D01*
X316243Y279497D01*
X318540Y278545D01*
X319788Y277297D01*
X319795Y277292D01*
X319800Y277286D01*
X319834Y277264D01*
X319867Y277240D01*
X319875Y277238D01*
X319881Y277234D01*
X319921Y277224D01*
X319959Y277212D01*
X319967Y277212D01*
X319975Y277210D01*
X320016Y277213D01*
X320056Y277214D01*
X320064Y277217D01*
X320072Y277218D01*
X320109Y277234D01*
X320147Y277248D01*
X320153Y277253D01*
X320161Y277256D01*
X320212Y277297D01*
X321460Y278545D01*
X323757Y279497D01*
X326243Y279497D01*
X328540Y278545D01*
X329520Y277565D01*
X329543Y277549D01*
X329563Y277529D01*
X329582Y277521D01*
X329598Y277509D01*
X329626Y277500D01*
X329651Y277489D01*
X329671Y277486D01*
X329691Y277480D01*
X329719Y277481D01*
X329747Y277478D01*
X329767Y277482D01*
X329788Y277483D01*
X329814Y277493D01*
X329842Y277499D01*
X329859Y277509D01*
X329879Y277516D01*
X329901Y277534D01*
X329925Y277548D01*
X329938Y277564D01*
X329954Y277577D01*
X329969Y277601D01*
X329988Y277622D01*
X329995Y277641D01*
X330006Y277658D01*
X330013Y277686D01*
X330024Y277712D01*
X330027Y277740D01*
X330030Y277752D01*
X330029Y277761D01*
X330031Y277777D01*
X330031Y287818D01*
X330025Y287853D01*
X330022Y287889D01*
X330017Y287901D01*
X330015Y287913D01*
X329998Y287945D01*
X329984Y287978D01*
X329974Y287991D01*
X329970Y287999D01*
X329961Y288007D01*
X329943Y288029D01*
X311691Y306282D01*
X311661Y306303D01*
X311634Y306326D01*
X311622Y306331D01*
X311612Y306338D01*
X311578Y306349D01*
X311544Y306362D01*
X311528Y306364D01*
X311520Y306367D01*
X311507Y306366D01*
X311479Y306369D01*
X309960Y306369D01*
X306904Y307635D01*
X304564Y309975D01*
X303298Y313031D01*
X303298Y326969D01*
X304564Y330025D01*
X306904Y332365D01*
X309960Y333631D01*
X313268Y333631D01*
X316325Y332365D01*
X318664Y330025D01*
X319133Y328893D01*
X319148Y328869D01*
X319159Y328843D01*
X319173Y328828D01*
X319184Y328811D01*
X319206Y328793D01*
X319225Y328772D01*
X319243Y328762D01*
X319259Y328749D01*
X319285Y328739D01*
X319310Y328725D01*
X319330Y328722D01*
X319349Y328714D01*
X319377Y328713D01*
X319405Y328708D01*
X319425Y328711D01*
X319446Y328710D01*
X319473Y328718D01*
X319501Y328722D01*
X319519Y328732D01*
X319538Y328737D01*
X319562Y328754D01*
X319587Y328766D01*
X319601Y328781D01*
X319618Y328793D01*
X319635Y328815D01*
X319655Y328836D01*
X319668Y328860D01*
X319676Y328870D01*
X319678Y328879D01*
X319686Y328893D01*
X320155Y330025D01*
X322494Y332365D01*
X325551Y333631D01*
X328859Y333631D01*
X331915Y332365D01*
X334254Y330025D01*
X334724Y328893D01*
X334738Y328869D01*
X334750Y328843D01*
X334764Y328828D01*
X334775Y328811D01*
X334796Y328793D01*
X334815Y328772D01*
X334833Y328762D01*
X334849Y328749D01*
X334875Y328739D01*
X334900Y328725D01*
X334920Y328722D01*
X334939Y328714D01*
X334968Y328713D01*
X334996Y328708D01*
X335016Y328711D01*
X335036Y328710D01*
X335063Y328718D01*
X335091Y328722D01*
X335109Y328732D01*
X335129Y328737D01*
X335152Y328754D01*
X335177Y328766D01*
X335192Y328781D01*
X335208Y328793D01*
X335225Y328815D01*
X335245Y328836D01*
X335259Y328860D01*
X335266Y328870D01*
X335269Y328879D01*
X335276Y328893D01*
X335746Y330025D01*
X338085Y332365D01*
X341141Y333631D01*
X344449Y333631D01*
X347506Y332365D01*
X349845Y330025D01*
X350314Y328893D01*
X350329Y328869D01*
X350340Y328843D01*
X350354Y328828D01*
X350365Y328811D01*
X350387Y328793D01*
X350406Y328772D01*
X350424Y328762D01*
X350440Y328749D01*
X350466Y328739D01*
X350491Y328725D01*
X350511Y328722D01*
X350530Y328714D01*
X350558Y328713D01*
X350586Y328708D01*
X350606Y328711D01*
X350627Y328710D01*
X350654Y328718D01*
X350682Y328722D01*
X350700Y328732D01*
X350720Y328737D01*
X350743Y328754D01*
X350768Y328766D01*
X350782Y328781D01*
X350799Y328793D01*
X350816Y328815D01*
X350836Y328836D01*
X350849Y328860D01*
X350857Y328870D01*
X350859Y328879D01*
X350867Y328893D01*
X351336Y330025D01*
X353675Y332365D01*
X356732Y333631D01*
X360040Y333631D01*
X363096Y332365D01*
X365436Y330025D01*
X366702Y326969D01*
X366702Y324874D01*
X366709Y324829D01*
X366716Y324783D01*
X366717Y324781D01*
X366717Y324778D01*
X366739Y324738D01*
X366760Y324696D01*
X366761Y324695D01*
X366762Y324693D01*
X366796Y324661D01*
X366829Y324629D01*
X366831Y324627D01*
X366833Y324626D01*
X366839Y324623D01*
X366886Y324597D01*
X367815Y324213D01*
X369213Y322815D01*
X369969Y320988D01*
X369969Y277240D01*
X369975Y277204D01*
X369978Y277168D01*
X369983Y277157D01*
X369985Y277144D01*
X370002Y277112D01*
X370016Y277079D01*
X370026Y277067D01*
X370030Y277059D01*
X370039Y277050D01*
X370057Y277028D01*
X370297Y276788D01*
X371249Y274491D01*
X371249Y265509D01*
X370297Y263212D01*
X368540Y261455D01*
X366243Y260503D01*
X363757Y260503D01*
X361460Y261455D01*
X360212Y262703D01*
X360205Y262708D01*
X360200Y262714D01*
X360166Y262736D01*
X360133Y262760D01*
X360125Y262762D01*
X360119Y262766D01*
X360079Y262776D01*
X360041Y262788D01*
X360033Y262788D01*
X360025Y262790D01*
X359984Y262787D01*
X359944Y262786D01*
X359936Y262783D01*
X359928Y262782D01*
X359891Y262766D01*
X359853Y262752D01*
X359847Y262747D01*
X359839Y262744D01*
X359788Y262703D01*
X358540Y261455D01*
X356243Y260503D01*
X353757Y260503D01*
X351460Y261455D01*
X350212Y262703D01*
X350205Y262708D01*
X350200Y262714D01*
X350166Y262736D01*
X350133Y262760D01*
X350125Y262762D01*
X350119Y262766D01*
X350079Y262776D01*
X350041Y262788D01*
X350033Y262788D01*
X350025Y262790D01*
X349984Y262787D01*
X349944Y262786D01*
X349936Y262783D01*
X349928Y262782D01*
X349891Y262766D01*
X349853Y262752D01*
X349847Y262747D01*
X349839Y262744D01*
X349788Y262703D01*
X348540Y261455D01*
X346243Y260503D01*
X343757Y260503D01*
X341460Y261455D01*
X340212Y262703D01*
X340205Y262708D01*
X340200Y262714D01*
X340166Y262736D01*
X340133Y262760D01*
X340125Y262762D01*
X340119Y262766D01*
X340079Y262776D01*
X340041Y262788D01*
X340033Y262788D01*
X340025Y262790D01*
X339984Y262787D01*
X339944Y262786D01*
X339936Y262783D01*
X339928Y262782D01*
X339891Y262766D01*
X339853Y262752D01*
X339847Y262747D01*
X339839Y262744D01*
X339788Y262703D01*
X338540Y261455D01*
X336243Y260503D01*
X333757Y260503D01*
X331460Y261455D01*
X330212Y262703D01*
X330205Y262708D01*
X330200Y262714D01*
X330166Y262736D01*
X330133Y262760D01*
X330125Y262762D01*
X330119Y262766D01*
X330079Y262776D01*
X330041Y262788D01*
X330033Y262788D01*
X330025Y262790D01*
X329984Y262787D01*
X329944Y262786D01*
X329936Y262783D01*
X329928Y262782D01*
X329891Y262766D01*
X329853Y262752D01*
X329847Y262747D01*
X329839Y262744D01*
X329788Y262703D01*
X328540Y261455D01*
X326243Y260503D01*
X323757Y260503D01*
X321460Y261455D01*
X320212Y262703D01*
X320205Y262708D01*
X320200Y262714D01*
X320166Y262736D01*
X320133Y262760D01*
X320125Y262762D01*
X320119Y262766D01*
X320079Y262776D01*
X320041Y262788D01*
X320033Y262788D01*
X320025Y262790D01*
X319984Y262787D01*
X319944Y262786D01*
X319936Y262783D01*
X319928Y262782D01*
X319891Y262766D01*
X319853Y262752D01*
X319847Y262747D01*
X319839Y262744D01*
X319788Y262703D01*
X318540Y261455D01*
X316243Y260503D01*
X313757Y260503D01*
G37*
%LPD*%
%LPC*%
G36*
X218757Y260503D02*
X218757Y260503D01*
X216460Y261455D01*
X214703Y263212D01*
X213751Y265509D01*
X213751Y274491D01*
X214703Y276788D01*
X216460Y278545D01*
X218757Y279497D01*
X221243Y279497D01*
X223540Y278545D01*
X224788Y277297D01*
X224795Y277292D01*
X224800Y277286D01*
X224834Y277264D01*
X224867Y277240D01*
X224875Y277238D01*
X224881Y277234D01*
X224921Y277224D01*
X224959Y277212D01*
X224967Y277212D01*
X224975Y277210D01*
X225016Y277213D01*
X225056Y277214D01*
X225064Y277217D01*
X225072Y277218D01*
X225109Y277234D01*
X225147Y277248D01*
X225153Y277253D01*
X225161Y277256D01*
X225212Y277297D01*
X226460Y278545D01*
X228757Y279497D01*
X231243Y279497D01*
X233540Y278545D01*
X234520Y277565D01*
X234543Y277549D01*
X234563Y277529D01*
X234582Y277521D01*
X234598Y277509D01*
X234626Y277500D01*
X234651Y277489D01*
X234671Y277486D01*
X234691Y277480D01*
X234719Y277481D01*
X234747Y277478D01*
X234767Y277482D01*
X234788Y277483D01*
X234814Y277493D01*
X234842Y277499D01*
X234859Y277509D01*
X234879Y277516D01*
X234901Y277534D01*
X234925Y277548D01*
X234938Y277564D01*
X234954Y277577D01*
X234969Y277601D01*
X234988Y277622D01*
X234995Y277641D01*
X235006Y277658D01*
X235013Y277686D01*
X235024Y277712D01*
X235027Y277740D01*
X235030Y277752D01*
X235029Y277761D01*
X235031Y277777D01*
X235031Y292818D01*
X235025Y292853D01*
X235022Y292889D01*
X235017Y292901D01*
X235015Y292913D01*
X234998Y292945D01*
X234984Y292978D01*
X234974Y292991D01*
X234970Y292999D01*
X234961Y293007D01*
X234943Y293029D01*
X221691Y306282D01*
X221661Y306303D01*
X221634Y306326D01*
X221622Y306331D01*
X221612Y306338D01*
X221578Y306349D01*
X221544Y306362D01*
X221528Y306364D01*
X221520Y306367D01*
X221507Y306366D01*
X221479Y306369D01*
X219960Y306369D01*
X216904Y307635D01*
X214564Y309975D01*
X213298Y313031D01*
X213298Y326969D01*
X214564Y330025D01*
X216904Y332365D01*
X219960Y333631D01*
X223268Y333631D01*
X226325Y332365D01*
X228664Y330025D01*
X229133Y328893D01*
X229148Y328869D01*
X229159Y328843D01*
X229173Y328828D01*
X229184Y328811D01*
X229206Y328793D01*
X229225Y328772D01*
X229243Y328762D01*
X229259Y328749D01*
X229285Y328739D01*
X229310Y328725D01*
X229330Y328722D01*
X229349Y328714D01*
X229377Y328713D01*
X229405Y328708D01*
X229425Y328711D01*
X229446Y328710D01*
X229473Y328718D01*
X229501Y328722D01*
X229519Y328732D01*
X229538Y328737D01*
X229562Y328754D01*
X229587Y328766D01*
X229601Y328781D01*
X229618Y328793D01*
X229635Y328816D01*
X229654Y328836D01*
X229668Y328860D01*
X229676Y328870D01*
X229678Y328879D01*
X229686Y328893D01*
X230155Y330025D01*
X232494Y332365D01*
X235551Y333631D01*
X238859Y333631D01*
X241915Y332365D01*
X244254Y330025D01*
X244724Y328893D01*
X244738Y328869D01*
X244750Y328843D01*
X244764Y328828D01*
X244775Y328811D01*
X244796Y328793D01*
X244815Y328772D01*
X244833Y328762D01*
X244849Y328749D01*
X244875Y328739D01*
X244900Y328725D01*
X244920Y328722D01*
X244939Y328714D01*
X244968Y328713D01*
X244996Y328708D01*
X245016Y328711D01*
X245036Y328710D01*
X245063Y328718D01*
X245091Y328722D01*
X245109Y328732D01*
X245129Y328737D01*
X245152Y328754D01*
X245177Y328766D01*
X245192Y328781D01*
X245208Y328793D01*
X245225Y328816D01*
X245245Y328836D01*
X245259Y328860D01*
X245266Y328870D01*
X245269Y328879D01*
X245276Y328893D01*
X245746Y330025D01*
X248085Y332365D01*
X251141Y333631D01*
X254449Y333631D01*
X257506Y332365D01*
X259845Y330025D01*
X260314Y328893D01*
X260329Y328869D01*
X260340Y328843D01*
X260354Y328828D01*
X260365Y328811D01*
X260387Y328793D01*
X260406Y328772D01*
X260424Y328762D01*
X260440Y328749D01*
X260466Y328739D01*
X260491Y328725D01*
X260511Y328722D01*
X260530Y328714D01*
X260558Y328713D01*
X260586Y328708D01*
X260606Y328711D01*
X260627Y328710D01*
X260654Y328718D01*
X260682Y328722D01*
X260700Y328732D01*
X260720Y328737D01*
X260743Y328754D01*
X260768Y328766D01*
X260782Y328781D01*
X260799Y328793D01*
X260816Y328816D01*
X260836Y328836D01*
X260849Y328860D01*
X260857Y328870D01*
X260859Y328879D01*
X260867Y328893D01*
X261336Y330025D01*
X263675Y332365D01*
X266732Y333631D01*
X270040Y333631D01*
X273096Y332365D01*
X275436Y330025D01*
X276702Y326969D01*
X276702Y313031D01*
X275436Y309975D01*
X275057Y309596D01*
X275036Y309567D01*
X275012Y309539D01*
X275008Y309527D01*
X275000Y309517D01*
X274990Y309483D01*
X274976Y309449D01*
X274975Y309433D01*
X274972Y309425D01*
X274972Y309412D01*
X274969Y309384D01*
X274969Y277240D01*
X274975Y277204D01*
X274978Y277168D01*
X274983Y277157D01*
X274985Y277144D01*
X275002Y277112D01*
X275016Y277079D01*
X275026Y277067D01*
X275030Y277059D01*
X275039Y277050D01*
X275057Y277028D01*
X275297Y276788D01*
X276249Y274491D01*
X276249Y265509D01*
X275297Y263212D01*
X273540Y261455D01*
X271243Y260503D01*
X268757Y260503D01*
X266460Y261455D01*
X265212Y262703D01*
X265205Y262708D01*
X265200Y262714D01*
X265166Y262736D01*
X265133Y262760D01*
X265125Y262762D01*
X265119Y262766D01*
X265079Y262776D01*
X265041Y262788D01*
X265033Y262788D01*
X265025Y262790D01*
X264984Y262787D01*
X264944Y262786D01*
X264936Y262783D01*
X264928Y262782D01*
X264891Y262766D01*
X264853Y262752D01*
X264847Y262747D01*
X264839Y262744D01*
X264788Y262703D01*
X263540Y261455D01*
X261243Y260503D01*
X258757Y260503D01*
X256460Y261455D01*
X255212Y262703D01*
X255205Y262708D01*
X255200Y262714D01*
X255166Y262736D01*
X255133Y262760D01*
X255125Y262762D01*
X255119Y262766D01*
X255079Y262776D01*
X255041Y262788D01*
X255033Y262788D01*
X255025Y262790D01*
X254984Y262787D01*
X254944Y262786D01*
X254936Y262783D01*
X254928Y262782D01*
X254891Y262766D01*
X254853Y262752D01*
X254847Y262747D01*
X254839Y262744D01*
X254788Y262703D01*
X253540Y261455D01*
X251243Y260503D01*
X248757Y260503D01*
X246460Y261455D01*
X245212Y262703D01*
X245205Y262708D01*
X245200Y262714D01*
X245166Y262736D01*
X245133Y262760D01*
X245125Y262762D01*
X245119Y262766D01*
X245079Y262776D01*
X245041Y262788D01*
X245033Y262788D01*
X245025Y262790D01*
X244984Y262787D01*
X244944Y262786D01*
X244936Y262783D01*
X244928Y262782D01*
X244891Y262766D01*
X244853Y262752D01*
X244847Y262747D01*
X244839Y262744D01*
X244788Y262703D01*
X243540Y261455D01*
X241243Y260503D01*
X238757Y260503D01*
X236460Y261455D01*
X235212Y262703D01*
X235205Y262708D01*
X235200Y262714D01*
X235166Y262736D01*
X235133Y262760D01*
X235125Y262762D01*
X235119Y262766D01*
X235079Y262776D01*
X235041Y262788D01*
X235033Y262788D01*
X235025Y262790D01*
X234984Y262787D01*
X234944Y262786D01*
X234936Y262783D01*
X234928Y262782D01*
X234891Y262766D01*
X234853Y262752D01*
X234847Y262747D01*
X234839Y262744D01*
X234788Y262703D01*
X233540Y261455D01*
X231243Y260503D01*
X228757Y260503D01*
X226460Y261455D01*
X225212Y262703D01*
X225205Y262708D01*
X225200Y262714D01*
X225166Y262736D01*
X225133Y262760D01*
X225125Y262762D01*
X225119Y262766D01*
X225079Y262776D01*
X225041Y262788D01*
X225033Y262788D01*
X225025Y262790D01*
X224984Y262787D01*
X224944Y262786D01*
X224936Y262783D01*
X224928Y262782D01*
X224891Y262766D01*
X224853Y262752D01*
X224847Y262747D01*
X224839Y262744D01*
X224788Y262703D01*
X223540Y261455D01*
X221243Y260503D01*
X218757Y260503D01*
G37*
%LPD*%
%LPC*%
G36*
X408757Y260503D02*
X408757Y260503D01*
X406460Y261455D01*
X404703Y263212D01*
X403751Y265509D01*
X403751Y274491D01*
X404703Y276788D01*
X406460Y278545D01*
X408757Y279497D01*
X411243Y279497D01*
X413540Y278545D01*
X414788Y277297D01*
X414795Y277292D01*
X414800Y277286D01*
X414834Y277264D01*
X414867Y277240D01*
X414875Y277238D01*
X414881Y277234D01*
X414921Y277224D01*
X414959Y277212D01*
X414967Y277212D01*
X414975Y277210D01*
X415016Y277213D01*
X415056Y277214D01*
X415064Y277217D01*
X415072Y277218D01*
X415109Y277234D01*
X415147Y277248D01*
X415153Y277253D01*
X415161Y277256D01*
X415212Y277297D01*
X416460Y278545D01*
X418757Y279497D01*
X421243Y279497D01*
X423540Y278545D01*
X424520Y277565D01*
X424543Y277549D01*
X424563Y277529D01*
X424582Y277521D01*
X424598Y277509D01*
X424626Y277500D01*
X424651Y277489D01*
X424671Y277486D01*
X424691Y277480D01*
X424719Y277481D01*
X424747Y277478D01*
X424767Y277482D01*
X424788Y277483D01*
X424814Y277493D01*
X424842Y277499D01*
X424859Y277509D01*
X424879Y277516D01*
X424901Y277534D01*
X424925Y277548D01*
X424938Y277564D01*
X424954Y277577D01*
X424969Y277601D01*
X424988Y277622D01*
X424995Y277641D01*
X425006Y277658D01*
X425013Y277686D01*
X425024Y277712D01*
X425027Y277740D01*
X425030Y277752D01*
X425029Y277761D01*
X425031Y277777D01*
X425031Y292818D01*
X425025Y292853D01*
X425022Y292889D01*
X425017Y292901D01*
X425015Y292913D01*
X424998Y292945D01*
X424984Y292978D01*
X424974Y292991D01*
X424970Y292999D01*
X424961Y293007D01*
X424943Y293029D01*
X411691Y306282D01*
X411661Y306303D01*
X411634Y306326D01*
X411622Y306331D01*
X411612Y306338D01*
X411578Y306349D01*
X411544Y306362D01*
X411528Y306364D01*
X411520Y306367D01*
X411507Y306366D01*
X411479Y306369D01*
X409960Y306369D01*
X406904Y307635D01*
X404564Y309975D01*
X403298Y313031D01*
X403298Y326969D01*
X404564Y330025D01*
X406904Y332365D01*
X409960Y333631D01*
X413268Y333631D01*
X416325Y332365D01*
X418664Y330025D01*
X419133Y328893D01*
X419148Y328869D01*
X419159Y328843D01*
X419173Y328828D01*
X419184Y328811D01*
X419206Y328793D01*
X419225Y328772D01*
X419243Y328762D01*
X419259Y328749D01*
X419285Y328739D01*
X419310Y328725D01*
X419330Y328722D01*
X419349Y328714D01*
X419377Y328713D01*
X419405Y328708D01*
X419425Y328711D01*
X419446Y328710D01*
X419473Y328718D01*
X419501Y328722D01*
X419519Y328732D01*
X419538Y328737D01*
X419562Y328754D01*
X419587Y328766D01*
X419601Y328781D01*
X419618Y328793D01*
X419635Y328815D01*
X419654Y328836D01*
X419668Y328860D01*
X419676Y328870D01*
X419678Y328879D01*
X419686Y328893D01*
X420155Y330025D01*
X422494Y332365D01*
X425551Y333631D01*
X428859Y333631D01*
X431915Y332365D01*
X434254Y330025D01*
X434724Y328893D01*
X434738Y328869D01*
X434750Y328843D01*
X434764Y328828D01*
X434775Y328811D01*
X434796Y328793D01*
X434815Y328772D01*
X434833Y328762D01*
X434849Y328749D01*
X434875Y328739D01*
X434900Y328725D01*
X434920Y328722D01*
X434939Y328714D01*
X434968Y328713D01*
X434996Y328708D01*
X435016Y328711D01*
X435036Y328710D01*
X435063Y328718D01*
X435091Y328722D01*
X435109Y328732D01*
X435129Y328737D01*
X435152Y328754D01*
X435177Y328766D01*
X435192Y328781D01*
X435208Y328793D01*
X435225Y328815D01*
X435245Y328836D01*
X435259Y328860D01*
X435266Y328870D01*
X435269Y328879D01*
X435276Y328893D01*
X435746Y330025D01*
X438085Y332365D01*
X441141Y333631D01*
X444449Y333631D01*
X447506Y332365D01*
X449845Y330025D01*
X450314Y328893D01*
X450329Y328869D01*
X450340Y328843D01*
X450354Y328828D01*
X450365Y328811D01*
X450387Y328793D01*
X450406Y328772D01*
X450424Y328762D01*
X450440Y328749D01*
X450466Y328739D01*
X450491Y328725D01*
X450511Y328722D01*
X450530Y328714D01*
X450558Y328713D01*
X450586Y328708D01*
X450606Y328711D01*
X450627Y328710D01*
X450654Y328718D01*
X450682Y328722D01*
X450700Y328732D01*
X450720Y328737D01*
X450743Y328754D01*
X450768Y328766D01*
X450782Y328781D01*
X450799Y328793D01*
X450816Y328815D01*
X450836Y328836D01*
X450849Y328860D01*
X450857Y328870D01*
X450859Y328879D01*
X450867Y328893D01*
X451336Y330025D01*
X453675Y332365D01*
X456732Y333631D01*
X460040Y333631D01*
X463096Y332365D01*
X465436Y330025D01*
X466702Y326969D01*
X466702Y313031D01*
X465436Y309975D01*
X465057Y309596D01*
X465036Y309567D01*
X465012Y309539D01*
X465008Y309527D01*
X465000Y309517D01*
X464990Y309483D01*
X464976Y309449D01*
X464975Y309433D01*
X464972Y309425D01*
X464972Y309412D01*
X464969Y309384D01*
X464969Y277240D01*
X464975Y277204D01*
X464978Y277168D01*
X464983Y277157D01*
X464985Y277144D01*
X465002Y277112D01*
X465016Y277079D01*
X465026Y277067D01*
X465030Y277059D01*
X465039Y277050D01*
X465057Y277028D01*
X465297Y276788D01*
X466249Y274491D01*
X466249Y265509D01*
X465297Y263212D01*
X463540Y261455D01*
X461243Y260503D01*
X458757Y260503D01*
X456460Y261455D01*
X455212Y262703D01*
X455205Y262708D01*
X455200Y262714D01*
X455166Y262736D01*
X455133Y262760D01*
X455125Y262762D01*
X455119Y262766D01*
X455079Y262776D01*
X455041Y262788D01*
X455033Y262788D01*
X455025Y262790D01*
X454984Y262787D01*
X454944Y262786D01*
X454936Y262783D01*
X454928Y262782D01*
X454891Y262766D01*
X454853Y262752D01*
X454847Y262747D01*
X454839Y262744D01*
X454788Y262703D01*
X453540Y261455D01*
X451243Y260503D01*
X448757Y260503D01*
X446460Y261455D01*
X445212Y262703D01*
X445205Y262708D01*
X445200Y262714D01*
X445166Y262736D01*
X445133Y262760D01*
X445125Y262762D01*
X445119Y262766D01*
X445079Y262776D01*
X445041Y262788D01*
X445033Y262788D01*
X445025Y262790D01*
X444984Y262787D01*
X444944Y262786D01*
X444936Y262783D01*
X444928Y262782D01*
X444891Y262766D01*
X444853Y262752D01*
X444847Y262747D01*
X444839Y262744D01*
X444788Y262703D01*
X443540Y261455D01*
X441243Y260503D01*
X438757Y260503D01*
X436460Y261455D01*
X435212Y262703D01*
X435205Y262708D01*
X435200Y262714D01*
X435166Y262736D01*
X435133Y262760D01*
X435125Y262762D01*
X435119Y262766D01*
X435079Y262776D01*
X435041Y262788D01*
X435033Y262788D01*
X435025Y262790D01*
X434984Y262787D01*
X434944Y262786D01*
X434936Y262783D01*
X434928Y262782D01*
X434891Y262766D01*
X434853Y262752D01*
X434847Y262747D01*
X434839Y262744D01*
X434788Y262703D01*
X433540Y261455D01*
X431243Y260503D01*
X428757Y260503D01*
X426460Y261455D01*
X425212Y262703D01*
X425205Y262708D01*
X425200Y262714D01*
X425166Y262736D01*
X425133Y262760D01*
X425125Y262762D01*
X425119Y262766D01*
X425079Y262776D01*
X425041Y262788D01*
X425033Y262788D01*
X425025Y262790D01*
X424984Y262787D01*
X424944Y262786D01*
X424936Y262783D01*
X424928Y262782D01*
X424891Y262766D01*
X424853Y262752D01*
X424847Y262747D01*
X424839Y262744D01*
X424788Y262703D01*
X423540Y261455D01*
X421243Y260503D01*
X418757Y260503D01*
X416460Y261455D01*
X415212Y262703D01*
X415205Y262708D01*
X415200Y262714D01*
X415166Y262736D01*
X415133Y262760D01*
X415125Y262762D01*
X415119Y262766D01*
X415079Y262776D01*
X415041Y262788D01*
X415033Y262788D01*
X415025Y262790D01*
X414984Y262787D01*
X414944Y262786D01*
X414936Y262783D01*
X414928Y262782D01*
X414891Y262766D01*
X414853Y262752D01*
X414847Y262747D01*
X414839Y262744D01*
X414788Y262703D01*
X413540Y261455D01*
X411243Y260503D01*
X408757Y260503D01*
G37*
%LPD*%
%LPC*%
G36*
X28757Y260503D02*
X28757Y260503D01*
X26460Y261455D01*
X24703Y263212D01*
X23751Y265509D01*
X23751Y274491D01*
X24703Y276788D01*
X26460Y278545D01*
X28757Y279497D01*
X31243Y279497D01*
X33540Y278545D01*
X34788Y277297D01*
X34795Y277292D01*
X34800Y277286D01*
X34834Y277264D01*
X34867Y277240D01*
X34875Y277238D01*
X34881Y277234D01*
X34921Y277224D01*
X34959Y277212D01*
X34967Y277212D01*
X34975Y277210D01*
X35016Y277213D01*
X35056Y277214D01*
X35064Y277217D01*
X35072Y277218D01*
X35109Y277234D01*
X35147Y277248D01*
X35153Y277253D01*
X35161Y277256D01*
X35212Y277297D01*
X36460Y278545D01*
X38757Y279497D01*
X41243Y279497D01*
X43540Y278545D01*
X44520Y277565D01*
X44543Y277549D01*
X44563Y277529D01*
X44582Y277521D01*
X44598Y277509D01*
X44626Y277500D01*
X44651Y277489D01*
X44671Y277486D01*
X44691Y277480D01*
X44719Y277481D01*
X44747Y277478D01*
X44767Y277482D01*
X44788Y277483D01*
X44814Y277493D01*
X44842Y277499D01*
X44859Y277509D01*
X44879Y277516D01*
X44901Y277534D01*
X44925Y277548D01*
X44938Y277564D01*
X44954Y277577D01*
X44969Y277601D01*
X44988Y277622D01*
X44995Y277641D01*
X45006Y277658D01*
X45013Y277686D01*
X45024Y277712D01*
X45027Y277740D01*
X45030Y277752D01*
X45029Y277761D01*
X45031Y277777D01*
X45031Y292818D01*
X45025Y292853D01*
X45022Y292889D01*
X45017Y292901D01*
X45015Y292913D01*
X44998Y292945D01*
X44984Y292978D01*
X44974Y292991D01*
X44970Y292999D01*
X44961Y293007D01*
X44943Y293029D01*
X31691Y306282D01*
X31661Y306303D01*
X31634Y306326D01*
X31622Y306331D01*
X31612Y306338D01*
X31578Y306349D01*
X31544Y306362D01*
X31528Y306364D01*
X31520Y306367D01*
X31507Y306366D01*
X31479Y306369D01*
X29960Y306369D01*
X26904Y307635D01*
X24564Y309975D01*
X23298Y313031D01*
X23298Y326969D01*
X24564Y330025D01*
X26904Y332365D01*
X29960Y333631D01*
X33268Y333631D01*
X36325Y332365D01*
X38664Y330025D01*
X39133Y328893D01*
X39148Y328869D01*
X39159Y328843D01*
X39173Y328828D01*
X39184Y328811D01*
X39206Y328793D01*
X39225Y328772D01*
X39243Y328762D01*
X39259Y328749D01*
X39285Y328739D01*
X39310Y328725D01*
X39330Y328722D01*
X39349Y328714D01*
X39377Y328713D01*
X39405Y328708D01*
X39425Y328711D01*
X39446Y328710D01*
X39473Y328718D01*
X39501Y328722D01*
X39519Y328732D01*
X39538Y328737D01*
X39562Y328754D01*
X39587Y328766D01*
X39601Y328781D01*
X39618Y328793D01*
X39635Y328815D01*
X39654Y328836D01*
X39668Y328860D01*
X39676Y328870D01*
X39678Y328879D01*
X39686Y328893D01*
X40155Y330025D01*
X42494Y332365D01*
X45551Y333631D01*
X48859Y333631D01*
X51915Y332365D01*
X54254Y330025D01*
X54724Y328893D01*
X54738Y328869D01*
X54750Y328843D01*
X54764Y328828D01*
X54775Y328811D01*
X54796Y328793D01*
X54815Y328772D01*
X54833Y328762D01*
X54849Y328749D01*
X54875Y328739D01*
X54900Y328725D01*
X54920Y328722D01*
X54939Y328714D01*
X54968Y328713D01*
X54996Y328708D01*
X55016Y328711D01*
X55036Y328710D01*
X55063Y328718D01*
X55091Y328722D01*
X55109Y328732D01*
X55129Y328737D01*
X55152Y328754D01*
X55177Y328766D01*
X55192Y328781D01*
X55208Y328793D01*
X55225Y328815D01*
X55245Y328836D01*
X55259Y328860D01*
X55266Y328870D01*
X55269Y328879D01*
X55276Y328893D01*
X55746Y330025D01*
X58085Y332365D01*
X61141Y333631D01*
X64449Y333631D01*
X67506Y332365D01*
X69845Y330025D01*
X70314Y328893D01*
X70329Y328869D01*
X70340Y328843D01*
X70354Y328828D01*
X70365Y328811D01*
X70387Y328793D01*
X70406Y328772D01*
X70424Y328762D01*
X70440Y328749D01*
X70466Y328739D01*
X70491Y328725D01*
X70511Y328722D01*
X70530Y328714D01*
X70558Y328713D01*
X70586Y328708D01*
X70606Y328711D01*
X70627Y328710D01*
X70654Y328718D01*
X70682Y328722D01*
X70700Y328732D01*
X70720Y328737D01*
X70743Y328754D01*
X70768Y328766D01*
X70782Y328781D01*
X70799Y328793D01*
X70816Y328815D01*
X70836Y328836D01*
X70849Y328860D01*
X70857Y328870D01*
X70859Y328879D01*
X70867Y328893D01*
X71336Y330025D01*
X73675Y332365D01*
X76732Y333631D01*
X80040Y333631D01*
X83096Y332365D01*
X85436Y330025D01*
X86702Y326969D01*
X86702Y313031D01*
X85436Y309975D01*
X85057Y309596D01*
X85036Y309567D01*
X85012Y309539D01*
X85008Y309527D01*
X85000Y309517D01*
X84990Y309483D01*
X84976Y309449D01*
X84975Y309433D01*
X84972Y309425D01*
X84972Y309412D01*
X84969Y309384D01*
X84969Y277240D01*
X84975Y277204D01*
X84978Y277168D01*
X84983Y277157D01*
X84985Y277144D01*
X85002Y277112D01*
X85016Y277079D01*
X85026Y277067D01*
X85030Y277059D01*
X85039Y277050D01*
X85057Y277028D01*
X85297Y276788D01*
X86249Y274491D01*
X86249Y265509D01*
X85297Y263212D01*
X83540Y261455D01*
X81243Y260503D01*
X78757Y260503D01*
X76460Y261455D01*
X75212Y262703D01*
X75205Y262708D01*
X75200Y262714D01*
X75166Y262736D01*
X75133Y262760D01*
X75125Y262762D01*
X75119Y262766D01*
X75079Y262776D01*
X75041Y262788D01*
X75033Y262788D01*
X75025Y262790D01*
X74984Y262787D01*
X74944Y262786D01*
X74936Y262783D01*
X74928Y262782D01*
X74891Y262766D01*
X74853Y262752D01*
X74847Y262747D01*
X74839Y262744D01*
X74788Y262703D01*
X73540Y261455D01*
X71243Y260503D01*
X68757Y260503D01*
X66460Y261455D01*
X65212Y262703D01*
X65205Y262708D01*
X65200Y262714D01*
X65166Y262736D01*
X65133Y262760D01*
X65125Y262762D01*
X65119Y262766D01*
X65079Y262776D01*
X65041Y262788D01*
X65033Y262788D01*
X65025Y262790D01*
X64984Y262787D01*
X64944Y262786D01*
X64936Y262783D01*
X64928Y262782D01*
X64891Y262766D01*
X64853Y262752D01*
X64847Y262747D01*
X64839Y262744D01*
X64788Y262703D01*
X63540Y261455D01*
X61243Y260503D01*
X58757Y260503D01*
X56460Y261455D01*
X55212Y262703D01*
X55205Y262708D01*
X55200Y262714D01*
X55166Y262736D01*
X55133Y262760D01*
X55125Y262762D01*
X55119Y262766D01*
X55079Y262776D01*
X55041Y262788D01*
X55033Y262788D01*
X55025Y262790D01*
X54984Y262787D01*
X54944Y262786D01*
X54936Y262783D01*
X54928Y262782D01*
X54891Y262766D01*
X54853Y262752D01*
X54847Y262747D01*
X54839Y262744D01*
X54788Y262703D01*
X53540Y261455D01*
X51243Y260503D01*
X48757Y260503D01*
X46460Y261455D01*
X45212Y262703D01*
X45205Y262708D01*
X45200Y262714D01*
X45166Y262736D01*
X45133Y262760D01*
X45125Y262762D01*
X45119Y262766D01*
X45079Y262776D01*
X45041Y262788D01*
X45033Y262788D01*
X45025Y262790D01*
X44984Y262787D01*
X44944Y262786D01*
X44936Y262783D01*
X44928Y262782D01*
X44891Y262766D01*
X44853Y262752D01*
X44847Y262747D01*
X44839Y262744D01*
X44788Y262703D01*
X43540Y261455D01*
X41243Y260503D01*
X38757Y260503D01*
X36460Y261455D01*
X35212Y262703D01*
X35205Y262708D01*
X35200Y262714D01*
X35166Y262736D01*
X35133Y262760D01*
X35125Y262762D01*
X35119Y262766D01*
X35079Y262776D01*
X35041Y262788D01*
X35033Y262788D01*
X35025Y262790D01*
X34984Y262787D01*
X34944Y262786D01*
X34936Y262783D01*
X34928Y262782D01*
X34891Y262766D01*
X34853Y262752D01*
X34847Y262747D01*
X34839Y262744D01*
X34788Y262703D01*
X33540Y261455D01*
X31243Y260503D01*
X28757Y260503D01*
G37*
%LPD*%
%LPC*%
G36*
X123757Y260503D02*
X123757Y260503D01*
X121460Y261455D01*
X119703Y263212D01*
X118751Y265509D01*
X118751Y274491D01*
X119703Y276788D01*
X121460Y278545D01*
X123757Y279497D01*
X126243Y279497D01*
X128540Y278545D01*
X129788Y277297D01*
X129795Y277292D01*
X129800Y277286D01*
X129834Y277264D01*
X129867Y277240D01*
X129875Y277238D01*
X129881Y277234D01*
X129921Y277224D01*
X129959Y277212D01*
X129967Y277212D01*
X129975Y277210D01*
X130016Y277213D01*
X130056Y277214D01*
X130064Y277217D01*
X130072Y277218D01*
X130109Y277234D01*
X130147Y277248D01*
X130153Y277253D01*
X130161Y277256D01*
X130212Y277297D01*
X131460Y278545D01*
X133757Y279497D01*
X136243Y279497D01*
X138540Y278545D01*
X139520Y277565D01*
X139543Y277549D01*
X139563Y277529D01*
X139582Y277521D01*
X139598Y277509D01*
X139626Y277500D01*
X139651Y277489D01*
X139671Y277486D01*
X139691Y277480D01*
X139719Y277481D01*
X139747Y277478D01*
X139767Y277482D01*
X139788Y277483D01*
X139814Y277493D01*
X139842Y277499D01*
X139859Y277509D01*
X139879Y277516D01*
X139901Y277534D01*
X139925Y277548D01*
X139938Y277564D01*
X139954Y277577D01*
X139969Y277601D01*
X139988Y277622D01*
X139995Y277641D01*
X140006Y277658D01*
X140013Y277686D01*
X140024Y277712D01*
X140027Y277740D01*
X140030Y277752D01*
X140029Y277761D01*
X140031Y277777D01*
X140031Y297818D01*
X140025Y297853D01*
X140022Y297889D01*
X140017Y297901D01*
X140015Y297913D01*
X139998Y297945D01*
X139984Y297978D01*
X139974Y297991D01*
X139970Y297999D01*
X139961Y298007D01*
X139943Y298029D01*
X131691Y306282D01*
X131661Y306303D01*
X131634Y306326D01*
X131622Y306331D01*
X131612Y306338D01*
X131578Y306349D01*
X131544Y306362D01*
X131528Y306364D01*
X131520Y306367D01*
X131507Y306366D01*
X131479Y306369D01*
X129960Y306369D01*
X126904Y307635D01*
X124564Y309975D01*
X123298Y313031D01*
X123298Y326969D01*
X124564Y330025D01*
X126904Y332365D01*
X129960Y333631D01*
X133268Y333631D01*
X136325Y332365D01*
X138664Y330025D01*
X139133Y328893D01*
X139148Y328869D01*
X139159Y328843D01*
X139173Y328828D01*
X139184Y328811D01*
X139206Y328793D01*
X139225Y328772D01*
X139243Y328762D01*
X139259Y328749D01*
X139285Y328739D01*
X139310Y328725D01*
X139330Y328722D01*
X139349Y328714D01*
X139377Y328713D01*
X139405Y328708D01*
X139425Y328711D01*
X139446Y328710D01*
X139473Y328718D01*
X139501Y328722D01*
X139519Y328732D01*
X139538Y328737D01*
X139562Y328754D01*
X139587Y328766D01*
X139601Y328781D01*
X139618Y328793D01*
X139635Y328816D01*
X139654Y328836D01*
X139668Y328860D01*
X139676Y328870D01*
X139678Y328879D01*
X139686Y328893D01*
X140155Y330025D01*
X142494Y332365D01*
X145551Y333631D01*
X148859Y333631D01*
X151915Y332365D01*
X154254Y330025D01*
X154724Y328893D01*
X154738Y328869D01*
X154750Y328843D01*
X154764Y328828D01*
X154775Y328811D01*
X154796Y328793D01*
X154815Y328772D01*
X154833Y328762D01*
X154849Y328749D01*
X154875Y328739D01*
X154900Y328725D01*
X154920Y328722D01*
X154939Y328714D01*
X154968Y328713D01*
X154996Y328708D01*
X155016Y328711D01*
X155036Y328710D01*
X155063Y328718D01*
X155091Y328722D01*
X155109Y328732D01*
X155129Y328737D01*
X155152Y328754D01*
X155177Y328766D01*
X155192Y328781D01*
X155208Y328793D01*
X155225Y328816D01*
X155245Y328836D01*
X155259Y328860D01*
X155266Y328870D01*
X155269Y328879D01*
X155276Y328893D01*
X155746Y330025D01*
X158085Y332365D01*
X161141Y333631D01*
X164449Y333631D01*
X167506Y332365D01*
X169845Y330025D01*
X170314Y328893D01*
X170329Y328869D01*
X170340Y328843D01*
X170354Y328828D01*
X170365Y328811D01*
X170387Y328793D01*
X170406Y328772D01*
X170424Y328762D01*
X170440Y328749D01*
X170466Y328739D01*
X170491Y328725D01*
X170511Y328722D01*
X170530Y328714D01*
X170558Y328713D01*
X170586Y328708D01*
X170606Y328711D01*
X170627Y328710D01*
X170654Y328718D01*
X170682Y328722D01*
X170700Y328732D01*
X170720Y328737D01*
X170743Y328754D01*
X170768Y328766D01*
X170782Y328781D01*
X170799Y328793D01*
X170816Y328816D01*
X170836Y328836D01*
X170849Y328860D01*
X170857Y328870D01*
X170859Y328879D01*
X170867Y328893D01*
X171336Y330025D01*
X173675Y332365D01*
X176732Y333631D01*
X180040Y333631D01*
X183096Y332365D01*
X185436Y330025D01*
X186702Y326969D01*
X186702Y313031D01*
X185436Y309975D01*
X183096Y307635D01*
X180154Y306417D01*
X180115Y306392D01*
X180075Y306368D01*
X180074Y306367D01*
X180072Y306366D01*
X180042Y306330D01*
X180012Y306295D01*
X180012Y306293D01*
X180010Y306291D01*
X179994Y306248D01*
X179976Y306205D01*
X179976Y306202D01*
X179975Y306201D01*
X179975Y306194D01*
X179969Y306140D01*
X179969Y277240D01*
X179975Y277204D01*
X179978Y277168D01*
X179983Y277157D01*
X179985Y277144D01*
X180002Y277112D01*
X180016Y277079D01*
X180026Y277067D01*
X180030Y277059D01*
X180039Y277050D01*
X180057Y277028D01*
X180297Y276788D01*
X181249Y274491D01*
X181249Y265509D01*
X180297Y263212D01*
X178540Y261455D01*
X176243Y260503D01*
X173757Y260503D01*
X171460Y261455D01*
X170212Y262703D01*
X170205Y262708D01*
X170200Y262714D01*
X170166Y262736D01*
X170133Y262760D01*
X170125Y262762D01*
X170119Y262766D01*
X170079Y262776D01*
X170041Y262788D01*
X170033Y262788D01*
X170025Y262790D01*
X169984Y262787D01*
X169944Y262786D01*
X169936Y262783D01*
X169928Y262782D01*
X169891Y262766D01*
X169853Y262752D01*
X169847Y262747D01*
X169839Y262744D01*
X169788Y262703D01*
X168540Y261455D01*
X166243Y260503D01*
X163757Y260503D01*
X161460Y261455D01*
X160212Y262703D01*
X160205Y262708D01*
X160200Y262714D01*
X160166Y262736D01*
X160133Y262760D01*
X160125Y262762D01*
X160119Y262766D01*
X160079Y262776D01*
X160041Y262788D01*
X160033Y262788D01*
X160025Y262790D01*
X159984Y262787D01*
X159944Y262786D01*
X159936Y262783D01*
X159928Y262782D01*
X159891Y262766D01*
X159853Y262752D01*
X159847Y262747D01*
X159839Y262744D01*
X159788Y262703D01*
X158540Y261455D01*
X156243Y260503D01*
X153757Y260503D01*
X151460Y261455D01*
X150212Y262703D01*
X150205Y262708D01*
X150200Y262714D01*
X150166Y262736D01*
X150133Y262760D01*
X150125Y262762D01*
X150119Y262766D01*
X150079Y262776D01*
X150041Y262788D01*
X150033Y262788D01*
X150025Y262790D01*
X149984Y262787D01*
X149944Y262786D01*
X149936Y262783D01*
X149928Y262782D01*
X149891Y262766D01*
X149853Y262752D01*
X149847Y262747D01*
X149839Y262744D01*
X149788Y262703D01*
X148540Y261455D01*
X146243Y260503D01*
X143757Y260503D01*
X141460Y261455D01*
X140212Y262703D01*
X140205Y262708D01*
X140200Y262714D01*
X140166Y262736D01*
X140133Y262760D01*
X140125Y262762D01*
X140119Y262766D01*
X140079Y262776D01*
X140041Y262788D01*
X140033Y262788D01*
X140025Y262790D01*
X139984Y262787D01*
X139944Y262786D01*
X139936Y262783D01*
X139928Y262782D01*
X139891Y262766D01*
X139853Y262752D01*
X139847Y262747D01*
X139839Y262744D01*
X139788Y262703D01*
X138540Y261455D01*
X136243Y260503D01*
X133757Y260503D01*
X131460Y261455D01*
X130212Y262703D01*
X130205Y262708D01*
X130200Y262714D01*
X130166Y262736D01*
X130133Y262760D01*
X130125Y262762D01*
X130119Y262766D01*
X130079Y262776D01*
X130041Y262788D01*
X130033Y262788D01*
X130025Y262790D01*
X129984Y262787D01*
X129944Y262786D01*
X129936Y262783D01*
X129928Y262782D01*
X129891Y262766D01*
X129853Y262752D01*
X129847Y262747D01*
X129839Y262744D01*
X129788Y262703D01*
X128540Y261455D01*
X126243Y260503D01*
X123757Y260503D01*
G37*
%LPD*%
G36*
X195016Y103900D02*
X195016Y103900D01*
X195036Y103899D01*
X195063Y103907D01*
X195091Y103911D01*
X195109Y103920D01*
X195129Y103926D01*
X195152Y103942D01*
X195177Y103955D01*
X195192Y103970D01*
X195208Y103981D01*
X195225Y104004D01*
X195245Y104024D01*
X195259Y104049D01*
X195266Y104059D01*
X195269Y104068D01*
X195276Y104082D01*
X195787Y105315D01*
X234943Y144471D01*
X234964Y144500D01*
X234988Y144528D01*
X234992Y144539D01*
X235000Y144549D01*
X235010Y144584D01*
X235024Y144617D01*
X235025Y144633D01*
X235028Y144642D01*
X235028Y144654D01*
X235031Y144682D01*
X235031Y162223D01*
X235026Y162251D01*
X235025Y162279D01*
X235018Y162299D01*
X235015Y162319D01*
X235002Y162344D01*
X234992Y162370D01*
X234979Y162386D01*
X234970Y162404D01*
X234949Y162424D01*
X234932Y162446D01*
X234914Y162457D01*
X234900Y162471D01*
X234874Y162483D01*
X234850Y162498D01*
X234830Y162503D01*
X234812Y162511D01*
X234784Y162515D01*
X234756Y162521D01*
X234736Y162520D01*
X234716Y162522D01*
X234688Y162516D01*
X234660Y162514D01*
X234641Y162506D01*
X234621Y162501D01*
X234597Y162487D01*
X234571Y162476D01*
X234549Y162458D01*
X234538Y162452D01*
X234532Y162445D01*
X234520Y162435D01*
X233540Y161455D01*
X231243Y160503D01*
X228757Y160503D01*
X226460Y161455D01*
X224703Y163212D01*
X223751Y165509D01*
X223751Y169097D01*
X223745Y169133D01*
X223743Y169169D01*
X223738Y169180D01*
X223736Y169193D01*
X223719Y169225D01*
X223704Y169258D01*
X223694Y169270D01*
X223690Y169278D01*
X223681Y169287D01*
X223664Y169309D01*
X215529Y177443D01*
X215500Y177464D01*
X215472Y177488D01*
X215461Y177492D01*
X215451Y177500D01*
X215416Y177510D01*
X215383Y177524D01*
X215367Y177525D01*
X215358Y177528D01*
X215346Y177528D01*
X215318Y177531D01*
X167200Y177531D01*
X167173Y177526D01*
X167147Y177526D01*
X167126Y177519D01*
X167104Y177515D01*
X167081Y177503D01*
X167056Y177494D01*
X167038Y177480D01*
X167019Y177470D01*
X167000Y177450D01*
X166979Y177434D01*
X166967Y177416D01*
X166952Y177400D01*
X166941Y177375D01*
X166926Y177353D01*
X166921Y177332D01*
X166912Y177312D01*
X166909Y177285D01*
X166902Y177259D01*
X166903Y177237D01*
X166901Y177216D01*
X166907Y177190D01*
X166909Y177163D01*
X166917Y177143D01*
X166922Y177121D01*
X166935Y177098D01*
X166946Y177073D01*
X166960Y177057D01*
X166971Y177038D01*
X166992Y177021D01*
X167009Y177001D01*
X167036Y176984D01*
X167045Y176975D01*
X167053Y176972D01*
X167064Y176965D01*
X167227Y176882D01*
X167768Y176489D01*
X168241Y176016D01*
X168634Y175475D01*
X168937Y174879D01*
X169144Y174243D01*
X169249Y173582D01*
X169249Y170599D01*
X165300Y170599D01*
X165292Y170598D01*
X165284Y170599D01*
X165245Y170590D01*
X165205Y170584D01*
X165197Y170580D01*
X165190Y170578D01*
X165155Y170557D01*
X165119Y170538D01*
X165114Y170532D01*
X165107Y170528D01*
X165080Y170497D01*
X165052Y170468D01*
X165049Y170461D01*
X165044Y170455D01*
X165029Y170417D01*
X165012Y170380D01*
X165011Y170372D01*
X165008Y170365D01*
X165001Y170300D01*
X165001Y169999D01*
X164700Y169999D01*
X164692Y169998D01*
X164684Y169999D01*
X164645Y169990D01*
X164605Y169984D01*
X164597Y169980D01*
X164590Y169978D01*
X164555Y169957D01*
X164519Y169938D01*
X164513Y169932D01*
X164507Y169928D01*
X164480Y169897D01*
X164452Y169868D01*
X164449Y169861D01*
X164444Y169855D01*
X164429Y169817D01*
X164412Y169780D01*
X164411Y169772D01*
X164408Y169765D01*
X164401Y169700D01*
X164401Y162545D01*
X164005Y162608D01*
X163369Y162814D01*
X162773Y163118D01*
X162232Y163511D01*
X161759Y163984D01*
X161358Y164537D01*
X161355Y164544D01*
X161333Y164567D01*
X161314Y164593D01*
X161300Y164603D01*
X161289Y164615D01*
X161261Y164630D01*
X161235Y164649D01*
X161219Y164653D01*
X161204Y164661D01*
X161173Y164667D01*
X161142Y164676D01*
X161125Y164675D01*
X161109Y164678D01*
X161077Y164674D01*
X161045Y164672D01*
X161030Y164667D01*
X161013Y164664D01*
X160985Y164650D01*
X160955Y164638D01*
X160942Y164628D01*
X160927Y164620D01*
X160905Y164597D01*
X160880Y164577D01*
X160871Y164563D01*
X160860Y164551D01*
X160830Y164497D01*
X160829Y164495D01*
X160829Y164494D01*
X160828Y164494D01*
X160297Y163212D01*
X160057Y162972D01*
X160036Y162942D01*
X160012Y162915D01*
X160008Y162903D01*
X160000Y162893D01*
X159990Y162859D01*
X159976Y162825D01*
X159975Y162809D01*
X159972Y162801D01*
X159972Y162788D01*
X159969Y162760D01*
X159969Y139682D01*
X159975Y139647D01*
X159978Y139611D01*
X159983Y139599D01*
X159985Y139587D01*
X160002Y139555D01*
X160016Y139522D01*
X160026Y139509D01*
X160030Y139501D01*
X160039Y139493D01*
X160057Y139471D01*
X194213Y105315D01*
X194724Y104082D01*
X194738Y104058D01*
X194750Y104032D01*
X194764Y104017D01*
X194775Y103999D01*
X194796Y103981D01*
X194815Y103961D01*
X194833Y103951D01*
X194849Y103938D01*
X194875Y103928D01*
X194900Y103914D01*
X194920Y103910D01*
X194939Y103903D01*
X194968Y103902D01*
X194996Y103897D01*
X195016Y103900D01*
G37*
G36*
X162309Y112474D02*
X162309Y112474D01*
X162337Y112475D01*
X162356Y112482D01*
X162376Y112485D01*
X162401Y112498D01*
X162428Y112508D01*
X162444Y112521D01*
X162462Y112530D01*
X162481Y112551D01*
X162503Y112568D01*
X162514Y112586D01*
X162528Y112600D01*
X162540Y112626D01*
X162555Y112650D01*
X162560Y112670D01*
X162569Y112688D01*
X162572Y112716D01*
X162579Y112744D01*
X162577Y112764D01*
X162580Y112784D01*
X162574Y112812D01*
X162571Y112840D01*
X162563Y112859D01*
X162559Y112879D01*
X162544Y112903D01*
X162533Y112929D01*
X162515Y112951D01*
X162509Y112962D01*
X162502Y112968D01*
X162492Y112980D01*
X142227Y133245D01*
X140787Y134685D01*
X140031Y136512D01*
X140031Y162223D01*
X140026Y162251D01*
X140025Y162279D01*
X140018Y162299D01*
X140015Y162319D01*
X140002Y162344D01*
X139992Y162370D01*
X139979Y162386D01*
X139970Y162404D01*
X139949Y162424D01*
X139932Y162446D01*
X139914Y162457D01*
X139900Y162471D01*
X139874Y162483D01*
X139850Y162498D01*
X139830Y162503D01*
X139812Y162511D01*
X139784Y162515D01*
X139756Y162521D01*
X139736Y162520D01*
X139716Y162522D01*
X139688Y162516D01*
X139660Y162514D01*
X139641Y162506D01*
X139621Y162501D01*
X139597Y162487D01*
X139571Y162476D01*
X139549Y162458D01*
X139538Y162452D01*
X139532Y162445D01*
X139520Y162435D01*
X138540Y161455D01*
X136243Y160503D01*
X133757Y160503D01*
X131460Y161455D01*
X129703Y163212D01*
X128751Y165509D01*
X128751Y169097D01*
X128745Y169133D01*
X128743Y169169D01*
X128738Y169180D01*
X128736Y169193D01*
X128719Y169225D01*
X128704Y169258D01*
X128694Y169270D01*
X128690Y169278D01*
X128681Y169287D01*
X128664Y169309D01*
X120529Y177443D01*
X120500Y177464D01*
X120472Y177488D01*
X120461Y177492D01*
X120451Y177500D01*
X120416Y177510D01*
X120383Y177524D01*
X120367Y177525D01*
X120358Y177528D01*
X120346Y177528D01*
X120318Y177531D01*
X72200Y177531D01*
X72173Y177526D01*
X72147Y177526D01*
X72126Y177519D01*
X72104Y177515D01*
X72081Y177503D01*
X72056Y177494D01*
X72038Y177480D01*
X72019Y177470D01*
X72000Y177450D01*
X71979Y177434D01*
X71967Y177416D01*
X71952Y177400D01*
X71941Y177375D01*
X71926Y177353D01*
X71921Y177332D01*
X71912Y177312D01*
X71909Y177285D01*
X71902Y177259D01*
X71903Y177237D01*
X71901Y177216D01*
X71907Y177190D01*
X71909Y177163D01*
X71917Y177143D01*
X71922Y177121D01*
X71935Y177098D01*
X71946Y177073D01*
X71960Y177057D01*
X71971Y177038D01*
X71992Y177021D01*
X72009Y177001D01*
X72036Y176984D01*
X72045Y176975D01*
X72053Y176972D01*
X72064Y176965D01*
X72227Y176882D01*
X72768Y176489D01*
X73241Y176016D01*
X73634Y175475D01*
X73937Y174879D01*
X74144Y174243D01*
X74249Y173582D01*
X74249Y170599D01*
X70300Y170599D01*
X70292Y170598D01*
X70284Y170599D01*
X70245Y170590D01*
X70205Y170584D01*
X70197Y170580D01*
X70190Y170578D01*
X70155Y170557D01*
X70119Y170538D01*
X70114Y170532D01*
X70107Y170528D01*
X70080Y170497D01*
X70052Y170468D01*
X70049Y170461D01*
X70044Y170455D01*
X70029Y170417D01*
X70012Y170380D01*
X70011Y170372D01*
X70008Y170365D01*
X70001Y170300D01*
X70001Y169999D01*
X69700Y169999D01*
X69692Y169998D01*
X69684Y169999D01*
X69645Y169990D01*
X69605Y169984D01*
X69597Y169980D01*
X69590Y169978D01*
X69555Y169957D01*
X69519Y169938D01*
X69513Y169932D01*
X69507Y169928D01*
X69480Y169897D01*
X69452Y169868D01*
X69449Y169861D01*
X69444Y169855D01*
X69429Y169817D01*
X69412Y169780D01*
X69411Y169772D01*
X69408Y169765D01*
X69401Y169700D01*
X69401Y162751D01*
X69407Y162715D01*
X69409Y162679D01*
X69414Y162668D01*
X69416Y162655D01*
X69433Y162623D01*
X69448Y162590D01*
X69457Y162578D01*
X69462Y162570D01*
X69471Y162561D01*
X69488Y162539D01*
X119471Y112557D01*
X119500Y112536D01*
X119528Y112512D01*
X119539Y112508D01*
X119549Y112500D01*
X119584Y112490D01*
X119617Y112476D01*
X119633Y112475D01*
X119642Y112472D01*
X119654Y112472D01*
X119682Y112469D01*
X162281Y112469D01*
X162309Y112474D01*
G37*
G36*
X415353Y147475D02*
X415353Y147475D01*
X415389Y147478D01*
X415401Y147483D01*
X415413Y147485D01*
X415445Y147502D01*
X415478Y147516D01*
X415491Y147526D01*
X415499Y147530D01*
X415507Y147539D01*
X415529Y147557D01*
X424943Y156971D01*
X424964Y157000D01*
X424988Y157028D01*
X424992Y157039D01*
X425000Y157049D01*
X425010Y157084D01*
X425024Y157117D01*
X425025Y157133D01*
X425028Y157142D01*
X425028Y157154D01*
X425031Y157182D01*
X425031Y162223D01*
X425026Y162251D01*
X425025Y162279D01*
X425018Y162299D01*
X425015Y162319D01*
X425002Y162344D01*
X424992Y162370D01*
X424979Y162386D01*
X424970Y162404D01*
X424949Y162424D01*
X424932Y162446D01*
X424914Y162457D01*
X424900Y162471D01*
X424874Y162483D01*
X424850Y162498D01*
X424830Y162503D01*
X424812Y162511D01*
X424784Y162515D01*
X424756Y162521D01*
X424736Y162520D01*
X424716Y162522D01*
X424688Y162516D01*
X424660Y162514D01*
X424641Y162506D01*
X424621Y162501D01*
X424597Y162487D01*
X424571Y162476D01*
X424549Y162458D01*
X424538Y162452D01*
X424532Y162445D01*
X424520Y162435D01*
X423540Y161455D01*
X421243Y160503D01*
X418757Y160503D01*
X416460Y161455D01*
X414703Y163212D01*
X413751Y165509D01*
X413751Y169097D01*
X413745Y169133D01*
X413743Y169169D01*
X413738Y169180D01*
X413736Y169193D01*
X413719Y169225D01*
X413704Y169258D01*
X413694Y169270D01*
X413690Y169278D01*
X413681Y169287D01*
X413664Y169309D01*
X405977Y176995D01*
X405529Y177443D01*
X405500Y177464D01*
X405472Y177488D01*
X405461Y177492D01*
X405451Y177500D01*
X405416Y177510D01*
X405383Y177524D01*
X405367Y177525D01*
X405358Y177528D01*
X405346Y177528D01*
X405318Y177531D01*
X357200Y177531D01*
X357173Y177526D01*
X357147Y177526D01*
X357126Y177519D01*
X357104Y177515D01*
X357081Y177503D01*
X357056Y177494D01*
X357038Y177480D01*
X357019Y177470D01*
X357000Y177450D01*
X356979Y177434D01*
X356967Y177416D01*
X356952Y177400D01*
X356941Y177375D01*
X356926Y177353D01*
X356921Y177332D01*
X356912Y177312D01*
X356909Y177285D01*
X356902Y177259D01*
X356903Y177237D01*
X356901Y177216D01*
X356907Y177190D01*
X356909Y177163D01*
X356917Y177143D01*
X356922Y177121D01*
X356935Y177098D01*
X356946Y177073D01*
X356960Y177057D01*
X356971Y177038D01*
X356992Y177021D01*
X357009Y177001D01*
X357036Y176984D01*
X357045Y176975D01*
X357053Y176972D01*
X357064Y176965D01*
X357227Y176882D01*
X357768Y176489D01*
X358241Y176016D01*
X358634Y175475D01*
X358937Y174879D01*
X359144Y174243D01*
X359249Y173582D01*
X359249Y170599D01*
X355300Y170599D01*
X355292Y170598D01*
X355284Y170599D01*
X355245Y170590D01*
X355205Y170584D01*
X355197Y170580D01*
X355190Y170578D01*
X355155Y170557D01*
X355119Y170538D01*
X355114Y170532D01*
X355107Y170528D01*
X355080Y170497D01*
X355052Y170468D01*
X355049Y170461D01*
X355044Y170455D01*
X355029Y170417D01*
X355012Y170380D01*
X355011Y170372D01*
X355008Y170365D01*
X355001Y170300D01*
X355001Y169999D01*
X354700Y169999D01*
X354692Y169998D01*
X354684Y169999D01*
X354645Y169990D01*
X354605Y169984D01*
X354597Y169980D01*
X354590Y169978D01*
X354555Y169957D01*
X354519Y169938D01*
X354513Y169932D01*
X354507Y169928D01*
X354480Y169897D01*
X354452Y169868D01*
X354449Y169861D01*
X354444Y169855D01*
X354429Y169817D01*
X354412Y169780D01*
X354411Y169772D01*
X354408Y169765D01*
X354401Y169700D01*
X354401Y162545D01*
X354005Y162608D01*
X353369Y162814D01*
X352773Y163118D01*
X352232Y163511D01*
X351759Y163984D01*
X351358Y164537D01*
X351355Y164544D01*
X351333Y164567D01*
X351314Y164593D01*
X351300Y164603D01*
X351289Y164615D01*
X351261Y164630D01*
X351235Y164649D01*
X351219Y164653D01*
X351204Y164661D01*
X351173Y164667D01*
X351142Y164676D01*
X351125Y164675D01*
X351109Y164678D01*
X351077Y164674D01*
X351045Y164672D01*
X351030Y164667D01*
X351013Y164664D01*
X350985Y164650D01*
X350955Y164638D01*
X350942Y164628D01*
X350927Y164620D01*
X350905Y164597D01*
X350880Y164577D01*
X350871Y164563D01*
X350860Y164551D01*
X350830Y164497D01*
X350829Y164495D01*
X350829Y164494D01*
X350828Y164494D01*
X350297Y163212D01*
X348540Y161455D01*
X348496Y161437D01*
X348474Y161423D01*
X348450Y161413D01*
X348425Y161392D01*
X348414Y161386D01*
X348409Y161380D01*
X348399Y161372D01*
X335008Y147980D01*
X334991Y147957D01*
X334972Y147937D01*
X334963Y147918D01*
X334951Y147902D01*
X334943Y147874D01*
X334931Y147849D01*
X334929Y147829D01*
X334923Y147809D01*
X334924Y147781D01*
X334920Y147753D01*
X334925Y147733D01*
X334925Y147712D01*
X334935Y147686D01*
X334941Y147658D01*
X334952Y147641D01*
X334959Y147621D01*
X334976Y147599D01*
X334991Y147575D01*
X335006Y147562D01*
X335019Y147546D01*
X335043Y147531D01*
X335065Y147512D01*
X335083Y147505D01*
X335101Y147494D01*
X335128Y147487D01*
X335154Y147476D01*
X335183Y147473D01*
X335195Y147470D01*
X335203Y147471D01*
X335219Y147469D01*
X415318Y147469D01*
X415353Y147475D01*
G37*
G36*
X255312Y144926D02*
X255312Y144926D01*
X255340Y144929D01*
X255359Y144937D01*
X255379Y144941D01*
X255403Y144956D01*
X255429Y144967D01*
X255451Y144984D01*
X255462Y144991D01*
X255468Y144998D01*
X255480Y145008D01*
X270745Y160273D01*
X272185Y161713D01*
X274012Y162469D01*
X319723Y162469D01*
X319751Y162474D01*
X319779Y162475D01*
X319799Y162482D01*
X319819Y162485D01*
X319844Y162498D01*
X319870Y162508D01*
X319886Y162521D01*
X319904Y162530D01*
X319924Y162551D01*
X319946Y162568D01*
X319957Y162586D01*
X319971Y162600D01*
X319983Y162626D01*
X319998Y162650D01*
X320003Y162670D01*
X320011Y162688D01*
X320015Y162716D01*
X320021Y162744D01*
X320020Y162764D01*
X320022Y162784D01*
X320016Y162812D01*
X320014Y162840D01*
X320006Y162859D01*
X320001Y162879D01*
X319987Y162903D01*
X319976Y162929D01*
X319958Y162951D01*
X319952Y162962D01*
X319945Y162968D01*
X319935Y162980D01*
X319703Y163212D01*
X318751Y165509D01*
X318751Y169097D01*
X318745Y169133D01*
X318743Y169169D01*
X318738Y169180D01*
X318736Y169193D01*
X318719Y169225D01*
X318704Y169258D01*
X318694Y169270D01*
X318690Y169278D01*
X318681Y169287D01*
X318664Y169309D01*
X310977Y176995D01*
X310529Y177443D01*
X310500Y177464D01*
X310472Y177488D01*
X310461Y177492D01*
X310451Y177500D01*
X310416Y177510D01*
X310383Y177524D01*
X310367Y177525D01*
X310358Y177528D01*
X310346Y177528D01*
X310318Y177531D01*
X262200Y177531D01*
X262173Y177526D01*
X262147Y177526D01*
X262126Y177519D01*
X262104Y177515D01*
X262081Y177503D01*
X262056Y177494D01*
X262038Y177480D01*
X262019Y177470D01*
X262000Y177450D01*
X261979Y177434D01*
X261967Y177416D01*
X261952Y177400D01*
X261941Y177375D01*
X261926Y177353D01*
X261921Y177332D01*
X261912Y177312D01*
X261909Y177285D01*
X261902Y177259D01*
X261903Y177237D01*
X261901Y177216D01*
X261907Y177190D01*
X261909Y177163D01*
X261917Y177143D01*
X261922Y177121D01*
X261935Y177098D01*
X261946Y177073D01*
X261960Y177057D01*
X261971Y177038D01*
X261992Y177021D01*
X262009Y177001D01*
X262036Y176984D01*
X262045Y176975D01*
X262053Y176972D01*
X262064Y176965D01*
X262227Y176882D01*
X262768Y176489D01*
X263241Y176016D01*
X263634Y175475D01*
X263937Y174879D01*
X264144Y174243D01*
X264249Y173582D01*
X264249Y170599D01*
X260300Y170599D01*
X260292Y170598D01*
X260284Y170599D01*
X260245Y170590D01*
X260205Y170584D01*
X260197Y170580D01*
X260190Y170578D01*
X260155Y170557D01*
X260119Y170538D01*
X260114Y170532D01*
X260107Y170528D01*
X260080Y170497D01*
X260052Y170468D01*
X260049Y170461D01*
X260044Y170455D01*
X260029Y170417D01*
X260012Y170380D01*
X260011Y170372D01*
X260008Y170365D01*
X260001Y170300D01*
X260001Y169999D01*
X259700Y169999D01*
X259692Y169998D01*
X259684Y169999D01*
X259645Y169990D01*
X259605Y169984D01*
X259597Y169980D01*
X259590Y169978D01*
X259555Y169957D01*
X259519Y169938D01*
X259513Y169932D01*
X259507Y169928D01*
X259480Y169897D01*
X259452Y169868D01*
X259449Y169861D01*
X259444Y169855D01*
X259429Y169817D01*
X259412Y169780D01*
X259411Y169772D01*
X259408Y169765D01*
X259401Y169700D01*
X259401Y162545D01*
X259005Y162608D01*
X258369Y162814D01*
X257773Y163118D01*
X257232Y163511D01*
X256759Y163984D01*
X256358Y164537D01*
X256355Y164544D01*
X256333Y164567D01*
X256314Y164593D01*
X256300Y164603D01*
X256289Y164615D01*
X256261Y164630D01*
X256235Y164649D01*
X256219Y164653D01*
X256204Y164661D01*
X256173Y164667D01*
X256142Y164676D01*
X256125Y164675D01*
X256109Y164678D01*
X256077Y164674D01*
X256045Y164672D01*
X256030Y164667D01*
X256013Y164664D01*
X255985Y164650D01*
X255955Y164638D01*
X255942Y164628D01*
X255927Y164620D01*
X255905Y164597D01*
X255880Y164577D01*
X255871Y164563D01*
X255860Y164551D01*
X255830Y164497D01*
X255829Y164495D01*
X255829Y164494D01*
X255828Y164494D01*
X255297Y163212D01*
X255057Y162972D01*
X255036Y162942D01*
X255012Y162915D01*
X255008Y162903D01*
X255000Y162893D01*
X254990Y162859D01*
X254976Y162825D01*
X254975Y162809D01*
X254972Y162801D01*
X254972Y162788D01*
X254969Y162760D01*
X254969Y145219D01*
X254974Y145191D01*
X254975Y145163D01*
X254982Y145144D01*
X254985Y145124D01*
X254998Y145099D01*
X255008Y145072D01*
X255021Y145056D01*
X255030Y145038D01*
X255051Y145019D01*
X255068Y144997D01*
X255086Y144986D01*
X255100Y144972D01*
X255126Y144960D01*
X255150Y144945D01*
X255170Y144940D01*
X255188Y144931D01*
X255216Y144928D01*
X255244Y144921D01*
X255264Y144923D01*
X255284Y144920D01*
X255312Y144926D01*
G37*
%LPC*%
G36*
X293698Y48456D02*
X293698Y48456D01*
X291293Y49452D01*
X289452Y51293D01*
X288456Y53698D01*
X288456Y56302D01*
X289452Y58707D01*
X290534Y59788D01*
X290538Y59795D01*
X290545Y59800D01*
X290567Y59834D01*
X290590Y59867D01*
X290593Y59875D01*
X290597Y59881D01*
X290607Y59921D01*
X290619Y59959D01*
X290618Y59967D01*
X290620Y59975D01*
X290617Y60016D01*
X290616Y60056D01*
X290613Y60064D01*
X290613Y60072D01*
X290597Y60109D01*
X290583Y60147D01*
X290578Y60153D01*
X290575Y60161D01*
X290534Y60212D01*
X289452Y61293D01*
X288456Y63698D01*
X288456Y66302D01*
X289452Y68707D01*
X290534Y69788D01*
X290538Y69795D01*
X290545Y69800D01*
X290567Y69834D01*
X290590Y69867D01*
X290593Y69875D01*
X290597Y69881D01*
X290607Y69921D01*
X290619Y69959D01*
X290618Y69967D01*
X290620Y69975D01*
X290617Y70016D01*
X290616Y70056D01*
X290613Y70064D01*
X290613Y70072D01*
X290597Y70109D01*
X290583Y70147D01*
X290578Y70153D01*
X290575Y70161D01*
X290534Y70212D01*
X289452Y71293D01*
X288456Y73698D01*
X288456Y76302D01*
X289452Y78707D01*
X291293Y80548D01*
X293698Y81544D01*
X296302Y81544D01*
X298707Y80548D01*
X299788Y79466D01*
X299795Y79462D01*
X299800Y79455D01*
X299834Y79433D01*
X299867Y79410D01*
X299875Y79407D01*
X299881Y79403D01*
X299921Y79393D01*
X299959Y79381D01*
X299967Y79382D01*
X299975Y79380D01*
X300016Y79383D01*
X300056Y79384D01*
X300064Y79387D01*
X300072Y79387D01*
X300109Y79403D01*
X300147Y79417D01*
X300153Y79422D01*
X300161Y79425D01*
X300212Y79466D01*
X301293Y80548D01*
X303698Y81544D01*
X306302Y81544D01*
X308707Y80548D01*
X310548Y78707D01*
X311544Y76302D01*
X311544Y73698D01*
X310548Y71293D01*
X309466Y70212D01*
X309462Y70205D01*
X309455Y70200D01*
X309433Y70166D01*
X309410Y70133D01*
X309407Y70125D01*
X309403Y70119D01*
X309393Y70079D01*
X309381Y70041D01*
X309382Y70033D01*
X309380Y70025D01*
X309383Y69984D01*
X309384Y69944D01*
X309387Y69936D01*
X309387Y69928D01*
X309403Y69891D01*
X309417Y69853D01*
X309422Y69847D01*
X309425Y69839D01*
X309466Y69788D01*
X310548Y68707D01*
X311544Y66302D01*
X311544Y63698D01*
X310548Y61293D01*
X309466Y60212D01*
X309462Y60205D01*
X309455Y60200D01*
X309433Y60166D01*
X309410Y60133D01*
X309407Y60125D01*
X309403Y60119D01*
X309393Y60079D01*
X309381Y60041D01*
X309382Y60033D01*
X309380Y60025D01*
X309383Y59984D01*
X309384Y59944D01*
X309387Y59936D01*
X309387Y59928D01*
X309403Y59891D01*
X309417Y59853D01*
X309422Y59847D01*
X309425Y59839D01*
X309466Y59788D01*
X310548Y58707D01*
X311544Y56302D01*
X311544Y53698D01*
X310548Y51293D01*
X308707Y49452D01*
X306302Y48456D01*
X303698Y48456D01*
X301293Y49452D01*
X300212Y50534D01*
X300205Y50538D01*
X300200Y50545D01*
X300166Y50567D01*
X300133Y50590D01*
X300125Y50593D01*
X300119Y50597D01*
X300079Y50607D01*
X300041Y50619D01*
X300033Y50618D01*
X300025Y50620D01*
X299984Y50617D01*
X299944Y50616D01*
X299936Y50613D01*
X299928Y50613D01*
X299891Y50597D01*
X299853Y50583D01*
X299847Y50578D01*
X299839Y50575D01*
X299788Y50534D01*
X298707Y49452D01*
X296302Y48456D01*
X293698Y48456D01*
G37*
%LPD*%
%LPC*%
G36*
X150551Y356369D02*
X150551Y356369D01*
X147494Y357635D01*
X145155Y359975D01*
X143889Y363031D01*
X143889Y376969D01*
X145155Y380025D01*
X147494Y382365D01*
X150551Y383631D01*
X153859Y383631D01*
X156915Y382365D01*
X159254Y380025D01*
X160520Y376969D01*
X160520Y363031D01*
X159254Y359975D01*
X156915Y357635D01*
X153859Y356369D01*
X150551Y356369D01*
G37*
%LPD*%
%LPC*%
G36*
X45551Y356369D02*
X45551Y356369D01*
X42494Y357635D01*
X40155Y359975D01*
X38889Y363031D01*
X38889Y376969D01*
X40155Y380025D01*
X42494Y382365D01*
X45551Y383631D01*
X48859Y383631D01*
X51915Y382365D01*
X54254Y380025D01*
X55520Y376969D01*
X55520Y363031D01*
X54254Y359975D01*
X51915Y357635D01*
X48859Y356369D01*
X45551Y356369D01*
G37*
%LPD*%
%LPC*%
G36*
X235551Y356369D02*
X235551Y356369D01*
X232494Y357635D01*
X230155Y359975D01*
X228889Y363031D01*
X228889Y376969D01*
X230155Y380025D01*
X232494Y382365D01*
X235551Y383631D01*
X238859Y383631D01*
X241915Y382365D01*
X244254Y380025D01*
X245520Y376969D01*
X245520Y363031D01*
X244254Y359975D01*
X241915Y357635D01*
X238859Y356369D01*
X235551Y356369D01*
G37*
%LPD*%
%LPC*%
G36*
X325551Y356369D02*
X325551Y356369D01*
X322494Y357635D01*
X320155Y359975D01*
X318889Y363031D01*
X318889Y376969D01*
X320155Y380025D01*
X322494Y382365D01*
X325551Y383631D01*
X328859Y383631D01*
X331915Y382365D01*
X334254Y380025D01*
X335520Y376969D01*
X335520Y363031D01*
X334254Y359975D01*
X331915Y357635D01*
X328859Y356369D01*
X325551Y356369D01*
G37*
%LPD*%
%LPC*%
G36*
X425551Y356369D02*
X425551Y356369D01*
X422494Y357635D01*
X420155Y359975D01*
X418889Y363031D01*
X418889Y376969D01*
X420155Y380025D01*
X422494Y382365D01*
X425551Y383631D01*
X428859Y383631D01*
X431915Y382365D01*
X434254Y380025D01*
X435520Y376969D01*
X435520Y363031D01*
X434254Y359975D01*
X431915Y357635D01*
X428859Y356369D01*
X425551Y356369D01*
G37*
%LPD*%
%LPC*%
G36*
X473434Y7125D02*
X473434Y7125D01*
X470539Y8324D01*
X468324Y10539D01*
X467125Y13434D01*
X467125Y16566D01*
X468324Y19461D01*
X470539Y21676D01*
X473434Y22875D01*
X476566Y22875D01*
X479461Y21676D01*
X481676Y19461D01*
X482875Y16566D01*
X482875Y13434D01*
X481676Y10539D01*
X479461Y8324D01*
X476566Y7125D01*
X473434Y7125D01*
G37*
%LPD*%
%LPC*%
G36*
X13434Y7125D02*
X13434Y7125D01*
X10539Y8324D01*
X8324Y10539D01*
X7125Y13434D01*
X7125Y16566D01*
X8324Y19461D01*
X10539Y21676D01*
X13434Y22875D01*
X16566Y22875D01*
X19461Y21676D01*
X21676Y19461D01*
X22875Y16566D01*
X22875Y13434D01*
X21676Y10539D01*
X19461Y8324D01*
X16566Y7125D01*
X13434Y7125D01*
G37*
%LPD*%
%LPC*%
G36*
X473434Y382125D02*
X473434Y382125D01*
X470539Y383324D01*
X468324Y385539D01*
X467125Y388434D01*
X467125Y391566D01*
X468324Y394461D01*
X470539Y396676D01*
X473434Y397875D01*
X476566Y397875D01*
X479461Y396676D01*
X481676Y394461D01*
X482875Y391566D01*
X482875Y388434D01*
X481676Y385539D01*
X479461Y383324D01*
X476566Y382125D01*
X473434Y382125D01*
G37*
%LPD*%
%LPC*%
G36*
X13434Y382125D02*
X13434Y382125D01*
X10539Y383324D01*
X8324Y385539D01*
X7125Y388434D01*
X7125Y391566D01*
X8324Y394461D01*
X10539Y396676D01*
X13434Y397875D01*
X16566Y397875D01*
X19461Y396676D01*
X21676Y394461D01*
X22875Y391566D01*
X22875Y388434D01*
X21676Y385539D01*
X19461Y383324D01*
X16566Y382125D01*
X13434Y382125D01*
G37*
%LPD*%
%LPC*%
G36*
X253395Y369401D02*
X253395Y369401D01*
X259111Y369401D01*
X259111Y364271D01*
X259003Y363450D01*
X258789Y362651D01*
X258472Y361886D01*
X258058Y361169D01*
X257554Y360512D01*
X256968Y359926D01*
X256818Y359811D01*
X256428Y359511D01*
X256312Y359422D01*
X255595Y359008D01*
X254830Y358692D01*
X254030Y358477D01*
X253395Y358394D01*
X253395Y369401D01*
G37*
%LPD*%
%LPC*%
G36*
X343395Y369401D02*
X343395Y369401D01*
X349111Y369401D01*
X349111Y364271D01*
X349003Y363450D01*
X348789Y362651D01*
X348472Y361886D01*
X348058Y361169D01*
X347554Y360512D01*
X346968Y359926D01*
X346818Y359811D01*
X346428Y359511D01*
X346312Y359422D01*
X345595Y359008D01*
X344830Y358692D01*
X344030Y358477D01*
X343395Y358394D01*
X343395Y369401D01*
G37*
%LPD*%
%LPC*%
G36*
X63395Y369401D02*
X63395Y369401D01*
X69111Y369401D01*
X69111Y364271D01*
X69003Y363450D01*
X68789Y362651D01*
X68472Y361886D01*
X68058Y361169D01*
X67554Y360512D01*
X66968Y359926D01*
X66818Y359811D01*
X66428Y359511D01*
X66312Y359422D01*
X65595Y359008D01*
X64830Y358692D01*
X64030Y358477D01*
X63395Y358394D01*
X63395Y369401D01*
G37*
%LPD*%
%LPC*%
G36*
X168395Y369401D02*
X168395Y369401D01*
X174111Y369401D01*
X174111Y364271D01*
X174003Y363450D01*
X173789Y362651D01*
X173472Y361886D01*
X173058Y361169D01*
X172554Y360512D01*
X171968Y359926D01*
X171818Y359811D01*
X171428Y359511D01*
X171312Y359422D01*
X170595Y359008D01*
X169830Y358692D01*
X169030Y358477D01*
X168395Y358394D01*
X168395Y369401D01*
G37*
%LPD*%
%LPC*%
G36*
X408394Y88395D02*
X408394Y88395D01*
X408477Y89030D01*
X408692Y89830D01*
X409008Y90595D01*
X409422Y91312D01*
X409926Y91968D01*
X410512Y92554D01*
X411096Y93002D01*
X411169Y93058D01*
X411886Y93472D01*
X412651Y93789D01*
X413450Y94003D01*
X414271Y94111D01*
X419401Y94111D01*
X419401Y88395D01*
X408394Y88395D01*
G37*
%LPD*%
%LPC*%
G36*
X343395Y370599D02*
X343395Y370599D01*
X343395Y381606D01*
X344030Y381523D01*
X344830Y381308D01*
X345595Y380991D01*
X346312Y380578D01*
X346968Y380074D01*
X347554Y379488D01*
X348058Y378831D01*
X348472Y378114D01*
X348789Y377349D01*
X349003Y376550D01*
X349111Y375729D01*
X349111Y370599D01*
X343395Y370599D01*
G37*
%LPD*%
%LPC*%
G36*
X63395Y370599D02*
X63395Y370599D01*
X63395Y381606D01*
X64030Y381523D01*
X64830Y381308D01*
X65595Y380991D01*
X66312Y380578D01*
X66968Y380074D01*
X67554Y379488D01*
X68058Y378831D01*
X68472Y378114D01*
X68789Y377349D01*
X69003Y376550D01*
X69111Y375729D01*
X69111Y370599D01*
X63395Y370599D01*
G37*
%LPD*%
%LPC*%
G36*
X420599Y88395D02*
X420599Y88395D01*
X420599Y94111D01*
X425729Y94111D01*
X426550Y94003D01*
X427349Y93789D01*
X428114Y93472D01*
X428831Y93058D01*
X429488Y92554D01*
X430074Y91968D01*
X430578Y91312D01*
X430991Y90595D01*
X431308Y89830D01*
X431523Y89030D01*
X431606Y88395D01*
X420599Y88395D01*
G37*
%LPD*%
%LPC*%
G36*
X168395Y370599D02*
X168395Y370599D01*
X168395Y381606D01*
X169030Y381523D01*
X169830Y381308D01*
X170595Y380991D01*
X171312Y380578D01*
X171968Y380074D01*
X172554Y379488D01*
X173058Y378831D01*
X173472Y378114D01*
X173789Y377349D01*
X174003Y376550D01*
X174111Y375729D01*
X174111Y370599D01*
X168395Y370599D01*
G37*
%LPD*%
%LPC*%
G36*
X443395Y370599D02*
X443395Y370599D01*
X443395Y381606D01*
X444030Y381523D01*
X444830Y381308D01*
X445595Y380991D01*
X446312Y380578D01*
X446968Y380074D01*
X447554Y379488D01*
X448058Y378831D01*
X448472Y378114D01*
X448789Y377349D01*
X449003Y376550D01*
X449111Y375729D01*
X449111Y370599D01*
X443395Y370599D01*
G37*
%LPD*%
%LPC*%
G36*
X253395Y370599D02*
X253395Y370599D01*
X253395Y381606D01*
X254030Y381523D01*
X254830Y381308D01*
X255595Y380991D01*
X256312Y380578D01*
X256968Y380074D01*
X257554Y379488D01*
X258058Y378831D01*
X258472Y378114D01*
X258789Y377349D01*
X259003Y376550D01*
X259111Y375729D01*
X259111Y370599D01*
X253395Y370599D01*
G37*
%LPD*%
%LPC*%
G36*
X443395Y369401D02*
X443395Y369401D01*
X449111Y369401D01*
X449111Y364271D01*
X449003Y363450D01*
X448789Y362651D01*
X448472Y361886D01*
X448058Y361169D01*
X447554Y360512D01*
X446968Y359926D01*
X446818Y359811D01*
X446428Y359511D01*
X446312Y359422D01*
X445595Y359008D01*
X444830Y358692D01*
X444030Y358477D01*
X443395Y358394D01*
X443395Y369401D01*
G37*
%LPD*%
%LPC*%
G36*
X56480Y370599D02*
X56480Y370599D01*
X56480Y375729D01*
X56588Y376550D01*
X56802Y377349D01*
X57119Y378114D01*
X57533Y378831D01*
X58037Y379488D01*
X58622Y380074D01*
X58893Y380282D01*
X59279Y380578D01*
X59996Y380991D01*
X60761Y381308D01*
X61561Y381523D01*
X62196Y381606D01*
X62196Y370599D01*
X56480Y370599D01*
G37*
%LPD*%
%LPC*%
G36*
X436480Y370599D02*
X436480Y370599D01*
X436480Y375729D01*
X436588Y376550D01*
X436802Y377349D01*
X437119Y378114D01*
X437533Y378831D01*
X438037Y379488D01*
X438622Y380074D01*
X438893Y380282D01*
X439279Y380578D01*
X439996Y380991D01*
X440761Y381308D01*
X441561Y381523D01*
X442196Y381606D01*
X442196Y370599D01*
X436480Y370599D01*
G37*
%LPD*%
%LPC*%
G36*
X161480Y370599D02*
X161480Y370599D01*
X161480Y375729D01*
X161588Y376550D01*
X161802Y377349D01*
X162119Y378114D01*
X162533Y378831D01*
X163037Y379488D01*
X163622Y380074D01*
X163893Y380282D01*
X164279Y380578D01*
X164996Y380991D01*
X165761Y381308D01*
X166561Y381523D01*
X167196Y381606D01*
X167196Y370599D01*
X161480Y370599D01*
G37*
%LPD*%
%LPC*%
G36*
X336480Y370599D02*
X336480Y370599D01*
X336480Y375729D01*
X336588Y376550D01*
X336802Y377349D01*
X337119Y378114D01*
X337533Y378831D01*
X338037Y379488D01*
X338622Y380074D01*
X338893Y380282D01*
X339279Y380578D01*
X339996Y380991D01*
X340761Y381308D01*
X341561Y381523D01*
X342196Y381606D01*
X342196Y370599D01*
X336480Y370599D01*
G37*
%LPD*%
%LPC*%
G36*
X246480Y370599D02*
X246480Y370599D01*
X246480Y375729D01*
X246588Y376550D01*
X246802Y377349D01*
X247119Y378114D01*
X247533Y378831D01*
X248037Y379488D01*
X248622Y380074D01*
X248893Y380282D01*
X249279Y380578D01*
X249996Y380991D01*
X250761Y381308D01*
X251561Y381523D01*
X252196Y381606D01*
X252196Y370599D01*
X246480Y370599D01*
G37*
%LPD*%
%LPC*%
G36*
X61561Y358477D02*
X61561Y358477D01*
X60761Y358692D01*
X59996Y359008D01*
X59279Y359422D01*
X58622Y359926D01*
X58037Y360512D01*
X57533Y361169D01*
X57119Y361886D01*
X56802Y362651D01*
X56588Y363450D01*
X56480Y364271D01*
X56480Y369401D01*
X62196Y369401D01*
X62196Y358394D01*
X61561Y358477D01*
G37*
%LPD*%
%LPC*%
G36*
X414271Y81480D02*
X414271Y81480D01*
X413450Y81588D01*
X412651Y81802D01*
X411886Y82119D01*
X411169Y82533D01*
X410512Y83037D01*
X409926Y83622D01*
X409422Y84279D01*
X409008Y84996D01*
X408692Y85761D01*
X408477Y86561D01*
X408394Y87196D01*
X419401Y87196D01*
X419401Y81480D01*
X414271Y81480D01*
G37*
%LPD*%
%LPC*%
G36*
X441561Y358477D02*
X441561Y358477D01*
X440761Y358692D01*
X439996Y359008D01*
X439279Y359422D01*
X438622Y359926D01*
X438037Y360512D01*
X437533Y361169D01*
X437119Y361886D01*
X436802Y362651D01*
X436588Y363450D01*
X436480Y364271D01*
X436480Y369401D01*
X442196Y369401D01*
X442196Y358394D01*
X441561Y358477D01*
G37*
%LPD*%
%LPC*%
G36*
X341561Y358477D02*
X341561Y358477D01*
X340761Y358692D01*
X339996Y359008D01*
X339279Y359422D01*
X338622Y359926D01*
X338037Y360512D01*
X337533Y361169D01*
X337119Y361886D01*
X336802Y362651D01*
X336588Y363450D01*
X336480Y364271D01*
X336480Y369401D01*
X342196Y369401D01*
X342196Y358394D01*
X341561Y358477D01*
G37*
%LPD*%
%LPC*%
G36*
X251561Y358477D02*
X251561Y358477D01*
X250761Y358692D01*
X249996Y359008D01*
X249279Y359422D01*
X248622Y359926D01*
X248037Y360512D01*
X247533Y361169D01*
X247119Y361886D01*
X246802Y362651D01*
X246588Y363450D01*
X246480Y364271D01*
X246480Y369401D01*
X252196Y369401D01*
X252196Y358394D01*
X251561Y358477D01*
G37*
%LPD*%
%LPC*%
G36*
X166561Y358477D02*
X166561Y358477D01*
X165761Y358692D01*
X164996Y359008D01*
X164279Y359422D01*
X163622Y359926D01*
X163037Y360512D01*
X162533Y361169D01*
X162119Y361886D01*
X161802Y362651D01*
X161588Y363450D01*
X161480Y364271D01*
X161480Y369401D01*
X167196Y369401D01*
X167196Y358394D01*
X166561Y358477D01*
G37*
%LPD*%
%LPC*%
G36*
X420599Y81480D02*
X420599Y81480D01*
X420599Y87196D01*
X431606Y87196D01*
X431523Y86561D01*
X431308Y85761D01*
X430991Y84996D01*
X430578Y84279D01*
X430074Y83622D01*
X429488Y83037D01*
X429447Y83005D01*
X429057Y82706D01*
X428831Y82533D01*
X428114Y82119D01*
X427349Y81802D01*
X426550Y81588D01*
X425729Y81480D01*
X420599Y81480D01*
G37*
%LPD*%
%LPC*%
G36*
X70599Y169401D02*
X70599Y169401D01*
X74249Y169401D01*
X74249Y166418D01*
X74144Y165757D01*
X73937Y165121D01*
X73634Y164525D01*
X73241Y163984D01*
X72768Y163511D01*
X72227Y163118D01*
X71631Y162814D01*
X70995Y162608D01*
X70599Y162545D01*
X70599Y169401D01*
G37*
%LPD*%
%LPC*%
G36*
X165599Y169401D02*
X165599Y169401D01*
X169249Y169401D01*
X169249Y166418D01*
X169144Y165757D01*
X168937Y165121D01*
X168634Y164525D01*
X168241Y163984D01*
X167768Y163511D01*
X167227Y163118D01*
X166631Y162814D01*
X165995Y162608D01*
X165599Y162545D01*
X165599Y169401D01*
G37*
%LPD*%
%LPC*%
G36*
X355599Y169401D02*
X355599Y169401D01*
X359249Y169401D01*
X359249Y166418D01*
X359144Y165757D01*
X358937Y165121D01*
X358634Y164525D01*
X358241Y163984D01*
X357768Y163511D01*
X357227Y163118D01*
X356631Y162814D01*
X355995Y162608D01*
X355599Y162545D01*
X355599Y169401D01*
G37*
%LPD*%
%LPC*%
G36*
X260599Y169401D02*
X260599Y169401D01*
X264249Y169401D01*
X264249Y166418D01*
X264144Y165757D01*
X263937Y165121D01*
X263634Y164525D01*
X263241Y163984D01*
X262768Y163511D01*
X262227Y163118D01*
X261631Y162814D01*
X260995Y162608D01*
X260599Y162545D01*
X260599Y169401D01*
G37*
%LPD*%
%LPC*%
G36*
X450599Y169401D02*
X450599Y169401D01*
X454249Y169401D01*
X454249Y166418D01*
X454144Y165757D01*
X453937Y165121D01*
X453634Y164525D01*
X453241Y163984D01*
X452768Y163511D01*
X452227Y163118D01*
X451631Y162814D01*
X450995Y162608D01*
X450599Y162545D01*
X450599Y169401D01*
G37*
%LPD*%
%LPC*%
G36*
X62794Y369999D02*
X62794Y369999D01*
X62794Y370001D01*
X62796Y370001D01*
X62796Y369999D01*
X62794Y369999D01*
G37*
%LPD*%
%LPC*%
G36*
X167794Y369999D02*
X167794Y369999D01*
X167794Y370001D01*
X167796Y370001D01*
X167796Y369999D01*
X167794Y369999D01*
G37*
%LPD*%
%LPC*%
G36*
X419999Y87794D02*
X419999Y87794D01*
X419999Y87796D01*
X420001Y87796D01*
X420001Y87794D01*
X419999Y87794D01*
G37*
%LPD*%
%LPC*%
G36*
X252794Y369999D02*
X252794Y369999D01*
X252794Y370001D01*
X252796Y370001D01*
X252796Y369999D01*
X252794Y369999D01*
G37*
%LPD*%
%LPC*%
G36*
X442794Y369999D02*
X442794Y369999D01*
X442794Y370001D01*
X442796Y370001D01*
X442796Y369999D01*
X442794Y369999D01*
G37*
%LPD*%
%LPC*%
G36*
X342794Y369999D02*
X342794Y369999D01*
X342794Y370001D01*
X342796Y370001D01*
X342796Y369999D01*
X342794Y369999D01*
G37*
%LPD*%
D10*
X300000Y91457D02*
X300000Y98543D01*
X290000Y98543D02*
X290000Y91457D01*
X280000Y91457D02*
X280000Y98543D01*
X270000Y98543D02*
X270000Y91457D01*
X260000Y91457D02*
X260000Y98543D01*
X250000Y98543D02*
X250000Y91457D01*
X240000Y91457D02*
X240000Y98543D01*
X230000Y98543D02*
X230000Y91457D01*
X220000Y91457D02*
X220000Y98543D01*
X210000Y98543D02*
X210000Y91457D01*
X200000Y91457D02*
X200000Y98543D01*
X190000Y98543D02*
X190000Y91457D01*
X300000Y38543D02*
X300000Y31457D01*
X290000Y31457D02*
X290000Y38543D01*
X280000Y38543D02*
X280000Y31457D01*
X220000Y31457D02*
X220000Y38543D01*
X210000Y38543D02*
X210000Y31457D01*
X200000Y31457D02*
X200000Y38543D01*
X190000Y38543D02*
X190000Y31457D01*
X160000Y31457D02*
X160000Y38543D01*
X160000Y91457D02*
X160000Y98543D01*
X170000Y98543D02*
X170000Y91457D01*
X180000Y91457D02*
X180000Y98543D01*
X170000Y38543D02*
X170000Y31457D01*
X180000Y31457D02*
X180000Y38543D01*
X270000Y38543D02*
X270000Y31457D01*
D11*
X295000Y55000D03*
X295000Y65000D03*
X295000Y75000D03*
D10*
X230000Y38543D02*
X230000Y31457D01*
X240000Y31457D02*
X240000Y38543D01*
X250000Y38543D02*
X250000Y31457D01*
X260000Y31457D02*
X260000Y38543D01*
D11*
X305000Y55000D03*
X305000Y65000D03*
X305000Y75000D03*
D12*
X80000Y266752D02*
X80000Y273248D01*
X70000Y273248D02*
X70000Y266752D01*
X60000Y266752D02*
X60000Y273248D01*
X50000Y273248D02*
X50000Y266752D01*
X40000Y266752D02*
X40000Y273248D01*
X30000Y273248D02*
X30000Y266752D01*
X70000Y173248D02*
X70000Y166752D01*
X60000Y166752D02*
X60000Y173248D01*
X50000Y173248D02*
X50000Y166752D01*
X40000Y166752D02*
X40000Y173248D01*
X175000Y266752D02*
X175000Y273248D01*
X165000Y273248D02*
X165000Y266752D01*
X155000Y266752D02*
X155000Y273248D01*
X145000Y273248D02*
X145000Y266752D01*
X135000Y266752D02*
X135000Y273248D01*
X125000Y273248D02*
X125000Y266752D01*
X165000Y173248D02*
X165000Y166752D01*
X155000Y166752D02*
X155000Y173248D01*
X145000Y173248D02*
X145000Y166752D01*
X135000Y166752D02*
X135000Y173248D01*
X270000Y266752D02*
X270000Y273248D01*
X260000Y273248D02*
X260000Y266752D01*
X250000Y266752D02*
X250000Y273248D01*
X240000Y273248D02*
X240000Y266752D01*
X230000Y266752D02*
X230000Y273248D01*
X220000Y273248D02*
X220000Y266752D01*
X260000Y173248D02*
X260000Y166752D01*
X250000Y166752D02*
X250000Y173248D01*
X240000Y173248D02*
X240000Y166752D01*
X230000Y166752D02*
X230000Y173248D01*
X365000Y266752D02*
X365000Y273248D01*
X355000Y273248D02*
X355000Y266752D01*
X345000Y266752D02*
X345000Y273248D01*
X335000Y273248D02*
X335000Y266752D01*
X325000Y266752D02*
X325000Y273248D01*
X315000Y273248D02*
X315000Y266752D01*
X355000Y173248D02*
X355000Y166752D01*
X345000Y166752D02*
X345000Y173248D01*
X335000Y173248D02*
X335000Y166752D01*
X325000Y166752D02*
X325000Y173248D01*
X460000Y266752D02*
X460000Y273248D01*
X450000Y273248D02*
X450000Y266752D01*
X440000Y266752D02*
X440000Y273248D01*
X430000Y273248D02*
X430000Y266752D01*
X420000Y266752D02*
X420000Y273248D01*
X410000Y273248D02*
X410000Y266752D01*
X450000Y173248D02*
X450000Y166752D01*
X440000Y166752D02*
X440000Y173248D01*
X430000Y173248D02*
X430000Y166752D01*
X420000Y166752D02*
X420000Y173248D01*
D13*
X31614Y314685D02*
X31614Y325315D01*
X47205Y325315D02*
X47205Y314685D01*
X62795Y314685D02*
X62795Y325315D01*
X78386Y325315D02*
X78386Y314685D01*
X327205Y364685D02*
X327205Y375315D01*
X342795Y375315D02*
X342795Y364685D01*
X414685Y56614D02*
X425315Y56614D01*
X425315Y72205D02*
X414685Y72205D01*
X414685Y87795D02*
X425315Y87795D01*
X425315Y103386D02*
X414685Y103386D01*
X131614Y314685D02*
X131614Y325315D01*
X147205Y325315D02*
X147205Y314685D01*
X162795Y314685D02*
X162795Y325315D01*
X178386Y325315D02*
X178386Y314685D01*
X221614Y314685D02*
X221614Y325315D01*
X237205Y325315D02*
X237205Y314685D01*
X252795Y314685D02*
X252795Y325315D01*
X268386Y325315D02*
X268386Y314685D01*
X311614Y314685D02*
X311614Y325315D01*
X327205Y325315D02*
X327205Y314685D01*
X342795Y314685D02*
X342795Y325315D01*
X358386Y325315D02*
X358386Y314685D01*
X411614Y314685D02*
X411614Y325315D01*
X427205Y325315D02*
X427205Y314685D01*
X442795Y314685D02*
X442795Y325315D01*
X458386Y325315D02*
X458386Y314685D01*
X427205Y364685D02*
X427205Y375315D01*
X442795Y375315D02*
X442795Y364685D01*
X152205Y364685D02*
X152205Y375315D01*
X167795Y375315D02*
X167795Y364685D01*
X47205Y364685D02*
X47205Y375315D01*
X62795Y375315D02*
X62795Y364685D01*
X237205Y364685D02*
X237205Y375315D01*
X252795Y375315D02*
X252795Y364685D01*
D14*
X122500Y182500D02*
X45000Y182500D01*
X123750Y181250D02*
X135000Y170000D01*
X123750Y181250D02*
X122500Y182500D01*
X217500Y182500D02*
X218750Y181250D01*
X230000Y170000D01*
X217500Y182500D02*
X125000Y182500D01*
X123750Y181250D01*
X312500Y182500D02*
X313750Y181250D01*
X325000Y170000D01*
X312500Y182500D02*
X220000Y182500D01*
X218750Y181250D01*
X407500Y182500D02*
X408750Y181250D01*
X420000Y170000D01*
X407500Y182500D02*
X315000Y182500D01*
X313750Y181250D01*
X245000Y82500D02*
X117500Y82500D01*
X40000Y160000D01*
X40000Y170000D01*
X420000Y105000D02*
X460000Y145000D01*
X460000Y175000D01*
X420000Y105000D02*
X420000Y103386D01*
X408750Y181250D02*
X410000Y182500D01*
X270000Y57500D02*
X245000Y82500D01*
X270000Y57500D02*
X270000Y35000D01*
X452500Y182500D02*
X460000Y175000D01*
X452500Y182500D02*
X410000Y182500D01*
X45000Y182500D02*
X40000Y177500D01*
X40000Y170000D01*
X430000Y170000D02*
X430000Y155000D01*
X240000Y102500D02*
X240000Y95000D01*
X417500Y142500D02*
X430000Y155000D01*
X280000Y142500D02*
X240000Y102500D01*
X280000Y142500D02*
X417500Y142500D01*
X440000Y150000D02*
X440000Y170000D01*
X250000Y102500D02*
X250000Y95000D01*
X425000Y135000D02*
X440000Y150000D01*
X282500Y135000D02*
X250000Y102500D01*
X282500Y135000D02*
X425000Y135000D01*
X160000Y95000D02*
X120000Y95000D01*
X50000Y165000D02*
X50000Y170000D01*
X50000Y165000D02*
X120000Y95000D01*
X60000Y165000D02*
X60000Y170000D01*
X60000Y165000D02*
X117500Y107500D01*
X165000Y107500D01*
X170000Y102500D01*
X170000Y95000D01*
X180000Y95000D02*
X180000Y102500D01*
X145000Y137500D01*
X145000Y170000D01*
X190000Y102500D02*
X190000Y95000D01*
X190000Y102500D02*
X155000Y137500D01*
X155000Y170000D01*
X240000Y170000D02*
X240000Y142500D01*
X200000Y102500D01*
X200000Y95000D01*
X210000Y95000D02*
X210000Y102500D01*
X250000Y142500D01*
X250000Y170000D01*
X220000Y102500D02*
X220000Y95000D01*
X220000Y102500D02*
X275000Y157500D01*
X335000Y165132D02*
X335000Y170000D01*
X335000Y165132D02*
X327368Y157500D01*
X275000Y157500D01*
X345000Y165000D02*
X345000Y170000D01*
X230000Y102500D02*
X230000Y95000D01*
X230000Y102500D02*
X277500Y150000D01*
X330000Y150000D01*
X345000Y165000D01*
X80000Y270000D02*
X80000Y320000D01*
X78386Y320000D01*
X70000Y307500D02*
X70000Y270000D01*
X70000Y307500D02*
X65000Y312500D01*
X65000Y320000D01*
X62795Y320000D01*
X60000Y302500D02*
X60000Y270000D01*
X60000Y302500D02*
X47500Y315000D01*
X47500Y320000D01*
X47205Y320000D01*
X32500Y320000D02*
X32500Y312500D01*
X32500Y320000D02*
X31614Y320000D01*
X32500Y312500D02*
X50000Y295000D01*
X50000Y270000D01*
X132500Y312500D02*
X132500Y320000D01*
X131614Y320000D01*
X132500Y312500D02*
X145000Y300000D01*
X145000Y270000D01*
X155000Y270000D02*
X155000Y307500D01*
X147500Y315000D01*
X147500Y320000D01*
X147205Y320000D01*
X165000Y320000D02*
X165000Y270000D01*
X165000Y320000D02*
X162795Y320000D01*
X175000Y320000D02*
X175000Y270000D01*
X175000Y320000D02*
X178386Y320000D01*
X270000Y320000D02*
X270000Y270000D01*
X270000Y320000D02*
X268386Y320000D01*
X260000Y307500D02*
X260000Y270000D01*
X260000Y307500D02*
X255000Y312500D01*
X255000Y320000D01*
X252795Y320000D01*
X250000Y302500D02*
X250000Y270000D01*
X250000Y302500D02*
X237500Y315000D01*
X237500Y320000D01*
X237205Y320000D01*
X222500Y320000D02*
X222500Y312500D01*
X222500Y320000D02*
X221614Y320000D01*
X222500Y312500D02*
X240000Y295000D01*
X240000Y270000D01*
X365000Y270000D02*
X365000Y320000D01*
X358386Y320000D01*
X355000Y302500D02*
X355000Y270000D01*
X355000Y302500D02*
X345000Y312500D01*
X345000Y320000D01*
X342795Y320000D01*
X327500Y320000D02*
X327500Y315000D01*
X327500Y320000D02*
X327205Y320000D01*
X327500Y315000D02*
X345000Y297500D01*
X345000Y270000D01*
X312500Y312500D02*
X312500Y320000D01*
X311614Y320000D01*
X312500Y312500D02*
X335000Y290000D01*
X335000Y270000D01*
X460000Y270000D02*
X460000Y320000D01*
X458386Y320000D01*
X450000Y307500D02*
X450000Y270000D01*
X450000Y307500D02*
X445000Y312500D01*
X445000Y320000D01*
X442795Y320000D01*
X440000Y302500D02*
X440000Y270000D01*
X440000Y302500D02*
X427500Y315000D01*
X427500Y320000D01*
X427205Y320000D01*
X412500Y320000D02*
X412500Y312500D01*
X412500Y320000D02*
X411614Y320000D01*
X412500Y312500D02*
X430000Y295000D01*
X430000Y270000D01*
X240000Y35000D02*
X240000Y25000D01*
X365000Y22500D02*
X412500Y70000D01*
X420000Y70000D01*
X420000Y72205D01*
X242500Y22500D02*
X240000Y25000D01*
X242500Y22500D02*
X365000Y22500D01*
X230000Y25000D02*
X230000Y35000D01*
X380000Y15000D02*
X420000Y55000D01*
X420000Y56614D01*
X240000Y15000D02*
X230000Y25000D01*
X240000Y15000D02*
X380000Y15000D01*
D15*
X0Y0D02*
X489921Y0D01*
X489921Y403701D01*
X0Y403701D01*
X0Y0D01*
X20906Y14789D02*
X20875Y14368D01*
X20815Y13951D01*
X20726Y13539D01*
X20607Y13134D01*
X20459Y12739D01*
X20284Y12355D01*
X20082Y11985D01*
X19854Y11630D01*
X19601Y11292D01*
X19325Y10973D01*
X19027Y10675D01*
X18708Y10399D01*
X18370Y10146D01*
X18015Y9918D01*
X17645Y9716D01*
X17261Y9541D01*
X16866Y9393D01*
X16461Y9274D01*
X16049Y9185D01*
X15632Y9125D01*
X15211Y9094D01*
X14789Y9094D01*
X14368Y9125D01*
X13951Y9185D01*
X13539Y9274D01*
X13134Y9393D01*
X12739Y9541D01*
X12355Y9716D01*
X11985Y9918D01*
X11630Y10146D01*
X11292Y10399D01*
X10973Y10675D01*
X10675Y10973D01*
X10399Y11292D01*
X10146Y11630D01*
X9918Y11985D01*
X9716Y12355D01*
X9541Y12739D01*
X9393Y13134D01*
X9274Y13539D01*
X9185Y13951D01*
X9125Y14368D01*
X9094Y14789D01*
X9094Y15211D01*
X9125Y15632D01*
X9185Y16049D01*
X9274Y16461D01*
X9393Y16866D01*
X9541Y17261D01*
X9716Y17645D01*
X9918Y18015D01*
X10146Y18370D01*
X10399Y18708D01*
X10675Y19027D01*
X10973Y19325D01*
X11292Y19601D01*
X11630Y19854D01*
X11985Y20082D01*
X12355Y20284D01*
X12739Y20459D01*
X13134Y20607D01*
X13539Y20726D01*
X13951Y20815D01*
X14368Y20875D01*
X14789Y20906D01*
X15211Y20906D01*
X15632Y20875D01*
X16049Y20815D01*
X16461Y20726D01*
X16866Y20607D01*
X17261Y20459D01*
X17645Y20284D01*
X18015Y20082D01*
X18370Y19854D01*
X18708Y19601D01*
X19027Y19325D01*
X19325Y19027D01*
X19601Y18708D01*
X19854Y18370D01*
X20082Y18015D01*
X20284Y17645D01*
X20459Y17261D01*
X20607Y16866D01*
X20726Y16461D01*
X20815Y16049D01*
X20875Y15632D01*
X20906Y15211D01*
X20906Y14789D01*
X480906Y14789D02*
X480875Y14368D01*
X480815Y13951D01*
X480726Y13539D01*
X480607Y13134D01*
X480459Y12739D01*
X480284Y12355D01*
X480082Y11985D01*
X479854Y11630D01*
X479601Y11292D01*
X479325Y10973D01*
X479027Y10675D01*
X478708Y10399D01*
X478370Y10146D01*
X478015Y9918D01*
X477645Y9716D01*
X477261Y9541D01*
X476866Y9393D01*
X476461Y9274D01*
X476049Y9185D01*
X475632Y9125D01*
X475211Y9094D01*
X474789Y9094D01*
X474368Y9125D01*
X473951Y9185D01*
X473539Y9274D01*
X473134Y9393D01*
X472739Y9541D01*
X472355Y9716D01*
X471985Y9918D01*
X471630Y10146D01*
X471292Y10399D01*
X470973Y10675D01*
X470675Y10973D01*
X470399Y11292D01*
X470146Y11630D01*
X469918Y11985D01*
X469716Y12355D01*
X469541Y12739D01*
X469393Y13134D01*
X469274Y13539D01*
X469185Y13951D01*
X469125Y14368D01*
X469094Y14789D01*
X469094Y15211D01*
X469125Y15632D01*
X469185Y16049D01*
X469274Y16461D01*
X469393Y16866D01*
X469541Y17261D01*
X469716Y17645D01*
X469918Y18015D01*
X470146Y18370D01*
X470399Y18708D01*
X470675Y19027D01*
X470973Y19325D01*
X471292Y19601D01*
X471630Y19854D01*
X471985Y20082D01*
X472355Y20284D01*
X472739Y20459D01*
X473134Y20607D01*
X473539Y20726D01*
X473951Y20815D01*
X474368Y20875D01*
X474789Y20906D01*
X475211Y20906D01*
X475632Y20875D01*
X476049Y20815D01*
X476461Y20726D01*
X476866Y20607D01*
X477261Y20459D01*
X477645Y20284D01*
X478015Y20082D01*
X478370Y19854D01*
X478708Y19601D01*
X479027Y19325D01*
X479325Y19027D01*
X479601Y18708D01*
X479854Y18370D01*
X480082Y18015D01*
X480284Y17645D01*
X480459Y17261D01*
X480607Y16866D01*
X480726Y16461D01*
X480815Y16049D01*
X480875Y15632D01*
X480906Y15211D01*
X480906Y14789D01*
X480906Y389789D02*
X480875Y389368D01*
X480815Y388951D01*
X480726Y388539D01*
X480607Y388134D01*
X480459Y387739D01*
X480284Y387355D01*
X480082Y386985D01*
X479854Y386630D01*
X479601Y386292D01*
X479325Y385973D01*
X479027Y385675D01*
X478708Y385399D01*
X478370Y385146D01*
X478015Y384918D01*
X477645Y384716D01*
X477261Y384541D01*
X476866Y384393D01*
X476461Y384274D01*
X476049Y384185D01*
X475632Y384125D01*
X475211Y384094D01*
X474789Y384094D01*
X474368Y384125D01*
X473951Y384185D01*
X473539Y384274D01*
X473134Y384393D01*
X472739Y384541D01*
X472355Y384716D01*
X471985Y384918D01*
X471630Y385146D01*
X471292Y385399D01*
X470973Y385675D01*
X470675Y385973D01*
X470399Y386292D01*
X470146Y386630D01*
X469918Y386985D01*
X469716Y387355D01*
X469541Y387739D01*
X469393Y388134D01*
X469274Y388539D01*
X469185Y388951D01*
X469125Y389368D01*
X469094Y389789D01*
X469094Y390211D01*
X469125Y390632D01*
X469185Y391049D01*
X469274Y391461D01*
X469393Y391866D01*
X469541Y392261D01*
X469716Y392645D01*
X469918Y393015D01*
X470146Y393370D01*
X470399Y393708D01*
X470675Y394027D01*
X470973Y394325D01*
X471292Y394601D01*
X471630Y394854D01*
X471985Y395082D01*
X472355Y395284D01*
X472739Y395459D01*
X473134Y395607D01*
X473539Y395726D01*
X473951Y395815D01*
X474368Y395875D01*
X474789Y395906D01*
X475211Y395906D01*
X475632Y395875D01*
X476049Y395815D01*
X476461Y395726D01*
X476866Y395607D01*
X477261Y395459D01*
X477645Y395284D01*
X478015Y395082D01*
X478370Y394854D01*
X478708Y394601D01*
X479027Y394325D01*
X479325Y394027D01*
X479601Y393708D01*
X479854Y393370D01*
X480082Y393015D01*
X480284Y392645D01*
X480459Y392261D01*
X480607Y391866D01*
X480726Y391461D01*
X480815Y391049D01*
X480875Y390632D01*
X480906Y390211D01*
X480906Y389789D01*
X20906Y389789D02*
X20875Y389368D01*
X20815Y388951D01*
X20726Y388539D01*
X20607Y388134D01*
X20459Y387739D01*
X20284Y387355D01*
X20082Y386985D01*
X19854Y386630D01*
X19601Y386292D01*
X19325Y385973D01*
X19027Y385675D01*
X18708Y385399D01*
X18370Y385146D01*
X18015Y384918D01*
X17645Y384716D01*
X17261Y384541D01*
X16866Y384393D01*
X16461Y384274D01*
X16049Y384185D01*
X15632Y384125D01*
X15211Y384094D01*
X14789Y384094D01*
X14368Y384125D01*
X13951Y384185D01*
X13539Y384274D01*
X13134Y384393D01*
X12739Y384541D01*
X12355Y384716D01*
X11985Y384918D01*
X11630Y385146D01*
X11292Y385399D01*
X10973Y385675D01*
X10675Y385973D01*
X10399Y386292D01*
X10146Y386630D01*
X9918Y386985D01*
X9716Y387355D01*
X9541Y387739D01*
X9393Y388134D01*
X9274Y388539D01*
X9185Y388951D01*
X9125Y389368D01*
X9094Y389789D01*
X9094Y390211D01*
X9125Y390632D01*
X9185Y391049D01*
X9274Y391461D01*
X9393Y391866D01*
X9541Y392261D01*
X9716Y392645D01*
X9918Y393015D01*
X10146Y393370D01*
X10399Y393708D01*
X10675Y394027D01*
X10973Y394325D01*
X11292Y394601D01*
X11630Y394854D01*
X11985Y395082D01*
X12355Y395284D01*
X12739Y395459D01*
X13134Y395607D01*
X13539Y395726D01*
X13951Y395815D01*
X14368Y395875D01*
X14789Y395906D01*
X15211Y395906D01*
X15632Y395875D01*
X16049Y395815D01*
X16461Y395726D01*
X16866Y395607D01*
X17261Y395459D01*
X17645Y395284D01*
X18015Y395082D01*
X18370Y394854D01*
X18708Y394601D01*
X19027Y394325D01*
X19325Y394027D01*
X19601Y393708D01*
X19854Y393370D01*
X20082Y393015D01*
X20284Y392645D01*
X20459Y392261D01*
X20607Y391866D01*
X20726Y391461D01*
X20815Y391049D01*
X20875Y390632D01*
X20906Y390211D01*
X20906Y389789D01*
X20906Y14789D02*
X20875Y14368D01*
X20815Y13951D01*
X20726Y13539D01*
X20607Y13134D01*
X20459Y12739D01*
X20284Y12355D01*
X20082Y11985D01*
X19854Y11630D01*
X19601Y11292D01*
X19325Y10973D01*
X19027Y10675D01*
X18708Y10399D01*
X18370Y10146D01*
X18015Y9918D01*
X17645Y9716D01*
X17261Y9541D01*
X16866Y9393D01*
X16461Y9274D01*
X16049Y9185D01*
X15632Y9125D01*
X15211Y9094D01*
X14789Y9094D01*
X14368Y9125D01*
X13951Y9185D01*
X13539Y9274D01*
X13134Y9393D01*
X12739Y9541D01*
X12355Y9716D01*
X11985Y9918D01*
X11630Y10146D01*
X11292Y10399D01*
X10973Y10675D01*
X10675Y10973D01*
X10399Y11292D01*
X10146Y11630D01*
X9918Y11985D01*
X9716Y12355D01*
X9541Y12739D01*
X9393Y13134D01*
X9274Y13539D01*
X9185Y13951D01*
X9125Y14368D01*
X9094Y14789D01*
X9094Y15211D01*
X9125Y15632D01*
X9185Y16049D01*
X9274Y16461D01*
X9393Y16866D01*
X9541Y17261D01*
X9716Y17645D01*
X9918Y18015D01*
X10146Y18370D01*
X10399Y18708D01*
X10675Y19027D01*
X10973Y19325D01*
X11292Y19601D01*
X11630Y19854D01*
X11985Y20082D01*
X12355Y20284D01*
X12739Y20459D01*
X13134Y20607D01*
X13539Y20726D01*
X13951Y20815D01*
X14368Y20875D01*
X14789Y20906D01*
X15211Y20906D01*
X15632Y20875D01*
X16049Y20815D01*
X16461Y20726D01*
X16866Y20607D01*
X17261Y20459D01*
X17645Y20284D01*
X18015Y20082D01*
X18370Y19854D01*
X18708Y19601D01*
X19027Y19325D01*
X19325Y19027D01*
X19601Y18708D01*
X19854Y18370D01*
X20082Y18015D01*
X20284Y17645D01*
X20459Y17261D01*
X20607Y16866D01*
X20726Y16461D01*
X20815Y16049D01*
X20875Y15632D01*
X20906Y15211D01*
X20906Y14789D01*
X480906Y14789D02*
X480875Y14368D01*
X480815Y13951D01*
X480726Y13539D01*
X480607Y13134D01*
X480459Y12739D01*
X480284Y12355D01*
X480082Y11985D01*
X479854Y11630D01*
X479601Y11292D01*
X479325Y10973D01*
X479027Y10675D01*
X478708Y10399D01*
X478370Y10146D01*
X478015Y9918D01*
X477645Y9716D01*
X477261Y9541D01*
X476866Y9393D01*
X476461Y9274D01*
X476049Y9185D01*
X475632Y9125D01*
X475211Y9094D01*
X474789Y9094D01*
X474368Y9125D01*
X473951Y9185D01*
X473539Y9274D01*
X473134Y9393D01*
X472739Y9541D01*
X472355Y9716D01*
X471985Y9918D01*
X471630Y10146D01*
X471292Y10399D01*
X470973Y10675D01*
X470675Y10973D01*
X470399Y11292D01*
X470146Y11630D01*
X469918Y11985D01*
X469716Y12355D01*
X469541Y12739D01*
X469393Y13134D01*
X469274Y13539D01*
X469185Y13951D01*
X469125Y14368D01*
X469094Y14789D01*
X469094Y15211D01*
X469125Y15632D01*
X469185Y16049D01*
X469274Y16461D01*
X469393Y16866D01*
X469541Y17261D01*
X469716Y17645D01*
X469918Y18015D01*
X470146Y18370D01*
X470399Y18708D01*
X470675Y19027D01*
X470973Y19325D01*
X471292Y19601D01*
X471630Y19854D01*
X471985Y20082D01*
X472355Y20284D01*
X472739Y20459D01*
X473134Y20607D01*
X473539Y20726D01*
X473951Y20815D01*
X474368Y20875D01*
X474789Y20906D01*
X475211Y20906D01*
X475632Y20875D01*
X476049Y20815D01*
X476461Y20726D01*
X476866Y20607D01*
X477261Y20459D01*
X477645Y20284D01*
X478015Y20082D01*
X478370Y19854D01*
X478708Y19601D01*
X479027Y19325D01*
X479325Y19027D01*
X479601Y18708D01*
X479854Y18370D01*
X480082Y18015D01*
X480284Y17645D01*
X480459Y17261D01*
X480607Y16866D01*
X480726Y16461D01*
X480815Y16049D01*
X480875Y15632D01*
X480906Y15211D01*
X480906Y14789D01*
X480906Y389789D02*
X480875Y389368D01*
X480815Y388951D01*
X480726Y388539D01*
X480607Y388134D01*
X480459Y387739D01*
X480284Y387355D01*
X480082Y386985D01*
X479854Y386630D01*
X479601Y386292D01*
X479325Y385973D01*
X479027Y385675D01*
X478708Y385399D01*
X478370Y385146D01*
X478015Y384918D01*
X477645Y384716D01*
X477261Y384541D01*
X476866Y384393D01*
X476461Y384274D01*
X476049Y384185D01*
X475632Y384125D01*
X475211Y384094D01*
X474789Y384094D01*
X474368Y384125D01*
X473951Y384185D01*
X473539Y384274D01*
X473134Y384393D01*
X472739Y384541D01*
X472355Y384716D01*
X471985Y384918D01*
X471630Y385146D01*
X471292Y385399D01*
X470973Y385675D01*
X470675Y385973D01*
X470399Y386292D01*
X470146Y386630D01*
X469918Y386985D01*
X469716Y387355D01*
X469541Y387739D01*
X469393Y388134D01*
X469274Y388539D01*
X469185Y388951D01*
X469125Y389368D01*
X469094Y389789D01*
X469094Y390211D01*
X469125Y390632D01*
X469185Y391049D01*
X469274Y391461D01*
X469393Y391866D01*
X469541Y392261D01*
X469716Y392645D01*
X469918Y393015D01*
X470146Y393370D01*
X470399Y393708D01*
X470675Y394027D01*
X470973Y394325D01*
X471292Y394601D01*
X471630Y394854D01*
X471985Y395082D01*
X472355Y395284D01*
X472739Y395459D01*
X473134Y395607D01*
X473539Y395726D01*
X473951Y395815D01*
X474368Y395875D01*
X474789Y395906D01*
X475211Y395906D01*
X475632Y395875D01*
X476049Y395815D01*
X476461Y395726D01*
X476866Y395607D01*
X477261Y395459D01*
X477645Y395284D01*
X478015Y395082D01*
X478370Y394854D01*
X478708Y394601D01*
X479027Y394325D01*
X479325Y394027D01*
X479601Y393708D01*
X479854Y393370D01*
X480082Y393015D01*
X480284Y392645D01*
X480459Y392261D01*
X480607Y391866D01*
X480726Y391461D01*
X480815Y391049D01*
X480875Y390632D01*
X480906Y390211D01*
X480906Y389789D01*
X20906Y389789D02*
X20875Y389368D01*
X20815Y388951D01*
X20726Y388539D01*
X20607Y388134D01*
X20459Y387739D01*
X20284Y387355D01*
X20082Y386985D01*
X19854Y386630D01*
X19601Y386292D01*
X19325Y385973D01*
X19027Y385675D01*
X18708Y385399D01*
X18370Y385146D01*
X18015Y384918D01*
X17645Y384716D01*
X17261Y384541D01*
X16866Y384393D01*
X16461Y384274D01*
X16049Y384185D01*
X15632Y384125D01*
X15211Y384094D01*
X14789Y384094D01*
X14368Y384125D01*
X13951Y384185D01*
X13539Y384274D01*
X13134Y384393D01*
X12739Y384541D01*
X12355Y384716D01*
X11985Y384918D01*
X11630Y385146D01*
X11292Y385399D01*
X10973Y385675D01*
X10675Y385973D01*
X10399Y386292D01*
X10146Y386630D01*
X9918Y386985D01*
X9716Y387355D01*
X9541Y387739D01*
X9393Y388134D01*
X9274Y388539D01*
X9185Y388951D01*
X9125Y389368D01*
X9094Y389789D01*
X9094Y390211D01*
X9125Y390632D01*
X9185Y391049D01*
X9274Y391461D01*
X9393Y391866D01*
X9541Y392261D01*
X9716Y392645D01*
X9918Y393015D01*
X10146Y393370D01*
X10399Y393708D01*
X10675Y394027D01*
X10973Y394325D01*
X11292Y394601D01*
X11630Y394854D01*
X11985Y395082D01*
X12355Y395284D01*
X12739Y395459D01*
X13134Y395607D01*
X13539Y395726D01*
X13951Y395815D01*
X14368Y395875D01*
X14789Y395906D01*
X15211Y395906D01*
X15632Y395875D01*
X16049Y395815D01*
X16461Y395726D01*
X16866Y395607D01*
X17261Y395459D01*
X17645Y395284D01*
X18015Y395082D01*
X18370Y394854D01*
X18708Y394601D01*
X19027Y394325D01*
X19325Y394027D01*
X19601Y393708D01*
X19854Y393370D01*
X20082Y393015D01*
X20284Y392645D01*
X20459Y392261D01*
X20607Y391866D01*
X20726Y391461D01*
X20815Y391049D01*
X20875Y390632D01*
X20906Y390211D01*
X20906Y389789D01*
M02*
