%
M48
M72
T01C0.0320
T02C0.0394
T03C0.0400
T04C0.0669
T05C0.1181
T06C0.1220
%
T01
X5130Y9630
X6130Y9630
X6130Y10630
X5130Y10630
X14130Y10630
X15130Y10630
X15130Y9630
X14130Y9630
X23130Y9630
X24130Y9630
X24130Y10630
X23130Y10630
X26130Y14130
X27130Y14130
X27130Y16130
X26130Y16130
X32130Y10630
X33130Y10630
X33130Y9630
X32130Y9630
T02
X22130Y16130
X21130Y16130
X20130Y16130
X19130Y16130
X18130Y16130
X17130Y16130
X16130Y16130
X15130Y16130
X14130Y16130
X13130Y16130
T03
X8630Y15630
X7630Y15630
X6630Y15630
X5630Y15630
X5630Y16630
X6630Y16630
X7630Y16630
X8630Y16630
T04
X31630Y16910
X31630Y18469
X37130Y18469
X37130Y16910
X37130Y15350
X37130Y13791
X31630Y13791
X31630Y15350
T05
X3130Y2630
X3130Y21130
X39130Y21130
X39130Y2630
T06
X22130Y21230
X13130Y21230
M30
