G75*
%MOIN*%
%OFA0B0*%
%FSLAX24Y24*%
%IPPOS*%
%LPD*%
%AMOC8*
5,1,8,0,0,1.08239X$1,22.5*
%
%ADD10OC8,0.0714*%
%ADD11R,0.1000X0.0600*%
%ADD12R,0.0787X0.0787*%
%ADD13C,0.0787*%
%ADD14C,0.1063*%
%ADD15OC8,0.0794*%
%ADD16C,0.0394*%
%ADD17C,0.0060*%
D10*
X005130Y009630D03*
X006130Y009630D03*
X006130Y010630D03*
X005130Y010630D03*
X014130Y010630D03*
X015130Y010630D03*
X015130Y009630D03*
X014130Y009630D03*
X023130Y009630D03*
X024130Y009630D03*
X024130Y010630D03*
X023130Y010630D03*
X026130Y014130D03*
X027130Y014130D03*
X027130Y016130D03*
X026130Y016130D03*
X032130Y010630D03*
X033130Y010630D03*
X033130Y009630D03*
X032130Y009630D03*
D11*
X030830Y007630D03*
X030830Y006630D03*
X030830Y005630D03*
X030830Y004630D03*
X028430Y004630D03*
X028430Y005630D03*
X028430Y006630D03*
X028430Y007630D03*
X021830Y007630D03*
X021830Y006630D03*
X021830Y005630D03*
X021830Y004630D03*
X019430Y004630D03*
X019430Y005630D03*
X019430Y006630D03*
X019430Y007630D03*
X012830Y007630D03*
X012830Y006630D03*
X012830Y005630D03*
X012830Y004630D03*
X010430Y004630D03*
X010430Y005630D03*
X010430Y006630D03*
X010430Y007630D03*
X003830Y007630D03*
X003830Y006630D03*
X003830Y005630D03*
X003830Y004630D03*
X037430Y004630D03*
X037430Y005630D03*
X037430Y006630D03*
X037430Y007630D03*
D12*
X013130Y016130D03*
D13*
X014130Y016130D03*
X015130Y016130D03*
X016130Y016130D03*
X017130Y016130D03*
X018130Y016130D03*
X019130Y016130D03*
X020130Y016130D03*
X021130Y016130D03*
X022130Y016130D03*
D14*
X031099Y015350D02*
X032161Y015350D01*
X032161Y013791D02*
X031099Y013791D01*
X031099Y016910D02*
X032161Y016910D01*
X032161Y018469D02*
X031099Y018469D01*
X036599Y018469D02*
X037661Y018469D01*
X037661Y016910D02*
X036599Y016910D01*
X036599Y015350D02*
X037661Y015350D01*
X037661Y013791D02*
X036599Y013791D01*
D15*
X008630Y015630D03*
X007630Y015630D03*
X006630Y015630D03*
X005630Y015630D03*
X005630Y016630D03*
X006630Y016630D03*
X007630Y016630D03*
X008630Y016630D03*
D16*
X008610Y016681D01*
X007823Y016681D01*
X007630Y016630D01*
X007626Y016681D01*
X006642Y016681D01*
X006630Y016630D01*
X006445Y016681D01*
X005854Y016681D01*
X005630Y016630D01*
X005658Y016681D01*
X005658Y016878D01*
X005461Y016878D01*
X004673Y016091D01*
X004673Y014130D01*
X006059Y012744D01*
X014713Y012744D01*
X017075Y015106D01*
X017075Y016091D01*
X017130Y016130D01*
X016287Y016681D02*
X016091Y016484D01*
X016091Y016287D01*
X016130Y016130D01*
X016091Y016091D01*
X016091Y015303D01*
X014319Y013532D01*
X006559Y013532D01*
X005461Y014630D01*
X005461Y015500D01*
X005630Y015630D01*
X006630Y015630D02*
X006642Y015500D01*
X006642Y015130D01*
X007453Y014319D01*
X013925Y014319D01*
X015106Y015500D01*
X015106Y016091D01*
X015130Y016130D01*
X015106Y016287D01*
X015106Y017232D01*
X016130Y018256D01*
X027508Y018256D01*
X029083Y016681D01*
X029083Y016130D01*
X029713Y015500D01*
X031445Y015500D01*
X031630Y015350D01*
X031642Y015303D01*
X036957Y015303D01*
X037130Y015350D01*
X037130Y013791D02*
X036957Y013728D01*
X031642Y013728D01*
X031630Y013791D01*
X031445Y013925D01*
X030000Y013925D01*
X028295Y015630D01*
X028295Y016484D01*
X027311Y017469D01*
X016626Y017469D01*
X016287Y017130D01*
X016287Y016681D01*
X019043Y016091D02*
X019043Y015697D01*
X015303Y011957D01*
X006575Y011957D01*
X006248Y011630D01*
X006248Y010776D01*
X006130Y010630D01*
X006051Y010579D01*
X006051Y009791D01*
X006130Y009630D01*
X005130Y009630D02*
X005067Y009595D01*
X005067Y009004D01*
X003886Y007823D01*
X003830Y007630D01*
X003886Y005658D02*
X007232Y005658D01*
X009595Y003295D01*
X011130Y003295D01*
X011760Y003925D01*
X012390Y003295D01*
X022587Y003295D01*
X022784Y003295D01*
X022685Y003394D01*
X023276Y003984D01*
X023276Y003650D01*
X023130Y003504D01*
X023130Y003295D01*
X023630Y003295D01*
X023276Y003650D01*
X023130Y003295D02*
X022784Y003295D01*
X022685Y003394D02*
X022587Y003295D01*
X023630Y003295D02*
X024130Y003295D01*
X024130Y003327D01*
X023374Y004083D01*
X023374Y004913D01*
X022630Y005658D01*
X021996Y005658D01*
X021830Y005630D01*
X023374Y004083D02*
X023276Y003984D01*
X024130Y003295D02*
X031642Y003295D01*
X032232Y003886D01*
X032232Y005658D01*
X034398Y007823D01*
X034917Y008343D01*
X034685Y008343D01*
X034398Y008630D01*
X034398Y011130D01*
X033177Y012350D01*
X027508Y012350D01*
X026130Y013728D01*
X026130Y014130D01*
X026130Y016130D01*
X022193Y016091D02*
X022130Y016130D01*
X022193Y016091D02*
X026721Y011563D01*
X032587Y011563D01*
X033020Y011130D01*
X033020Y010776D01*
X033130Y010630D01*
X033020Y010579D01*
X033020Y009791D01*
X033130Y009630D01*
X032130Y009630D02*
X032036Y009595D01*
X032036Y009004D01*
X030854Y007823D01*
X030830Y007630D01*
X030854Y005658D02*
X030830Y005630D01*
X030854Y005658D02*
X032232Y005658D01*
X034398Y007823D02*
X034398Y008630D01*
X034917Y008343D02*
X039122Y012547D01*
X039122Y017658D01*
X038130Y018650D01*
X037154Y018650D01*
X037130Y018469D01*
X036957Y018453D01*
X031642Y018453D01*
X031630Y018469D01*
X031445Y018650D01*
X031445Y019130D01*
X030744Y019831D01*
X015697Y019831D01*
X013138Y017272D01*
X013138Y016287D01*
X013130Y016130D01*
X012941Y016091D01*
X009398Y016091D01*
X008807Y015500D01*
X008630Y015630D01*
X015130Y010630D02*
X015303Y010776D01*
X015697Y010776D01*
X020028Y015106D01*
X020028Y016091D01*
X020130Y016130D01*
X021130Y016130D02*
X021209Y016091D01*
X021209Y014122D01*
X024161Y011169D01*
X024161Y010776D01*
X024130Y010630D01*
X024161Y010579D01*
X024161Y009791D01*
X024130Y009630D01*
X023130Y009630D02*
X022980Y009595D01*
X022980Y008807D01*
X021996Y007823D01*
X021830Y007630D01*
X015130Y009630D02*
X015106Y009791D01*
X015106Y010579D01*
X015130Y010630D01*
X014130Y009630D02*
X014122Y009595D01*
X014122Y009004D01*
X012941Y007823D01*
X012830Y007630D01*
X012744Y005658D02*
X012350Y005658D01*
X011760Y005067D01*
X011760Y003925D01*
X011760Y003295D01*
X012390Y003295D01*
X011760Y003295D02*
X011130Y003295D01*
X012744Y005658D02*
X012830Y005630D01*
X003886Y005658D02*
X003830Y005630D01*
X019043Y016091D02*
X019130Y016130D01*
D17*
X001857Y022273D02*
X001857Y001357D01*
X040395Y001357D01*
X040395Y022273D01*
X001857Y022273D01*
X001857Y022249D02*
X040395Y022249D01*
X040395Y022190D02*
X001857Y022190D01*
X001857Y022132D02*
X040395Y022132D01*
X040395Y022073D02*
X001857Y022073D01*
X001857Y022015D02*
X012837Y022015D01*
X012963Y022067D02*
X012656Y021940D01*
X012420Y021704D01*
X012293Y021397D01*
X012293Y021063D01*
X012420Y020756D01*
X012656Y020520D01*
X012963Y020393D01*
X013297Y020393D01*
X013604Y020520D01*
X013840Y020756D01*
X013967Y021063D01*
X013967Y021397D01*
X013840Y021704D01*
X013604Y021940D01*
X013297Y022067D01*
X012963Y022067D01*
X012696Y021956D02*
X001857Y021956D01*
X001857Y021898D02*
X002847Y021898D01*
X002967Y021947D02*
X002667Y021823D01*
X002437Y021593D01*
X002313Y021293D01*
X002313Y020967D01*
X002437Y020667D01*
X002667Y020437D01*
X002967Y020313D01*
X003293Y020313D01*
X003593Y020437D01*
X003823Y020667D01*
X003947Y020967D01*
X003947Y021293D01*
X003823Y021593D01*
X003593Y021823D01*
X003293Y021947D01*
X002967Y021947D01*
X002706Y021839D02*
X001857Y021839D01*
X001857Y021781D02*
X002625Y021781D01*
X002566Y021722D02*
X001857Y021722D01*
X001857Y021664D02*
X002508Y021664D01*
X002449Y021605D02*
X001857Y021605D01*
X001857Y021547D02*
X002418Y021547D01*
X002394Y021488D02*
X001857Y021488D01*
X001857Y021430D02*
X002369Y021430D01*
X002345Y021371D02*
X001857Y021371D01*
X001857Y021313D02*
X002321Y021313D01*
X002313Y021254D02*
X001857Y021254D01*
X001857Y021196D02*
X002313Y021196D01*
X002313Y021137D02*
X001857Y021137D01*
X001857Y021079D02*
X002313Y021079D01*
X002313Y021020D02*
X001857Y021020D01*
X001857Y020962D02*
X002315Y020962D01*
X002339Y020903D02*
X001857Y020903D01*
X001857Y020845D02*
X002363Y020845D01*
X002388Y020786D02*
X001857Y020786D01*
X001857Y020728D02*
X002412Y020728D01*
X002436Y020669D02*
X001857Y020669D01*
X001857Y020611D02*
X002493Y020611D01*
X002552Y020552D02*
X001857Y020552D01*
X001857Y020494D02*
X002610Y020494D01*
X002672Y020435D02*
X001857Y020435D01*
X001857Y020377D02*
X002813Y020377D01*
X002954Y020318D02*
X001857Y020318D01*
X001857Y020260D02*
X015381Y020260D01*
X015398Y020277D02*
X015250Y020129D01*
X012691Y017570D01*
X012611Y017377D01*
X012611Y016829D01*
X012549Y016803D01*
X012457Y016711D01*
X012418Y016617D01*
X009357Y016617D01*
X009357Y016931D01*
X008931Y017357D01*
X008329Y017357D01*
X008180Y017208D01*
X008080Y017208D01*
X007931Y017357D01*
X007329Y017357D01*
X007180Y017208D01*
X007080Y017208D01*
X006931Y017357D01*
X006329Y017357D01*
X006180Y017208D01*
X006080Y017208D01*
X005931Y017357D01*
X005878Y017357D01*
X005762Y017405D01*
X005356Y017405D01*
X005162Y017325D01*
X005014Y017176D01*
X004227Y016389D01*
X004146Y016195D01*
X004146Y014025D01*
X004227Y013832D01*
X005612Y012446D01*
X005761Y012298D01*
X005954Y012217D01*
X006090Y012217D01*
X005950Y012077D01*
X005801Y011928D01*
X005721Y011735D01*
X005721Y011193D01*
X005489Y010960D01*
X005332Y011117D01*
X005160Y011117D01*
X005160Y010660D01*
X005100Y010660D01*
X005100Y011117D01*
X004928Y011117D01*
X004643Y010832D01*
X004643Y010660D01*
X005100Y010660D01*
X005100Y010600D01*
X004643Y010600D01*
X004643Y010428D01*
X004800Y010271D01*
X004443Y009915D01*
X004443Y009345D01*
X004540Y009248D01*
X004540Y009222D01*
X003578Y008260D01*
X003264Y008260D01*
X003143Y008210D01*
X003050Y008117D01*
X003000Y007996D01*
X003000Y007264D01*
X003050Y007143D01*
X003143Y007050D01*
X003230Y007014D01*
X003226Y007010D01*
X003209Y006980D01*
X001857Y006980D01*
X001857Y006922D02*
X003200Y006922D01*
X003200Y006947D02*
X003200Y006660D01*
X003800Y006660D01*
X003800Y006600D01*
X003200Y006600D01*
X003200Y006313D01*
X003209Y006280D01*
X003226Y006250D01*
X003230Y006246D01*
X003143Y006210D01*
X003050Y006117D01*
X003000Y005996D01*
X003000Y005264D01*
X003050Y005143D01*
X003063Y005130D01*
X003050Y005117D01*
X003000Y004996D01*
X003000Y004264D01*
X003050Y004143D01*
X003143Y004050D01*
X003264Y004000D01*
X004396Y004000D01*
X004517Y004050D01*
X004610Y004143D01*
X004660Y004264D01*
X004660Y004996D01*
X004610Y005117D01*
X004597Y005130D01*
X004597Y005131D01*
X007014Y005131D01*
X009148Y002997D01*
X009148Y002997D01*
X009296Y002849D01*
X009490Y002769D01*
X031747Y002769D01*
X031940Y002849D01*
X032088Y002997D01*
X032679Y003587D01*
X040395Y003587D01*
X040395Y003529D02*
X032620Y003529D01*
X032562Y003470D02*
X040395Y003470D01*
X040395Y003412D02*
X039379Y003412D01*
X039293Y003447D02*
X038967Y003447D01*
X038667Y003323D01*
X038437Y003093D01*
X038313Y002793D01*
X038313Y002467D01*
X038437Y002167D01*
X038667Y001937D01*
X038967Y001813D01*
X039293Y001813D01*
X039593Y001937D01*
X039823Y002167D01*
X039947Y002467D01*
X039947Y002793D01*
X039823Y003093D01*
X039593Y003323D01*
X039293Y003447D01*
X039520Y003353D02*
X040395Y003353D01*
X040395Y003295D02*
X039621Y003295D01*
X039680Y003236D02*
X040395Y003236D01*
X040395Y003178D02*
X039738Y003178D01*
X039797Y003119D02*
X040395Y003119D01*
X040395Y003061D02*
X039836Y003061D01*
X039861Y003002D02*
X040395Y003002D01*
X040395Y002944D02*
X039885Y002944D01*
X039909Y002885D02*
X040395Y002885D01*
X040395Y002827D02*
X039933Y002827D01*
X039947Y002768D02*
X040395Y002768D01*
X040395Y002710D02*
X039947Y002710D01*
X039947Y002651D02*
X040395Y002651D01*
X040395Y002593D02*
X039947Y002593D01*
X039947Y002534D02*
X040395Y002534D01*
X040395Y002476D02*
X039947Y002476D01*
X039927Y002417D02*
X040395Y002417D01*
X040395Y002359D02*
X039902Y002359D01*
X039878Y002300D02*
X040395Y002300D01*
X040395Y002242D02*
X039854Y002242D01*
X039830Y002183D02*
X040395Y002183D01*
X040395Y002125D02*
X039780Y002125D01*
X039722Y002066D02*
X040395Y002066D01*
X040395Y002008D02*
X039663Y002008D01*
X039605Y001949D02*
X040395Y001949D01*
X040395Y001891D02*
X039481Y001891D01*
X039339Y001832D02*
X040395Y001832D01*
X040395Y001774D02*
X001857Y001774D01*
X001857Y001832D02*
X002921Y001832D01*
X002967Y001813D02*
X002667Y001937D01*
X002437Y002167D01*
X002313Y002467D01*
X002313Y002793D01*
X002437Y003093D01*
X002667Y003323D01*
X002967Y003447D01*
X003293Y003447D01*
X003593Y003323D01*
X003823Y003093D01*
X003947Y002793D01*
X003947Y002467D01*
X003823Y002167D01*
X003593Y001937D01*
X003293Y001813D01*
X002967Y001813D01*
X002779Y001891D02*
X001857Y001891D01*
X001857Y001949D02*
X002655Y001949D01*
X002597Y002008D02*
X001857Y002008D01*
X001857Y002066D02*
X002538Y002066D01*
X002480Y002125D02*
X001857Y002125D01*
X001857Y002183D02*
X002430Y002183D01*
X002406Y002242D02*
X001857Y002242D01*
X001857Y002300D02*
X002382Y002300D01*
X002358Y002359D02*
X001857Y002359D01*
X001857Y002417D02*
X002333Y002417D01*
X002313Y002476D02*
X001857Y002476D01*
X001857Y002534D02*
X002313Y002534D01*
X002313Y002593D02*
X001857Y002593D01*
X001857Y002651D02*
X002313Y002651D01*
X002313Y002710D02*
X001857Y002710D01*
X001857Y002768D02*
X002313Y002768D01*
X002327Y002827D02*
X001857Y002827D01*
X001857Y002885D02*
X002351Y002885D01*
X002375Y002944D02*
X001857Y002944D01*
X001857Y003002D02*
X002399Y003002D01*
X002424Y003061D02*
X001857Y003061D01*
X001857Y003119D02*
X002463Y003119D01*
X002522Y003178D02*
X001857Y003178D01*
X001857Y003236D02*
X002580Y003236D01*
X002639Y003295D02*
X001857Y003295D01*
X001857Y003353D02*
X002740Y003353D01*
X002881Y003412D02*
X001857Y003412D01*
X001857Y003470D02*
X008675Y003470D01*
X008733Y003412D02*
X003379Y003412D01*
X003520Y003353D02*
X008792Y003353D01*
X008850Y003295D02*
X003621Y003295D01*
X003680Y003236D02*
X008909Y003236D01*
X008967Y003178D02*
X003738Y003178D01*
X003797Y003119D02*
X009026Y003119D01*
X009084Y003061D02*
X003836Y003061D01*
X003861Y003002D02*
X009143Y003002D01*
X009201Y002944D02*
X003885Y002944D01*
X003909Y002885D02*
X009260Y002885D01*
X009350Y002827D02*
X003933Y002827D01*
X003947Y002768D02*
X038313Y002768D01*
X038313Y002710D02*
X003947Y002710D01*
X003947Y002651D02*
X038313Y002651D01*
X038313Y002593D02*
X003947Y002593D01*
X003947Y002534D02*
X038313Y002534D01*
X038313Y002476D02*
X003947Y002476D01*
X003927Y002417D02*
X038333Y002417D01*
X038358Y002359D02*
X003902Y002359D01*
X003878Y002300D02*
X038382Y002300D01*
X038406Y002242D02*
X003854Y002242D01*
X003830Y002183D02*
X038430Y002183D01*
X038480Y002125D02*
X003780Y002125D01*
X003722Y002066D02*
X038538Y002066D01*
X038597Y002008D02*
X003663Y002008D01*
X003605Y001949D02*
X038655Y001949D01*
X038779Y001891D02*
X003481Y001891D01*
X003339Y001832D02*
X038921Y001832D01*
X040395Y001715D02*
X001857Y001715D01*
X001857Y001657D02*
X040395Y001657D01*
X040395Y001598D02*
X001857Y001598D01*
X001857Y001540D02*
X040395Y001540D01*
X040395Y001481D02*
X001857Y001481D01*
X001857Y001423D02*
X040395Y001423D01*
X040395Y001364D02*
X001857Y001364D01*
X001857Y003529D02*
X008616Y003529D01*
X008558Y003587D02*
X001857Y003587D01*
X001857Y003646D02*
X008499Y003646D01*
X008441Y003704D02*
X001857Y003704D01*
X001857Y003763D02*
X008382Y003763D01*
X008324Y003821D02*
X001857Y003821D01*
X001857Y003880D02*
X008265Y003880D01*
X008207Y003938D02*
X001857Y003938D01*
X001857Y003997D02*
X008148Y003997D01*
X008090Y004055D02*
X004522Y004055D01*
X004580Y004114D02*
X008031Y004114D01*
X007973Y004172D02*
X004622Y004172D01*
X004646Y004231D02*
X007914Y004231D01*
X007856Y004289D02*
X004660Y004289D01*
X004660Y004348D02*
X007797Y004348D01*
X007739Y004406D02*
X004660Y004406D01*
X004660Y004465D02*
X007680Y004465D01*
X007622Y004523D02*
X004660Y004523D01*
X004660Y004582D02*
X007563Y004582D01*
X007505Y004640D02*
X004660Y004640D01*
X004660Y004699D02*
X007446Y004699D01*
X007388Y004757D02*
X004660Y004757D01*
X004660Y004816D02*
X007329Y004816D01*
X007271Y004874D02*
X004660Y004874D01*
X004660Y004933D02*
X007212Y004933D01*
X007154Y004991D02*
X004660Y004991D01*
X004638Y005050D02*
X007095Y005050D01*
X007037Y005108D02*
X004613Y005108D01*
X003047Y005108D02*
X001857Y005108D01*
X001857Y005050D02*
X003022Y005050D01*
X003000Y004991D02*
X001857Y004991D01*
X001857Y004933D02*
X003000Y004933D01*
X003000Y004874D02*
X001857Y004874D01*
X001857Y004816D02*
X003000Y004816D01*
X003000Y004757D02*
X001857Y004757D01*
X001857Y004699D02*
X003000Y004699D01*
X003000Y004640D02*
X001857Y004640D01*
X001857Y004582D02*
X003000Y004582D01*
X003000Y004523D02*
X001857Y004523D01*
X001857Y004465D02*
X003000Y004465D01*
X003000Y004406D02*
X001857Y004406D01*
X001857Y004348D02*
X003000Y004348D01*
X003000Y004289D02*
X001857Y004289D01*
X001857Y004231D02*
X003014Y004231D01*
X003038Y004172D02*
X001857Y004172D01*
X001857Y004114D02*
X003080Y004114D01*
X003138Y004055D02*
X001857Y004055D01*
X001857Y005167D02*
X003041Y005167D01*
X003016Y005225D02*
X001857Y005225D01*
X001857Y005284D02*
X003000Y005284D01*
X003000Y005342D02*
X001857Y005342D01*
X001857Y005401D02*
X003000Y005401D01*
X003000Y005459D02*
X001857Y005459D01*
X001857Y005518D02*
X003000Y005518D01*
X003000Y005576D02*
X001857Y005576D01*
X001857Y005635D02*
X003000Y005635D01*
X003000Y005693D02*
X001857Y005693D01*
X001857Y005752D02*
X003000Y005752D01*
X003000Y005810D02*
X001857Y005810D01*
X001857Y005869D02*
X003000Y005869D01*
X003000Y005927D02*
X001857Y005927D01*
X001857Y005986D02*
X003000Y005986D01*
X003020Y006044D02*
X001857Y006044D01*
X001857Y006103D02*
X003044Y006103D01*
X003094Y006161D02*
X001857Y006161D01*
X001857Y006220D02*
X003167Y006220D01*
X003210Y006278D02*
X001857Y006278D01*
X001857Y006337D02*
X003200Y006337D01*
X003200Y006395D02*
X001857Y006395D01*
X001857Y006454D02*
X003200Y006454D01*
X003200Y006512D02*
X001857Y006512D01*
X001857Y006571D02*
X003200Y006571D01*
X003200Y006688D02*
X001857Y006688D01*
X001857Y006746D02*
X003200Y006746D01*
X003200Y006805D02*
X001857Y006805D01*
X001857Y006863D02*
X003200Y006863D01*
X003200Y006947D02*
X003209Y006980D01*
X003171Y007039D02*
X001857Y007039D01*
X001857Y007097D02*
X003096Y007097D01*
X003045Y007156D02*
X001857Y007156D01*
X001857Y007214D02*
X003021Y007214D01*
X003000Y007273D02*
X001857Y007273D01*
X001857Y007331D02*
X003000Y007331D01*
X003000Y007390D02*
X001857Y007390D01*
X001857Y007448D02*
X003000Y007448D01*
X003000Y007507D02*
X001857Y007507D01*
X001857Y007565D02*
X003000Y007565D01*
X003000Y007624D02*
X001857Y007624D01*
X001857Y007682D02*
X003000Y007682D01*
X003000Y007741D02*
X001857Y007741D01*
X001857Y007799D02*
X003000Y007799D01*
X003000Y007858D02*
X001857Y007858D01*
X001857Y007916D02*
X003000Y007916D01*
X003000Y007975D02*
X001857Y007975D01*
X001857Y008033D02*
X003015Y008033D01*
X003040Y008092D02*
X001857Y008092D01*
X001857Y008150D02*
X003083Y008150D01*
X003142Y008209D02*
X001857Y008209D01*
X001857Y008267D02*
X003585Y008267D01*
X003643Y008326D02*
X001857Y008326D01*
X001857Y008384D02*
X003702Y008384D01*
X003760Y008443D02*
X001857Y008443D01*
X001857Y008501D02*
X003819Y008501D01*
X003877Y008560D02*
X001857Y008560D01*
X001857Y008618D02*
X003936Y008618D01*
X003994Y008677D02*
X001857Y008677D01*
X001857Y008735D02*
X004053Y008735D01*
X004111Y008794D02*
X001857Y008794D01*
X001857Y008852D02*
X004170Y008852D01*
X004228Y008911D02*
X001857Y008911D01*
X001857Y008969D02*
X004287Y008969D01*
X004345Y009028D02*
X001857Y009028D01*
X001857Y009086D02*
X004404Y009086D01*
X004462Y009145D02*
X001857Y009145D01*
X001857Y009203D02*
X004521Y009203D01*
X004527Y009262D02*
X001857Y009262D01*
X001857Y009320D02*
X004469Y009320D01*
X004443Y009379D02*
X001857Y009379D01*
X001857Y009437D02*
X004443Y009437D01*
X004443Y009496D02*
X001857Y009496D01*
X001857Y009554D02*
X004443Y009554D01*
X004443Y009613D02*
X001857Y009613D01*
X001857Y009671D02*
X004443Y009671D01*
X004443Y009730D02*
X001857Y009730D01*
X001857Y009788D02*
X004443Y009788D01*
X004443Y009847D02*
X001857Y009847D01*
X001857Y009905D02*
X004443Y009905D01*
X004492Y009964D02*
X001857Y009964D01*
X001857Y010022D02*
X004551Y010022D01*
X004609Y010081D02*
X001857Y010081D01*
X001857Y010139D02*
X004668Y010139D01*
X004726Y010198D02*
X001857Y010198D01*
X001857Y010256D02*
X004785Y010256D01*
X004757Y010315D02*
X001857Y010315D01*
X001857Y010373D02*
X004698Y010373D01*
X004643Y010432D02*
X001857Y010432D01*
X001857Y010490D02*
X004643Y010490D01*
X004643Y010549D02*
X001857Y010549D01*
X001857Y010607D02*
X005100Y010607D01*
X005100Y010666D02*
X005160Y010666D01*
X005160Y010724D02*
X005100Y010724D01*
X005100Y010783D02*
X005160Y010783D01*
X005160Y010841D02*
X005100Y010841D01*
X005100Y010900D02*
X005160Y010900D01*
X005160Y010958D02*
X005100Y010958D01*
X005100Y011017D02*
X005160Y011017D01*
X005160Y011075D02*
X005100Y011075D01*
X004887Y011075D02*
X001857Y011075D01*
X001857Y011017D02*
X004828Y011017D01*
X004770Y010958D02*
X001857Y010958D01*
X001857Y010900D02*
X004711Y010900D01*
X004653Y010841D02*
X001857Y010841D01*
X001857Y010783D02*
X004643Y010783D01*
X004643Y010724D02*
X001857Y010724D01*
X001857Y010666D02*
X004643Y010666D01*
X005373Y011075D02*
X005604Y011075D01*
X005662Y011134D02*
X001857Y011134D01*
X001857Y011192D02*
X005721Y011192D01*
X005721Y011251D02*
X001857Y011251D01*
X001857Y011309D02*
X005721Y011309D01*
X005721Y011368D02*
X001857Y011368D01*
X001857Y011426D02*
X005721Y011426D01*
X005721Y011485D02*
X001857Y011485D01*
X001857Y011543D02*
X005721Y011543D01*
X005721Y011602D02*
X001857Y011602D01*
X001857Y011660D02*
X005721Y011660D01*
X005721Y011719D02*
X001857Y011719D01*
X001857Y011777D02*
X005739Y011777D01*
X005763Y011836D02*
X001857Y011836D01*
X001857Y011894D02*
X005787Y011894D01*
X005826Y011953D02*
X001857Y011953D01*
X001857Y012011D02*
X005884Y012011D01*
X005943Y012070D02*
X001857Y012070D01*
X001857Y012128D02*
X006001Y012128D01*
X005950Y012077D02*
X005950Y012077D01*
X006060Y012187D02*
X001857Y012187D01*
X001857Y012245D02*
X005887Y012245D01*
X005755Y012304D02*
X001857Y012304D01*
X001857Y012362D02*
X005696Y012362D01*
X005638Y012421D02*
X001857Y012421D01*
X001857Y012479D02*
X005579Y012479D01*
X005521Y012538D02*
X001857Y012538D01*
X001857Y012596D02*
X005462Y012596D01*
X005404Y012655D02*
X001857Y012655D01*
X001857Y012713D02*
X005345Y012713D01*
X005287Y012772D02*
X001857Y012772D01*
X001857Y012830D02*
X005228Y012830D01*
X005170Y012889D02*
X001857Y012889D01*
X001857Y012947D02*
X005111Y012947D01*
X005053Y013006D02*
X001857Y013006D01*
X001857Y013064D02*
X004994Y013064D01*
X004936Y013123D02*
X001857Y013123D01*
X001857Y013181D02*
X004877Y013181D01*
X004819Y013240D02*
X001857Y013240D01*
X001857Y013298D02*
X004760Y013298D01*
X004702Y013357D02*
X001857Y013357D01*
X001857Y013415D02*
X004643Y013415D01*
X004585Y013474D02*
X001857Y013474D01*
X001857Y013532D02*
X004526Y013532D01*
X004468Y013591D02*
X001857Y013591D01*
X001857Y013649D02*
X004409Y013649D01*
X004351Y013708D02*
X001857Y013708D01*
X001857Y013766D02*
X004292Y013766D01*
X004234Y013825D02*
X001857Y013825D01*
X001857Y013883D02*
X004205Y013883D01*
X004181Y013942D02*
X001857Y013942D01*
X001857Y014000D02*
X004157Y014000D01*
X004146Y014059D02*
X001857Y014059D01*
X001857Y014117D02*
X004146Y014117D01*
X004146Y014176D02*
X001857Y014176D01*
X001857Y014234D02*
X004146Y014234D01*
X004146Y014293D02*
X001857Y014293D01*
X001857Y014351D02*
X004146Y014351D01*
X004146Y014410D02*
X001857Y014410D01*
X001857Y014468D02*
X004146Y014468D01*
X004146Y014527D02*
X001857Y014527D01*
X001857Y014585D02*
X004146Y014585D01*
X004146Y014644D02*
X001857Y014644D01*
X001857Y014702D02*
X004146Y014702D01*
X004146Y014761D02*
X001857Y014761D01*
X001857Y014819D02*
X004146Y014819D01*
X004146Y014878D02*
X001857Y014878D01*
X001857Y014936D02*
X004146Y014936D01*
X004146Y014995D02*
X001857Y014995D01*
X001857Y015053D02*
X004146Y015053D01*
X004146Y015112D02*
X001857Y015112D01*
X001857Y015170D02*
X004146Y015170D01*
X004146Y015229D02*
X001857Y015229D01*
X001857Y015287D02*
X004146Y015287D01*
X004146Y015346D02*
X001857Y015346D01*
X001857Y015404D02*
X004146Y015404D01*
X004146Y015463D02*
X001857Y015463D01*
X001857Y015521D02*
X004146Y015521D01*
X004146Y015580D02*
X001857Y015580D01*
X001857Y015638D02*
X004146Y015638D01*
X004146Y015697D02*
X001857Y015697D01*
X001857Y015755D02*
X004146Y015755D01*
X004146Y015814D02*
X001857Y015814D01*
X001857Y015872D02*
X004146Y015872D01*
X004146Y015931D02*
X001857Y015931D01*
X001857Y015989D02*
X004146Y015989D01*
X004146Y016048D02*
X001857Y016048D01*
X001857Y016106D02*
X004146Y016106D01*
X004146Y016165D02*
X001857Y016165D01*
X001857Y016223D02*
X004158Y016223D01*
X004182Y016282D02*
X001857Y016282D01*
X001857Y016340D02*
X004206Y016340D01*
X004236Y016399D02*
X001857Y016399D01*
X001857Y016457D02*
X004295Y016457D01*
X004353Y016516D02*
X001857Y016516D01*
X001857Y016574D02*
X004412Y016574D01*
X004470Y016633D02*
X001857Y016633D01*
X001857Y016691D02*
X004529Y016691D01*
X004587Y016750D02*
X001857Y016750D01*
X001857Y016808D02*
X004646Y016808D01*
X004704Y016867D02*
X001857Y016867D01*
X001857Y016925D02*
X004763Y016925D01*
X004821Y016984D02*
X001857Y016984D01*
X001857Y017042D02*
X004880Y017042D01*
X004938Y017101D02*
X001857Y017101D01*
X001857Y017159D02*
X004997Y017159D01*
X005055Y017218D02*
X001857Y017218D01*
X001857Y017276D02*
X005114Y017276D01*
X005186Y017335D02*
X001857Y017335D01*
X001857Y017393D02*
X005327Y017393D01*
X005791Y017393D02*
X012618Y017393D01*
X012611Y017335D02*
X008953Y017335D01*
X009012Y017276D02*
X012611Y017276D01*
X012611Y017218D02*
X009070Y017218D01*
X009129Y017159D02*
X012611Y017159D01*
X012611Y017101D02*
X009187Y017101D01*
X009246Y017042D02*
X012611Y017042D01*
X012611Y016984D02*
X009304Y016984D01*
X009357Y016925D02*
X012611Y016925D01*
X012611Y016867D02*
X009357Y016867D01*
X009357Y016808D02*
X012560Y016808D01*
X012495Y016750D02*
X009357Y016750D01*
X009357Y016691D02*
X012448Y016691D01*
X012424Y016633D02*
X009357Y016633D01*
X008307Y017335D02*
X007953Y017335D01*
X008012Y017276D02*
X008248Y017276D01*
X008190Y017218D02*
X008070Y017218D01*
X007307Y017335D02*
X006953Y017335D01*
X007012Y017276D02*
X007248Y017276D01*
X007190Y017218D02*
X007070Y017218D01*
X006307Y017335D02*
X005953Y017335D01*
X006012Y017276D02*
X006248Y017276D01*
X006190Y017218D02*
X006070Y017218D01*
X007600Y015600D02*
X007660Y015600D01*
X007660Y015103D01*
X007848Y015103D01*
X007989Y015244D01*
X008329Y014903D01*
X008931Y014903D01*
X009064Y015036D01*
X009106Y015053D01*
X009135Y015083D01*
X009170Y015104D01*
X009208Y015156D01*
X009616Y015564D01*
X012451Y015564D01*
X012457Y015549D01*
X012549Y015457D01*
X012671Y015406D01*
X013589Y015406D01*
X013711Y015457D01*
X013803Y015549D01*
X013854Y015671D01*
X013854Y015683D01*
X013856Y015682D01*
X013929Y015645D01*
X014007Y015619D01*
X014089Y015606D01*
X014100Y015606D01*
X014100Y016100D01*
X014160Y016100D01*
X014160Y015606D01*
X014171Y015606D01*
X014253Y015619D01*
X014331Y015645D01*
X014404Y015682D01*
X014471Y015731D01*
X014500Y015760D01*
X014516Y015720D01*
X014549Y015688D01*
X013707Y014846D01*
X007671Y014846D01*
X007414Y015103D01*
X007600Y015103D01*
X007600Y015600D01*
X007600Y015580D02*
X007660Y015580D01*
X007660Y015521D02*
X007600Y015521D01*
X007600Y015463D02*
X007660Y015463D01*
X007660Y015404D02*
X007600Y015404D01*
X007600Y015346D02*
X007660Y015346D01*
X007660Y015287D02*
X007600Y015287D01*
X007600Y015229D02*
X007660Y015229D01*
X007660Y015170D02*
X007600Y015170D01*
X007600Y015112D02*
X007660Y015112D01*
X007522Y014995D02*
X008238Y014995D01*
X008296Y014936D02*
X007581Y014936D01*
X007639Y014878D02*
X013739Y014878D01*
X013797Y014936D02*
X008964Y014936D01*
X009022Y014995D02*
X013856Y014995D01*
X013914Y015053D02*
X009105Y015053D01*
X009176Y015112D02*
X013973Y015112D01*
X014031Y015170D02*
X009222Y015170D01*
X009281Y015229D02*
X014090Y015229D01*
X014148Y015287D02*
X009339Y015287D01*
X009398Y015346D02*
X014207Y015346D01*
X014265Y015404D02*
X009456Y015404D01*
X009515Y015463D02*
X012543Y015463D01*
X012485Y015521D02*
X009573Y015521D01*
X008179Y015053D02*
X007464Y015053D01*
X007857Y015112D02*
X008121Y015112D01*
X008062Y015170D02*
X007915Y015170D01*
X007974Y015229D02*
X008004Y015229D01*
X012642Y017452D02*
X001857Y017452D01*
X001857Y017510D02*
X012666Y017510D01*
X012691Y017569D02*
X001857Y017569D01*
X001857Y017627D02*
X012748Y017627D01*
X012807Y017686D02*
X001857Y017686D01*
X001857Y017744D02*
X012865Y017744D01*
X012924Y017803D02*
X001857Y017803D01*
X001857Y017861D02*
X012982Y017861D01*
X013041Y017920D02*
X001857Y017920D01*
X001857Y017978D02*
X013099Y017978D01*
X013158Y018037D02*
X001857Y018037D01*
X001857Y018095D02*
X013216Y018095D01*
X013275Y018154D02*
X001857Y018154D01*
X001857Y018212D02*
X013333Y018212D01*
X013392Y018271D02*
X001857Y018271D01*
X001857Y018329D02*
X013450Y018329D01*
X013509Y018388D02*
X001857Y018388D01*
X001857Y018446D02*
X013567Y018446D01*
X013626Y018505D02*
X001857Y018505D01*
X001857Y018563D02*
X013684Y018563D01*
X013743Y018622D02*
X001857Y018622D01*
X001857Y018680D02*
X013801Y018680D01*
X013860Y018739D02*
X001857Y018739D01*
X001857Y018797D02*
X013918Y018797D01*
X013977Y018856D02*
X001857Y018856D01*
X001857Y018914D02*
X014035Y018914D01*
X014094Y018973D02*
X001857Y018973D01*
X001857Y019031D02*
X014152Y019031D01*
X014211Y019090D02*
X001857Y019090D01*
X001857Y019148D02*
X014269Y019148D01*
X014328Y019207D02*
X001857Y019207D01*
X001857Y019265D02*
X014386Y019265D01*
X014445Y019324D02*
X001857Y019324D01*
X001857Y019382D02*
X014503Y019382D01*
X014562Y019441D02*
X001857Y019441D01*
X001857Y019499D02*
X014620Y019499D01*
X014679Y019558D02*
X001857Y019558D01*
X001857Y019616D02*
X014737Y019616D01*
X014796Y019675D02*
X001857Y019675D01*
X001857Y019733D02*
X014854Y019733D01*
X014913Y019792D02*
X001857Y019792D01*
X001857Y019850D02*
X014971Y019850D01*
X015030Y019909D02*
X001857Y019909D01*
X001857Y019967D02*
X015088Y019967D01*
X015147Y020026D02*
X001857Y020026D01*
X001857Y020084D02*
X015205Y020084D01*
X015250Y020129D02*
X015250Y020129D01*
X015264Y020143D02*
X001857Y020143D01*
X001857Y020201D02*
X015322Y020201D01*
X015398Y020277D02*
X015592Y020358D01*
X030849Y020358D01*
X031043Y020277D01*
X031191Y020129D01*
X031892Y019428D01*
X031932Y019330D01*
X032333Y019330D01*
X032649Y019199D01*
X032869Y018980D01*
X035891Y018980D01*
X036111Y019199D01*
X036427Y019330D01*
X037833Y019330D01*
X038149Y019199D01*
X038172Y019177D01*
X038235Y019177D01*
X038428Y019096D01*
X039421Y018104D01*
X039569Y017956D01*
X039649Y017762D01*
X039649Y012443D01*
X039569Y012249D01*
X035364Y008044D01*
X035216Y007896D01*
X034696Y007376D01*
X034696Y007376D01*
X032759Y005439D01*
X032759Y003781D01*
X032679Y003587D01*
X032703Y003646D02*
X040395Y003646D01*
X040395Y003704D02*
X032727Y003704D01*
X032752Y003763D02*
X040395Y003763D01*
X040395Y003821D02*
X032759Y003821D01*
X032759Y003880D02*
X040395Y003880D01*
X040395Y003938D02*
X032759Y003938D01*
X032759Y003997D02*
X040395Y003997D01*
X040395Y004055D02*
X038122Y004055D01*
X038117Y004050D02*
X038210Y004143D01*
X038260Y004264D01*
X038260Y004996D01*
X038210Y005117D01*
X038197Y005130D01*
X038210Y005143D01*
X038260Y005264D01*
X038260Y005996D01*
X038210Y006117D01*
X038197Y006130D01*
X038210Y006143D01*
X038260Y006264D01*
X038260Y006996D01*
X038210Y007117D01*
X038197Y007130D01*
X038210Y007143D01*
X038260Y007264D01*
X038260Y007996D01*
X038210Y008117D01*
X038117Y008210D01*
X037996Y008260D01*
X036864Y008260D01*
X036743Y008210D01*
X036650Y008117D01*
X036600Y007996D01*
X036600Y007264D01*
X036650Y007143D01*
X036663Y007130D01*
X036650Y007117D01*
X036600Y006996D01*
X036600Y006264D01*
X036650Y006143D01*
X036663Y006130D01*
X036650Y006117D01*
X036600Y005996D01*
X036600Y005264D01*
X036650Y005143D01*
X036663Y005130D01*
X036650Y005117D01*
X036600Y004996D01*
X036600Y004264D01*
X036650Y004143D01*
X036743Y004050D01*
X036864Y004000D01*
X037996Y004000D01*
X038117Y004050D01*
X038180Y004114D02*
X040395Y004114D01*
X040395Y004172D02*
X038222Y004172D01*
X038246Y004231D02*
X040395Y004231D01*
X040395Y004289D02*
X038260Y004289D01*
X038260Y004348D02*
X040395Y004348D01*
X040395Y004406D02*
X038260Y004406D01*
X038260Y004465D02*
X040395Y004465D01*
X040395Y004523D02*
X038260Y004523D01*
X038260Y004582D02*
X040395Y004582D01*
X040395Y004640D02*
X038260Y004640D01*
X038260Y004699D02*
X040395Y004699D01*
X040395Y004757D02*
X038260Y004757D01*
X038260Y004816D02*
X040395Y004816D01*
X040395Y004874D02*
X038260Y004874D01*
X038260Y004933D02*
X040395Y004933D01*
X040395Y004991D02*
X038260Y004991D01*
X038238Y005050D02*
X040395Y005050D01*
X040395Y005108D02*
X038213Y005108D01*
X038219Y005167D02*
X040395Y005167D01*
X040395Y005225D02*
X038244Y005225D01*
X038260Y005284D02*
X040395Y005284D01*
X040395Y005342D02*
X038260Y005342D01*
X038260Y005401D02*
X040395Y005401D01*
X040395Y005459D02*
X038260Y005459D01*
X038260Y005518D02*
X040395Y005518D01*
X040395Y005576D02*
X038260Y005576D01*
X038260Y005635D02*
X040395Y005635D01*
X040395Y005693D02*
X038260Y005693D01*
X038260Y005752D02*
X040395Y005752D01*
X040395Y005810D02*
X038260Y005810D01*
X038260Y005869D02*
X040395Y005869D01*
X040395Y005927D02*
X038260Y005927D01*
X038260Y005986D02*
X040395Y005986D01*
X040395Y006044D02*
X038240Y006044D01*
X038216Y006103D02*
X040395Y006103D01*
X040395Y006161D02*
X038217Y006161D01*
X038241Y006220D02*
X040395Y006220D01*
X040395Y006278D02*
X038260Y006278D01*
X038260Y006337D02*
X040395Y006337D01*
X040395Y006395D02*
X038260Y006395D01*
X038260Y006454D02*
X040395Y006454D01*
X040395Y006512D02*
X038260Y006512D01*
X038260Y006571D02*
X040395Y006571D01*
X040395Y006629D02*
X038260Y006629D01*
X038260Y006688D02*
X040395Y006688D01*
X040395Y006746D02*
X038260Y006746D01*
X038260Y006805D02*
X040395Y006805D01*
X040395Y006863D02*
X038260Y006863D01*
X038260Y006922D02*
X040395Y006922D01*
X040395Y006980D02*
X038260Y006980D01*
X038242Y007039D02*
X040395Y007039D01*
X040395Y007097D02*
X038218Y007097D01*
X038215Y007156D02*
X040395Y007156D01*
X040395Y007214D02*
X038239Y007214D01*
X038260Y007273D02*
X040395Y007273D01*
X040395Y007331D02*
X038260Y007331D01*
X038260Y007390D02*
X040395Y007390D01*
X040395Y007448D02*
X038260Y007448D01*
X038260Y007507D02*
X040395Y007507D01*
X040395Y007565D02*
X038260Y007565D01*
X038260Y007624D02*
X040395Y007624D01*
X040395Y007682D02*
X038260Y007682D01*
X038260Y007741D02*
X040395Y007741D01*
X040395Y007799D02*
X038260Y007799D01*
X038260Y007858D02*
X040395Y007858D01*
X040395Y007916D02*
X038260Y007916D01*
X038260Y007975D02*
X040395Y007975D01*
X040395Y008033D02*
X038245Y008033D01*
X038220Y008092D02*
X040395Y008092D01*
X040395Y008150D02*
X038177Y008150D01*
X038118Y008209D02*
X040395Y008209D01*
X040395Y008267D02*
X035587Y008267D01*
X035645Y008326D02*
X040395Y008326D01*
X040395Y008384D02*
X035704Y008384D01*
X035762Y008443D02*
X040395Y008443D01*
X040395Y008501D02*
X035821Y008501D01*
X035879Y008560D02*
X040395Y008560D01*
X040395Y008618D02*
X035938Y008618D01*
X035996Y008677D02*
X040395Y008677D01*
X040395Y008735D02*
X036055Y008735D01*
X036113Y008794D02*
X040395Y008794D01*
X040395Y008852D02*
X036172Y008852D01*
X036230Y008911D02*
X040395Y008911D01*
X040395Y008969D02*
X036289Y008969D01*
X036347Y009028D02*
X040395Y009028D01*
X040395Y009086D02*
X036406Y009086D01*
X036464Y009145D02*
X040395Y009145D01*
X040395Y009203D02*
X036523Y009203D01*
X036581Y009262D02*
X040395Y009262D01*
X040395Y009320D02*
X036640Y009320D01*
X036698Y009379D02*
X040395Y009379D01*
X040395Y009437D02*
X036757Y009437D01*
X036815Y009496D02*
X040395Y009496D01*
X040395Y009554D02*
X036874Y009554D01*
X036932Y009613D02*
X040395Y009613D01*
X040395Y009671D02*
X036991Y009671D01*
X037049Y009730D02*
X040395Y009730D01*
X040395Y009788D02*
X037108Y009788D01*
X037166Y009847D02*
X040395Y009847D01*
X040395Y009905D02*
X037225Y009905D01*
X037283Y009964D02*
X040395Y009964D01*
X040395Y010022D02*
X037342Y010022D01*
X037400Y010081D02*
X040395Y010081D01*
X040395Y010139D02*
X037459Y010139D01*
X037517Y010198D02*
X040395Y010198D01*
X040395Y010256D02*
X037576Y010256D01*
X037634Y010315D02*
X040395Y010315D01*
X040395Y010373D02*
X037693Y010373D01*
X037751Y010432D02*
X040395Y010432D01*
X040395Y010490D02*
X037810Y010490D01*
X037868Y010549D02*
X040395Y010549D01*
X040395Y010607D02*
X037927Y010607D01*
X037985Y010666D02*
X040395Y010666D01*
X040395Y010724D02*
X038044Y010724D01*
X038102Y010783D02*
X040395Y010783D01*
X040395Y010841D02*
X038161Y010841D01*
X038219Y010900D02*
X040395Y010900D01*
X040395Y010958D02*
X038278Y010958D01*
X038336Y011017D02*
X040395Y011017D01*
X040395Y011075D02*
X038395Y011075D01*
X038453Y011134D02*
X040395Y011134D01*
X040395Y011192D02*
X038512Y011192D01*
X038570Y011251D02*
X040395Y011251D01*
X040395Y011309D02*
X038629Y011309D01*
X038687Y011368D02*
X040395Y011368D01*
X040395Y011426D02*
X038746Y011426D01*
X038804Y011485D02*
X040395Y011485D01*
X040395Y011543D02*
X038863Y011543D01*
X038921Y011602D02*
X040395Y011602D01*
X040395Y011660D02*
X038980Y011660D01*
X039038Y011719D02*
X040395Y011719D01*
X040395Y011777D02*
X039097Y011777D01*
X039155Y011836D02*
X040395Y011836D01*
X040395Y011894D02*
X039214Y011894D01*
X039272Y011953D02*
X040395Y011953D01*
X040395Y012011D02*
X039331Y012011D01*
X039389Y012070D02*
X040395Y012070D01*
X040395Y012128D02*
X039448Y012128D01*
X039506Y012187D02*
X040395Y012187D01*
X040395Y012245D02*
X039565Y012245D01*
X039591Y012304D02*
X040395Y012304D01*
X040395Y012362D02*
X039616Y012362D01*
X039640Y012421D02*
X040395Y012421D01*
X040395Y012479D02*
X039649Y012479D01*
X039649Y012538D02*
X040395Y012538D01*
X040395Y012596D02*
X039649Y012596D01*
X039649Y012655D02*
X040395Y012655D01*
X040395Y012713D02*
X039649Y012713D01*
X039649Y012772D02*
X040395Y012772D01*
X040395Y012830D02*
X039649Y012830D01*
X039649Y012889D02*
X040395Y012889D01*
X040395Y012947D02*
X039649Y012947D01*
X039649Y013006D02*
X040395Y013006D01*
X040395Y013064D02*
X039649Y013064D01*
X039649Y013123D02*
X040395Y013123D01*
X040395Y013181D02*
X039649Y013181D01*
X039649Y013240D02*
X040395Y013240D01*
X040395Y013298D02*
X039649Y013298D01*
X039649Y013357D02*
X040395Y013357D01*
X040395Y013415D02*
X039649Y013415D01*
X039649Y013474D02*
X040395Y013474D01*
X040395Y013532D02*
X039649Y013532D01*
X039649Y013591D02*
X040395Y013591D01*
X040395Y013649D02*
X039649Y013649D01*
X039649Y013708D02*
X040395Y013708D01*
X040395Y013766D02*
X039649Y013766D01*
X039649Y013825D02*
X040395Y013825D01*
X040395Y013883D02*
X039649Y013883D01*
X039649Y013942D02*
X040395Y013942D01*
X040395Y014000D02*
X039649Y014000D01*
X039649Y014059D02*
X040395Y014059D01*
X040395Y014117D02*
X039649Y014117D01*
X039649Y014176D02*
X040395Y014176D01*
X040395Y014234D02*
X039649Y014234D01*
X039649Y014293D02*
X040395Y014293D01*
X040395Y014351D02*
X039649Y014351D01*
X039649Y014410D02*
X040395Y014410D01*
X040395Y014468D02*
X039649Y014468D01*
X039649Y014527D02*
X040395Y014527D01*
X040395Y014585D02*
X039649Y014585D01*
X039649Y014644D02*
X040395Y014644D01*
X040395Y014702D02*
X039649Y014702D01*
X039649Y014761D02*
X040395Y014761D01*
X040395Y014819D02*
X039649Y014819D01*
X039649Y014878D02*
X040395Y014878D01*
X040395Y014936D02*
X039649Y014936D01*
X039649Y014995D02*
X040395Y014995D01*
X040395Y015053D02*
X039649Y015053D01*
X039649Y015112D02*
X040395Y015112D01*
X040395Y015170D02*
X039649Y015170D01*
X039649Y015229D02*
X040395Y015229D01*
X040395Y015287D02*
X039649Y015287D01*
X039649Y015346D02*
X040395Y015346D01*
X040395Y015404D02*
X039649Y015404D01*
X039649Y015463D02*
X040395Y015463D01*
X040395Y015521D02*
X039649Y015521D01*
X039649Y015580D02*
X040395Y015580D01*
X040395Y015638D02*
X039649Y015638D01*
X039649Y015697D02*
X040395Y015697D01*
X040395Y015755D02*
X039649Y015755D01*
X039649Y015814D02*
X040395Y015814D01*
X040395Y015872D02*
X039649Y015872D01*
X039649Y015931D02*
X040395Y015931D01*
X040395Y015989D02*
X039649Y015989D01*
X039649Y016048D02*
X040395Y016048D01*
X040395Y016106D02*
X039649Y016106D01*
X039649Y016165D02*
X040395Y016165D01*
X040395Y016223D02*
X039649Y016223D01*
X039649Y016282D02*
X040395Y016282D01*
X040395Y016340D02*
X039649Y016340D01*
X039649Y016399D02*
X040395Y016399D01*
X040395Y016457D02*
X039649Y016457D01*
X039649Y016516D02*
X040395Y016516D01*
X040395Y016574D02*
X039649Y016574D01*
X039649Y016633D02*
X040395Y016633D01*
X040395Y016691D02*
X039649Y016691D01*
X039649Y016750D02*
X040395Y016750D01*
X040395Y016808D02*
X039649Y016808D01*
X039649Y016867D02*
X040395Y016867D01*
X040395Y016925D02*
X039649Y016925D01*
X039649Y016984D02*
X040395Y016984D01*
X040395Y017042D02*
X039649Y017042D01*
X039649Y017101D02*
X040395Y017101D01*
X040395Y017159D02*
X039649Y017159D01*
X039649Y017218D02*
X040395Y017218D01*
X040395Y017276D02*
X039649Y017276D01*
X039649Y017335D02*
X040395Y017335D01*
X040395Y017393D02*
X039649Y017393D01*
X039649Y017452D02*
X040395Y017452D01*
X040395Y017510D02*
X039649Y017510D01*
X039649Y017569D02*
X040395Y017569D01*
X040395Y017627D02*
X039649Y017627D01*
X039649Y017686D02*
X040395Y017686D01*
X040395Y017744D02*
X039649Y017744D01*
X039632Y017803D02*
X040395Y017803D01*
X040395Y017861D02*
X039608Y017861D01*
X039584Y017920D02*
X040395Y017920D01*
X040395Y017978D02*
X039547Y017978D01*
X039488Y018037D02*
X040395Y018037D01*
X040395Y018095D02*
X039430Y018095D01*
X039371Y018154D02*
X040395Y018154D01*
X040395Y018212D02*
X039313Y018212D01*
X039254Y018271D02*
X040395Y018271D01*
X040395Y018329D02*
X039196Y018329D01*
X039137Y018388D02*
X040395Y018388D01*
X040395Y018446D02*
X039079Y018446D01*
X039020Y018505D02*
X040395Y018505D01*
X040395Y018563D02*
X038962Y018563D01*
X038903Y018622D02*
X040395Y018622D01*
X040395Y018680D02*
X038845Y018680D01*
X038786Y018739D02*
X040395Y018739D01*
X040395Y018797D02*
X038728Y018797D01*
X038669Y018856D02*
X040395Y018856D01*
X040395Y018914D02*
X038611Y018914D01*
X038552Y018973D02*
X040395Y018973D01*
X040395Y019031D02*
X038494Y019031D01*
X038435Y019090D02*
X040395Y019090D01*
X040395Y019148D02*
X038304Y019148D01*
X038131Y019207D02*
X040395Y019207D01*
X040395Y019265D02*
X037990Y019265D01*
X037849Y019324D02*
X040395Y019324D01*
X040395Y019382D02*
X031911Y019382D01*
X031879Y019441D02*
X040395Y019441D01*
X040395Y019499D02*
X031821Y019499D01*
X031762Y019558D02*
X040395Y019558D01*
X040395Y019616D02*
X031704Y019616D01*
X031645Y019675D02*
X040395Y019675D01*
X040395Y019733D02*
X031587Y019733D01*
X031528Y019792D02*
X040395Y019792D01*
X040395Y019850D02*
X031470Y019850D01*
X031411Y019909D02*
X040395Y019909D01*
X040395Y019967D02*
X031353Y019967D01*
X031294Y020026D02*
X040395Y020026D01*
X040395Y020084D02*
X031236Y020084D01*
X031177Y020143D02*
X040395Y020143D01*
X040395Y020201D02*
X031119Y020201D01*
X031060Y020260D02*
X040395Y020260D01*
X040395Y020318D02*
X039306Y020318D01*
X039293Y020313D02*
X039593Y020437D01*
X039823Y020667D01*
X039947Y020967D01*
X039947Y021293D01*
X039823Y021593D01*
X039593Y021823D01*
X039293Y021947D01*
X038967Y021947D01*
X038667Y021823D01*
X038437Y021593D01*
X038313Y021293D01*
X038313Y020967D01*
X038437Y020667D01*
X038667Y020437D01*
X038967Y020313D01*
X039293Y020313D01*
X039447Y020377D02*
X040395Y020377D01*
X040395Y020435D02*
X039588Y020435D01*
X039650Y020494D02*
X040395Y020494D01*
X040395Y020552D02*
X039708Y020552D01*
X039767Y020611D02*
X040395Y020611D01*
X040395Y020669D02*
X039824Y020669D01*
X039848Y020728D02*
X040395Y020728D01*
X040395Y020786D02*
X039872Y020786D01*
X039897Y020845D02*
X040395Y020845D01*
X040395Y020903D02*
X039921Y020903D01*
X039945Y020962D02*
X040395Y020962D01*
X040395Y021020D02*
X039947Y021020D01*
X039947Y021079D02*
X040395Y021079D01*
X040395Y021137D02*
X039947Y021137D01*
X039947Y021196D02*
X040395Y021196D01*
X040395Y021254D02*
X039947Y021254D01*
X039939Y021313D02*
X040395Y021313D01*
X040395Y021371D02*
X039915Y021371D01*
X039891Y021430D02*
X040395Y021430D01*
X040395Y021488D02*
X039866Y021488D01*
X039842Y021547D02*
X040395Y021547D01*
X040395Y021605D02*
X039811Y021605D01*
X039752Y021664D02*
X040395Y021664D01*
X040395Y021722D02*
X039694Y021722D01*
X039635Y021781D02*
X040395Y021781D01*
X040395Y021839D02*
X039554Y021839D01*
X039413Y021898D02*
X040395Y021898D01*
X040395Y021956D02*
X022564Y021956D01*
X022604Y021940D02*
X022297Y022067D01*
X021963Y022067D01*
X021656Y021940D01*
X021420Y021704D01*
X021293Y021397D01*
X021293Y021063D01*
X021420Y020756D01*
X021656Y020520D01*
X021963Y020393D01*
X022297Y020393D01*
X022604Y020520D01*
X022840Y020756D01*
X022967Y021063D01*
X022967Y021397D01*
X022840Y021704D01*
X022604Y021940D01*
X022646Y021898D02*
X038847Y021898D01*
X038706Y021839D02*
X022705Y021839D01*
X022763Y021781D02*
X038625Y021781D01*
X038566Y021722D02*
X022822Y021722D01*
X022856Y021664D02*
X038508Y021664D01*
X038449Y021605D02*
X022881Y021605D01*
X022905Y021547D02*
X038418Y021547D01*
X038394Y021488D02*
X022929Y021488D01*
X022953Y021430D02*
X038369Y021430D01*
X038345Y021371D02*
X022967Y021371D01*
X022967Y021313D02*
X038321Y021313D01*
X038313Y021254D02*
X022967Y021254D01*
X022967Y021196D02*
X038313Y021196D01*
X038313Y021137D02*
X022967Y021137D01*
X022967Y021079D02*
X038313Y021079D01*
X038313Y021020D02*
X022949Y021020D01*
X022925Y020962D02*
X038315Y020962D01*
X038339Y020903D02*
X022901Y020903D01*
X022876Y020845D02*
X038363Y020845D01*
X038388Y020786D02*
X022852Y020786D01*
X022811Y020728D02*
X038412Y020728D01*
X038436Y020669D02*
X022753Y020669D01*
X022694Y020611D02*
X038493Y020611D01*
X038552Y020552D02*
X022636Y020552D01*
X022540Y020494D02*
X038610Y020494D01*
X038672Y020435D02*
X022398Y020435D01*
X021862Y020435D02*
X013398Y020435D01*
X013540Y020494D02*
X021720Y020494D01*
X021624Y020552D02*
X013636Y020552D01*
X013694Y020611D02*
X021566Y020611D01*
X021507Y020669D02*
X013753Y020669D01*
X013811Y020728D02*
X021449Y020728D01*
X021408Y020786D02*
X013852Y020786D01*
X013876Y020845D02*
X021384Y020845D01*
X021359Y020903D02*
X013901Y020903D01*
X013925Y020962D02*
X021335Y020962D01*
X021311Y021020D02*
X013949Y021020D01*
X013967Y021079D02*
X021293Y021079D01*
X021293Y021137D02*
X013967Y021137D01*
X013967Y021196D02*
X021293Y021196D01*
X021293Y021254D02*
X013967Y021254D01*
X013967Y021313D02*
X021293Y021313D01*
X021293Y021371D02*
X013967Y021371D01*
X013953Y021430D02*
X021307Y021430D01*
X021331Y021488D02*
X013929Y021488D01*
X013905Y021547D02*
X021355Y021547D01*
X021379Y021605D02*
X013881Y021605D01*
X013856Y021664D02*
X021404Y021664D01*
X021438Y021722D02*
X013822Y021722D01*
X013763Y021781D02*
X021497Y021781D01*
X021555Y021839D02*
X013705Y021839D01*
X013646Y021898D02*
X021614Y021898D01*
X021696Y021956D02*
X013564Y021956D01*
X013423Y022015D02*
X021837Y022015D01*
X022423Y022015D02*
X040395Y022015D01*
X038954Y020318D02*
X030944Y020318D01*
X032349Y019324D02*
X036411Y019324D01*
X036270Y019265D02*
X032490Y019265D01*
X032631Y019207D02*
X036129Y019207D01*
X036060Y019148D02*
X032700Y019148D01*
X032759Y019090D02*
X036001Y019090D01*
X035943Y019031D02*
X032817Y019031D01*
X032837Y017926D02*
X035923Y017926D01*
X036111Y017738D01*
X036427Y017607D01*
X037833Y017607D01*
X038149Y017738D01*
X038223Y017812D01*
X038595Y017439D01*
X038595Y012766D01*
X034925Y009095D01*
X034925Y011235D01*
X034844Y011428D01*
X033624Y012649D01*
X033476Y012797D01*
X033282Y012877D01*
X027726Y012877D01*
X026960Y013643D01*
X027100Y013643D01*
X027100Y014100D01*
X027160Y014100D01*
X027160Y014160D01*
X027100Y014160D01*
X027100Y014617D01*
X026928Y014617D01*
X026771Y014460D01*
X026657Y014575D01*
X026657Y015685D01*
X026771Y015800D01*
X026928Y015643D01*
X027100Y015643D01*
X027100Y016100D01*
X027160Y016100D01*
X027160Y016160D01*
X027100Y016160D01*
X027100Y016617D01*
X026928Y016617D01*
X026771Y016460D01*
X026415Y016817D01*
X025845Y016817D01*
X025443Y016415D01*
X025443Y015845D01*
X025603Y015685D01*
X025603Y014575D01*
X025443Y014415D01*
X025443Y013845D01*
X025603Y013685D01*
X025603Y013624D01*
X025683Y013430D01*
X027023Y012090D01*
X026939Y012090D01*
X022854Y016175D01*
X022854Y016274D01*
X022744Y016540D01*
X022540Y016744D01*
X022274Y016854D01*
X021986Y016854D01*
X021720Y016744D01*
X021630Y016653D01*
X021540Y016744D01*
X021274Y016854D01*
X020986Y016854D01*
X020720Y016744D01*
X020630Y016653D01*
X020540Y016744D01*
X020274Y016854D01*
X019986Y016854D01*
X019720Y016744D01*
X019630Y016653D01*
X019540Y016744D01*
X019274Y016854D01*
X018986Y016854D01*
X018720Y016744D01*
X018630Y016653D01*
X018540Y016744D01*
X018274Y016854D01*
X017986Y016854D01*
X017720Y016744D01*
X017630Y016653D01*
X017540Y016744D01*
X017274Y016854D01*
X016986Y016854D01*
X016814Y016783D01*
X016814Y016912D01*
X016844Y016942D01*
X027093Y016942D01*
X027769Y016266D01*
X027769Y015525D01*
X027849Y015332D01*
X029553Y013627D01*
X029702Y013479D01*
X029895Y013398D01*
X030329Y013398D01*
X030368Y013303D01*
X030611Y013061D01*
X030927Y012930D01*
X032333Y012930D01*
X032649Y013061D01*
X032790Y013202D01*
X035970Y013202D01*
X036111Y013061D01*
X036427Y012930D01*
X037833Y012930D01*
X038149Y013061D01*
X038392Y013303D01*
X038523Y013620D01*
X038523Y013963D01*
X038392Y014279D01*
X038149Y014522D01*
X038031Y014571D01*
X038149Y014620D01*
X038392Y014862D01*
X038523Y015179D01*
X038523Y015522D01*
X038392Y015838D01*
X038149Y016081D01*
X037833Y016212D01*
X036427Y016212D01*
X036111Y016081D01*
X035868Y015838D01*
X035865Y015830D01*
X032895Y015830D01*
X032892Y015838D01*
X032649Y016081D01*
X032333Y016212D01*
X030927Y016212D01*
X030611Y016081D01*
X030557Y016027D01*
X029931Y016027D01*
X029610Y016348D01*
X029610Y016786D01*
X029529Y016980D01*
X027955Y018554D01*
X027806Y018703D01*
X027613Y018783D01*
X016025Y018783D01*
X015832Y018703D01*
X014808Y017679D01*
X014660Y017531D01*
X014580Y017337D01*
X014580Y016603D01*
X014516Y016540D01*
X014500Y016500D01*
X014471Y016529D01*
X014404Y016578D01*
X014331Y016615D01*
X014253Y016641D01*
X014171Y016654D01*
X014160Y016654D01*
X014160Y016160D01*
X014100Y016160D01*
X014100Y016654D01*
X014089Y016654D01*
X014007Y016641D01*
X013929Y016615D01*
X013856Y016578D01*
X013854Y016577D01*
X013854Y016589D01*
X013803Y016711D01*
X013711Y016803D01*
X013665Y016822D01*
X013665Y017054D01*
X015915Y019304D01*
X030526Y019304D01*
X030625Y019205D01*
X030611Y019199D01*
X030368Y018957D01*
X030237Y018640D01*
X030237Y018297D01*
X030368Y017981D01*
X030611Y017738D01*
X030927Y017607D01*
X032333Y017607D01*
X032649Y017738D01*
X032837Y017926D01*
X032831Y017920D02*
X035929Y017920D01*
X035988Y017861D02*
X032772Y017861D01*
X032714Y017803D02*
X036046Y017803D01*
X036105Y017744D02*
X032655Y017744D01*
X032522Y017686D02*
X036238Y017686D01*
X036379Y017627D02*
X032381Y017627D01*
X032375Y017537D02*
X032291Y017560D01*
X032205Y017571D01*
X031660Y017571D01*
X031660Y016940D01*
X031600Y016940D01*
X031600Y017571D01*
X031055Y017571D01*
X030969Y017560D01*
X030885Y017537D01*
X030805Y017504D01*
X030730Y017461D01*
X030661Y017408D01*
X030600Y017347D01*
X030547Y017278D01*
X030504Y017203D01*
X030471Y017123D01*
X030448Y017039D01*
X030437Y016953D01*
X030437Y016940D01*
X031600Y016940D01*
X031600Y016880D01*
X030437Y016880D01*
X030437Y016866D01*
X030448Y016780D01*
X030471Y016696D01*
X030504Y016616D01*
X030547Y016541D01*
X030600Y016472D01*
X030661Y016411D01*
X030730Y016358D01*
X030805Y016315D01*
X030885Y016282D01*
X030969Y016259D01*
X031055Y016248D01*
X031600Y016248D01*
X031600Y016880D01*
X031660Y016880D01*
X031660Y016940D01*
X032823Y016940D01*
X032823Y016953D01*
X032812Y017039D01*
X032789Y017123D01*
X032756Y017203D01*
X032713Y017278D01*
X032660Y017347D01*
X032599Y017408D01*
X032530Y017461D01*
X032455Y017504D01*
X032375Y017537D01*
X032440Y017510D02*
X036320Y017510D01*
X036305Y017504D02*
X036230Y017461D01*
X036161Y017408D01*
X036100Y017347D01*
X036047Y017278D01*
X036004Y017203D01*
X035971Y017123D01*
X035948Y017039D01*
X035937Y016953D01*
X035937Y016940D01*
X037100Y016940D01*
X037100Y017571D01*
X036555Y017571D01*
X036469Y017560D01*
X036385Y017537D01*
X036305Y017504D01*
X036218Y017452D02*
X032542Y017452D01*
X032613Y017393D02*
X036147Y017393D01*
X036091Y017335D02*
X032669Y017335D01*
X032714Y017276D02*
X036046Y017276D01*
X036013Y017218D02*
X032747Y017218D01*
X032774Y017159D02*
X035986Y017159D01*
X035965Y017101D02*
X032795Y017101D01*
X032811Y017042D02*
X035949Y017042D01*
X035941Y016984D02*
X032819Y016984D01*
X032823Y016880D02*
X031660Y016880D01*
X031660Y016248D01*
X032205Y016248D01*
X032291Y016259D01*
X032375Y016282D01*
X032455Y016315D01*
X032530Y016358D01*
X032599Y016411D01*
X032660Y016472D01*
X032713Y016541D01*
X032756Y016616D01*
X032789Y016696D01*
X032812Y016780D01*
X032823Y016866D01*
X032823Y016880D01*
X032823Y016867D02*
X035937Y016867D01*
X035937Y016866D02*
X035948Y016780D01*
X035971Y016696D01*
X036004Y016616D01*
X036047Y016541D01*
X036100Y016472D01*
X036161Y016411D01*
X036230Y016358D01*
X036305Y016315D01*
X036385Y016282D01*
X036469Y016259D01*
X036555Y016248D01*
X037100Y016248D01*
X037100Y016880D01*
X035937Y016880D01*
X035937Y016866D01*
X035945Y016808D02*
X032815Y016808D01*
X032803Y016750D02*
X035957Y016750D01*
X035973Y016691D02*
X032787Y016691D01*
X032763Y016633D02*
X035997Y016633D01*
X036028Y016574D02*
X032732Y016574D01*
X032693Y016516D02*
X036067Y016516D01*
X036115Y016457D02*
X032645Y016457D01*
X032582Y016399D02*
X036178Y016399D01*
X036262Y016340D02*
X032498Y016340D01*
X032374Y016282D02*
X036386Y016282D01*
X036313Y016165D02*
X032447Y016165D01*
X032589Y016106D02*
X036171Y016106D01*
X036077Y016048D02*
X032683Y016048D01*
X032741Y015989D02*
X036019Y015989D01*
X035960Y015931D02*
X032800Y015931D01*
X032858Y015872D02*
X035902Y015872D01*
X037100Y016282D02*
X037160Y016282D01*
X037160Y016248D02*
X037705Y016248D01*
X037791Y016259D01*
X037875Y016282D01*
X037955Y016315D01*
X038030Y016358D01*
X038099Y016411D01*
X038160Y016472D01*
X038213Y016541D01*
X038256Y016616D01*
X038289Y016696D01*
X038312Y016780D01*
X038323Y016866D01*
X038323Y016880D01*
X037160Y016880D01*
X037160Y016940D01*
X037100Y016940D01*
X037100Y016880D01*
X037160Y016880D01*
X037160Y016248D01*
X037160Y016340D02*
X037100Y016340D01*
X037100Y016399D02*
X037160Y016399D01*
X037160Y016457D02*
X037100Y016457D01*
X037100Y016516D02*
X037160Y016516D01*
X037160Y016574D02*
X037100Y016574D01*
X037100Y016633D02*
X037160Y016633D01*
X037160Y016691D02*
X037100Y016691D01*
X037100Y016750D02*
X037160Y016750D01*
X037160Y016808D02*
X037100Y016808D01*
X037100Y016867D02*
X037160Y016867D01*
X037160Y016925D02*
X038595Y016925D01*
X038595Y016867D02*
X038323Y016867D01*
X038315Y016808D02*
X038595Y016808D01*
X038595Y016750D02*
X038303Y016750D01*
X038287Y016691D02*
X038595Y016691D01*
X038595Y016633D02*
X038263Y016633D01*
X038232Y016574D02*
X038595Y016574D01*
X038595Y016516D02*
X038193Y016516D01*
X038145Y016457D02*
X038595Y016457D01*
X038595Y016399D02*
X038082Y016399D01*
X037998Y016340D02*
X038595Y016340D01*
X038595Y016282D02*
X037874Y016282D01*
X037947Y016165D02*
X038595Y016165D01*
X038595Y016223D02*
X029735Y016223D01*
X029793Y016165D02*
X030813Y016165D01*
X030886Y016282D02*
X029676Y016282D01*
X029618Y016340D02*
X030762Y016340D01*
X030678Y016399D02*
X029610Y016399D01*
X029610Y016457D02*
X030615Y016457D01*
X030567Y016516D02*
X029610Y016516D01*
X029610Y016574D02*
X030528Y016574D01*
X030497Y016633D02*
X029610Y016633D01*
X029610Y016691D02*
X030473Y016691D01*
X030457Y016750D02*
X029610Y016750D01*
X029600Y016808D02*
X030445Y016808D01*
X030437Y016867D02*
X029576Y016867D01*
X029552Y016925D02*
X031600Y016925D01*
X031600Y016867D02*
X031660Y016867D01*
X031660Y016925D02*
X037100Y016925D01*
X037100Y016984D02*
X037160Y016984D01*
X037160Y016940D02*
X037160Y017571D01*
X037705Y017571D01*
X037791Y017560D01*
X037875Y017537D01*
X037955Y017504D01*
X038030Y017461D01*
X038099Y017408D01*
X038160Y017347D01*
X038213Y017278D01*
X038256Y017203D01*
X038289Y017123D01*
X038312Y017039D01*
X038323Y016953D01*
X038323Y016940D01*
X037160Y016940D01*
X037160Y017042D02*
X037100Y017042D01*
X037100Y017101D02*
X037160Y017101D01*
X037160Y017159D02*
X037100Y017159D01*
X037100Y017218D02*
X037160Y017218D01*
X037160Y017276D02*
X037100Y017276D01*
X037100Y017335D02*
X037160Y017335D01*
X037160Y017393D02*
X037100Y017393D01*
X037100Y017452D02*
X037160Y017452D01*
X037160Y017510D02*
X037100Y017510D01*
X037100Y017569D02*
X037160Y017569D01*
X036537Y017569D02*
X032223Y017569D01*
X031660Y017569D02*
X031600Y017569D01*
X031600Y017510D02*
X031660Y017510D01*
X031660Y017452D02*
X031600Y017452D01*
X031600Y017393D02*
X031660Y017393D01*
X031660Y017335D02*
X031600Y017335D01*
X031600Y017276D02*
X031660Y017276D01*
X031660Y017218D02*
X031600Y017218D01*
X031600Y017159D02*
X031660Y017159D01*
X031660Y017101D02*
X031600Y017101D01*
X031600Y017042D02*
X031660Y017042D01*
X031660Y016984D02*
X031600Y016984D01*
X031600Y016808D02*
X031660Y016808D01*
X031660Y016750D02*
X031600Y016750D01*
X031600Y016691D02*
X031660Y016691D01*
X031660Y016633D02*
X031600Y016633D01*
X031600Y016574D02*
X031660Y016574D01*
X031660Y016516D02*
X031600Y016516D01*
X031600Y016457D02*
X031660Y016457D01*
X031660Y016399D02*
X031600Y016399D01*
X031600Y016340D02*
X031660Y016340D01*
X031660Y016282D02*
X031600Y016282D01*
X030671Y016106D02*
X029852Y016106D01*
X029910Y016048D02*
X030577Y016048D01*
X030441Y016984D02*
X029525Y016984D01*
X029467Y017042D02*
X030449Y017042D01*
X030465Y017101D02*
X029408Y017101D01*
X029350Y017159D02*
X030486Y017159D01*
X030513Y017218D02*
X029291Y017218D01*
X029233Y017276D02*
X030546Y017276D01*
X030591Y017335D02*
X029174Y017335D01*
X029116Y017393D02*
X030647Y017393D01*
X030718Y017452D02*
X029057Y017452D01*
X028999Y017510D02*
X030820Y017510D01*
X030879Y017627D02*
X028882Y017627D01*
X028940Y017569D02*
X031037Y017569D01*
X030738Y017686D02*
X028823Y017686D01*
X028765Y017744D02*
X030605Y017744D01*
X030546Y017803D02*
X028706Y017803D01*
X028648Y017861D02*
X030488Y017861D01*
X030429Y017920D02*
X028589Y017920D01*
X028531Y017978D02*
X030371Y017978D01*
X030345Y018037D02*
X028472Y018037D01*
X028414Y018095D02*
X030321Y018095D01*
X030297Y018154D02*
X028355Y018154D01*
X028297Y018212D02*
X030272Y018212D01*
X030248Y018271D02*
X028238Y018271D01*
X028180Y018329D02*
X030237Y018329D01*
X030237Y018388D02*
X028121Y018388D01*
X028063Y018446D02*
X030237Y018446D01*
X030237Y018505D02*
X028004Y018505D01*
X027946Y018563D02*
X030237Y018563D01*
X030237Y018622D02*
X027887Y018622D01*
X027829Y018680D02*
X030254Y018680D01*
X030278Y018739D02*
X027720Y018739D01*
X030302Y018797D02*
X015408Y018797D01*
X015350Y018739D02*
X015918Y018739D01*
X015809Y018680D02*
X015291Y018680D01*
X015233Y018622D02*
X015751Y018622D01*
X015692Y018563D02*
X015174Y018563D01*
X015116Y018505D02*
X015634Y018505D01*
X015575Y018446D02*
X015057Y018446D01*
X014999Y018388D02*
X015517Y018388D01*
X015458Y018329D02*
X014940Y018329D01*
X014882Y018271D02*
X015400Y018271D01*
X015341Y018212D02*
X014823Y018212D01*
X014765Y018154D02*
X015283Y018154D01*
X015224Y018095D02*
X014706Y018095D01*
X014648Y018037D02*
X015166Y018037D01*
X015107Y017978D02*
X014589Y017978D01*
X014531Y017920D02*
X015049Y017920D01*
X014990Y017861D02*
X014472Y017861D01*
X014414Y017803D02*
X014932Y017803D01*
X014873Y017744D02*
X014355Y017744D01*
X014297Y017686D02*
X014815Y017686D01*
X014756Y017627D02*
X014238Y017627D01*
X014180Y017569D02*
X014698Y017569D01*
X014651Y017510D02*
X014121Y017510D01*
X014063Y017452D02*
X014627Y017452D01*
X014603Y017393D02*
X014004Y017393D01*
X013946Y017335D02*
X014580Y017335D01*
X014580Y017276D02*
X013887Y017276D01*
X013829Y017218D02*
X014580Y017218D01*
X014580Y017159D02*
X013770Y017159D01*
X013712Y017101D02*
X014580Y017101D01*
X014580Y017042D02*
X013665Y017042D01*
X013665Y016984D02*
X014580Y016984D01*
X014580Y016925D02*
X013665Y016925D01*
X013665Y016867D02*
X014580Y016867D01*
X014580Y016808D02*
X013700Y016808D01*
X013765Y016750D02*
X014580Y016750D01*
X014580Y016691D02*
X013812Y016691D01*
X013836Y016633D02*
X013982Y016633D01*
X014100Y016633D02*
X014160Y016633D01*
X014160Y016574D02*
X014100Y016574D01*
X014100Y016516D02*
X014160Y016516D01*
X014160Y016457D02*
X014100Y016457D01*
X014100Y016399D02*
X014160Y016399D01*
X014160Y016340D02*
X014100Y016340D01*
X014100Y016282D02*
X014160Y016282D01*
X014160Y016223D02*
X014100Y016223D01*
X014100Y016165D02*
X014160Y016165D01*
X014160Y016048D02*
X014100Y016048D01*
X014100Y015989D02*
X014160Y015989D01*
X014160Y015931D02*
X014100Y015931D01*
X014100Y015872D02*
X014160Y015872D01*
X014160Y015814D02*
X014100Y015814D01*
X014100Y015755D02*
X014160Y015755D01*
X014160Y015697D02*
X014100Y015697D01*
X014100Y015638D02*
X014160Y015638D01*
X014311Y015638D02*
X014499Y015638D01*
X014540Y015697D02*
X014424Y015697D01*
X014496Y015755D02*
X014502Y015755D01*
X014441Y015580D02*
X013816Y015580D01*
X013840Y015638D02*
X013949Y015638D01*
X013775Y015521D02*
X014382Y015521D01*
X014324Y015463D02*
X013717Y015463D01*
X014278Y016633D02*
X014580Y016633D01*
X014551Y016574D02*
X014410Y016574D01*
X014485Y016516D02*
X014506Y016516D01*
X016814Y016808D02*
X016876Y016808D01*
X016814Y016867D02*
X027168Y016867D01*
X027110Y016925D02*
X016828Y016925D01*
X017384Y016808D02*
X017876Y016808D01*
X017735Y016750D02*
X017525Y016750D01*
X017592Y016691D02*
X017668Y016691D01*
X018384Y016808D02*
X018876Y016808D01*
X018735Y016750D02*
X018525Y016750D01*
X018592Y016691D02*
X018668Y016691D01*
X019384Y016808D02*
X019876Y016808D01*
X019735Y016750D02*
X019525Y016750D01*
X019592Y016691D02*
X019668Y016691D01*
X020384Y016808D02*
X020876Y016808D01*
X020735Y016750D02*
X020525Y016750D01*
X020592Y016691D02*
X020668Y016691D01*
X021384Y016808D02*
X021876Y016808D01*
X021735Y016750D02*
X021525Y016750D01*
X021592Y016691D02*
X021668Y016691D01*
X022384Y016808D02*
X025837Y016808D01*
X025778Y016750D02*
X022525Y016750D01*
X022592Y016691D02*
X025720Y016691D01*
X025661Y016633D02*
X022651Y016633D01*
X022709Y016574D02*
X025603Y016574D01*
X025544Y016516D02*
X022754Y016516D01*
X022778Y016457D02*
X025486Y016457D01*
X025443Y016399D02*
X022802Y016399D01*
X022826Y016340D02*
X025443Y016340D01*
X025443Y016282D02*
X022851Y016282D01*
X022854Y016223D02*
X025443Y016223D01*
X025443Y016165D02*
X022864Y016165D01*
X022923Y016106D02*
X025443Y016106D01*
X025443Y016048D02*
X022981Y016048D01*
X023040Y015989D02*
X025443Y015989D01*
X025443Y015931D02*
X023098Y015931D01*
X023157Y015872D02*
X025443Y015872D01*
X025475Y015814D02*
X023215Y015814D01*
X023274Y015755D02*
X025534Y015755D01*
X025592Y015697D02*
X023332Y015697D01*
X023391Y015638D02*
X025603Y015638D01*
X025603Y015580D02*
X023449Y015580D01*
X023508Y015521D02*
X025603Y015521D01*
X025603Y015463D02*
X023566Y015463D01*
X023625Y015404D02*
X025603Y015404D01*
X025603Y015346D02*
X023683Y015346D01*
X023742Y015287D02*
X025603Y015287D01*
X025603Y015229D02*
X023800Y015229D01*
X023859Y015170D02*
X025603Y015170D01*
X025603Y015112D02*
X023917Y015112D01*
X023976Y015053D02*
X025603Y015053D01*
X025603Y014995D02*
X024034Y014995D01*
X024093Y014936D02*
X025603Y014936D01*
X025603Y014878D02*
X024151Y014878D01*
X024210Y014819D02*
X025603Y014819D01*
X025603Y014761D02*
X024268Y014761D01*
X024327Y014702D02*
X025603Y014702D01*
X025603Y014644D02*
X024385Y014644D01*
X024444Y014585D02*
X025603Y014585D01*
X025555Y014527D02*
X024502Y014527D01*
X024561Y014468D02*
X025497Y014468D01*
X025443Y014410D02*
X024619Y014410D01*
X024678Y014351D02*
X025443Y014351D01*
X025443Y014293D02*
X024736Y014293D01*
X024795Y014234D02*
X025443Y014234D01*
X025443Y014176D02*
X024853Y014176D01*
X024912Y014117D02*
X025443Y014117D01*
X025443Y014059D02*
X024970Y014059D01*
X025029Y014000D02*
X025443Y014000D01*
X025443Y013942D02*
X025087Y013942D01*
X025146Y013883D02*
X025443Y013883D01*
X025464Y013825D02*
X025204Y013825D01*
X025263Y013766D02*
X025523Y013766D01*
X025581Y013708D02*
X025321Y013708D01*
X025380Y013649D02*
X025603Y013649D01*
X025617Y013591D02*
X025438Y013591D01*
X025497Y013532D02*
X025641Y013532D01*
X025665Y013474D02*
X025555Y013474D01*
X025614Y013415D02*
X025698Y013415D01*
X025672Y013357D02*
X025757Y013357D01*
X025731Y013298D02*
X025815Y013298D01*
X025789Y013240D02*
X025874Y013240D01*
X025848Y013181D02*
X025932Y013181D01*
X025906Y013123D02*
X025991Y013123D01*
X025965Y013064D02*
X026049Y013064D01*
X026023Y013006D02*
X026108Y013006D01*
X026082Y012947D02*
X026166Y012947D01*
X026140Y012889D02*
X026225Y012889D01*
X026199Y012830D02*
X026283Y012830D01*
X026257Y012772D02*
X026342Y012772D01*
X026316Y012713D02*
X026400Y012713D01*
X026374Y012655D02*
X026459Y012655D01*
X026433Y012596D02*
X026517Y012596D01*
X026491Y012538D02*
X026576Y012538D01*
X026550Y012479D02*
X026634Y012479D01*
X026608Y012421D02*
X026693Y012421D01*
X026667Y012362D02*
X026751Y012362D01*
X026725Y012304D02*
X026810Y012304D01*
X026784Y012245D02*
X026868Y012245D01*
X026842Y012187D02*
X026927Y012187D01*
X026901Y012128D02*
X026985Y012128D01*
X027715Y012889D02*
X038595Y012889D01*
X038595Y012947D02*
X037874Y012947D01*
X038015Y013006D02*
X038595Y013006D01*
X038595Y013064D02*
X038152Y013064D01*
X038211Y013123D02*
X038595Y013123D01*
X038595Y013181D02*
X038269Y013181D01*
X038328Y013240D02*
X038595Y013240D01*
X038595Y013298D02*
X038386Y013298D01*
X038414Y013357D02*
X038595Y013357D01*
X038595Y013415D02*
X038438Y013415D01*
X038462Y013474D02*
X038595Y013474D01*
X038595Y013532D02*
X038487Y013532D01*
X038511Y013591D02*
X038595Y013591D01*
X038595Y013649D02*
X038523Y013649D01*
X038523Y013708D02*
X038595Y013708D01*
X038595Y013766D02*
X038523Y013766D01*
X038523Y013825D02*
X038595Y013825D01*
X038595Y013883D02*
X038523Y013883D01*
X038523Y013942D02*
X038595Y013942D01*
X038595Y014000D02*
X038508Y014000D01*
X038483Y014059D02*
X038595Y014059D01*
X038595Y014117D02*
X038459Y014117D01*
X038435Y014176D02*
X038595Y014176D01*
X038595Y014234D02*
X038411Y014234D01*
X038379Y014293D02*
X038595Y014293D01*
X038595Y014351D02*
X038320Y014351D01*
X038262Y014410D02*
X038595Y014410D01*
X038595Y014468D02*
X038203Y014468D01*
X038138Y014527D02*
X038595Y014527D01*
X038595Y014585D02*
X038065Y014585D01*
X038173Y014644D02*
X038595Y014644D01*
X038595Y014702D02*
X038231Y014702D01*
X038290Y014761D02*
X038595Y014761D01*
X038595Y014819D02*
X038348Y014819D01*
X038398Y014878D02*
X038595Y014878D01*
X038595Y014936D02*
X038422Y014936D01*
X038447Y014995D02*
X038595Y014995D01*
X038595Y015053D02*
X038471Y015053D01*
X038495Y015112D02*
X038595Y015112D01*
X038595Y015170D02*
X038519Y015170D01*
X038523Y015229D02*
X038595Y015229D01*
X038595Y015287D02*
X038523Y015287D01*
X038523Y015346D02*
X038595Y015346D01*
X038595Y015404D02*
X038523Y015404D01*
X038523Y015463D02*
X038595Y015463D01*
X038595Y015521D02*
X038523Y015521D01*
X038499Y015580D02*
X038595Y015580D01*
X038595Y015638D02*
X038475Y015638D01*
X038451Y015697D02*
X038595Y015697D01*
X038595Y015755D02*
X038426Y015755D01*
X038402Y015814D02*
X038595Y015814D01*
X038595Y015872D02*
X038358Y015872D01*
X038300Y015931D02*
X038595Y015931D01*
X038595Y015989D02*
X038241Y015989D01*
X038183Y016048D02*
X038595Y016048D01*
X038595Y016106D02*
X038089Y016106D01*
X038319Y016984D02*
X038595Y016984D01*
X038595Y017042D02*
X038311Y017042D01*
X038295Y017101D02*
X038595Y017101D01*
X038595Y017159D02*
X038274Y017159D01*
X038247Y017218D02*
X038595Y017218D01*
X038595Y017276D02*
X038214Y017276D01*
X038169Y017335D02*
X038595Y017335D01*
X038595Y017393D02*
X038113Y017393D01*
X038042Y017452D02*
X038583Y017452D01*
X038525Y017510D02*
X037940Y017510D01*
X037881Y017627D02*
X038408Y017627D01*
X038466Y017569D02*
X037723Y017569D01*
X038022Y017686D02*
X038349Y017686D01*
X038291Y017744D02*
X038155Y017744D01*
X038214Y017803D02*
X038232Y017803D01*
X038813Y020377D02*
X003447Y020377D01*
X003588Y020435D02*
X012862Y020435D01*
X012720Y020494D02*
X003650Y020494D01*
X003708Y020552D02*
X012624Y020552D01*
X012566Y020611D02*
X003767Y020611D01*
X003824Y020669D02*
X012507Y020669D01*
X012449Y020728D02*
X003848Y020728D01*
X003872Y020786D02*
X012408Y020786D01*
X012384Y020845D02*
X003897Y020845D01*
X003921Y020903D02*
X012359Y020903D01*
X012335Y020962D02*
X003945Y020962D01*
X003947Y021020D02*
X012311Y021020D01*
X012293Y021079D02*
X003947Y021079D01*
X003947Y021137D02*
X012293Y021137D01*
X012293Y021196D02*
X003947Y021196D01*
X003947Y021254D02*
X012293Y021254D01*
X012293Y021313D02*
X003939Y021313D01*
X003915Y021371D02*
X012293Y021371D01*
X012307Y021430D02*
X003891Y021430D01*
X003866Y021488D02*
X012331Y021488D01*
X012355Y021547D02*
X003842Y021547D01*
X003811Y021605D02*
X012379Y021605D01*
X012404Y021664D02*
X003752Y021664D01*
X003694Y021722D02*
X012438Y021722D01*
X012497Y021781D02*
X003635Y021781D01*
X003554Y021839D02*
X012555Y021839D01*
X012614Y021898D02*
X003413Y021898D01*
X003306Y020318D02*
X015497Y020318D01*
X015876Y019265D02*
X030565Y019265D01*
X030623Y019207D02*
X015818Y019207D01*
X015759Y019148D02*
X030560Y019148D01*
X030501Y019090D02*
X015701Y019090D01*
X015642Y019031D02*
X030443Y019031D01*
X030384Y018973D02*
X015584Y018973D01*
X015525Y018914D02*
X030351Y018914D01*
X030326Y018856D02*
X015467Y018856D01*
X020554Y015531D02*
X020630Y015607D01*
X020682Y015555D01*
X020682Y014017D01*
X020762Y013824D01*
X023557Y011029D01*
X023489Y010960D01*
X023332Y011117D01*
X023160Y011117D01*
X023160Y010660D01*
X023100Y010660D01*
X023100Y011117D01*
X022928Y011117D01*
X022643Y010832D01*
X022643Y010660D01*
X023100Y010660D01*
X023100Y010600D01*
X022643Y010600D01*
X022643Y010428D01*
X022800Y010271D01*
X022443Y009915D01*
X022443Y009345D01*
X022454Y009335D01*
X022454Y009025D01*
X021688Y008260D01*
X021264Y008260D01*
X021143Y008210D01*
X021050Y008117D01*
X021000Y007996D01*
X021000Y007264D01*
X021050Y007143D01*
X021143Y007050D01*
X021230Y007014D01*
X021226Y007010D01*
X021209Y006980D01*
X020260Y006980D01*
X020260Y006996D02*
X020210Y007117D01*
X020197Y007130D01*
X020210Y007143D01*
X020260Y007264D01*
X020260Y007996D01*
X020210Y008117D01*
X020117Y008210D01*
X019996Y008260D01*
X018864Y008260D01*
X018743Y008210D01*
X018650Y008117D01*
X018600Y007996D01*
X018600Y007264D01*
X018650Y007143D01*
X018663Y007130D01*
X018650Y007117D01*
X018600Y006996D01*
X018600Y006264D01*
X018650Y006143D01*
X018663Y006130D01*
X018650Y006117D01*
X018600Y005996D01*
X018600Y005264D01*
X018650Y005143D01*
X018663Y005130D01*
X018650Y005117D01*
X018600Y004996D01*
X018600Y004264D01*
X018650Y004143D01*
X018743Y004050D01*
X018864Y004000D01*
X019996Y004000D01*
X020117Y004050D01*
X020210Y004143D01*
X020260Y004264D01*
X020260Y004996D01*
X020210Y005117D01*
X020197Y005130D01*
X020210Y005143D01*
X020260Y005264D01*
X020260Y005996D01*
X020210Y006117D01*
X020197Y006130D01*
X020210Y006143D01*
X020260Y006264D01*
X020260Y006996D01*
X020242Y007039D02*
X021171Y007039D01*
X021209Y006980D02*
X021200Y006947D01*
X021200Y006660D01*
X021800Y006660D01*
X021800Y006600D01*
X021200Y006600D01*
X021200Y006313D01*
X021209Y006280D01*
X021226Y006250D01*
X021230Y006246D01*
X021143Y006210D01*
X021050Y006117D01*
X021000Y005996D01*
X021000Y005264D01*
X021050Y005143D01*
X021063Y005130D01*
X021050Y005117D01*
X021000Y004996D01*
X021000Y004264D01*
X021050Y004143D01*
X021143Y004050D01*
X021264Y004000D01*
X022396Y004000D01*
X022517Y004050D01*
X022610Y004143D01*
X022660Y004264D01*
X022660Y004882D01*
X022847Y004695D01*
X022847Y004301D01*
X022829Y004283D01*
X022387Y003840D01*
X022368Y003822D01*
X012608Y003822D01*
X012430Y004000D01*
X013396Y004000D01*
X013517Y004050D01*
X013610Y004143D01*
X013660Y004264D01*
X013660Y004996D01*
X013610Y005117D01*
X013597Y005130D01*
X013610Y005143D01*
X013660Y005264D01*
X013660Y005996D01*
X013610Y006117D01*
X013517Y006210D01*
X013430Y006246D01*
X013434Y006250D01*
X013451Y006280D01*
X013460Y006313D01*
X013460Y006600D01*
X012860Y006600D01*
X012860Y006660D01*
X013460Y006660D01*
X013460Y006947D01*
X013451Y006980D01*
X018600Y006980D01*
X018600Y006922D02*
X013460Y006922D01*
X013451Y006980D02*
X013434Y007010D01*
X013430Y007014D01*
X013517Y007050D01*
X013610Y007143D01*
X013660Y007264D01*
X013660Y007797D01*
X014421Y008557D01*
X014569Y008706D01*
X014649Y008899D01*
X014649Y009140D01*
X014845Y008943D01*
X015415Y008943D01*
X015817Y009345D01*
X015817Y009915D01*
X015633Y010098D01*
X015633Y010162D01*
X015720Y010249D01*
X015802Y010249D01*
X015995Y010329D01*
X016144Y010477D01*
X020474Y014808D01*
X020554Y015002D01*
X020554Y015531D01*
X020554Y015521D02*
X020682Y015521D01*
X020682Y015463D02*
X020554Y015463D01*
X020554Y015404D02*
X020682Y015404D01*
X020682Y015346D02*
X020554Y015346D01*
X020554Y015287D02*
X020682Y015287D01*
X020682Y015229D02*
X020554Y015229D01*
X020554Y015170D02*
X020682Y015170D01*
X020682Y015112D02*
X020554Y015112D01*
X020554Y015053D02*
X020682Y015053D01*
X020682Y014995D02*
X020552Y014995D01*
X020527Y014936D02*
X020682Y014936D01*
X020682Y014878D02*
X020503Y014878D01*
X020479Y014819D02*
X020682Y014819D01*
X020682Y014761D02*
X020427Y014761D01*
X020368Y014702D02*
X020682Y014702D01*
X020682Y014644D02*
X020310Y014644D01*
X020251Y014585D02*
X020682Y014585D01*
X020682Y014527D02*
X020193Y014527D01*
X020134Y014468D02*
X020682Y014468D01*
X020682Y014410D02*
X020076Y014410D01*
X020017Y014351D02*
X020682Y014351D01*
X020682Y014293D02*
X019959Y014293D01*
X019900Y014234D02*
X020682Y014234D01*
X020682Y014176D02*
X019842Y014176D01*
X019783Y014117D02*
X020682Y014117D01*
X020682Y014059D02*
X019725Y014059D01*
X019666Y014000D02*
X020689Y014000D01*
X020713Y013942D02*
X019608Y013942D01*
X019549Y013883D02*
X020738Y013883D01*
X020762Y013825D02*
X019491Y013825D01*
X019432Y013766D02*
X020820Y013766D01*
X020878Y013708D02*
X019374Y013708D01*
X019315Y013649D02*
X020937Y013649D01*
X020995Y013591D02*
X019257Y013591D01*
X019198Y013532D02*
X021054Y013532D01*
X021112Y013474D02*
X019140Y013474D01*
X019081Y013415D02*
X021171Y013415D01*
X021229Y013357D02*
X019023Y013357D01*
X018964Y013298D02*
X021288Y013298D01*
X021346Y013240D02*
X018906Y013240D01*
X018847Y013181D02*
X021405Y013181D01*
X021463Y013123D02*
X018789Y013123D01*
X018730Y013064D02*
X021522Y013064D01*
X021580Y013006D02*
X018672Y013006D01*
X018613Y012947D02*
X021639Y012947D01*
X021697Y012889D02*
X018555Y012889D01*
X018496Y012830D02*
X021756Y012830D01*
X021814Y012772D02*
X018438Y012772D01*
X018379Y012713D02*
X021873Y012713D01*
X021931Y012655D02*
X018321Y012655D01*
X018262Y012596D02*
X021990Y012596D01*
X022048Y012538D02*
X018204Y012538D01*
X018145Y012479D02*
X022107Y012479D01*
X022165Y012421D02*
X018087Y012421D01*
X018028Y012362D02*
X022224Y012362D01*
X022282Y012304D02*
X017970Y012304D01*
X017911Y012245D02*
X022341Y012245D01*
X022399Y012187D02*
X017853Y012187D01*
X017794Y012128D02*
X022458Y012128D01*
X022516Y012070D02*
X017736Y012070D01*
X017677Y012011D02*
X022575Y012011D01*
X022633Y011953D02*
X017619Y011953D01*
X017560Y011894D02*
X022692Y011894D01*
X022750Y011836D02*
X017502Y011836D01*
X017443Y011777D02*
X022809Y011777D01*
X022867Y011719D02*
X017385Y011719D01*
X017326Y011660D02*
X022926Y011660D01*
X022984Y011602D02*
X017268Y011602D01*
X017209Y011543D02*
X023043Y011543D01*
X023101Y011485D02*
X017151Y011485D01*
X017092Y011426D02*
X023160Y011426D01*
X023218Y011368D02*
X017034Y011368D01*
X016975Y011309D02*
X023277Y011309D01*
X023335Y011251D02*
X016917Y011251D01*
X016858Y011192D02*
X023394Y011192D01*
X023452Y011134D02*
X016800Y011134D01*
X016741Y011075D02*
X022887Y011075D01*
X022828Y011017D02*
X016683Y011017D01*
X016624Y010958D02*
X022770Y010958D01*
X022711Y010900D02*
X016566Y010900D01*
X016507Y010841D02*
X022653Y010841D01*
X022643Y010783D02*
X016449Y010783D01*
X016390Y010724D02*
X022643Y010724D01*
X022643Y010666D02*
X016332Y010666D01*
X016273Y010607D02*
X023100Y010607D01*
X023100Y010666D02*
X023160Y010666D01*
X023160Y010724D02*
X023100Y010724D01*
X023100Y010783D02*
X023160Y010783D01*
X023160Y010841D02*
X023100Y010841D01*
X023100Y010900D02*
X023160Y010900D01*
X023160Y010958D02*
X023100Y010958D01*
X023100Y011017D02*
X023160Y011017D01*
X023160Y011075D02*
X023100Y011075D01*
X023373Y011075D02*
X023511Y011075D01*
X023545Y011017D02*
X023432Y011017D01*
X022643Y010549D02*
X016215Y010549D01*
X016156Y010490D02*
X022643Y010490D01*
X022643Y010432D02*
X016098Y010432D01*
X016039Y010373D02*
X022698Y010373D01*
X022757Y010315D02*
X015960Y010315D01*
X015819Y010256D02*
X022785Y010256D01*
X022726Y010198D02*
X015669Y010198D01*
X015633Y010139D02*
X022668Y010139D01*
X022609Y010081D02*
X015651Y010081D01*
X015709Y010022D02*
X022551Y010022D01*
X022492Y009964D02*
X015768Y009964D01*
X015817Y009905D02*
X022443Y009905D01*
X022443Y009847D02*
X015817Y009847D01*
X015817Y009788D02*
X022443Y009788D01*
X022443Y009730D02*
X015817Y009730D01*
X015817Y009671D02*
X022443Y009671D01*
X022443Y009613D02*
X015817Y009613D01*
X015817Y009554D02*
X022443Y009554D01*
X022443Y009496D02*
X015817Y009496D01*
X015817Y009437D02*
X022443Y009437D01*
X022443Y009379D02*
X015817Y009379D01*
X015791Y009320D02*
X022454Y009320D01*
X022454Y009262D02*
X015733Y009262D01*
X015674Y009203D02*
X022454Y009203D01*
X022454Y009145D02*
X015616Y009145D01*
X015557Y009086D02*
X022454Y009086D01*
X022454Y009028D02*
X015499Y009028D01*
X015440Y008969D02*
X022397Y008969D01*
X022339Y008911D02*
X014649Y008911D01*
X014649Y008969D02*
X014820Y008969D01*
X014761Y009028D02*
X014649Y009028D01*
X014649Y009086D02*
X014703Y009086D01*
X014629Y008852D02*
X022280Y008852D01*
X022222Y008794D02*
X014605Y008794D01*
X014581Y008735D02*
X022163Y008735D01*
X022105Y008677D02*
X014540Y008677D01*
X014481Y008618D02*
X022046Y008618D01*
X021988Y008560D02*
X014423Y008560D01*
X014364Y008501D02*
X021929Y008501D01*
X021871Y008443D02*
X014306Y008443D01*
X014247Y008384D02*
X021812Y008384D01*
X021754Y008326D02*
X014189Y008326D01*
X014130Y008267D02*
X021695Y008267D01*
X021142Y008209D02*
X020118Y008209D01*
X020177Y008150D02*
X021083Y008150D01*
X021040Y008092D02*
X020220Y008092D01*
X020245Y008033D02*
X021015Y008033D01*
X021000Y007975D02*
X020260Y007975D01*
X020260Y007916D02*
X021000Y007916D01*
X021000Y007858D02*
X020260Y007858D01*
X020260Y007799D02*
X021000Y007799D01*
X021000Y007741D02*
X020260Y007741D01*
X020260Y007682D02*
X021000Y007682D01*
X021000Y007624D02*
X020260Y007624D01*
X020260Y007565D02*
X021000Y007565D01*
X021000Y007507D02*
X020260Y007507D01*
X020260Y007448D02*
X021000Y007448D01*
X021000Y007390D02*
X020260Y007390D01*
X020260Y007331D02*
X021000Y007331D01*
X021000Y007273D02*
X020260Y007273D01*
X020239Y007214D02*
X021021Y007214D01*
X021045Y007156D02*
X020215Y007156D01*
X020218Y007097D02*
X021096Y007097D01*
X021200Y006922D02*
X020260Y006922D01*
X020260Y006863D02*
X021200Y006863D01*
X021200Y006805D02*
X020260Y006805D01*
X020260Y006746D02*
X021200Y006746D01*
X021200Y006688D02*
X020260Y006688D01*
X020260Y006629D02*
X021800Y006629D01*
X021860Y006629D02*
X027600Y006629D01*
X027600Y006571D02*
X022460Y006571D01*
X022460Y006600D02*
X021860Y006600D01*
X021860Y006660D01*
X022460Y006660D01*
X022460Y006947D01*
X022451Y006980D01*
X027600Y006980D01*
X027600Y006996D02*
X027650Y007117D01*
X027663Y007130D01*
X027650Y007143D01*
X027600Y007264D01*
X027600Y007996D01*
X027650Y008117D01*
X027743Y008210D01*
X027864Y008260D01*
X028996Y008260D01*
X029117Y008210D01*
X029210Y008117D01*
X029260Y007996D01*
X029260Y007264D01*
X029210Y007143D01*
X029197Y007130D01*
X029210Y007117D01*
X029260Y006996D01*
X029260Y006264D01*
X029210Y006143D01*
X029197Y006130D01*
X029210Y006117D01*
X029260Y005996D01*
X029260Y005264D01*
X029210Y005143D01*
X029197Y005130D01*
X029210Y005117D01*
X029260Y004996D01*
X029260Y004264D01*
X029210Y004143D01*
X029117Y004050D01*
X028996Y004000D01*
X027864Y004000D01*
X027743Y004050D01*
X027650Y004143D01*
X027600Y004264D01*
X027600Y004996D01*
X027650Y005117D01*
X027663Y005130D01*
X027650Y005143D01*
X027600Y005264D01*
X027600Y005996D01*
X027650Y006117D01*
X027663Y006130D01*
X027650Y006143D01*
X027600Y006264D01*
X027600Y006996D01*
X027618Y007039D02*
X022489Y007039D01*
X022517Y007050D02*
X022610Y007143D01*
X022660Y007264D01*
X022660Y007742D01*
X023279Y008361D01*
X023427Y008509D01*
X023507Y008702D01*
X023507Y009036D01*
X023630Y009159D01*
X023845Y008943D01*
X024415Y008943D01*
X024817Y009345D01*
X024817Y009915D01*
X024688Y010043D01*
X024688Y010217D01*
X024817Y010345D01*
X024817Y010915D01*
X024688Y011043D01*
X024688Y011274D01*
X024608Y011468D01*
X024460Y011616D01*
X021736Y014340D01*
X021736Y015510D01*
X021986Y015406D01*
X022132Y015406D01*
X026274Y011265D01*
X026422Y011116D01*
X026616Y011036D01*
X031848Y011036D01*
X031643Y010832D01*
X031643Y010660D01*
X032100Y010660D01*
X032100Y010600D01*
X031643Y010600D01*
X031643Y010428D01*
X031800Y010271D01*
X031443Y009915D01*
X031443Y009345D01*
X031509Y009280D01*
X031509Y009222D01*
X030546Y008260D01*
X030264Y008260D01*
X030143Y008210D01*
X030050Y008117D01*
X030000Y007996D01*
X030000Y007264D01*
X030050Y007143D01*
X030143Y007050D01*
X030230Y007014D01*
X030226Y007010D01*
X030209Y006980D01*
X029260Y006980D01*
X029260Y006922D02*
X030200Y006922D01*
X030200Y006947D02*
X030200Y006660D01*
X030800Y006660D01*
X030800Y006600D01*
X030200Y006600D01*
X030200Y006313D01*
X030209Y006280D01*
X030226Y006250D01*
X030230Y006246D01*
X030143Y006210D01*
X030050Y006117D01*
X030000Y005996D01*
X030000Y005264D01*
X030050Y005143D01*
X030063Y005130D01*
X030050Y005117D01*
X030000Y004996D01*
X030000Y004264D01*
X030050Y004143D01*
X030143Y004050D01*
X030264Y004000D01*
X031396Y004000D01*
X031517Y004050D01*
X031610Y004143D01*
X031660Y004264D01*
X031660Y004996D01*
X031610Y005117D01*
X031597Y005130D01*
X031597Y005131D01*
X031706Y005131D01*
X031706Y004104D01*
X031424Y003822D01*
X024380Y003822D01*
X023901Y004301D01*
X023901Y005018D01*
X023821Y005212D01*
X023673Y005360D01*
X023077Y005956D01*
X022928Y006104D01*
X022735Y006184D01*
X022542Y006184D01*
X022517Y006210D01*
X022430Y006246D01*
X022434Y006250D01*
X022451Y006280D01*
X022460Y006313D01*
X022460Y006600D01*
X022460Y006688D02*
X027600Y006688D01*
X027600Y006746D02*
X022460Y006746D01*
X022460Y006805D02*
X027600Y006805D01*
X027600Y006863D02*
X022460Y006863D01*
X022460Y006922D02*
X027600Y006922D01*
X027642Y007097D02*
X022564Y007097D01*
X022517Y007050D02*
X022430Y007014D01*
X022434Y007010D01*
X022451Y006980D01*
X022615Y007156D02*
X027645Y007156D01*
X027621Y007214D02*
X022639Y007214D01*
X022660Y007273D02*
X027600Y007273D01*
X027600Y007331D02*
X022660Y007331D01*
X022660Y007390D02*
X027600Y007390D01*
X027600Y007448D02*
X022660Y007448D01*
X022660Y007507D02*
X027600Y007507D01*
X027600Y007565D02*
X022660Y007565D01*
X022660Y007624D02*
X027600Y007624D01*
X027600Y007682D02*
X022660Y007682D01*
X022660Y007741D02*
X027600Y007741D01*
X027600Y007799D02*
X022717Y007799D01*
X022776Y007858D02*
X027600Y007858D01*
X027600Y007916D02*
X022834Y007916D01*
X022893Y007975D02*
X027600Y007975D01*
X027615Y008033D02*
X022951Y008033D01*
X023010Y008092D02*
X027640Y008092D01*
X027683Y008150D02*
X023068Y008150D01*
X023127Y008209D02*
X027742Y008209D01*
X029118Y008209D02*
X030142Y008209D01*
X030083Y008150D02*
X029177Y008150D01*
X029220Y008092D02*
X030040Y008092D01*
X030015Y008033D02*
X029245Y008033D01*
X029260Y007975D02*
X030000Y007975D01*
X030000Y007916D02*
X029260Y007916D01*
X029260Y007858D02*
X030000Y007858D01*
X030000Y007799D02*
X029260Y007799D01*
X029260Y007741D02*
X030000Y007741D01*
X030000Y007682D02*
X029260Y007682D01*
X029260Y007624D02*
X030000Y007624D01*
X030000Y007565D02*
X029260Y007565D01*
X029260Y007507D02*
X030000Y007507D01*
X030000Y007448D02*
X029260Y007448D01*
X029260Y007390D02*
X030000Y007390D01*
X030000Y007331D02*
X029260Y007331D01*
X029260Y007273D02*
X030000Y007273D01*
X030021Y007214D02*
X029239Y007214D01*
X029215Y007156D02*
X030045Y007156D01*
X030096Y007097D02*
X029218Y007097D01*
X029242Y007039D02*
X030171Y007039D01*
X030209Y006980D02*
X030200Y006947D01*
X030200Y006863D02*
X029260Y006863D01*
X029260Y006805D02*
X030200Y006805D01*
X030200Y006746D02*
X029260Y006746D01*
X029260Y006688D02*
X030200Y006688D01*
X030200Y006571D02*
X029260Y006571D01*
X029260Y006629D02*
X030800Y006629D01*
X030860Y006629D02*
X032459Y006629D01*
X032517Y006688D02*
X031460Y006688D01*
X031460Y006660D02*
X031460Y006947D01*
X031451Y006980D01*
X032810Y006980D01*
X032868Y007039D02*
X031489Y007039D01*
X031517Y007050D02*
X031610Y007143D01*
X031660Y007264D01*
X031660Y007883D01*
X032334Y008557D01*
X032482Y008706D01*
X032562Y008899D01*
X032562Y009091D01*
X032630Y009159D01*
X032845Y008943D01*
X033415Y008943D01*
X033817Y009345D01*
X033817Y009915D01*
X033601Y010130D01*
X033817Y010345D01*
X033817Y010915D01*
X033547Y011185D01*
X033547Y011235D01*
X033546Y011237D01*
X033871Y010912D01*
X033871Y008041D01*
X032014Y006184D01*
X031542Y006184D01*
X031517Y006210D01*
X031430Y006246D01*
X031434Y006250D01*
X031451Y006280D01*
X031460Y006313D01*
X031460Y006600D01*
X030860Y006600D01*
X030860Y006660D01*
X031460Y006660D01*
X031460Y006746D02*
X032576Y006746D01*
X032634Y006805D02*
X031460Y006805D01*
X031460Y006863D02*
X032693Y006863D01*
X032751Y006922D02*
X031460Y006922D01*
X031451Y006980D02*
X031434Y007010D01*
X031430Y007014D01*
X031517Y007050D01*
X031564Y007097D02*
X032927Y007097D01*
X032985Y007156D02*
X031615Y007156D01*
X031639Y007214D02*
X033044Y007214D01*
X033102Y007273D02*
X031660Y007273D01*
X031660Y007331D02*
X033161Y007331D01*
X033219Y007390D02*
X031660Y007390D01*
X031660Y007448D02*
X033278Y007448D01*
X033336Y007507D02*
X031660Y007507D01*
X031660Y007565D02*
X033395Y007565D01*
X033453Y007624D02*
X031660Y007624D01*
X031660Y007682D02*
X033512Y007682D01*
X033570Y007741D02*
X031660Y007741D01*
X031660Y007799D02*
X033629Y007799D01*
X033687Y007858D02*
X031660Y007858D01*
X031693Y007916D02*
X033746Y007916D01*
X033804Y007975D02*
X031751Y007975D01*
X031810Y008033D02*
X033863Y008033D01*
X033871Y008092D02*
X031868Y008092D01*
X031927Y008150D02*
X033871Y008150D01*
X033871Y008209D02*
X031985Y008209D01*
X032044Y008267D02*
X033871Y008267D01*
X033871Y008326D02*
X032102Y008326D01*
X032161Y008384D02*
X033871Y008384D01*
X033871Y008443D02*
X032219Y008443D01*
X032278Y008501D02*
X033871Y008501D01*
X033871Y008560D02*
X032336Y008560D01*
X032395Y008618D02*
X033871Y008618D01*
X033871Y008677D02*
X032453Y008677D01*
X032494Y008735D02*
X033871Y008735D01*
X033871Y008794D02*
X032519Y008794D01*
X032543Y008852D02*
X033871Y008852D01*
X033871Y008911D02*
X032562Y008911D01*
X032562Y008969D02*
X032820Y008969D01*
X032761Y009028D02*
X032562Y009028D01*
X032562Y009086D02*
X032703Y009086D01*
X032644Y009145D02*
X032616Y009145D01*
X033440Y008969D02*
X033871Y008969D01*
X033871Y009028D02*
X033499Y009028D01*
X033557Y009086D02*
X033871Y009086D01*
X033871Y009145D02*
X033616Y009145D01*
X033674Y009203D02*
X033871Y009203D01*
X033871Y009262D02*
X033733Y009262D01*
X033791Y009320D02*
X033871Y009320D01*
X033871Y009379D02*
X033817Y009379D01*
X033817Y009437D02*
X033871Y009437D01*
X033871Y009496D02*
X033817Y009496D01*
X033817Y009554D02*
X033871Y009554D01*
X033871Y009613D02*
X033817Y009613D01*
X033817Y009671D02*
X033871Y009671D01*
X033871Y009730D02*
X033817Y009730D01*
X033817Y009788D02*
X033871Y009788D01*
X033871Y009847D02*
X033817Y009847D01*
X033817Y009905D02*
X033871Y009905D01*
X033871Y009964D02*
X033768Y009964D01*
X033709Y010022D02*
X033871Y010022D01*
X033871Y010081D02*
X033651Y010081D01*
X033610Y010139D02*
X033871Y010139D01*
X033871Y010198D02*
X033669Y010198D01*
X033727Y010256D02*
X033871Y010256D01*
X033871Y010315D02*
X033786Y010315D01*
X033817Y010373D02*
X033871Y010373D01*
X033871Y010432D02*
X033817Y010432D01*
X033817Y010490D02*
X033871Y010490D01*
X033871Y010549D02*
X033817Y010549D01*
X033817Y010607D02*
X033871Y010607D01*
X033871Y010666D02*
X033817Y010666D01*
X033817Y010724D02*
X033871Y010724D01*
X033871Y010783D02*
X033817Y010783D01*
X033817Y010841D02*
X033871Y010841D01*
X033871Y010900D02*
X033817Y010900D01*
X033825Y010958D02*
X033773Y010958D01*
X033766Y011017D02*
X033715Y011017D01*
X033708Y011075D02*
X033656Y011075D01*
X033649Y011134D02*
X033598Y011134D01*
X033591Y011192D02*
X033547Y011192D01*
X034437Y011836D02*
X037665Y011836D01*
X037724Y011894D02*
X034379Y011894D01*
X034320Y011953D02*
X037782Y011953D01*
X037841Y012011D02*
X034262Y012011D01*
X034203Y012070D02*
X037899Y012070D01*
X037958Y012128D02*
X034145Y012128D01*
X034086Y012187D02*
X038016Y012187D01*
X038075Y012245D02*
X034028Y012245D01*
X033969Y012304D02*
X038133Y012304D01*
X038192Y012362D02*
X033911Y012362D01*
X033852Y012421D02*
X038250Y012421D01*
X038309Y012479D02*
X033794Y012479D01*
X033735Y012538D02*
X038367Y012538D01*
X038426Y012596D02*
X033677Y012596D01*
X033618Y012655D02*
X038484Y012655D01*
X038543Y012713D02*
X033560Y012713D01*
X033501Y012772D02*
X038595Y012772D01*
X038595Y012830D02*
X033396Y012830D01*
X032769Y013181D02*
X035991Y013181D01*
X036049Y013123D02*
X032711Y013123D01*
X032652Y013064D02*
X036108Y013064D01*
X036245Y013006D02*
X032515Y013006D01*
X032374Y012947D02*
X036386Y012947D01*
X037607Y011777D02*
X034496Y011777D01*
X034554Y011719D02*
X037548Y011719D01*
X037490Y011660D02*
X034613Y011660D01*
X034671Y011602D02*
X037431Y011602D01*
X037373Y011543D02*
X034730Y011543D01*
X034788Y011485D02*
X037314Y011485D01*
X037256Y011426D02*
X034845Y011426D01*
X034870Y011368D02*
X037197Y011368D01*
X037139Y011309D02*
X034894Y011309D01*
X034918Y011251D02*
X037080Y011251D01*
X037022Y011192D02*
X034925Y011192D01*
X034925Y011134D02*
X036963Y011134D01*
X036905Y011075D02*
X034925Y011075D01*
X034925Y011017D02*
X036846Y011017D01*
X036788Y010958D02*
X034925Y010958D01*
X034925Y010900D02*
X036729Y010900D01*
X036671Y010841D02*
X034925Y010841D01*
X034925Y010783D02*
X036612Y010783D01*
X036554Y010724D02*
X034925Y010724D01*
X034925Y010666D02*
X036495Y010666D01*
X036437Y010607D02*
X034925Y010607D01*
X034925Y010549D02*
X036378Y010549D01*
X036320Y010490D02*
X034925Y010490D01*
X034925Y010432D02*
X036261Y010432D01*
X036203Y010373D02*
X034925Y010373D01*
X034925Y010315D02*
X036144Y010315D01*
X036086Y010256D02*
X034925Y010256D01*
X034925Y010198D02*
X036027Y010198D01*
X035969Y010139D02*
X034925Y010139D01*
X034925Y010081D02*
X035910Y010081D01*
X035852Y010022D02*
X034925Y010022D01*
X034925Y009964D02*
X035793Y009964D01*
X035735Y009905D02*
X034925Y009905D01*
X034925Y009847D02*
X035676Y009847D01*
X035618Y009788D02*
X034925Y009788D01*
X034925Y009730D02*
X035559Y009730D01*
X035501Y009671D02*
X034925Y009671D01*
X034925Y009613D02*
X035442Y009613D01*
X035384Y009554D02*
X034925Y009554D01*
X034925Y009496D02*
X035325Y009496D01*
X035267Y009437D02*
X034925Y009437D01*
X034925Y009379D02*
X035208Y009379D01*
X035150Y009320D02*
X034925Y009320D01*
X034925Y009262D02*
X035091Y009262D01*
X035033Y009203D02*
X034925Y009203D01*
X034925Y009145D02*
X034974Y009145D01*
X035528Y008209D02*
X036742Y008209D01*
X036683Y008150D02*
X035470Y008150D01*
X035411Y008092D02*
X036640Y008092D01*
X036615Y008033D02*
X035353Y008033D01*
X035294Y007975D02*
X036600Y007975D01*
X036600Y007916D02*
X035236Y007916D01*
X035177Y007858D02*
X036600Y007858D01*
X036600Y007799D02*
X035119Y007799D01*
X035060Y007741D02*
X036600Y007741D01*
X036600Y007682D02*
X035002Y007682D01*
X034943Y007624D02*
X036600Y007624D01*
X036600Y007565D02*
X034885Y007565D01*
X034826Y007507D02*
X036600Y007507D01*
X036600Y007448D02*
X034768Y007448D01*
X034709Y007390D02*
X036600Y007390D01*
X036600Y007331D02*
X034651Y007331D01*
X034592Y007273D02*
X036600Y007273D01*
X036621Y007214D02*
X034534Y007214D01*
X034475Y007156D02*
X036645Y007156D01*
X036642Y007097D02*
X034417Y007097D01*
X034358Y007039D02*
X036618Y007039D01*
X036600Y006980D02*
X034300Y006980D01*
X034241Y006922D02*
X036600Y006922D01*
X036600Y006863D02*
X034183Y006863D01*
X034124Y006805D02*
X036600Y006805D01*
X036600Y006746D02*
X034066Y006746D01*
X034007Y006688D02*
X036600Y006688D01*
X036600Y006629D02*
X033949Y006629D01*
X033890Y006571D02*
X036600Y006571D01*
X036600Y006512D02*
X033832Y006512D01*
X033773Y006454D02*
X036600Y006454D01*
X036600Y006395D02*
X033715Y006395D01*
X033656Y006337D02*
X036600Y006337D01*
X036600Y006278D02*
X033598Y006278D01*
X033539Y006220D02*
X036619Y006220D01*
X036643Y006161D02*
X033481Y006161D01*
X033422Y006103D02*
X036644Y006103D01*
X036620Y006044D02*
X033364Y006044D01*
X033305Y005986D02*
X036600Y005986D01*
X036600Y005927D02*
X033247Y005927D01*
X033188Y005869D02*
X036600Y005869D01*
X036600Y005810D02*
X033130Y005810D01*
X033071Y005752D02*
X036600Y005752D01*
X036600Y005693D02*
X033013Y005693D01*
X032954Y005635D02*
X036600Y005635D01*
X036600Y005576D02*
X032896Y005576D01*
X032837Y005518D02*
X036600Y005518D01*
X036600Y005459D02*
X032779Y005459D01*
X032759Y005401D02*
X036600Y005401D01*
X036600Y005342D02*
X032759Y005342D01*
X032759Y005284D02*
X036600Y005284D01*
X036616Y005225D02*
X032759Y005225D01*
X032759Y005167D02*
X036641Y005167D01*
X036647Y005108D02*
X032759Y005108D01*
X032759Y005050D02*
X036622Y005050D01*
X036600Y004991D02*
X032759Y004991D01*
X032759Y004933D02*
X036600Y004933D01*
X036600Y004874D02*
X032759Y004874D01*
X032759Y004816D02*
X036600Y004816D01*
X036600Y004757D02*
X032759Y004757D01*
X032759Y004699D02*
X036600Y004699D01*
X036600Y004640D02*
X032759Y004640D01*
X032759Y004582D02*
X036600Y004582D01*
X036600Y004523D02*
X032759Y004523D01*
X032759Y004465D02*
X036600Y004465D01*
X036600Y004406D02*
X032759Y004406D01*
X032759Y004348D02*
X036600Y004348D01*
X036600Y004289D02*
X032759Y004289D01*
X032759Y004231D02*
X036614Y004231D01*
X036638Y004172D02*
X032759Y004172D01*
X032759Y004114D02*
X036680Y004114D01*
X036738Y004055D02*
X032759Y004055D01*
X032503Y003412D02*
X038881Y003412D01*
X038740Y003353D02*
X032445Y003353D01*
X032386Y003295D02*
X038639Y003295D01*
X038580Y003236D02*
X032328Y003236D01*
X032269Y003178D02*
X038522Y003178D01*
X038463Y003119D02*
X032211Y003119D01*
X032152Y003061D02*
X038424Y003061D01*
X038399Y003002D02*
X032094Y003002D01*
X032035Y002944D02*
X038375Y002944D01*
X038351Y002885D02*
X031977Y002885D01*
X031887Y002827D02*
X038327Y002827D01*
X032342Y006512D02*
X031460Y006512D01*
X031460Y006454D02*
X032283Y006454D01*
X032225Y006395D02*
X031460Y006395D01*
X031460Y006337D02*
X032166Y006337D01*
X032108Y006278D02*
X031450Y006278D01*
X031493Y006220D02*
X032049Y006220D01*
X032400Y006571D02*
X031460Y006571D01*
X030200Y006512D02*
X029260Y006512D01*
X029260Y006454D02*
X030200Y006454D01*
X030200Y006395D02*
X029260Y006395D01*
X029260Y006337D02*
X030200Y006337D01*
X030210Y006278D02*
X029260Y006278D01*
X029241Y006220D02*
X030167Y006220D01*
X030094Y006161D02*
X029217Y006161D01*
X029216Y006103D02*
X030044Y006103D01*
X030020Y006044D02*
X029240Y006044D01*
X029260Y005986D02*
X030000Y005986D01*
X030000Y005927D02*
X029260Y005927D01*
X029260Y005869D02*
X030000Y005869D01*
X030000Y005810D02*
X029260Y005810D01*
X029260Y005752D02*
X030000Y005752D01*
X030000Y005693D02*
X029260Y005693D01*
X029260Y005635D02*
X030000Y005635D01*
X030000Y005576D02*
X029260Y005576D01*
X029260Y005518D02*
X030000Y005518D01*
X030000Y005459D02*
X029260Y005459D01*
X029260Y005401D02*
X030000Y005401D01*
X030000Y005342D02*
X029260Y005342D01*
X029260Y005284D02*
X030000Y005284D01*
X030016Y005225D02*
X029244Y005225D01*
X029219Y005167D02*
X030041Y005167D01*
X030047Y005108D02*
X029213Y005108D01*
X029238Y005050D02*
X030022Y005050D01*
X030000Y004991D02*
X029260Y004991D01*
X029260Y004933D02*
X030000Y004933D01*
X030000Y004874D02*
X029260Y004874D01*
X029260Y004816D02*
X030000Y004816D01*
X030000Y004757D02*
X029260Y004757D01*
X029260Y004699D02*
X030000Y004699D01*
X030000Y004640D02*
X029260Y004640D01*
X029260Y004582D02*
X030000Y004582D01*
X030000Y004523D02*
X029260Y004523D01*
X029260Y004465D02*
X030000Y004465D01*
X030000Y004406D02*
X029260Y004406D01*
X029260Y004348D02*
X030000Y004348D01*
X030000Y004289D02*
X029260Y004289D01*
X029246Y004231D02*
X030014Y004231D01*
X030038Y004172D02*
X029222Y004172D01*
X029180Y004114D02*
X030080Y004114D01*
X030138Y004055D02*
X029122Y004055D01*
X027738Y004055D02*
X024147Y004055D01*
X024205Y003997D02*
X031598Y003997D01*
X031656Y004055D02*
X031522Y004055D01*
X031580Y004114D02*
X031706Y004114D01*
X031706Y004172D02*
X031622Y004172D01*
X031646Y004231D02*
X031706Y004231D01*
X031706Y004289D02*
X031660Y004289D01*
X031660Y004348D02*
X031706Y004348D01*
X031706Y004406D02*
X031660Y004406D01*
X031660Y004465D02*
X031706Y004465D01*
X031706Y004523D02*
X031660Y004523D01*
X031660Y004582D02*
X031706Y004582D01*
X031706Y004640D02*
X031660Y004640D01*
X031660Y004699D02*
X031706Y004699D01*
X031706Y004757D02*
X031660Y004757D01*
X031660Y004816D02*
X031706Y004816D01*
X031706Y004874D02*
X031660Y004874D01*
X031660Y004933D02*
X031706Y004933D01*
X031706Y004991D02*
X031660Y004991D01*
X031638Y005050D02*
X031706Y005050D01*
X031706Y005108D02*
X031613Y005108D01*
X031539Y003938D02*
X024264Y003938D01*
X024322Y003880D02*
X031481Y003880D01*
X027680Y004114D02*
X024088Y004114D01*
X024030Y004172D02*
X027638Y004172D01*
X027614Y004231D02*
X023971Y004231D01*
X023913Y004289D02*
X027600Y004289D01*
X027600Y004348D02*
X023901Y004348D01*
X023901Y004406D02*
X027600Y004406D01*
X027600Y004465D02*
X023901Y004465D01*
X023901Y004523D02*
X027600Y004523D01*
X027600Y004582D02*
X023901Y004582D01*
X023901Y004640D02*
X027600Y004640D01*
X027600Y004699D02*
X023901Y004699D01*
X023901Y004757D02*
X027600Y004757D01*
X027600Y004816D02*
X023901Y004816D01*
X023901Y004874D02*
X027600Y004874D01*
X027600Y004933D02*
X023901Y004933D01*
X023901Y004991D02*
X027600Y004991D01*
X027622Y005050D02*
X023888Y005050D01*
X023864Y005108D02*
X027647Y005108D01*
X027641Y005167D02*
X023840Y005167D01*
X023808Y005225D02*
X027616Y005225D01*
X027600Y005284D02*
X023749Y005284D01*
X023691Y005342D02*
X027600Y005342D01*
X027600Y005401D02*
X023632Y005401D01*
X023574Y005459D02*
X027600Y005459D01*
X027600Y005518D02*
X023515Y005518D01*
X023457Y005576D02*
X027600Y005576D01*
X027600Y005635D02*
X023398Y005635D01*
X023340Y005693D02*
X027600Y005693D01*
X027600Y005752D02*
X023281Y005752D01*
X023223Y005810D02*
X027600Y005810D01*
X027600Y005869D02*
X023164Y005869D01*
X023106Y005927D02*
X027600Y005927D01*
X027600Y005986D02*
X023047Y005986D01*
X022989Y006044D02*
X027620Y006044D01*
X027644Y006103D02*
X022930Y006103D01*
X022791Y006161D02*
X027643Y006161D01*
X027619Y006220D02*
X022493Y006220D01*
X022450Y006278D02*
X027600Y006278D01*
X027600Y006337D02*
X022460Y006337D01*
X022460Y006395D02*
X027600Y006395D01*
X027600Y006454D02*
X022460Y006454D01*
X022460Y006512D02*
X027600Y006512D01*
X030553Y008267D02*
X023185Y008267D01*
X023244Y008326D02*
X030612Y008326D01*
X030670Y008384D02*
X023302Y008384D01*
X023279Y008361D02*
X023279Y008361D01*
X023361Y008443D02*
X030729Y008443D01*
X030787Y008501D02*
X023419Y008501D01*
X023448Y008560D02*
X030846Y008560D01*
X030904Y008618D02*
X023472Y008618D01*
X023497Y008677D02*
X030963Y008677D01*
X031021Y008735D02*
X023507Y008735D01*
X023507Y008794D02*
X031080Y008794D01*
X031138Y008852D02*
X023507Y008852D01*
X023507Y008911D02*
X031197Y008911D01*
X031255Y008969D02*
X024440Y008969D01*
X024499Y009028D02*
X031314Y009028D01*
X031372Y009086D02*
X024557Y009086D01*
X024616Y009145D02*
X031431Y009145D01*
X031489Y009203D02*
X024674Y009203D01*
X024733Y009262D02*
X031509Y009262D01*
X031469Y009320D02*
X024791Y009320D01*
X024817Y009379D02*
X031443Y009379D01*
X031443Y009437D02*
X024817Y009437D01*
X024817Y009496D02*
X031443Y009496D01*
X031443Y009554D02*
X024817Y009554D01*
X024817Y009613D02*
X031443Y009613D01*
X031443Y009671D02*
X024817Y009671D01*
X024817Y009730D02*
X031443Y009730D01*
X031443Y009788D02*
X024817Y009788D01*
X024817Y009847D02*
X031443Y009847D01*
X031443Y009905D02*
X024817Y009905D01*
X024768Y009964D02*
X031492Y009964D01*
X031551Y010022D02*
X024709Y010022D01*
X024688Y010081D02*
X031609Y010081D01*
X031668Y010139D02*
X024688Y010139D01*
X024688Y010198D02*
X031726Y010198D01*
X031785Y010256D02*
X024727Y010256D01*
X024786Y010315D02*
X031757Y010315D01*
X031698Y010373D02*
X024817Y010373D01*
X024817Y010432D02*
X031643Y010432D01*
X031643Y010490D02*
X024817Y010490D01*
X024817Y010549D02*
X031643Y010549D01*
X031643Y010666D02*
X024817Y010666D01*
X024817Y010724D02*
X031643Y010724D01*
X031643Y010783D02*
X024817Y010783D01*
X024817Y010841D02*
X031653Y010841D01*
X031711Y010900D02*
X024817Y010900D01*
X024773Y010958D02*
X031770Y010958D01*
X031828Y011017D02*
X024715Y011017D01*
X024688Y011075D02*
X026522Y011075D01*
X026405Y011134D02*
X024688Y011134D01*
X024688Y011192D02*
X026346Y011192D01*
X026288Y011251D02*
X024688Y011251D01*
X024674Y011309D02*
X026229Y011309D01*
X026171Y011368D02*
X024650Y011368D01*
X024625Y011426D02*
X026112Y011426D01*
X026054Y011485D02*
X024591Y011485D01*
X024533Y011543D02*
X025995Y011543D01*
X025937Y011602D02*
X024474Y011602D01*
X024416Y011660D02*
X025878Y011660D01*
X025820Y011719D02*
X024357Y011719D01*
X024299Y011777D02*
X025761Y011777D01*
X025703Y011836D02*
X024240Y011836D01*
X024182Y011894D02*
X025644Y011894D01*
X025586Y011953D02*
X024123Y011953D01*
X024065Y012011D02*
X025527Y012011D01*
X025469Y012070D02*
X024006Y012070D01*
X023948Y012128D02*
X025410Y012128D01*
X025352Y012187D02*
X023889Y012187D01*
X023831Y012245D02*
X025293Y012245D01*
X025235Y012304D02*
X023772Y012304D01*
X023714Y012362D02*
X025176Y012362D01*
X025118Y012421D02*
X023655Y012421D01*
X023597Y012479D02*
X025059Y012479D01*
X025001Y012538D02*
X023538Y012538D01*
X023480Y012596D02*
X024942Y012596D01*
X024884Y012655D02*
X023421Y012655D01*
X023363Y012713D02*
X024825Y012713D01*
X024767Y012772D02*
X023304Y012772D01*
X023246Y012830D02*
X024708Y012830D01*
X024650Y012889D02*
X023187Y012889D01*
X023129Y012947D02*
X024591Y012947D01*
X024533Y013006D02*
X023070Y013006D01*
X023012Y013064D02*
X024474Y013064D01*
X024416Y013123D02*
X022953Y013123D01*
X022895Y013181D02*
X024357Y013181D01*
X024299Y013240D02*
X022836Y013240D01*
X022778Y013298D02*
X024240Y013298D01*
X024182Y013357D02*
X022719Y013357D01*
X022661Y013415D02*
X024123Y013415D01*
X024065Y013474D02*
X022602Y013474D01*
X022544Y013532D02*
X024006Y013532D01*
X023948Y013591D02*
X022485Y013591D01*
X022427Y013649D02*
X023889Y013649D01*
X023831Y013708D02*
X022368Y013708D01*
X022310Y013766D02*
X023772Y013766D01*
X023714Y013825D02*
X022251Y013825D01*
X022193Y013883D02*
X023655Y013883D01*
X023597Y013942D02*
X022134Y013942D01*
X022076Y014000D02*
X023538Y014000D01*
X023480Y014059D02*
X022017Y014059D01*
X021959Y014117D02*
X023421Y014117D01*
X023363Y014176D02*
X021900Y014176D01*
X021842Y014234D02*
X023304Y014234D01*
X023246Y014293D02*
X021783Y014293D01*
X021736Y014351D02*
X023187Y014351D01*
X023129Y014410D02*
X021736Y014410D01*
X021736Y014468D02*
X023070Y014468D01*
X023012Y014527D02*
X021736Y014527D01*
X021736Y014585D02*
X022953Y014585D01*
X022895Y014644D02*
X021736Y014644D01*
X021736Y014702D02*
X022836Y014702D01*
X022778Y014761D02*
X021736Y014761D01*
X021736Y014819D02*
X022719Y014819D01*
X022661Y014878D02*
X021736Y014878D01*
X021736Y014936D02*
X022602Y014936D01*
X022544Y014995D02*
X021736Y014995D01*
X021736Y015053D02*
X022485Y015053D01*
X022427Y015112D02*
X021736Y015112D01*
X021736Y015170D02*
X022368Y015170D01*
X022310Y015229D02*
X021736Y015229D01*
X021736Y015287D02*
X022251Y015287D01*
X022193Y015346D02*
X021736Y015346D01*
X021736Y015404D02*
X022134Y015404D01*
X021850Y015463D02*
X021736Y015463D01*
X020657Y015580D02*
X020603Y015580D01*
X019501Y015424D02*
X019501Y015325D01*
X015479Y011303D01*
X015429Y011303D01*
X015415Y011317D01*
X014845Y011317D01*
X014489Y010960D01*
X014332Y011117D01*
X014160Y011117D01*
X014160Y010660D01*
X014100Y010660D01*
X014100Y011117D01*
X013928Y011117D01*
X013643Y010832D01*
X013643Y010660D01*
X014100Y010660D01*
X014100Y010600D01*
X013643Y010600D01*
X013643Y010428D01*
X013800Y010271D01*
X013443Y009915D01*
X013443Y009345D01*
X013581Y009208D01*
X012633Y008260D01*
X012264Y008260D01*
X012143Y008210D01*
X012050Y008117D01*
X012000Y007996D01*
X012000Y007264D01*
X012050Y007143D01*
X012143Y007050D01*
X012230Y007014D01*
X012226Y007010D01*
X012209Y006980D01*
X011260Y006980D01*
X011260Y006996D02*
X011210Y007117D01*
X011197Y007130D01*
X011210Y007143D01*
X011260Y007264D01*
X011260Y007996D01*
X011210Y008117D01*
X011117Y008210D01*
X010996Y008260D01*
X009864Y008260D01*
X009743Y008210D01*
X009650Y008117D01*
X009600Y007996D01*
X009600Y007264D01*
X009650Y007143D01*
X009663Y007130D01*
X009650Y007117D01*
X009600Y006996D01*
X009600Y006264D01*
X009650Y006143D01*
X009663Y006130D01*
X009650Y006117D01*
X009600Y005996D01*
X009600Y005264D01*
X009650Y005143D01*
X009663Y005130D01*
X009650Y005117D01*
X009600Y004996D01*
X009600Y004264D01*
X009650Y004143D01*
X009743Y004050D01*
X009864Y004000D01*
X010996Y004000D01*
X011117Y004050D01*
X011210Y004143D01*
X011233Y004199D01*
X011233Y004144D01*
X010912Y003822D01*
X009813Y003822D01*
X007679Y005956D01*
X007531Y006104D01*
X007337Y006184D01*
X004542Y006184D01*
X004517Y006210D01*
X004430Y006246D01*
X004434Y006250D01*
X004451Y006280D01*
X004460Y006313D01*
X004460Y006600D01*
X003860Y006600D01*
X003860Y006660D01*
X004460Y006660D01*
X004460Y006947D01*
X004451Y006980D01*
X009600Y006980D01*
X009600Y006922D02*
X004460Y006922D01*
X004451Y006980D02*
X004434Y007010D01*
X004430Y007014D01*
X004517Y007050D01*
X004610Y007143D01*
X004660Y007264D01*
X004660Y007852D01*
X005365Y008557D01*
X005514Y008706D01*
X005594Y008899D01*
X005594Y009123D01*
X005630Y009159D01*
X005845Y008943D01*
X006415Y008943D01*
X006817Y009345D01*
X006817Y009915D01*
X006601Y010130D01*
X006817Y010345D01*
X006817Y010915D01*
X006775Y010956D01*
X006775Y011412D01*
X006793Y011430D01*
X015408Y011430D01*
X015602Y011510D01*
X019490Y015398D01*
X019501Y015424D01*
X019501Y015404D02*
X019492Y015404D01*
X019501Y015346D02*
X019437Y015346D01*
X019463Y015287D02*
X019379Y015287D01*
X019405Y015229D02*
X019320Y015229D01*
X019346Y015170D02*
X019262Y015170D01*
X019288Y015112D02*
X019203Y015112D01*
X019229Y015053D02*
X019145Y015053D01*
X019171Y014995D02*
X019086Y014995D01*
X019112Y014936D02*
X019028Y014936D01*
X019054Y014878D02*
X018969Y014878D01*
X018995Y014819D02*
X018911Y014819D01*
X018937Y014761D02*
X018852Y014761D01*
X018878Y014702D02*
X018794Y014702D01*
X018820Y014644D02*
X018735Y014644D01*
X018761Y014585D02*
X018677Y014585D01*
X018703Y014527D02*
X018618Y014527D01*
X018644Y014468D02*
X018560Y014468D01*
X018586Y014410D02*
X018501Y014410D01*
X018527Y014351D02*
X018443Y014351D01*
X018469Y014293D02*
X018384Y014293D01*
X018410Y014234D02*
X018326Y014234D01*
X018352Y014176D02*
X018267Y014176D01*
X018293Y014117D02*
X018209Y014117D01*
X018235Y014059D02*
X018150Y014059D01*
X018176Y014000D02*
X018092Y014000D01*
X018118Y013942D02*
X018033Y013942D01*
X018059Y013883D02*
X017975Y013883D01*
X018001Y013825D02*
X017916Y013825D01*
X017942Y013766D02*
X017858Y013766D01*
X017884Y013708D02*
X017799Y013708D01*
X017825Y013649D02*
X017741Y013649D01*
X017767Y013591D02*
X017682Y013591D01*
X017708Y013532D02*
X017624Y013532D01*
X017650Y013474D02*
X017565Y013474D01*
X017591Y013415D02*
X017507Y013415D01*
X017533Y013357D02*
X017448Y013357D01*
X017474Y013298D02*
X017390Y013298D01*
X017416Y013240D02*
X017331Y013240D01*
X017357Y013181D02*
X017273Y013181D01*
X017299Y013123D02*
X017214Y013123D01*
X017240Y013064D02*
X017156Y013064D01*
X017182Y013006D02*
X017097Y013006D01*
X017123Y012947D02*
X017039Y012947D01*
X017065Y012889D02*
X016980Y012889D01*
X017006Y012830D02*
X016922Y012830D01*
X016948Y012772D02*
X016863Y012772D01*
X016889Y012713D02*
X016805Y012713D01*
X016831Y012655D02*
X016746Y012655D01*
X016772Y012596D02*
X016688Y012596D01*
X016714Y012538D02*
X016629Y012538D01*
X016655Y012479D02*
X016571Y012479D01*
X016597Y012421D02*
X016512Y012421D01*
X016538Y012362D02*
X016454Y012362D01*
X016480Y012304D02*
X016395Y012304D01*
X016421Y012245D02*
X016337Y012245D01*
X016363Y012187D02*
X016278Y012187D01*
X016304Y012128D02*
X016220Y012128D01*
X016246Y012070D02*
X016161Y012070D01*
X016187Y012011D02*
X016103Y012011D01*
X016129Y011953D02*
X016044Y011953D01*
X016070Y011894D02*
X015986Y011894D01*
X016012Y011836D02*
X015927Y011836D01*
X015953Y011777D02*
X015869Y011777D01*
X015895Y011719D02*
X015810Y011719D01*
X015836Y011660D02*
X015752Y011660D01*
X015778Y011602D02*
X015693Y011602D01*
X015719Y011543D02*
X015635Y011543D01*
X015661Y011485D02*
X015540Y011485D01*
X015602Y011426D02*
X006789Y011426D01*
X006775Y011368D02*
X015544Y011368D01*
X015485Y011309D02*
X015422Y011309D01*
X014838Y011309D02*
X006775Y011309D01*
X006775Y011251D02*
X014779Y011251D01*
X014721Y011192D02*
X006775Y011192D01*
X006775Y011134D02*
X014662Y011134D01*
X014604Y011075D02*
X014373Y011075D01*
X014432Y011017D02*
X014545Y011017D01*
X014160Y011017D02*
X014100Y011017D01*
X014100Y011075D02*
X014160Y011075D01*
X014160Y010958D02*
X014100Y010958D01*
X014100Y010900D02*
X014160Y010900D01*
X014160Y010841D02*
X014100Y010841D01*
X014100Y010783D02*
X014160Y010783D01*
X014160Y010724D02*
X014100Y010724D01*
X014100Y010666D02*
X014160Y010666D01*
X014100Y010607D02*
X006817Y010607D01*
X006817Y010549D02*
X013643Y010549D01*
X013643Y010490D02*
X006817Y010490D01*
X006817Y010432D02*
X013643Y010432D01*
X013698Y010373D02*
X006817Y010373D01*
X006786Y010315D02*
X013757Y010315D01*
X013785Y010256D02*
X006727Y010256D01*
X006669Y010198D02*
X013726Y010198D01*
X013668Y010139D02*
X006610Y010139D01*
X006651Y010081D02*
X013609Y010081D01*
X013551Y010022D02*
X006709Y010022D01*
X006768Y009964D02*
X013492Y009964D01*
X013443Y009905D02*
X006817Y009905D01*
X006817Y009847D02*
X013443Y009847D01*
X013443Y009788D02*
X006817Y009788D01*
X006817Y009730D02*
X013443Y009730D01*
X013443Y009671D02*
X006817Y009671D01*
X006817Y009613D02*
X013443Y009613D01*
X013443Y009554D02*
X006817Y009554D01*
X006817Y009496D02*
X013443Y009496D01*
X013443Y009437D02*
X006817Y009437D01*
X006817Y009379D02*
X013443Y009379D01*
X013469Y009320D02*
X006791Y009320D01*
X006733Y009262D02*
X013527Y009262D01*
X013576Y009203D02*
X006674Y009203D01*
X006616Y009145D02*
X013518Y009145D01*
X013459Y009086D02*
X006557Y009086D01*
X006499Y009028D02*
X013401Y009028D01*
X013342Y008969D02*
X006440Y008969D01*
X005820Y008969D02*
X005594Y008969D01*
X005594Y008911D02*
X013284Y008911D01*
X013225Y008852D02*
X005574Y008852D01*
X005550Y008794D02*
X013167Y008794D01*
X013108Y008735D02*
X005526Y008735D01*
X005485Y008677D02*
X013050Y008677D01*
X012991Y008618D02*
X005426Y008618D01*
X005368Y008560D02*
X012933Y008560D01*
X012874Y008501D02*
X005309Y008501D01*
X005251Y008443D02*
X012816Y008443D01*
X012757Y008384D02*
X005192Y008384D01*
X005134Y008326D02*
X012699Y008326D01*
X012640Y008267D02*
X005075Y008267D01*
X005017Y008209D02*
X009742Y008209D01*
X009683Y008150D02*
X004958Y008150D01*
X004900Y008092D02*
X009640Y008092D01*
X009615Y008033D02*
X004841Y008033D01*
X004783Y007975D02*
X009600Y007975D01*
X009600Y007916D02*
X004724Y007916D01*
X004666Y007858D02*
X009600Y007858D01*
X009600Y007799D02*
X004660Y007799D01*
X004660Y007741D02*
X009600Y007741D01*
X009600Y007682D02*
X004660Y007682D01*
X004660Y007624D02*
X009600Y007624D01*
X009600Y007565D02*
X004660Y007565D01*
X004660Y007507D02*
X009600Y007507D01*
X009600Y007448D02*
X004660Y007448D01*
X004660Y007390D02*
X009600Y007390D01*
X009600Y007331D02*
X004660Y007331D01*
X004660Y007273D02*
X009600Y007273D01*
X009621Y007214D02*
X004639Y007214D01*
X004615Y007156D02*
X009645Y007156D01*
X009642Y007097D02*
X004564Y007097D01*
X004489Y007039D02*
X009618Y007039D01*
X009600Y006863D02*
X004460Y006863D01*
X004460Y006805D02*
X009600Y006805D01*
X009600Y006746D02*
X004460Y006746D01*
X004460Y006688D02*
X009600Y006688D01*
X009600Y006629D02*
X003860Y006629D01*
X003800Y006629D02*
X001857Y006629D01*
X004460Y006571D02*
X009600Y006571D01*
X009600Y006512D02*
X004460Y006512D01*
X004460Y006454D02*
X009600Y006454D01*
X009600Y006395D02*
X004460Y006395D01*
X004460Y006337D02*
X009600Y006337D01*
X009600Y006278D02*
X004450Y006278D01*
X004493Y006220D02*
X009619Y006220D01*
X009643Y006161D02*
X007394Y006161D01*
X007532Y006103D02*
X009644Y006103D01*
X009620Y006044D02*
X007591Y006044D01*
X007649Y005986D02*
X009600Y005986D01*
X009600Y005927D02*
X007708Y005927D01*
X007766Y005869D02*
X009600Y005869D01*
X009600Y005810D02*
X007825Y005810D01*
X007883Y005752D02*
X009600Y005752D01*
X009600Y005693D02*
X007942Y005693D01*
X008000Y005635D02*
X009600Y005635D01*
X009600Y005576D02*
X008059Y005576D01*
X008117Y005518D02*
X009600Y005518D01*
X009600Y005459D02*
X008176Y005459D01*
X008234Y005401D02*
X009600Y005401D01*
X009600Y005342D02*
X008293Y005342D01*
X008351Y005284D02*
X009600Y005284D01*
X009616Y005225D02*
X008410Y005225D01*
X008468Y005167D02*
X009641Y005167D01*
X009647Y005108D02*
X008527Y005108D01*
X008585Y005050D02*
X009622Y005050D01*
X009600Y004991D02*
X008644Y004991D01*
X008702Y004933D02*
X009600Y004933D01*
X009600Y004874D02*
X008761Y004874D01*
X008819Y004816D02*
X009600Y004816D01*
X009600Y004757D02*
X008878Y004757D01*
X008936Y004699D02*
X009600Y004699D01*
X009600Y004640D02*
X008995Y004640D01*
X009053Y004582D02*
X009600Y004582D01*
X009600Y004523D02*
X009112Y004523D01*
X009170Y004465D02*
X009600Y004465D01*
X009600Y004406D02*
X009229Y004406D01*
X009287Y004348D02*
X009600Y004348D01*
X009600Y004289D02*
X009346Y004289D01*
X009404Y004231D02*
X009614Y004231D01*
X009638Y004172D02*
X009463Y004172D01*
X009521Y004114D02*
X009680Y004114D01*
X009738Y004055D02*
X009580Y004055D01*
X009638Y003997D02*
X011086Y003997D01*
X011122Y004055D02*
X011145Y004055D01*
X011180Y004114D02*
X011203Y004114D01*
X011222Y004172D02*
X011233Y004172D01*
X011028Y003938D02*
X009697Y003938D01*
X009755Y003880D02*
X010969Y003880D01*
X012434Y003997D02*
X022543Y003997D01*
X022522Y004055D02*
X022601Y004055D01*
X022580Y004114D02*
X022660Y004114D01*
X022622Y004172D02*
X022718Y004172D01*
X022777Y004231D02*
X022646Y004231D01*
X022660Y004289D02*
X022835Y004289D01*
X022847Y004348D02*
X022660Y004348D01*
X022660Y004406D02*
X022847Y004406D01*
X022847Y004465D02*
X022660Y004465D01*
X022660Y004523D02*
X022847Y004523D01*
X022847Y004582D02*
X022660Y004582D01*
X022660Y004640D02*
X022847Y004640D01*
X022844Y004699D02*
X022660Y004699D01*
X022660Y004757D02*
X022785Y004757D01*
X022727Y004816D02*
X022660Y004816D01*
X022660Y004874D02*
X022668Y004874D01*
X022484Y003938D02*
X012492Y003938D01*
X012551Y003880D02*
X022426Y003880D01*
X022387Y003840D02*
X022387Y003840D01*
X021138Y004055D02*
X020122Y004055D01*
X020180Y004114D02*
X021080Y004114D01*
X021038Y004172D02*
X020222Y004172D01*
X020246Y004231D02*
X021014Y004231D01*
X021000Y004289D02*
X020260Y004289D01*
X020260Y004348D02*
X021000Y004348D01*
X021000Y004406D02*
X020260Y004406D01*
X020260Y004465D02*
X021000Y004465D01*
X021000Y004523D02*
X020260Y004523D01*
X020260Y004582D02*
X021000Y004582D01*
X021000Y004640D02*
X020260Y004640D01*
X020260Y004699D02*
X021000Y004699D01*
X021000Y004757D02*
X020260Y004757D01*
X020260Y004816D02*
X021000Y004816D01*
X021000Y004874D02*
X020260Y004874D01*
X020260Y004933D02*
X021000Y004933D01*
X021000Y004991D02*
X020260Y004991D01*
X020238Y005050D02*
X021022Y005050D01*
X021047Y005108D02*
X020213Y005108D01*
X020219Y005167D02*
X021041Y005167D01*
X021016Y005225D02*
X020244Y005225D01*
X020260Y005284D02*
X021000Y005284D01*
X021000Y005342D02*
X020260Y005342D01*
X020260Y005401D02*
X021000Y005401D01*
X021000Y005459D02*
X020260Y005459D01*
X020260Y005518D02*
X021000Y005518D01*
X021000Y005576D02*
X020260Y005576D01*
X020260Y005635D02*
X021000Y005635D01*
X021000Y005693D02*
X020260Y005693D01*
X020260Y005752D02*
X021000Y005752D01*
X021000Y005810D02*
X020260Y005810D01*
X020260Y005869D02*
X021000Y005869D01*
X021000Y005927D02*
X020260Y005927D01*
X020260Y005986D02*
X021000Y005986D01*
X021020Y006044D02*
X020240Y006044D01*
X020216Y006103D02*
X021044Y006103D01*
X021094Y006161D02*
X020217Y006161D01*
X020241Y006220D02*
X021167Y006220D01*
X021210Y006278D02*
X020260Y006278D01*
X020260Y006337D02*
X021200Y006337D01*
X021200Y006395D02*
X020260Y006395D01*
X020260Y006454D02*
X021200Y006454D01*
X021200Y006512D02*
X020260Y006512D01*
X020260Y006571D02*
X021200Y006571D01*
X018643Y006161D02*
X013566Y006161D01*
X013616Y006103D02*
X018644Y006103D01*
X018620Y006044D02*
X013640Y006044D01*
X013660Y005986D02*
X018600Y005986D01*
X018600Y005927D02*
X013660Y005927D01*
X013660Y005869D02*
X018600Y005869D01*
X018600Y005810D02*
X013660Y005810D01*
X013660Y005752D02*
X018600Y005752D01*
X018600Y005693D02*
X013660Y005693D01*
X013660Y005635D02*
X018600Y005635D01*
X018600Y005576D02*
X013660Y005576D01*
X013660Y005518D02*
X018600Y005518D01*
X018600Y005459D02*
X013660Y005459D01*
X013660Y005401D02*
X018600Y005401D01*
X018600Y005342D02*
X013660Y005342D01*
X013660Y005284D02*
X018600Y005284D01*
X018616Y005225D02*
X013644Y005225D01*
X013619Y005167D02*
X018641Y005167D01*
X018647Y005108D02*
X013613Y005108D01*
X013638Y005050D02*
X018622Y005050D01*
X018600Y004991D02*
X013660Y004991D01*
X013660Y004933D02*
X018600Y004933D01*
X018600Y004874D02*
X013660Y004874D01*
X013660Y004816D02*
X018600Y004816D01*
X018600Y004757D02*
X013660Y004757D01*
X013660Y004699D02*
X018600Y004699D01*
X018600Y004640D02*
X013660Y004640D01*
X013660Y004582D02*
X018600Y004582D01*
X018600Y004523D02*
X013660Y004523D01*
X013660Y004465D02*
X018600Y004465D01*
X018600Y004406D02*
X013660Y004406D01*
X013660Y004348D02*
X018600Y004348D01*
X018600Y004289D02*
X013660Y004289D01*
X013646Y004231D02*
X018614Y004231D01*
X018638Y004172D02*
X013622Y004172D01*
X013580Y004114D02*
X018680Y004114D01*
X018738Y004055D02*
X013522Y004055D01*
X011279Y005284D02*
X011260Y005284D01*
X011260Y005264D02*
X011260Y005996D01*
X011210Y006117D01*
X011197Y006130D01*
X011210Y006143D01*
X011260Y006264D01*
X011260Y006996D01*
X011242Y007039D02*
X012171Y007039D01*
X012209Y006980D02*
X012200Y006947D01*
X012200Y006660D01*
X012800Y006660D01*
X012800Y006600D01*
X012200Y006600D01*
X012200Y006313D01*
X012209Y006280D01*
X012226Y006250D01*
X012230Y006246D01*
X012143Y006210D01*
X012050Y006117D01*
X012040Y006092D01*
X011904Y005956D01*
X011313Y005365D01*
X011233Y005172D01*
X011233Y005061D01*
X011210Y005117D01*
X011197Y005130D01*
X011210Y005143D01*
X011260Y005264D01*
X011255Y005225D02*
X011244Y005225D01*
X011233Y005167D02*
X011219Y005167D01*
X011213Y005108D02*
X011233Y005108D01*
X011260Y005342D02*
X011304Y005342D01*
X011260Y005401D02*
X011348Y005401D01*
X011407Y005459D02*
X011260Y005459D01*
X011260Y005518D02*
X011465Y005518D01*
X011524Y005576D02*
X011260Y005576D01*
X011260Y005635D02*
X011582Y005635D01*
X011641Y005693D02*
X011260Y005693D01*
X011260Y005752D02*
X011699Y005752D01*
X011758Y005810D02*
X011260Y005810D01*
X011260Y005869D02*
X011816Y005869D01*
X011875Y005927D02*
X011260Y005927D01*
X011260Y005986D02*
X011933Y005986D01*
X011992Y006044D02*
X011240Y006044D01*
X011216Y006103D02*
X012044Y006103D01*
X012094Y006161D02*
X011217Y006161D01*
X011241Y006220D02*
X012167Y006220D01*
X012210Y006278D02*
X011260Y006278D01*
X011260Y006337D02*
X012200Y006337D01*
X012200Y006395D02*
X011260Y006395D01*
X011260Y006454D02*
X012200Y006454D01*
X012200Y006512D02*
X011260Y006512D01*
X011260Y006571D02*
X012200Y006571D01*
X012200Y006688D02*
X011260Y006688D01*
X011260Y006746D02*
X012200Y006746D01*
X012200Y006805D02*
X011260Y006805D01*
X011260Y006863D02*
X012200Y006863D01*
X012200Y006922D02*
X011260Y006922D01*
X011218Y007097D02*
X012096Y007097D01*
X012045Y007156D02*
X011215Y007156D01*
X011239Y007214D02*
X012021Y007214D01*
X012000Y007273D02*
X011260Y007273D01*
X011260Y007331D02*
X012000Y007331D01*
X012000Y007390D02*
X011260Y007390D01*
X011260Y007448D02*
X012000Y007448D01*
X012000Y007507D02*
X011260Y007507D01*
X011260Y007565D02*
X012000Y007565D01*
X012000Y007624D02*
X011260Y007624D01*
X011260Y007682D02*
X012000Y007682D01*
X012000Y007741D02*
X011260Y007741D01*
X011260Y007799D02*
X012000Y007799D01*
X012000Y007858D02*
X011260Y007858D01*
X011260Y007916D02*
X012000Y007916D01*
X012000Y007975D02*
X011260Y007975D01*
X011245Y008033D02*
X012015Y008033D01*
X012040Y008092D02*
X011220Y008092D01*
X011177Y008150D02*
X012083Y008150D01*
X012142Y008209D02*
X011118Y008209D01*
X013662Y007799D02*
X018600Y007799D01*
X018600Y007741D02*
X013660Y007741D01*
X013660Y007682D02*
X018600Y007682D01*
X018600Y007624D02*
X013660Y007624D01*
X013660Y007565D02*
X018600Y007565D01*
X018600Y007507D02*
X013660Y007507D01*
X013660Y007448D02*
X018600Y007448D01*
X018600Y007390D02*
X013660Y007390D01*
X013660Y007331D02*
X018600Y007331D01*
X018600Y007273D02*
X013660Y007273D01*
X013639Y007214D02*
X018621Y007214D01*
X018645Y007156D02*
X013615Y007156D01*
X013564Y007097D02*
X018642Y007097D01*
X018618Y007039D02*
X013489Y007039D01*
X013460Y006863D02*
X018600Y006863D01*
X018600Y006805D02*
X013460Y006805D01*
X013460Y006746D02*
X018600Y006746D01*
X018600Y006688D02*
X013460Y006688D01*
X013460Y006571D02*
X018600Y006571D01*
X018600Y006629D02*
X012860Y006629D01*
X012800Y006629D02*
X011260Y006629D01*
X013460Y006512D02*
X018600Y006512D01*
X018600Y006454D02*
X013460Y006454D01*
X013460Y006395D02*
X018600Y006395D01*
X018600Y006337D02*
X013460Y006337D01*
X013450Y006278D02*
X018600Y006278D01*
X018619Y006220D02*
X013493Y006220D01*
X013721Y007858D02*
X018600Y007858D01*
X018600Y007916D02*
X013779Y007916D01*
X013838Y007975D02*
X018600Y007975D01*
X018615Y008033D02*
X013896Y008033D01*
X013955Y008092D02*
X018640Y008092D01*
X018683Y008150D02*
X014013Y008150D01*
X014072Y008209D02*
X018742Y008209D01*
X023507Y008969D02*
X023820Y008969D01*
X023761Y009028D02*
X023507Y009028D01*
X023557Y009086D02*
X023703Y009086D01*
X023644Y009145D02*
X023616Y009145D01*
X024817Y010607D02*
X032100Y010607D01*
X030886Y012947D02*
X027656Y012947D01*
X027598Y013006D02*
X030745Y013006D01*
X030608Y013064D02*
X027539Y013064D01*
X027481Y013123D02*
X030549Y013123D01*
X030491Y013181D02*
X027422Y013181D01*
X027364Y013240D02*
X030432Y013240D01*
X030374Y013298D02*
X027305Y013298D01*
X027247Y013357D02*
X030346Y013357D01*
X029855Y013415D02*
X027188Y013415D01*
X027130Y013474D02*
X029714Y013474D01*
X029648Y013532D02*
X027071Y013532D01*
X027013Y013591D02*
X029590Y013591D01*
X029531Y013649D02*
X027338Y013649D01*
X027332Y013643D02*
X027617Y013928D01*
X027617Y014100D01*
X027160Y014100D01*
X027160Y013643D01*
X027332Y013643D01*
X027396Y013708D02*
X029473Y013708D01*
X029414Y013766D02*
X027455Y013766D01*
X027513Y013825D02*
X029356Y013825D01*
X029297Y013883D02*
X027572Y013883D01*
X027617Y013942D02*
X029239Y013942D01*
X029180Y014000D02*
X027617Y014000D01*
X027617Y014059D02*
X029122Y014059D01*
X029063Y014117D02*
X027160Y014117D01*
X027160Y014160D02*
X027617Y014160D01*
X027617Y014332D01*
X027332Y014617D01*
X027160Y014617D01*
X027160Y014160D01*
X027160Y014176D02*
X027100Y014176D01*
X027100Y014234D02*
X027160Y014234D01*
X027160Y014293D02*
X027100Y014293D01*
X027100Y014351D02*
X027160Y014351D01*
X027160Y014410D02*
X027100Y014410D01*
X027100Y014468D02*
X027160Y014468D01*
X027160Y014527D02*
X027100Y014527D01*
X027100Y014585D02*
X027160Y014585D01*
X027363Y014585D02*
X028595Y014585D01*
X028537Y014644D02*
X026657Y014644D01*
X026657Y014702D02*
X028478Y014702D01*
X028420Y014761D02*
X026657Y014761D01*
X026657Y014819D02*
X028361Y014819D01*
X028303Y014878D02*
X026657Y014878D01*
X026657Y014936D02*
X028244Y014936D01*
X028186Y014995D02*
X026657Y014995D01*
X026657Y015053D02*
X028127Y015053D01*
X028069Y015112D02*
X026657Y015112D01*
X026657Y015170D02*
X028010Y015170D01*
X027952Y015229D02*
X026657Y015229D01*
X026657Y015287D02*
X027893Y015287D01*
X027843Y015346D02*
X026657Y015346D01*
X026657Y015404D02*
X027819Y015404D01*
X027794Y015463D02*
X026657Y015463D01*
X026657Y015521D02*
X027770Y015521D01*
X027769Y015580D02*
X026657Y015580D01*
X026657Y015638D02*
X027769Y015638D01*
X027769Y015697D02*
X027385Y015697D01*
X027332Y015643D02*
X027617Y015928D01*
X027617Y016100D01*
X027160Y016100D01*
X027160Y015643D01*
X027332Y015643D01*
X027444Y015755D02*
X027769Y015755D01*
X027769Y015814D02*
X027502Y015814D01*
X027561Y015872D02*
X027769Y015872D01*
X027769Y015931D02*
X027617Y015931D01*
X027617Y015989D02*
X027769Y015989D01*
X027769Y016048D02*
X027617Y016048D01*
X027617Y016160D02*
X027160Y016160D01*
X027160Y016617D01*
X027332Y016617D01*
X027617Y016332D01*
X027617Y016160D01*
X027617Y016165D02*
X027769Y016165D01*
X027769Y016223D02*
X027617Y016223D01*
X027617Y016282D02*
X027753Y016282D01*
X027695Y016340D02*
X027608Y016340D01*
X027636Y016399D02*
X027550Y016399D01*
X027578Y016457D02*
X027491Y016457D01*
X027519Y016516D02*
X027433Y016516D01*
X027461Y016574D02*
X027374Y016574D01*
X027402Y016633D02*
X026599Y016633D01*
X026540Y016691D02*
X027344Y016691D01*
X027285Y016750D02*
X026482Y016750D01*
X026423Y016808D02*
X027227Y016808D01*
X027160Y016574D02*
X027100Y016574D01*
X027100Y016516D02*
X027160Y016516D01*
X027160Y016457D02*
X027100Y016457D01*
X027100Y016399D02*
X027160Y016399D01*
X027160Y016340D02*
X027100Y016340D01*
X027100Y016282D02*
X027160Y016282D01*
X027160Y016223D02*
X027100Y016223D01*
X027100Y016165D02*
X027160Y016165D01*
X027160Y016106D02*
X027769Y016106D01*
X027160Y016048D02*
X027100Y016048D01*
X027100Y015989D02*
X027160Y015989D01*
X027160Y015931D02*
X027100Y015931D01*
X027100Y015872D02*
X027160Y015872D01*
X027160Y015814D02*
X027100Y015814D01*
X027100Y015755D02*
X027160Y015755D01*
X027160Y015697D02*
X027100Y015697D01*
X026875Y015697D02*
X026668Y015697D01*
X026726Y015755D02*
X026816Y015755D01*
X026827Y016516D02*
X026716Y016516D01*
X026657Y016574D02*
X026886Y016574D01*
X026897Y014585D02*
X026657Y014585D01*
X026705Y014527D02*
X026838Y014527D01*
X026780Y014468D02*
X026763Y014468D01*
X027422Y014527D02*
X028654Y014527D01*
X028712Y014468D02*
X027480Y014468D01*
X027539Y014410D02*
X028771Y014410D01*
X028829Y014351D02*
X027597Y014351D01*
X027617Y014293D02*
X028888Y014293D01*
X028946Y014234D02*
X027617Y014234D01*
X027617Y014176D02*
X029005Y014176D01*
X027160Y014059D02*
X027100Y014059D01*
X027100Y014000D02*
X027160Y014000D01*
X027160Y013942D02*
X027100Y013942D01*
X027100Y013883D02*
X027160Y013883D01*
X027160Y013825D02*
X027100Y013825D01*
X027100Y013766D02*
X027160Y013766D01*
X027160Y013708D02*
X027100Y013708D01*
X027100Y013649D02*
X027160Y013649D01*
X013887Y011075D02*
X006775Y011075D01*
X006775Y011017D02*
X013828Y011017D01*
X013770Y010958D02*
X006775Y010958D01*
X006817Y010900D02*
X013711Y010900D01*
X013653Y010841D02*
X006817Y010841D01*
X006817Y010783D02*
X013643Y010783D01*
X013643Y010724D02*
X006817Y010724D01*
X006817Y010666D02*
X013643Y010666D01*
X005761Y009028D02*
X005594Y009028D01*
X005594Y009086D02*
X005703Y009086D01*
X005644Y009145D02*
X005616Y009145D01*
X005545Y011017D02*
X005432Y011017D01*
M02*
