G75*
%MOIN*%
%OFA0B0*%
%FSLAX24Y24*%
%IPPOS*%
%LPD*%
%AMOC8*
5,1,8,0,0,1.08239X$1,22.5*
%
%ADD10C,0.0709*%
%ADD11C,0.0709*%
%ADD12C,0.0650*%
%ADD13C,0.1063*%
D10*
X018130Y004276D02*
X018130Y004984D01*
X019130Y004984D02*
X019130Y004276D01*
X020130Y004276D02*
X020130Y004984D01*
X021130Y004984D02*
X021130Y004276D01*
X022130Y004276D02*
X022130Y004984D01*
X023130Y004984D02*
X023130Y004276D01*
X024130Y004276D02*
X024130Y004984D01*
X025130Y004984D02*
X025130Y004276D01*
X026130Y004276D02*
X026130Y004984D01*
X027130Y004984D02*
X027130Y004276D01*
X028130Y004276D02*
X028130Y004984D01*
X029130Y004984D02*
X029130Y004276D01*
X030130Y004276D02*
X030130Y004984D01*
X031130Y004984D02*
X031130Y004276D01*
X032130Y004276D02*
X032130Y004984D01*
X032130Y010276D02*
X032130Y010984D01*
X031130Y010984D02*
X031130Y010276D01*
X030130Y010276D02*
X030130Y010984D01*
X029130Y010984D02*
X029130Y010276D01*
X028130Y010276D02*
X028130Y010984D01*
X027130Y010984D02*
X027130Y010276D01*
X026130Y010276D02*
X026130Y010984D01*
X025130Y010984D02*
X025130Y010276D01*
X024130Y010276D02*
X024130Y010984D01*
X023130Y010984D02*
X023130Y010276D01*
X022130Y010276D02*
X022130Y010984D01*
X021130Y010984D02*
X021130Y010276D01*
X020130Y010276D02*
X020130Y010984D01*
X019130Y010984D02*
X019130Y010276D01*
X018130Y010276D02*
X018130Y010984D01*
D11*
X031630Y008630D03*
X031630Y007630D03*
X031630Y006630D03*
X032630Y006630D03*
X032630Y007630D03*
X032630Y008630D03*
D12*
X034630Y017805D02*
X034630Y018455D01*
X035630Y018455D02*
X035630Y017805D01*
X036630Y017805D02*
X036630Y018455D01*
X037630Y018455D02*
X037630Y017805D01*
X044130Y017805D02*
X044130Y018455D01*
X045130Y018455D02*
X045130Y017805D01*
X046130Y017805D02*
X046130Y018455D01*
X047130Y018455D02*
X047130Y017805D01*
X047130Y027805D02*
X047130Y028455D01*
X046130Y028455D02*
X046130Y027805D01*
X045130Y027805D02*
X045130Y028455D01*
X044130Y028455D02*
X044130Y027805D01*
X043130Y027805D02*
X043130Y028455D01*
X038630Y028455D02*
X038630Y027805D01*
X037630Y027805D02*
X037630Y028455D01*
X036630Y028455D02*
X036630Y027805D01*
X035630Y027805D02*
X035630Y028455D01*
X034630Y028455D02*
X034630Y027805D01*
X033630Y027805D02*
X033630Y028455D01*
X029130Y028455D02*
X029130Y027805D01*
X028130Y027805D02*
X028130Y028455D01*
X027130Y028455D02*
X027130Y027805D01*
X026130Y027805D02*
X026130Y028455D01*
X025130Y028455D02*
X025130Y027805D01*
X024130Y027805D02*
X024130Y028455D01*
X019630Y028455D02*
X019630Y027805D01*
X018630Y027805D02*
X018630Y028455D01*
X017630Y028455D02*
X017630Y027805D01*
X016630Y027805D02*
X016630Y028455D01*
X015630Y028455D02*
X015630Y027805D01*
X014630Y027805D02*
X014630Y028455D01*
X010130Y028455D02*
X010130Y027805D01*
X009130Y027805D02*
X009130Y028455D01*
X008130Y028455D02*
X008130Y027805D01*
X007130Y027805D02*
X007130Y028455D01*
X006130Y028455D02*
X006130Y027805D01*
X005130Y027805D02*
X005130Y028455D01*
X006130Y018455D02*
X006130Y017805D01*
X007130Y017805D02*
X007130Y018455D01*
X008130Y018455D02*
X008130Y017805D01*
X009130Y017805D02*
X009130Y018455D01*
X015630Y018455D02*
X015630Y017805D01*
X016630Y017805D02*
X016630Y018455D01*
X017630Y018455D02*
X017630Y017805D01*
X018630Y017805D02*
X018630Y018455D01*
X025130Y018455D02*
X025130Y017805D01*
X026130Y017805D02*
X026130Y018455D01*
X027130Y018455D02*
X027130Y017805D01*
X028130Y017805D02*
X028130Y018455D01*
X048130Y027805D02*
X048130Y028455D01*
D13*
X047969Y032599D02*
X047969Y033661D01*
X046410Y033661D02*
X046410Y032599D01*
X044850Y032599D02*
X044850Y033661D01*
X043291Y033661D02*
X043291Y032599D01*
X044850Y037599D02*
X044850Y038661D01*
X046410Y038661D02*
X046410Y037599D01*
X037969Y033661D02*
X037969Y032599D01*
X036410Y032599D02*
X036410Y033661D01*
X034850Y033661D02*
X034850Y032599D01*
X033291Y032599D02*
X033291Y033661D01*
X034850Y037599D02*
X034850Y038661D01*
X036410Y038661D02*
X036410Y037599D01*
X028969Y033661D02*
X028969Y032599D01*
X027410Y032599D02*
X027410Y033661D01*
X025850Y033661D02*
X025850Y032599D01*
X024291Y032599D02*
X024291Y033661D01*
X025850Y037599D02*
X025850Y038661D01*
X027410Y038661D02*
X027410Y037599D01*
X019969Y033661D02*
X019969Y032599D01*
X018410Y032599D02*
X018410Y033661D01*
X016850Y033661D02*
X016850Y032599D01*
X015291Y032599D02*
X015291Y033661D01*
X017350Y037599D02*
X017350Y038661D01*
X018910Y038661D02*
X018910Y037599D01*
X009969Y033661D02*
X009969Y032599D01*
X008410Y032599D02*
X008410Y033661D01*
X006850Y033661D02*
X006850Y032599D01*
X005291Y032599D02*
X005291Y033661D01*
X006850Y037599D02*
X006850Y038661D01*
X008410Y038661D02*
X008410Y037599D01*
X043599Y011469D02*
X044661Y011469D01*
X044661Y009910D02*
X043599Y009910D01*
X043599Y008350D02*
X044661Y008350D01*
X044661Y006791D02*
X043599Y006791D01*
M02*
