G75*
%MOIN*%
%OFA0B0*%
%FSLAX24Y24*%
%IPPOS*%
%LPD*%
%AMOC8*
5,1,8,0,0,1.08239X$1,22.5*
%
%ADD10C,0.0709*%
%ADD11C,0.0709*%
%ADD12C,0.0650*%
%ADD13C,0.1063*%
%ADD14C,0.0394*%
%ADD15C,0.0060*%
D10*
X018130Y004276D02*
X018130Y004984D01*
X019130Y004984D02*
X019130Y004276D01*
X020130Y004276D02*
X020130Y004984D01*
X021130Y004984D02*
X021130Y004276D01*
X022130Y004276D02*
X022130Y004984D01*
X023130Y004984D02*
X023130Y004276D01*
X024130Y004276D02*
X024130Y004984D01*
X025130Y004984D02*
X025130Y004276D01*
X026130Y004276D02*
X026130Y004984D01*
X027130Y004984D02*
X027130Y004276D01*
X028130Y004276D02*
X028130Y004984D01*
X029130Y004984D02*
X029130Y004276D01*
X030130Y004276D02*
X030130Y004984D01*
X031130Y004984D02*
X031130Y004276D01*
X032130Y004276D02*
X032130Y004984D01*
X032130Y010276D02*
X032130Y010984D01*
X031130Y010984D02*
X031130Y010276D01*
X030130Y010276D02*
X030130Y010984D01*
X029130Y010984D02*
X029130Y010276D01*
X028130Y010276D02*
X028130Y010984D01*
X027130Y010984D02*
X027130Y010276D01*
X026130Y010276D02*
X026130Y010984D01*
X025130Y010984D02*
X025130Y010276D01*
X024130Y010276D02*
X024130Y010984D01*
X023130Y010984D02*
X023130Y010276D01*
X022130Y010276D02*
X022130Y010984D01*
X021130Y010984D02*
X021130Y010276D01*
X020130Y010276D02*
X020130Y010984D01*
X019130Y010984D02*
X019130Y010276D01*
X018130Y010276D02*
X018130Y010984D01*
D11*
X031630Y008630D03*
X031630Y007630D03*
X031630Y006630D03*
X032630Y006630D03*
X032630Y007630D03*
X032630Y008630D03*
D12*
X034630Y017805D02*
X034630Y018455D01*
X035630Y018455D02*
X035630Y017805D01*
X036630Y017805D02*
X036630Y018455D01*
X037630Y018455D02*
X037630Y017805D01*
X044130Y017805D02*
X044130Y018455D01*
X045130Y018455D02*
X045130Y017805D01*
X046130Y017805D02*
X046130Y018455D01*
X047130Y018455D02*
X047130Y017805D01*
X047130Y027805D02*
X047130Y028455D01*
X046130Y028455D02*
X046130Y027805D01*
X045130Y027805D02*
X045130Y028455D01*
X044130Y028455D02*
X044130Y027805D01*
X043130Y027805D02*
X043130Y028455D01*
X038630Y028455D02*
X038630Y027805D01*
X037630Y027805D02*
X037630Y028455D01*
X036630Y028455D02*
X036630Y027805D01*
X035630Y027805D02*
X035630Y028455D01*
X034630Y028455D02*
X034630Y027805D01*
X033630Y027805D02*
X033630Y028455D01*
X029130Y028455D02*
X029130Y027805D01*
X028130Y027805D02*
X028130Y028455D01*
X027130Y028455D02*
X027130Y027805D01*
X026130Y027805D02*
X026130Y028455D01*
X025130Y028455D02*
X025130Y027805D01*
X024130Y027805D02*
X024130Y028455D01*
X019630Y028455D02*
X019630Y027805D01*
X018630Y027805D02*
X018630Y028455D01*
X017630Y028455D02*
X017630Y027805D01*
X016630Y027805D02*
X016630Y028455D01*
X015630Y028455D02*
X015630Y027805D01*
X014630Y027805D02*
X014630Y028455D01*
X010130Y028455D02*
X010130Y027805D01*
X009130Y027805D02*
X009130Y028455D01*
X008130Y028455D02*
X008130Y027805D01*
X007130Y027805D02*
X007130Y028455D01*
X006130Y028455D02*
X006130Y027805D01*
X005130Y027805D02*
X005130Y028455D01*
X006130Y018455D02*
X006130Y017805D01*
X007130Y017805D02*
X007130Y018455D01*
X008130Y018455D02*
X008130Y017805D01*
X009130Y017805D02*
X009130Y018455D01*
X015630Y018455D02*
X015630Y017805D01*
X016630Y017805D02*
X016630Y018455D01*
X017630Y018455D02*
X017630Y017805D01*
X018630Y017805D02*
X018630Y018455D01*
X025130Y018455D02*
X025130Y017805D01*
X026130Y017805D02*
X026130Y018455D01*
X027130Y018455D02*
X027130Y017805D01*
X028130Y017805D02*
X028130Y018455D01*
X048130Y027805D02*
X048130Y028455D01*
D13*
X047969Y032599D02*
X047969Y033661D01*
X046410Y033661D02*
X046410Y032599D01*
X044850Y032599D02*
X044850Y033661D01*
X043291Y033661D02*
X043291Y032599D01*
X044850Y037599D02*
X044850Y038661D01*
X046410Y038661D02*
X046410Y037599D01*
X037969Y033661D02*
X037969Y032599D01*
X036410Y032599D02*
X036410Y033661D01*
X034850Y033661D02*
X034850Y032599D01*
X033291Y032599D02*
X033291Y033661D01*
X034850Y037599D02*
X034850Y038661D01*
X036410Y038661D02*
X036410Y037599D01*
X028969Y033661D02*
X028969Y032599D01*
X027410Y032599D02*
X027410Y033661D01*
X025850Y033661D02*
X025850Y032599D01*
X024291Y032599D02*
X024291Y033661D01*
X025850Y037599D02*
X025850Y038661D01*
X027410Y038661D02*
X027410Y037599D01*
X019969Y033661D02*
X019969Y032599D01*
X018410Y032599D02*
X018410Y033661D01*
X016850Y033661D02*
X016850Y032599D01*
X015291Y032599D02*
X015291Y033661D01*
X017350Y037599D02*
X017350Y038661D01*
X018910Y038661D02*
X018910Y037599D01*
X009969Y033661D02*
X009969Y032599D01*
X008410Y032599D02*
X008410Y033661D01*
X006850Y033661D02*
X006850Y032599D01*
X005291Y032599D02*
X005291Y033661D01*
X006850Y037599D02*
X006850Y038661D01*
X008410Y038661D02*
X008410Y037599D01*
X043599Y011469D02*
X044661Y011469D01*
X044661Y009910D02*
X043599Y009910D01*
X043599Y008350D02*
X044661Y008350D01*
X044661Y006791D02*
X043599Y006791D01*
D14*
X044130Y006791D02*
X044130Y006630D01*
X040130Y002630D01*
X026130Y002630D01*
X025130Y003630D01*
X025130Y004630D01*
X026130Y004630D02*
X026130Y003630D01*
X026380Y003380D01*
X038630Y003380D01*
X043380Y008130D01*
X044130Y008130D01*
X044130Y008350D01*
X044130Y011469D02*
X044130Y011630D01*
X048130Y015630D01*
X048130Y018630D01*
X047380Y019380D01*
X043130Y019380D01*
X043005Y019255D01*
X044130Y018130D01*
X045130Y018130D02*
X045130Y016630D01*
X043880Y015380D01*
X030130Y015380D01*
X026130Y011380D01*
X026130Y010630D01*
X025130Y010630D02*
X025130Y011380D01*
X029880Y016130D01*
X035130Y016130D01*
X036630Y017630D01*
X036630Y018130D01*
X035630Y018130D02*
X035630Y017643D01*
X034867Y016880D01*
X029630Y016880D01*
X024130Y011380D01*
X024130Y010630D01*
X023130Y010630D02*
X023130Y011380D01*
X027130Y015380D01*
X027130Y018130D01*
X026130Y018130D02*
X026130Y015380D01*
X022130Y011380D01*
X022130Y010630D01*
X021130Y010630D02*
X021130Y011380D01*
X017630Y014880D01*
X017630Y018130D01*
X016630Y018130D02*
X016630Y014880D01*
X020130Y011380D01*
X020130Y010630D01*
X019130Y010630D02*
X019130Y011380D01*
X018630Y011880D01*
X013880Y011880D01*
X008130Y017630D01*
X008130Y018130D01*
X007130Y018130D02*
X007130Y017630D01*
X014130Y010630D01*
X018130Y010630D01*
X013880Y009380D02*
X006130Y017130D01*
X006130Y018130D01*
X006130Y018880D01*
X006630Y019380D01*
X014380Y019380D01*
X014505Y019255D01*
X014630Y019380D01*
X023880Y019380D01*
X024005Y019255D01*
X024130Y019380D01*
X033380Y019380D01*
X033505Y019255D01*
X033630Y019380D01*
X042880Y019380D01*
X043005Y019255D01*
X046130Y018130D02*
X046130Y016130D01*
X044630Y014630D01*
X030380Y014630D01*
X027130Y011380D01*
X027130Y010630D01*
X026630Y009380D02*
X029130Y006880D01*
X029130Y004630D01*
X026630Y009380D02*
X013880Y009380D01*
X015630Y018130D02*
X014505Y019255D01*
X024005Y019255D02*
X025130Y018130D01*
X033505Y019255D02*
X034630Y018130D01*
X035630Y028130D02*
X035630Y030130D01*
X033380Y032380D01*
X033380Y033130D01*
X033291Y033130D01*
X034850Y033130D02*
X034880Y033130D01*
X034880Y032630D01*
X036630Y030880D01*
X036630Y028130D01*
X037630Y028130D02*
X037630Y031380D01*
X036630Y032380D01*
X036630Y033130D01*
X036410Y033130D01*
X037969Y033130D02*
X038630Y033130D01*
X038630Y028130D01*
X043380Y032380D02*
X045130Y030630D01*
X045130Y028130D01*
X046130Y028130D02*
X046130Y031380D01*
X044880Y032630D01*
X044880Y033130D01*
X044850Y033130D01*
X046410Y033130D02*
X046630Y033130D01*
X046630Y032380D01*
X047130Y031880D01*
X047130Y028130D01*
X048130Y028130D02*
X048130Y033130D01*
X047969Y033130D01*
X043380Y033130D02*
X043380Y032380D01*
X043380Y033130D02*
X043291Y033130D01*
X029130Y033130D02*
X029130Y028130D01*
X028130Y028130D02*
X028130Y031880D01*
X027630Y032380D01*
X027630Y033130D01*
X027410Y033130D01*
X025880Y033130D02*
X025880Y032630D01*
X027130Y031380D01*
X027130Y028130D01*
X026130Y028130D02*
X026130Y030630D01*
X024380Y032380D01*
X024380Y033130D01*
X024291Y033130D01*
X025850Y033130D02*
X025880Y033130D01*
X028969Y033130D02*
X029130Y033130D01*
X019969Y033130D02*
X019630Y033130D01*
X019630Y028130D01*
X018630Y028130D02*
X018630Y033130D01*
X018410Y033130D01*
X017630Y031880D02*
X016880Y032630D01*
X016880Y033130D01*
X016850Y033130D01*
X015380Y033130D02*
X015380Y032380D01*
X016630Y031130D01*
X016630Y028130D01*
X017630Y028130D02*
X017630Y031880D01*
X015380Y033130D02*
X015291Y033130D01*
X010130Y033130D02*
X009969Y033130D01*
X010130Y033130D02*
X010130Y028130D01*
X009130Y028130D02*
X009130Y031880D01*
X008630Y032380D01*
X008630Y033130D01*
X008410Y033130D01*
X006880Y033130D02*
X006880Y032630D01*
X008130Y031380D01*
X008130Y028130D01*
X007130Y028130D02*
X007130Y030630D01*
X005380Y032380D01*
X005380Y033130D01*
X005291Y033130D01*
X006850Y033130D02*
X006880Y033130D01*
D15*
X002357Y041273D02*
X002357Y001357D01*
X050895Y001357D01*
X050895Y041273D01*
X002357Y041273D01*
X002357Y041261D02*
X050895Y041261D01*
X050895Y041203D02*
X002357Y041203D01*
X002357Y041144D02*
X050895Y041144D01*
X050895Y041086D02*
X002357Y041086D01*
X002357Y041027D02*
X050895Y041027D01*
X050895Y040969D02*
X002357Y040969D01*
X002357Y040910D02*
X003378Y040910D01*
X003467Y040947D02*
X003167Y040823D01*
X002937Y040593D01*
X002813Y040293D01*
X002813Y039967D01*
X002937Y039667D01*
X003167Y039437D01*
X003467Y039313D01*
X003793Y039313D01*
X004093Y039437D01*
X004323Y039667D01*
X004447Y039967D01*
X004447Y040293D01*
X004323Y040593D01*
X004093Y040823D01*
X003793Y040947D01*
X003467Y040947D01*
X003236Y040852D02*
X002357Y040852D01*
X002357Y040793D02*
X003137Y040793D01*
X003079Y040735D02*
X002357Y040735D01*
X002357Y040676D02*
X003020Y040676D01*
X002962Y040618D02*
X002357Y040618D01*
X002357Y040559D02*
X002923Y040559D01*
X002899Y040501D02*
X002357Y040501D01*
X002357Y040442D02*
X002875Y040442D01*
X002850Y040384D02*
X002357Y040384D01*
X002357Y040325D02*
X002826Y040325D01*
X002813Y040267D02*
X002357Y040267D01*
X002357Y040208D02*
X002813Y040208D01*
X002813Y040150D02*
X002357Y040150D01*
X002357Y040091D02*
X002813Y040091D01*
X002813Y040033D02*
X002357Y040033D01*
X002357Y039974D02*
X002813Y039974D01*
X002834Y039916D02*
X002357Y039916D01*
X002357Y039857D02*
X002858Y039857D01*
X002882Y039799D02*
X002357Y039799D01*
X002357Y039740D02*
X002907Y039740D01*
X002931Y039682D02*
X002357Y039682D01*
X002357Y039623D02*
X002981Y039623D01*
X003039Y039565D02*
X002357Y039565D01*
X002357Y039506D02*
X003098Y039506D01*
X003156Y039448D02*
X002357Y039448D01*
X002357Y039389D02*
X003283Y039389D01*
X003424Y039331D02*
X002357Y039331D01*
X002357Y039272D02*
X006243Y039272D01*
X006301Y039331D02*
X003836Y039331D01*
X003977Y039389D02*
X006360Y039389D01*
X006362Y039392D02*
X006120Y039149D01*
X005989Y038833D01*
X005989Y037427D01*
X006120Y037111D01*
X006362Y036868D01*
X006679Y036737D01*
X007022Y036737D01*
X007338Y036868D01*
X007581Y037111D01*
X007712Y037427D01*
X007712Y038833D01*
X007581Y039149D01*
X007338Y039392D01*
X007022Y039523D01*
X006679Y039523D01*
X006362Y039392D01*
X006497Y039448D02*
X004104Y039448D01*
X004162Y039506D02*
X006638Y039506D01*
X007062Y039506D02*
X017138Y039506D01*
X017179Y039523D02*
X016862Y039392D01*
X016620Y039149D01*
X016489Y038833D01*
X016489Y037427D01*
X016620Y037111D01*
X016862Y036868D01*
X017179Y036737D01*
X017522Y036737D01*
X017838Y036868D01*
X018081Y037111D01*
X018212Y037427D01*
X018212Y038833D01*
X018081Y039149D01*
X017838Y039392D01*
X017522Y039523D01*
X017179Y039523D01*
X016997Y039448D02*
X007204Y039448D01*
X007341Y039389D02*
X016860Y039389D01*
X016801Y039331D02*
X007400Y039331D01*
X007458Y039272D02*
X008155Y039272D01*
X008116Y039256D02*
X008041Y039213D01*
X007972Y039160D01*
X007911Y039099D01*
X007858Y039030D01*
X007815Y038955D01*
X007782Y038875D01*
X007759Y038791D01*
X007748Y038705D01*
X007748Y038160D01*
X008380Y038160D01*
X008380Y039323D01*
X008366Y039323D01*
X008280Y039312D01*
X008196Y039289D01*
X008116Y039256D01*
X008043Y039214D02*
X007517Y039214D01*
X007575Y039155D02*
X007968Y039155D01*
X007910Y039097D02*
X007603Y039097D01*
X007627Y039038D02*
X007865Y039038D01*
X007829Y038980D02*
X007651Y038980D01*
X007675Y038921D02*
X007801Y038921D01*
X007779Y038863D02*
X007700Y038863D01*
X007712Y038804D02*
X007763Y038804D01*
X007753Y038746D02*
X007712Y038746D01*
X007712Y038687D02*
X007748Y038687D01*
X007748Y038629D02*
X007712Y038629D01*
X007712Y038570D02*
X007748Y038570D01*
X007748Y038512D02*
X007712Y038512D01*
X007712Y038453D02*
X007748Y038453D01*
X007748Y038395D02*
X007712Y038395D01*
X007712Y038336D02*
X007748Y038336D01*
X007748Y038278D02*
X007712Y038278D01*
X007712Y038219D02*
X007748Y038219D01*
X007748Y038161D02*
X007712Y038161D01*
X007712Y038102D02*
X008380Y038102D01*
X008380Y038100D02*
X007748Y038100D01*
X007748Y037555D01*
X007759Y037469D01*
X007782Y037385D01*
X007815Y037305D01*
X007858Y037230D01*
X007911Y037161D01*
X007972Y037100D01*
X008041Y037047D01*
X008116Y037004D01*
X008196Y036971D01*
X008280Y036948D01*
X008366Y036937D01*
X008380Y036937D01*
X008380Y038100D01*
X008440Y038100D01*
X008440Y038160D01*
X009071Y038160D01*
X009071Y038705D01*
X009060Y038791D01*
X009037Y038875D01*
X009004Y038955D01*
X008961Y039030D01*
X008908Y039099D01*
X008847Y039160D01*
X008778Y039213D01*
X008703Y039256D01*
X008623Y039289D01*
X008539Y039312D01*
X008453Y039323D01*
X008440Y039323D01*
X008440Y038160D01*
X008380Y038160D01*
X008380Y038100D01*
X008380Y038044D02*
X008440Y038044D01*
X008440Y038100D02*
X008440Y036937D01*
X008453Y036937D01*
X008539Y036948D01*
X008623Y036971D01*
X008703Y037004D01*
X008778Y037047D01*
X008847Y037100D01*
X008908Y037161D01*
X008961Y037230D01*
X009004Y037305D01*
X009037Y037385D01*
X009060Y037469D01*
X009071Y037555D01*
X009071Y038100D01*
X008440Y038100D01*
X008440Y038102D02*
X016489Y038102D01*
X016489Y038044D02*
X009071Y038044D01*
X009071Y037985D02*
X016489Y037985D01*
X016489Y037927D02*
X009071Y037927D01*
X009071Y037868D02*
X016489Y037868D01*
X016489Y037810D02*
X009071Y037810D01*
X009071Y037751D02*
X016489Y037751D01*
X016489Y037693D02*
X009071Y037693D01*
X009071Y037634D02*
X016489Y037634D01*
X016489Y037576D02*
X009071Y037576D01*
X009066Y037517D02*
X016489Y037517D01*
X016489Y037459D02*
X009057Y037459D01*
X009041Y037400D02*
X016500Y037400D01*
X016524Y037342D02*
X009019Y037342D01*
X008991Y037283D02*
X016549Y037283D01*
X016573Y037225D02*
X008956Y037225D01*
X008912Y037166D02*
X016597Y037166D01*
X016623Y037108D02*
X008854Y037108D01*
X008780Y037049D02*
X016681Y037049D01*
X016740Y036991D02*
X008671Y036991D01*
X008440Y036991D02*
X008380Y036991D01*
X008380Y037049D02*
X008440Y037049D01*
X008440Y037108D02*
X008380Y037108D01*
X008380Y037166D02*
X008440Y037166D01*
X008440Y037225D02*
X008380Y037225D01*
X008380Y037283D02*
X008440Y037283D01*
X008440Y037342D02*
X008380Y037342D01*
X008380Y037400D02*
X008440Y037400D01*
X008440Y037459D02*
X008380Y037459D01*
X008380Y037517D02*
X008440Y037517D01*
X008440Y037576D02*
X008380Y037576D01*
X008380Y037634D02*
X008440Y037634D01*
X008440Y037693D02*
X008380Y037693D01*
X008380Y037751D02*
X008440Y037751D01*
X008440Y037810D02*
X008380Y037810D01*
X008380Y037868D02*
X008440Y037868D01*
X008440Y037927D02*
X008380Y037927D01*
X008380Y037985D02*
X008440Y037985D01*
X008440Y038161D02*
X008380Y038161D01*
X008380Y038219D02*
X008440Y038219D01*
X008440Y038278D02*
X008380Y038278D01*
X008380Y038336D02*
X008440Y038336D01*
X008440Y038395D02*
X008380Y038395D01*
X008380Y038453D02*
X008440Y038453D01*
X008440Y038512D02*
X008380Y038512D01*
X008380Y038570D02*
X008440Y038570D01*
X008440Y038629D02*
X008380Y038629D01*
X008380Y038687D02*
X008440Y038687D01*
X008440Y038746D02*
X008380Y038746D01*
X008380Y038804D02*
X008440Y038804D01*
X008440Y038863D02*
X008380Y038863D01*
X008380Y038921D02*
X008440Y038921D01*
X008440Y038980D02*
X008380Y038980D01*
X008380Y039038D02*
X008440Y039038D01*
X008440Y039097D02*
X008380Y039097D01*
X008380Y039155D02*
X008440Y039155D01*
X008440Y039214D02*
X008380Y039214D01*
X008380Y039272D02*
X008440Y039272D01*
X008664Y039272D02*
X016743Y039272D01*
X016684Y039214D02*
X008776Y039214D01*
X008851Y039155D02*
X016626Y039155D01*
X016598Y039097D02*
X008909Y039097D01*
X008954Y039038D02*
X016574Y039038D01*
X016550Y038980D02*
X008990Y038980D01*
X009018Y038921D02*
X016526Y038921D01*
X016501Y038863D02*
X009040Y038863D01*
X009056Y038804D02*
X016489Y038804D01*
X016489Y038746D02*
X009066Y038746D01*
X009071Y038687D02*
X016489Y038687D01*
X016489Y038629D02*
X009071Y038629D01*
X009071Y038570D02*
X016489Y038570D01*
X016489Y038512D02*
X009071Y038512D01*
X009071Y038453D02*
X016489Y038453D01*
X016489Y038395D02*
X009071Y038395D01*
X009071Y038336D02*
X016489Y038336D01*
X016489Y038278D02*
X009071Y038278D01*
X009071Y038219D02*
X016489Y038219D01*
X016489Y038161D02*
X009071Y038161D01*
X007748Y038044D02*
X007712Y038044D01*
X007712Y037985D02*
X007748Y037985D01*
X007748Y037927D02*
X007712Y037927D01*
X007712Y037868D02*
X007748Y037868D01*
X007748Y037810D02*
X007712Y037810D01*
X007712Y037751D02*
X007748Y037751D01*
X007748Y037693D02*
X007712Y037693D01*
X007712Y037634D02*
X007748Y037634D01*
X007748Y037576D02*
X007712Y037576D01*
X007712Y037517D02*
X007753Y037517D01*
X007762Y037459D02*
X007712Y037459D01*
X007701Y037400D02*
X007778Y037400D01*
X007800Y037342D02*
X007677Y037342D01*
X007652Y037283D02*
X007828Y037283D01*
X007863Y037225D02*
X007628Y037225D01*
X007604Y037166D02*
X007907Y037166D01*
X007965Y037108D02*
X007578Y037108D01*
X007519Y037049D02*
X008039Y037049D01*
X008148Y036991D02*
X007461Y036991D01*
X007402Y036932D02*
X016798Y036932D01*
X016857Y036874D02*
X007344Y036874D01*
X007210Y036815D02*
X016990Y036815D01*
X017132Y036757D02*
X007069Y036757D01*
X006632Y036757D02*
X002357Y036757D01*
X002357Y036815D02*
X006490Y036815D01*
X006357Y036874D02*
X002357Y036874D01*
X002357Y036932D02*
X006298Y036932D01*
X006240Y036991D02*
X002357Y036991D01*
X002357Y037049D02*
X006181Y037049D01*
X006123Y037108D02*
X002357Y037108D01*
X002357Y037166D02*
X006097Y037166D01*
X006073Y037225D02*
X002357Y037225D01*
X002357Y037283D02*
X006049Y037283D01*
X006024Y037342D02*
X002357Y037342D01*
X002357Y037400D02*
X006000Y037400D01*
X005989Y037459D02*
X002357Y037459D01*
X002357Y037517D02*
X005989Y037517D01*
X005989Y037576D02*
X002357Y037576D01*
X002357Y037634D02*
X005989Y037634D01*
X005989Y037693D02*
X002357Y037693D01*
X002357Y037751D02*
X005989Y037751D01*
X005989Y037810D02*
X002357Y037810D01*
X002357Y037868D02*
X005989Y037868D01*
X005989Y037927D02*
X002357Y037927D01*
X002357Y037985D02*
X005989Y037985D01*
X005989Y038044D02*
X002357Y038044D01*
X002357Y038102D02*
X005989Y038102D01*
X005989Y038161D02*
X002357Y038161D01*
X002357Y038219D02*
X005989Y038219D01*
X005989Y038278D02*
X002357Y038278D01*
X002357Y038336D02*
X005989Y038336D01*
X005989Y038395D02*
X002357Y038395D01*
X002357Y038453D02*
X005989Y038453D01*
X005989Y038512D02*
X002357Y038512D01*
X002357Y038570D02*
X005989Y038570D01*
X005989Y038629D02*
X002357Y038629D01*
X002357Y038687D02*
X005989Y038687D01*
X005989Y038746D02*
X002357Y038746D01*
X002357Y038804D02*
X005989Y038804D01*
X006001Y038863D02*
X002357Y038863D01*
X002357Y038921D02*
X006026Y038921D01*
X006050Y038980D02*
X002357Y038980D01*
X002357Y039038D02*
X006074Y039038D01*
X006098Y039097D02*
X002357Y039097D01*
X002357Y039155D02*
X006126Y039155D01*
X006184Y039214D02*
X002357Y039214D01*
X004221Y039565D02*
X049039Y039565D01*
X048981Y039623D02*
X004279Y039623D01*
X004329Y039682D02*
X048931Y039682D01*
X048937Y039667D02*
X049167Y039437D01*
X049467Y039313D01*
X049793Y039313D01*
X050093Y039437D01*
X050323Y039667D01*
X050447Y039967D01*
X050447Y040293D01*
X050323Y040593D01*
X050093Y040823D01*
X049793Y040947D01*
X049467Y040947D01*
X049167Y040823D01*
X048937Y040593D01*
X048813Y040293D01*
X048813Y039967D01*
X048937Y039667D01*
X048907Y039740D02*
X004353Y039740D01*
X004378Y039799D02*
X048882Y039799D01*
X048858Y039857D02*
X004402Y039857D01*
X004426Y039916D02*
X048834Y039916D01*
X048813Y039974D02*
X004447Y039974D01*
X004447Y040033D02*
X048813Y040033D01*
X048813Y040091D02*
X004447Y040091D01*
X004447Y040150D02*
X048813Y040150D01*
X048813Y040208D02*
X004447Y040208D01*
X004447Y040267D02*
X048813Y040267D01*
X048826Y040325D02*
X004434Y040325D01*
X004410Y040384D02*
X048850Y040384D01*
X048875Y040442D02*
X004385Y040442D01*
X004361Y040501D02*
X048899Y040501D01*
X048923Y040559D02*
X004337Y040559D01*
X004298Y040618D02*
X048962Y040618D01*
X049020Y040676D02*
X004240Y040676D01*
X004181Y040735D02*
X049079Y040735D01*
X049137Y040793D02*
X004123Y040793D01*
X004024Y040852D02*
X049236Y040852D01*
X049378Y040910D02*
X003882Y040910D01*
X002357Y036698D02*
X050895Y036698D01*
X050895Y036640D02*
X002357Y036640D01*
X002357Y036581D02*
X050895Y036581D01*
X050895Y036523D02*
X002357Y036523D01*
X002357Y036464D02*
X050895Y036464D01*
X050895Y036406D02*
X002357Y036406D01*
X002357Y036347D02*
X050895Y036347D01*
X050895Y036289D02*
X002357Y036289D01*
X002357Y036230D02*
X050895Y036230D01*
X050895Y036172D02*
X002357Y036172D01*
X002357Y036113D02*
X050895Y036113D01*
X050895Y036055D02*
X002357Y036055D01*
X002357Y035996D02*
X050895Y035996D01*
X050895Y035938D02*
X002357Y035938D01*
X002357Y035879D02*
X050895Y035879D01*
X050895Y035821D02*
X002357Y035821D01*
X002357Y035762D02*
X050895Y035762D01*
X050895Y035704D02*
X002357Y035704D01*
X002357Y035645D02*
X050895Y035645D01*
X050895Y035587D02*
X002357Y035587D01*
X002357Y035528D02*
X050895Y035528D01*
X050895Y035470D02*
X002357Y035470D01*
X002357Y035411D02*
X050895Y035411D01*
X050895Y035353D02*
X002357Y035353D01*
X002357Y035294D02*
X050895Y035294D01*
X050895Y035236D02*
X002357Y035236D01*
X002357Y035177D02*
X050895Y035177D01*
X050895Y035119D02*
X002357Y035119D01*
X002357Y035060D02*
X050895Y035060D01*
X050895Y035002D02*
X002357Y035002D01*
X002357Y034943D02*
X050895Y034943D01*
X050895Y034885D02*
X002357Y034885D01*
X002357Y034826D02*
X050895Y034826D01*
X050895Y034768D02*
X002357Y034768D01*
X002357Y034709D02*
X050895Y034709D01*
X050895Y034651D02*
X002357Y034651D01*
X002357Y034592D02*
X050895Y034592D01*
X050895Y034534D02*
X002357Y034534D01*
X002357Y034475D02*
X005005Y034475D01*
X005120Y034523D02*
X004803Y034392D01*
X004561Y034149D01*
X004430Y033833D01*
X004430Y032427D01*
X004561Y032111D01*
X004803Y031868D01*
X005120Y031737D01*
X005278Y031737D01*
X006603Y030412D01*
X006603Y028908D01*
X006501Y029010D01*
X006260Y029110D01*
X006000Y029110D01*
X005759Y029010D01*
X005630Y028881D01*
X005501Y029010D01*
X005260Y029110D01*
X005000Y029110D01*
X004759Y029010D01*
X004575Y028826D01*
X004475Y028585D01*
X004475Y027675D01*
X004575Y027434D01*
X004759Y027250D01*
X005000Y027150D01*
X005260Y027150D01*
X005501Y027250D01*
X005630Y027379D01*
X005759Y027250D01*
X006000Y027150D01*
X006260Y027150D01*
X006501Y027250D01*
X006630Y027379D01*
X006759Y027250D01*
X007000Y027150D01*
X007260Y027150D01*
X007501Y027250D01*
X007630Y027379D01*
X007759Y027250D01*
X008000Y027150D01*
X008260Y027150D01*
X008501Y027250D01*
X008630Y027379D01*
X008759Y027250D01*
X009000Y027150D01*
X009260Y027150D01*
X009501Y027250D01*
X009630Y027379D01*
X009759Y027250D01*
X010000Y027150D01*
X010260Y027150D01*
X010501Y027250D01*
X010685Y027434D01*
X010785Y027675D01*
X010785Y028585D01*
X010685Y028826D01*
X010657Y028854D01*
X010657Y032068D01*
X010699Y032111D01*
X010830Y032427D01*
X010830Y033833D01*
X010699Y034149D01*
X010457Y034392D01*
X010140Y034523D01*
X009797Y034523D01*
X009481Y034392D01*
X009238Y034149D01*
X009189Y034031D01*
X009140Y034149D01*
X008898Y034392D01*
X008581Y034523D01*
X008238Y034523D01*
X007922Y034392D01*
X007679Y034149D01*
X007630Y034031D01*
X007581Y034149D01*
X007338Y034392D01*
X007022Y034523D01*
X006679Y034523D01*
X006362Y034392D01*
X006120Y034149D01*
X006071Y034031D01*
X006022Y034149D01*
X005779Y034392D01*
X005463Y034523D01*
X005120Y034523D01*
X004863Y034417D02*
X002357Y034417D01*
X002357Y034358D02*
X004770Y034358D01*
X004711Y034300D02*
X002357Y034300D01*
X002357Y034241D02*
X004653Y034241D01*
X004594Y034183D02*
X002357Y034183D01*
X002357Y034124D02*
X004551Y034124D01*
X004526Y034066D02*
X002357Y034066D01*
X002357Y034007D02*
X004502Y034007D01*
X004478Y033949D02*
X002357Y033949D01*
X002357Y033890D02*
X004454Y033890D01*
X004430Y033832D02*
X002357Y033832D01*
X002357Y033773D02*
X004430Y033773D01*
X004430Y033715D02*
X002357Y033715D01*
X002357Y033656D02*
X004430Y033656D01*
X004430Y033598D02*
X002357Y033598D01*
X002357Y033539D02*
X004430Y033539D01*
X004430Y033481D02*
X002357Y033481D01*
X002357Y033422D02*
X004430Y033422D01*
X004430Y033364D02*
X002357Y033364D01*
X002357Y033305D02*
X004430Y033305D01*
X004430Y033247D02*
X002357Y033247D01*
X002357Y033188D02*
X004430Y033188D01*
X004430Y033130D02*
X002357Y033130D01*
X002357Y033071D02*
X004430Y033071D01*
X004430Y033013D02*
X002357Y033013D01*
X002357Y032954D02*
X004430Y032954D01*
X004430Y032896D02*
X002357Y032896D01*
X002357Y032837D02*
X004430Y032837D01*
X004430Y032779D02*
X002357Y032779D01*
X002357Y032720D02*
X004430Y032720D01*
X004430Y032662D02*
X002357Y032662D01*
X002357Y032603D02*
X004430Y032603D01*
X004430Y032545D02*
X002357Y032545D01*
X002357Y032486D02*
X004430Y032486D01*
X004430Y032428D02*
X002357Y032428D01*
X002357Y032369D02*
X004454Y032369D01*
X004478Y032311D02*
X002357Y032311D01*
X002357Y032252D02*
X004502Y032252D01*
X004527Y032194D02*
X002357Y032194D01*
X002357Y032135D02*
X004551Y032135D01*
X004595Y032077D02*
X002357Y032077D01*
X002357Y032018D02*
X004653Y032018D01*
X004712Y031960D02*
X002357Y031960D01*
X002357Y031901D02*
X004770Y031901D01*
X004865Y031843D02*
X002357Y031843D01*
X002357Y031784D02*
X005006Y031784D01*
X005289Y031726D02*
X002357Y031726D01*
X002357Y031667D02*
X005348Y031667D01*
X005406Y031609D02*
X002357Y031609D01*
X002357Y031550D02*
X005465Y031550D01*
X005523Y031492D02*
X002357Y031492D01*
X002357Y031433D02*
X005582Y031433D01*
X005640Y031375D02*
X002357Y031375D01*
X002357Y031316D02*
X005699Y031316D01*
X005757Y031258D02*
X002357Y031258D01*
X002357Y031199D02*
X005816Y031199D01*
X005874Y031141D02*
X002357Y031141D01*
X002357Y031082D02*
X005933Y031082D01*
X005991Y031024D02*
X002357Y031024D01*
X002357Y030965D02*
X006050Y030965D01*
X006108Y030907D02*
X002357Y030907D01*
X002357Y030848D02*
X006167Y030848D01*
X006225Y030790D02*
X002357Y030790D01*
X002357Y030731D02*
X006284Y030731D01*
X006342Y030673D02*
X002357Y030673D01*
X002357Y030614D02*
X006401Y030614D01*
X006459Y030556D02*
X002357Y030556D01*
X002357Y030497D02*
X006518Y030497D01*
X006576Y030439D02*
X002357Y030439D01*
X002357Y030380D02*
X006603Y030380D01*
X006603Y030322D02*
X002357Y030322D01*
X002357Y030263D02*
X006603Y030263D01*
X006603Y030205D02*
X002357Y030205D01*
X002357Y030146D02*
X006603Y030146D01*
X006603Y030088D02*
X002357Y030088D01*
X002357Y030029D02*
X006603Y030029D01*
X006603Y029971D02*
X002357Y029971D01*
X002357Y029912D02*
X006603Y029912D01*
X006603Y029854D02*
X002357Y029854D01*
X002357Y029795D02*
X006603Y029795D01*
X006603Y029737D02*
X002357Y029737D01*
X002357Y029678D02*
X006603Y029678D01*
X006603Y029620D02*
X002357Y029620D01*
X002357Y029561D02*
X006603Y029561D01*
X006603Y029503D02*
X002357Y029503D01*
X002357Y029444D02*
X006603Y029444D01*
X006603Y029386D02*
X002357Y029386D01*
X002357Y029327D02*
X006603Y029327D01*
X006603Y029269D02*
X002357Y029269D01*
X002357Y029210D02*
X006603Y029210D01*
X006603Y029152D02*
X002357Y029152D01*
X002357Y029093D02*
X004960Y029093D01*
X004819Y029035D02*
X002357Y029035D01*
X002357Y028976D02*
X004725Y028976D01*
X004667Y028918D02*
X002357Y028918D01*
X002357Y028859D02*
X004608Y028859D01*
X004564Y028801D02*
X002357Y028801D01*
X002357Y028742D02*
X004540Y028742D01*
X004516Y028684D02*
X002357Y028684D01*
X002357Y028625D02*
X004492Y028625D01*
X004475Y028567D02*
X002357Y028567D01*
X002357Y028508D02*
X004475Y028508D01*
X004475Y028450D02*
X002357Y028450D01*
X002357Y028391D02*
X004475Y028391D01*
X004475Y028333D02*
X002357Y028333D01*
X002357Y028274D02*
X004475Y028274D01*
X004475Y028216D02*
X002357Y028216D01*
X002357Y028157D02*
X004475Y028157D01*
X004475Y028099D02*
X002357Y028099D01*
X002357Y028040D02*
X004475Y028040D01*
X004475Y027982D02*
X002357Y027982D01*
X002357Y027923D02*
X004475Y027923D01*
X004475Y027865D02*
X002357Y027865D01*
X002357Y027806D02*
X004475Y027806D01*
X004475Y027748D02*
X002357Y027748D01*
X002357Y027689D02*
X004475Y027689D01*
X004494Y027631D02*
X002357Y027631D01*
X002357Y027572D02*
X004518Y027572D01*
X004542Y027514D02*
X002357Y027514D01*
X002357Y027455D02*
X004566Y027455D01*
X004613Y027397D02*
X002357Y027397D01*
X002357Y027338D02*
X004671Y027338D01*
X004730Y027280D02*
X002357Y027280D01*
X002357Y027221D02*
X004829Y027221D01*
X004970Y027163D02*
X002357Y027163D01*
X002357Y027104D02*
X050895Y027104D01*
X050895Y027046D02*
X002357Y027046D01*
X002357Y026987D02*
X050895Y026987D01*
X050895Y026929D02*
X002357Y026929D01*
X002357Y026870D02*
X050895Y026870D01*
X050895Y026812D02*
X002357Y026812D01*
X002357Y026753D02*
X050895Y026753D01*
X050895Y026695D02*
X002357Y026695D01*
X002357Y026636D02*
X050895Y026636D01*
X050895Y026578D02*
X002357Y026578D01*
X002357Y026519D02*
X050895Y026519D01*
X050895Y026461D02*
X002357Y026461D01*
X002357Y026402D02*
X050895Y026402D01*
X050895Y026344D02*
X002357Y026344D01*
X002357Y026285D02*
X050895Y026285D01*
X050895Y026227D02*
X002357Y026227D01*
X002357Y026168D02*
X050895Y026168D01*
X050895Y026110D02*
X002357Y026110D01*
X002357Y026051D02*
X050895Y026051D01*
X050895Y025993D02*
X002357Y025993D01*
X002357Y025934D02*
X050895Y025934D01*
X050895Y025876D02*
X002357Y025876D01*
X002357Y025817D02*
X050895Y025817D01*
X050895Y025759D02*
X002357Y025759D01*
X002357Y025700D02*
X050895Y025700D01*
X050895Y025642D02*
X002357Y025642D01*
X002357Y025583D02*
X050895Y025583D01*
X050895Y025525D02*
X002357Y025525D01*
X002357Y025466D02*
X050895Y025466D01*
X050895Y025408D02*
X002357Y025408D01*
X002357Y025349D02*
X050895Y025349D01*
X050895Y025291D02*
X002357Y025291D01*
X002357Y025232D02*
X050895Y025232D01*
X050895Y025174D02*
X002357Y025174D01*
X002357Y025115D02*
X050895Y025115D01*
X050895Y025057D02*
X002357Y025057D01*
X002357Y024998D02*
X050895Y024998D01*
X050895Y024940D02*
X002357Y024940D01*
X002357Y024881D02*
X050895Y024881D01*
X050895Y024823D02*
X002357Y024823D01*
X002357Y024764D02*
X050895Y024764D01*
X050895Y024706D02*
X002357Y024706D01*
X002357Y024647D02*
X050895Y024647D01*
X050895Y024589D02*
X002357Y024589D01*
X002357Y024530D02*
X050895Y024530D01*
X050895Y024472D02*
X002357Y024472D01*
X002357Y024413D02*
X050895Y024413D01*
X050895Y024355D02*
X002357Y024355D01*
X002357Y024296D02*
X050895Y024296D01*
X050895Y024238D02*
X002357Y024238D01*
X002357Y024179D02*
X050895Y024179D01*
X050895Y024121D02*
X002357Y024121D01*
X002357Y024062D02*
X050895Y024062D01*
X050895Y024004D02*
X002357Y024004D01*
X002357Y023945D02*
X050895Y023945D01*
X050895Y023887D02*
X002357Y023887D01*
X002357Y023828D02*
X050895Y023828D01*
X050895Y023770D02*
X002357Y023770D01*
X002357Y023711D02*
X050895Y023711D01*
X050895Y023653D02*
X002357Y023653D01*
X002357Y023594D02*
X050895Y023594D01*
X050895Y023536D02*
X002357Y023536D01*
X002357Y023477D02*
X050895Y023477D01*
X050895Y023419D02*
X002357Y023419D01*
X002357Y023360D02*
X050895Y023360D01*
X050895Y023302D02*
X002357Y023302D01*
X002357Y023243D02*
X050895Y023243D01*
X050895Y023185D02*
X002357Y023185D01*
X002357Y023126D02*
X050895Y023126D01*
X050895Y023068D02*
X002357Y023068D01*
X002357Y023009D02*
X050895Y023009D01*
X050895Y022951D02*
X002357Y022951D01*
X002357Y022892D02*
X050895Y022892D01*
X050895Y022834D02*
X002357Y022834D01*
X002357Y022775D02*
X050895Y022775D01*
X050895Y022717D02*
X002357Y022717D01*
X002357Y022658D02*
X050895Y022658D01*
X050895Y022600D02*
X002357Y022600D01*
X002357Y022541D02*
X050895Y022541D01*
X050895Y022483D02*
X002357Y022483D01*
X002357Y022424D02*
X050895Y022424D01*
X050895Y022366D02*
X002357Y022366D01*
X002357Y022307D02*
X050895Y022307D01*
X050895Y022249D02*
X002357Y022249D01*
X002357Y022190D02*
X050895Y022190D01*
X050895Y022132D02*
X002357Y022132D01*
X002357Y022073D02*
X050895Y022073D01*
X050895Y022015D02*
X002357Y022015D01*
X002357Y021956D02*
X050895Y021956D01*
X050895Y021898D02*
X002357Y021898D01*
X002357Y021839D02*
X050895Y021839D01*
X050895Y021781D02*
X002357Y021781D01*
X002357Y021722D02*
X050895Y021722D01*
X050895Y021664D02*
X002357Y021664D01*
X002357Y021605D02*
X050895Y021605D01*
X050895Y021547D02*
X002357Y021547D01*
X002357Y021488D02*
X050895Y021488D01*
X050895Y021430D02*
X002357Y021430D01*
X002357Y021371D02*
X050895Y021371D01*
X050895Y021313D02*
X002357Y021313D01*
X002357Y021254D02*
X050895Y021254D01*
X050895Y021196D02*
X002357Y021196D01*
X002357Y021137D02*
X050895Y021137D01*
X050895Y021079D02*
X002357Y021079D01*
X002357Y021020D02*
X050895Y021020D01*
X050895Y020962D02*
X002357Y020962D01*
X002357Y020903D02*
X050895Y020903D01*
X050895Y020845D02*
X002357Y020845D01*
X002357Y020786D02*
X050895Y020786D01*
X050895Y020728D02*
X002357Y020728D01*
X002357Y020669D02*
X050895Y020669D01*
X050895Y020611D02*
X002357Y020611D01*
X002357Y020552D02*
X050895Y020552D01*
X050895Y020494D02*
X002357Y020494D01*
X002357Y020435D02*
X050895Y020435D01*
X050895Y020377D02*
X002357Y020377D01*
X002357Y020318D02*
X050895Y020318D01*
X050895Y020260D02*
X002357Y020260D01*
X002357Y020201D02*
X050895Y020201D01*
X050895Y020143D02*
X002357Y020143D01*
X002357Y020084D02*
X050895Y020084D01*
X050895Y020026D02*
X002357Y020026D01*
X002357Y019967D02*
X050895Y019967D01*
X050895Y019909D02*
X002357Y019909D01*
X002357Y019850D02*
X006388Y019850D01*
X006332Y019827D02*
X006183Y019678D01*
X005832Y019327D01*
X005683Y019178D01*
X005603Y018985D01*
X005603Y018854D01*
X005575Y018826D01*
X005475Y018585D01*
X005475Y017675D01*
X005575Y017434D01*
X005603Y017406D01*
X005603Y017025D01*
X005683Y016832D01*
X005832Y016683D01*
X013582Y008933D01*
X013775Y008853D01*
X026412Y008853D01*
X028603Y006662D01*
X028603Y005479D01*
X028518Y005564D01*
X028266Y005669D01*
X027994Y005669D01*
X027742Y005564D01*
X027630Y005452D01*
X027518Y005564D01*
X027266Y005669D01*
X026994Y005669D01*
X026742Y005564D01*
X026630Y005452D01*
X026518Y005564D01*
X026266Y005669D01*
X025994Y005669D01*
X025742Y005564D01*
X025630Y005452D01*
X025518Y005564D01*
X025266Y005669D01*
X024994Y005669D01*
X024742Y005564D01*
X024630Y005452D01*
X024518Y005564D01*
X024266Y005669D01*
X023994Y005669D01*
X023742Y005564D01*
X023630Y005452D01*
X023518Y005564D01*
X023266Y005669D01*
X022994Y005669D01*
X022742Y005564D01*
X022630Y005452D01*
X022518Y005564D01*
X022266Y005669D01*
X021994Y005669D01*
X021742Y005564D01*
X021630Y005452D01*
X021518Y005564D01*
X021266Y005669D01*
X020994Y005669D01*
X020742Y005564D01*
X020630Y005452D01*
X020518Y005564D01*
X020266Y005669D01*
X019994Y005669D01*
X019742Y005564D01*
X019630Y005452D01*
X019518Y005564D01*
X019266Y005669D01*
X018994Y005669D01*
X018742Y005564D01*
X018630Y005452D01*
X018518Y005564D01*
X018266Y005669D01*
X017994Y005669D01*
X017742Y005564D01*
X017550Y005372D01*
X017446Y005120D01*
X017446Y004140D01*
X017550Y003888D01*
X017742Y003696D01*
X017994Y003591D01*
X018266Y003591D01*
X018518Y003696D01*
X018630Y003808D01*
X018742Y003696D01*
X018994Y003591D01*
X019266Y003591D01*
X019518Y003696D01*
X019630Y003808D01*
X019742Y003696D01*
X019994Y003591D01*
X020266Y003591D01*
X020518Y003696D01*
X020630Y003808D01*
X020742Y003696D01*
X020994Y003591D01*
X021266Y003591D01*
X021518Y003696D01*
X021630Y003808D01*
X021742Y003696D01*
X021994Y003591D01*
X022266Y003591D01*
X022518Y003696D01*
X022630Y003808D01*
X022742Y003696D01*
X022994Y003591D01*
X023266Y003591D01*
X023518Y003696D01*
X023630Y003808D01*
X023742Y003696D01*
X023994Y003591D01*
X024266Y003591D01*
X024518Y003696D01*
X024603Y003781D01*
X024603Y003525D01*
X024683Y003332D01*
X025683Y002332D01*
X025832Y002183D01*
X004330Y002183D01*
X004323Y002167D02*
X004447Y002467D01*
X004447Y002793D01*
X004323Y003093D01*
X004093Y003323D01*
X003793Y003447D01*
X003467Y003447D01*
X003167Y003323D01*
X002937Y003093D01*
X002813Y002793D01*
X002813Y002467D01*
X002937Y002167D01*
X003167Y001937D01*
X003467Y001813D01*
X003793Y001813D01*
X004093Y001937D01*
X004323Y002167D01*
X004280Y002125D02*
X025974Y002125D01*
X026025Y002103D02*
X040235Y002103D01*
X040428Y002183D01*
X048930Y002183D01*
X048937Y002167D02*
X049167Y001937D01*
X049467Y001813D01*
X049793Y001813D01*
X050093Y001937D01*
X050323Y002167D01*
X050447Y002467D01*
X050447Y002793D01*
X050323Y003093D01*
X050093Y003323D01*
X049793Y003447D01*
X049467Y003447D01*
X049167Y003323D01*
X048937Y003093D01*
X048813Y002793D01*
X048813Y002467D01*
X048937Y002167D01*
X048980Y002125D02*
X040286Y002125D01*
X040428Y002183D02*
X040577Y002332D01*
X044175Y005930D01*
X044833Y005930D01*
X045149Y006061D01*
X045392Y006303D01*
X045523Y006620D01*
X045523Y006963D01*
X045392Y007279D01*
X045149Y007522D01*
X045031Y007571D01*
X045149Y007620D01*
X045392Y007862D01*
X045523Y008179D01*
X045523Y008522D01*
X045392Y008838D01*
X045149Y009081D01*
X044833Y009212D01*
X043427Y009212D01*
X043111Y009081D01*
X042868Y008838D01*
X042737Y008522D01*
X042737Y008232D01*
X038412Y003907D01*
X032718Y003907D01*
X032814Y004140D01*
X032814Y005120D01*
X032710Y005372D01*
X032518Y005564D01*
X032266Y005669D01*
X031994Y005669D01*
X031742Y005564D01*
X031550Y005372D01*
X031513Y005282D01*
X031499Y005300D01*
X031446Y005354D01*
X031384Y005399D01*
X031316Y005433D01*
X031243Y005457D01*
X031168Y005469D01*
X031160Y005469D01*
X031160Y004660D01*
X031100Y004660D01*
X031100Y005469D01*
X031092Y005469D01*
X031017Y005457D01*
X030944Y005433D01*
X030876Y005399D01*
X030814Y005354D01*
X030761Y005300D01*
X030747Y005282D01*
X030710Y005372D01*
X030518Y005564D01*
X030266Y005669D01*
X029994Y005669D01*
X029742Y005564D01*
X029657Y005479D01*
X029657Y006985D01*
X029577Y007178D01*
X029428Y007327D01*
X027164Y009591D01*
X027266Y009591D01*
X027518Y009696D01*
X027630Y009808D01*
X027742Y009696D01*
X027994Y009591D01*
X028266Y009591D01*
X028518Y009696D01*
X028630Y009808D01*
X028742Y009696D01*
X028994Y009591D01*
X029266Y009591D01*
X029518Y009696D01*
X029630Y009808D01*
X029742Y009696D01*
X029994Y009591D01*
X030266Y009591D01*
X030518Y009696D01*
X030630Y009808D01*
X030742Y009696D01*
X030994Y009591D01*
X031266Y009591D01*
X031518Y009696D01*
X031630Y009808D01*
X031742Y009696D01*
X031994Y009591D01*
X032266Y009591D01*
X032518Y009696D01*
X032710Y009888D01*
X032814Y010140D01*
X032814Y011120D01*
X032710Y011372D01*
X032518Y011564D01*
X032266Y011669D01*
X031994Y011669D01*
X031742Y011564D01*
X031630Y011452D01*
X031518Y011564D01*
X031266Y011669D01*
X030994Y011669D01*
X030742Y011564D01*
X030630Y011452D01*
X030518Y011564D01*
X030266Y011669D01*
X029994Y011669D01*
X029742Y011564D01*
X029630Y011452D01*
X029518Y011564D01*
X029266Y011669D01*
X028994Y011669D01*
X028742Y011564D01*
X028630Y011452D01*
X028518Y011564D01*
X028266Y011669D01*
X028164Y011669D01*
X030598Y014103D01*
X044735Y014103D01*
X044928Y014183D01*
X045077Y014332D01*
X046577Y015832D01*
X046657Y016025D01*
X046657Y017406D01*
X046685Y017434D01*
X046740Y017568D01*
X046741Y017567D01*
X046783Y017509D01*
X046834Y017458D01*
X046892Y017416D01*
X046955Y017384D01*
X047023Y017362D01*
X047094Y017350D01*
X047100Y017350D01*
X047100Y018100D01*
X047160Y018100D01*
X047160Y018160D01*
X047585Y018160D01*
X047585Y018430D01*
X047603Y018412D01*
X047603Y015848D01*
X044085Y012330D01*
X043427Y012330D01*
X043111Y012199D01*
X042868Y011957D01*
X042737Y011640D01*
X042737Y011297D01*
X042868Y010981D01*
X043111Y010738D01*
X043427Y010607D01*
X044833Y010607D01*
X045149Y010738D01*
X045392Y010981D01*
X045523Y011297D01*
X045523Y011640D01*
X045392Y011957D01*
X045297Y012052D01*
X048428Y015183D01*
X048577Y015332D01*
X048657Y015525D01*
X048657Y018735D01*
X048577Y018928D01*
X047827Y019678D01*
X047678Y019827D01*
X047485Y019907D01*
X043025Y019907D01*
X043005Y019898D01*
X042985Y019907D01*
X033525Y019907D01*
X033505Y019898D01*
X033485Y019907D01*
X024025Y019907D01*
X024005Y019898D01*
X023985Y019907D01*
X014525Y019907D01*
X014505Y019898D01*
X014485Y019907D01*
X006525Y019907D01*
X006332Y019827D01*
X006296Y019792D02*
X002357Y019792D01*
X002357Y019733D02*
X006238Y019733D01*
X006183Y019678D02*
X006183Y019678D01*
X006180Y019675D02*
X002357Y019675D01*
X002357Y019616D02*
X006121Y019616D01*
X006063Y019558D02*
X002357Y019558D01*
X002357Y019499D02*
X006004Y019499D01*
X005945Y019441D02*
X002357Y019441D01*
X002357Y019382D02*
X005887Y019382D01*
X005828Y019324D02*
X002357Y019324D01*
X002357Y019265D02*
X005770Y019265D01*
X005711Y019207D02*
X002357Y019207D01*
X002357Y019148D02*
X005671Y019148D01*
X005647Y019090D02*
X002357Y019090D01*
X002357Y019031D02*
X005622Y019031D01*
X005603Y018973D02*
X002357Y018973D01*
X002357Y018914D02*
X005603Y018914D01*
X005603Y018856D02*
X002357Y018856D01*
X002357Y018797D02*
X005563Y018797D01*
X005539Y018739D02*
X002357Y018739D01*
X002357Y018680D02*
X005515Y018680D01*
X005490Y018622D02*
X002357Y018622D01*
X002357Y018563D02*
X005475Y018563D01*
X005475Y018505D02*
X002357Y018505D01*
X002357Y018446D02*
X005475Y018446D01*
X005475Y018388D02*
X002357Y018388D01*
X002357Y018329D02*
X005475Y018329D01*
X005475Y018271D02*
X002357Y018271D01*
X002357Y018212D02*
X005475Y018212D01*
X005475Y018154D02*
X002357Y018154D01*
X002357Y018095D02*
X005475Y018095D01*
X005475Y018037D02*
X002357Y018037D01*
X002357Y017978D02*
X005475Y017978D01*
X005475Y017920D02*
X002357Y017920D01*
X002357Y017861D02*
X005475Y017861D01*
X005475Y017803D02*
X002357Y017803D01*
X002357Y017744D02*
X005475Y017744D01*
X005475Y017686D02*
X002357Y017686D01*
X002357Y017627D02*
X005495Y017627D01*
X005519Y017569D02*
X002357Y017569D01*
X002357Y017510D02*
X005543Y017510D01*
X005568Y017452D02*
X002357Y017452D01*
X002357Y017393D02*
X005603Y017393D01*
X005603Y017335D02*
X002357Y017335D01*
X002357Y017276D02*
X005603Y017276D01*
X005603Y017218D02*
X002357Y017218D01*
X002357Y017159D02*
X005603Y017159D01*
X005603Y017101D02*
X002357Y017101D01*
X002357Y017042D02*
X005603Y017042D01*
X005620Y016984D02*
X002357Y016984D01*
X002357Y016925D02*
X005645Y016925D01*
X005669Y016867D02*
X002357Y016867D01*
X002357Y016808D02*
X005707Y016808D01*
X005765Y016750D02*
X002357Y016750D01*
X002357Y016691D02*
X005824Y016691D01*
X005882Y016633D02*
X002357Y016633D01*
X002357Y016574D02*
X005941Y016574D01*
X005999Y016516D02*
X002357Y016516D01*
X002357Y016457D02*
X006058Y016457D01*
X006116Y016399D02*
X002357Y016399D01*
X002357Y016340D02*
X006175Y016340D01*
X006233Y016282D02*
X002357Y016282D01*
X002357Y016223D02*
X006292Y016223D01*
X006350Y016165D02*
X002357Y016165D01*
X002357Y016106D02*
X006409Y016106D01*
X006467Y016048D02*
X002357Y016048D01*
X002357Y015989D02*
X006526Y015989D01*
X006584Y015931D02*
X002357Y015931D01*
X002357Y015872D02*
X006643Y015872D01*
X006701Y015814D02*
X002357Y015814D01*
X002357Y015755D02*
X006760Y015755D01*
X006818Y015697D02*
X002357Y015697D01*
X002357Y015638D02*
X006877Y015638D01*
X006935Y015580D02*
X002357Y015580D01*
X002357Y015521D02*
X006994Y015521D01*
X007052Y015463D02*
X002357Y015463D01*
X002357Y015404D02*
X007111Y015404D01*
X007169Y015346D02*
X002357Y015346D01*
X002357Y015287D02*
X007228Y015287D01*
X007286Y015229D02*
X002357Y015229D01*
X002357Y015170D02*
X007345Y015170D01*
X007403Y015112D02*
X002357Y015112D01*
X002357Y015053D02*
X007462Y015053D01*
X007520Y014995D02*
X002357Y014995D01*
X002357Y014936D02*
X007579Y014936D01*
X007637Y014878D02*
X002357Y014878D01*
X002357Y014819D02*
X007696Y014819D01*
X007754Y014761D02*
X002357Y014761D01*
X002357Y014702D02*
X007813Y014702D01*
X007871Y014644D02*
X002357Y014644D01*
X002357Y014585D02*
X007930Y014585D01*
X007988Y014527D02*
X002357Y014527D01*
X002357Y014468D02*
X008047Y014468D01*
X008105Y014410D02*
X002357Y014410D01*
X002357Y014351D02*
X008164Y014351D01*
X008222Y014293D02*
X002357Y014293D01*
X002357Y014234D02*
X008281Y014234D01*
X008339Y014176D02*
X002357Y014176D01*
X002357Y014117D02*
X008398Y014117D01*
X008456Y014059D02*
X002357Y014059D01*
X002357Y014000D02*
X008515Y014000D01*
X008573Y013942D02*
X002357Y013942D01*
X002357Y013883D02*
X008632Y013883D01*
X008690Y013825D02*
X002357Y013825D01*
X002357Y013766D02*
X008749Y013766D01*
X008807Y013708D02*
X002357Y013708D01*
X002357Y013649D02*
X008866Y013649D01*
X008924Y013591D02*
X002357Y013591D01*
X002357Y013532D02*
X008983Y013532D01*
X009041Y013474D02*
X002357Y013474D01*
X002357Y013415D02*
X009100Y013415D01*
X009158Y013357D02*
X002357Y013357D01*
X002357Y013298D02*
X009217Y013298D01*
X009275Y013240D02*
X002357Y013240D01*
X002357Y013181D02*
X009334Y013181D01*
X009392Y013123D02*
X002357Y013123D01*
X002357Y013064D02*
X009451Y013064D01*
X009509Y013006D02*
X002357Y013006D01*
X002357Y012947D02*
X009568Y012947D01*
X009626Y012889D02*
X002357Y012889D01*
X002357Y012830D02*
X009685Y012830D01*
X009743Y012772D02*
X002357Y012772D01*
X002357Y012713D02*
X009802Y012713D01*
X009860Y012655D02*
X002357Y012655D01*
X002357Y012596D02*
X009919Y012596D01*
X009977Y012538D02*
X002357Y012538D01*
X002357Y012479D02*
X010036Y012479D01*
X010094Y012421D02*
X002357Y012421D01*
X002357Y012362D02*
X010153Y012362D01*
X010211Y012304D02*
X002357Y012304D01*
X002357Y012245D02*
X010270Y012245D01*
X010328Y012187D02*
X002357Y012187D01*
X002357Y012128D02*
X010387Y012128D01*
X010445Y012070D02*
X002357Y012070D01*
X002357Y012011D02*
X010504Y012011D01*
X010562Y011953D02*
X002357Y011953D01*
X002357Y011894D02*
X010621Y011894D01*
X010679Y011836D02*
X002357Y011836D01*
X002357Y011777D02*
X010738Y011777D01*
X010796Y011719D02*
X002357Y011719D01*
X002357Y011660D02*
X010855Y011660D01*
X010913Y011602D02*
X002357Y011602D01*
X002357Y011543D02*
X010972Y011543D01*
X011030Y011485D02*
X002357Y011485D01*
X002357Y011426D02*
X011089Y011426D01*
X011147Y011368D02*
X002357Y011368D01*
X002357Y011309D02*
X011206Y011309D01*
X011264Y011251D02*
X002357Y011251D01*
X002357Y011192D02*
X011323Y011192D01*
X011381Y011134D02*
X002357Y011134D01*
X002357Y011075D02*
X011440Y011075D01*
X011498Y011017D02*
X002357Y011017D01*
X002357Y010958D02*
X011557Y010958D01*
X011615Y010900D02*
X002357Y010900D01*
X002357Y010841D02*
X011674Y010841D01*
X011732Y010783D02*
X002357Y010783D01*
X002357Y010724D02*
X011791Y010724D01*
X011849Y010666D02*
X002357Y010666D01*
X002357Y010607D02*
X011908Y010607D01*
X011966Y010549D02*
X002357Y010549D01*
X002357Y010490D02*
X012025Y010490D01*
X012083Y010432D02*
X002357Y010432D01*
X002357Y010373D02*
X012142Y010373D01*
X012200Y010315D02*
X002357Y010315D01*
X002357Y010256D02*
X012259Y010256D01*
X012317Y010198D02*
X002357Y010198D01*
X002357Y010139D02*
X012376Y010139D01*
X012434Y010081D02*
X002357Y010081D01*
X002357Y010022D02*
X012493Y010022D01*
X012551Y009964D02*
X002357Y009964D01*
X002357Y009905D02*
X012610Y009905D01*
X012668Y009847D02*
X002357Y009847D01*
X002357Y009788D02*
X012727Y009788D01*
X012785Y009730D02*
X002357Y009730D01*
X002357Y009671D02*
X012844Y009671D01*
X012902Y009613D02*
X002357Y009613D01*
X002357Y009554D02*
X012961Y009554D01*
X013019Y009496D02*
X002357Y009496D01*
X002357Y009437D02*
X013078Y009437D01*
X013136Y009379D02*
X002357Y009379D01*
X002357Y009320D02*
X013195Y009320D01*
X013253Y009262D02*
X002357Y009262D01*
X002357Y009203D02*
X013312Y009203D01*
X013370Y009145D02*
X002357Y009145D01*
X002357Y009086D02*
X013429Y009086D01*
X013487Y009028D02*
X002357Y009028D01*
X002357Y008969D02*
X013546Y008969D01*
X013637Y008911D02*
X002357Y008911D01*
X002357Y008852D02*
X026413Y008852D01*
X026471Y008794D02*
X002357Y008794D01*
X002357Y008735D02*
X026530Y008735D01*
X026588Y008677D02*
X002357Y008677D01*
X002357Y008618D02*
X026647Y008618D01*
X026705Y008560D02*
X002357Y008560D01*
X002357Y008501D02*
X026764Y008501D01*
X026822Y008443D02*
X002357Y008443D01*
X002357Y008384D02*
X026881Y008384D01*
X026939Y008326D02*
X002357Y008326D01*
X002357Y008267D02*
X026998Y008267D01*
X027056Y008209D02*
X002357Y008209D01*
X002357Y008150D02*
X027115Y008150D01*
X027173Y008092D02*
X002357Y008092D01*
X002357Y008033D02*
X027232Y008033D01*
X027290Y007975D02*
X002357Y007975D01*
X002357Y007916D02*
X027349Y007916D01*
X027407Y007858D02*
X002357Y007858D01*
X002357Y007799D02*
X027466Y007799D01*
X027524Y007741D02*
X002357Y007741D01*
X002357Y007682D02*
X027583Y007682D01*
X027641Y007624D02*
X002357Y007624D01*
X002357Y007565D02*
X027700Y007565D01*
X027758Y007507D02*
X002357Y007507D01*
X002357Y007448D02*
X027817Y007448D01*
X027875Y007390D02*
X002357Y007390D01*
X002357Y007331D02*
X027934Y007331D01*
X027992Y007273D02*
X002357Y007273D01*
X002357Y007214D02*
X028051Y007214D01*
X028109Y007156D02*
X002357Y007156D01*
X002357Y007097D02*
X028168Y007097D01*
X028226Y007039D02*
X002357Y007039D01*
X002357Y006980D02*
X028285Y006980D01*
X028343Y006922D02*
X002357Y006922D01*
X002357Y006863D02*
X028402Y006863D01*
X028460Y006805D02*
X002357Y006805D01*
X002357Y006746D02*
X028519Y006746D01*
X028577Y006688D02*
X002357Y006688D01*
X002357Y006629D02*
X028603Y006629D01*
X028603Y006571D02*
X002357Y006571D01*
X002357Y006512D02*
X028603Y006512D01*
X028603Y006454D02*
X002357Y006454D01*
X002357Y006395D02*
X028603Y006395D01*
X028603Y006337D02*
X002357Y006337D01*
X002357Y006278D02*
X028603Y006278D01*
X028603Y006220D02*
X002357Y006220D01*
X002357Y006161D02*
X028603Y006161D01*
X028603Y006103D02*
X002357Y006103D01*
X002357Y006044D02*
X028603Y006044D01*
X028603Y005986D02*
X002357Y005986D01*
X002357Y005927D02*
X028603Y005927D01*
X028603Y005869D02*
X002357Y005869D01*
X002357Y005810D02*
X028603Y005810D01*
X028603Y005752D02*
X002357Y005752D01*
X002357Y005693D02*
X028603Y005693D01*
X028603Y005635D02*
X028349Y005635D01*
X028490Y005576D02*
X028603Y005576D01*
X028603Y005518D02*
X028565Y005518D01*
X027911Y005635D02*
X027349Y005635D01*
X027490Y005576D02*
X027770Y005576D01*
X027695Y005518D02*
X027565Y005518D01*
X027623Y005459D02*
X027637Y005459D01*
X026911Y005635D02*
X026349Y005635D01*
X026490Y005576D02*
X026770Y005576D01*
X026695Y005518D02*
X026565Y005518D01*
X026623Y005459D02*
X026637Y005459D01*
X025911Y005635D02*
X025349Y005635D01*
X025490Y005576D02*
X025770Y005576D01*
X025695Y005518D02*
X025565Y005518D01*
X025623Y005459D02*
X025637Y005459D01*
X024911Y005635D02*
X024349Y005635D01*
X024490Y005576D02*
X024770Y005576D01*
X024695Y005518D02*
X024565Y005518D01*
X024623Y005459D02*
X024637Y005459D01*
X023911Y005635D02*
X023349Y005635D01*
X023490Y005576D02*
X023770Y005576D01*
X023695Y005518D02*
X023565Y005518D01*
X023623Y005459D02*
X023637Y005459D01*
X022911Y005635D02*
X022349Y005635D01*
X022490Y005576D02*
X022770Y005576D01*
X022695Y005518D02*
X022565Y005518D01*
X022623Y005459D02*
X022637Y005459D01*
X021911Y005635D02*
X021349Y005635D01*
X021490Y005576D02*
X021770Y005576D01*
X021695Y005518D02*
X021565Y005518D01*
X021623Y005459D02*
X021637Y005459D01*
X020911Y005635D02*
X020349Y005635D01*
X020490Y005576D02*
X020770Y005576D01*
X020695Y005518D02*
X020565Y005518D01*
X020623Y005459D02*
X020637Y005459D01*
X019911Y005635D02*
X019349Y005635D01*
X019490Y005576D02*
X019770Y005576D01*
X019695Y005518D02*
X019565Y005518D01*
X019623Y005459D02*
X019637Y005459D01*
X018911Y005635D02*
X018349Y005635D01*
X018490Y005576D02*
X018770Y005576D01*
X018695Y005518D02*
X018565Y005518D01*
X018623Y005459D02*
X018637Y005459D01*
X017911Y005635D02*
X002357Y005635D01*
X002357Y005576D02*
X017770Y005576D01*
X017695Y005518D02*
X002357Y005518D01*
X002357Y005459D02*
X017637Y005459D01*
X017578Y005401D02*
X002357Y005401D01*
X002357Y005342D02*
X017537Y005342D01*
X017513Y005284D02*
X002357Y005284D01*
X002357Y005225D02*
X017489Y005225D01*
X017465Y005167D02*
X002357Y005167D01*
X002357Y005108D02*
X017446Y005108D01*
X017446Y005050D02*
X002357Y005050D01*
X002357Y004991D02*
X017446Y004991D01*
X017446Y004933D02*
X002357Y004933D01*
X002357Y004874D02*
X017446Y004874D01*
X017446Y004816D02*
X002357Y004816D01*
X002357Y004757D02*
X017446Y004757D01*
X017446Y004699D02*
X002357Y004699D01*
X002357Y004640D02*
X017446Y004640D01*
X017446Y004582D02*
X002357Y004582D01*
X002357Y004523D02*
X017446Y004523D01*
X017446Y004465D02*
X002357Y004465D01*
X002357Y004406D02*
X017446Y004406D01*
X017446Y004348D02*
X002357Y004348D01*
X002357Y004289D02*
X017446Y004289D01*
X017446Y004231D02*
X002357Y004231D01*
X002357Y004172D02*
X017446Y004172D01*
X017456Y004114D02*
X002357Y004114D01*
X002357Y004055D02*
X017481Y004055D01*
X017505Y003997D02*
X002357Y003997D01*
X002357Y003938D02*
X017529Y003938D01*
X017558Y003880D02*
X002357Y003880D01*
X002357Y003821D02*
X017617Y003821D01*
X017675Y003763D02*
X002357Y003763D01*
X002357Y003704D02*
X017734Y003704D01*
X017863Y003646D02*
X002357Y003646D01*
X002357Y003587D02*
X024603Y003587D01*
X024603Y003529D02*
X002357Y003529D01*
X002357Y003470D02*
X024626Y003470D01*
X024650Y003412D02*
X003879Y003412D01*
X004020Y003353D02*
X024674Y003353D01*
X024720Y003295D02*
X004121Y003295D01*
X004180Y003236D02*
X024779Y003236D01*
X024837Y003178D02*
X004238Y003178D01*
X004297Y003119D02*
X024896Y003119D01*
X024954Y003061D02*
X004336Y003061D01*
X004361Y003002D02*
X025013Y003002D01*
X025071Y002944D02*
X004385Y002944D01*
X004409Y002885D02*
X025130Y002885D01*
X025188Y002827D02*
X004433Y002827D01*
X004447Y002768D02*
X025247Y002768D01*
X025305Y002710D02*
X004447Y002710D01*
X004447Y002651D02*
X025364Y002651D01*
X025422Y002593D02*
X004447Y002593D01*
X004447Y002534D02*
X025481Y002534D01*
X025539Y002476D02*
X004447Y002476D01*
X004427Y002417D02*
X025598Y002417D01*
X025656Y002359D02*
X004402Y002359D01*
X004378Y002300D02*
X025715Y002300D01*
X025773Y002242D02*
X004354Y002242D01*
X004222Y002066D02*
X049038Y002066D01*
X049097Y002008D02*
X004163Y002008D01*
X004105Y001949D02*
X049155Y001949D01*
X049279Y001891D02*
X003981Y001891D01*
X003839Y001832D02*
X049421Y001832D01*
X049839Y001832D02*
X050895Y001832D01*
X050895Y001774D02*
X002357Y001774D01*
X002357Y001832D02*
X003421Y001832D01*
X003279Y001891D02*
X002357Y001891D01*
X002357Y001949D02*
X003155Y001949D01*
X003097Y002008D02*
X002357Y002008D01*
X002357Y002066D02*
X003038Y002066D01*
X002980Y002125D02*
X002357Y002125D01*
X002357Y002183D02*
X002930Y002183D01*
X002906Y002242D02*
X002357Y002242D01*
X002357Y002300D02*
X002882Y002300D01*
X002858Y002359D02*
X002357Y002359D01*
X002357Y002417D02*
X002833Y002417D01*
X002813Y002476D02*
X002357Y002476D01*
X002357Y002534D02*
X002813Y002534D01*
X002813Y002593D02*
X002357Y002593D01*
X002357Y002651D02*
X002813Y002651D01*
X002813Y002710D02*
X002357Y002710D01*
X002357Y002768D02*
X002813Y002768D01*
X002827Y002827D02*
X002357Y002827D01*
X002357Y002885D02*
X002851Y002885D01*
X002875Y002944D02*
X002357Y002944D01*
X002357Y003002D02*
X002899Y003002D01*
X002924Y003061D02*
X002357Y003061D01*
X002357Y003119D02*
X002963Y003119D01*
X003022Y003178D02*
X002357Y003178D01*
X002357Y003236D02*
X003080Y003236D01*
X003139Y003295D02*
X002357Y003295D01*
X002357Y003353D02*
X003240Y003353D01*
X003381Y003412D02*
X002357Y003412D01*
X002357Y001715D02*
X050895Y001715D01*
X050895Y001657D02*
X002357Y001657D01*
X002357Y001598D02*
X050895Y001598D01*
X050895Y001540D02*
X002357Y001540D01*
X002357Y001481D02*
X050895Y001481D01*
X050895Y001423D02*
X002357Y001423D01*
X002357Y001364D02*
X050895Y001364D01*
X050895Y001891D02*
X049981Y001891D01*
X050105Y001949D02*
X050895Y001949D01*
X050895Y002008D02*
X050163Y002008D01*
X050222Y002066D02*
X050895Y002066D01*
X050895Y002125D02*
X050280Y002125D01*
X050330Y002183D02*
X050895Y002183D01*
X050895Y002242D02*
X050354Y002242D01*
X050378Y002300D02*
X050895Y002300D01*
X050895Y002359D02*
X050402Y002359D01*
X050427Y002417D02*
X050895Y002417D01*
X050895Y002476D02*
X050447Y002476D01*
X050447Y002534D02*
X050895Y002534D01*
X050895Y002593D02*
X050447Y002593D01*
X050447Y002651D02*
X050895Y002651D01*
X050895Y002710D02*
X050447Y002710D01*
X050447Y002768D02*
X050895Y002768D01*
X050895Y002827D02*
X050433Y002827D01*
X050409Y002885D02*
X050895Y002885D01*
X050895Y002944D02*
X050385Y002944D01*
X050361Y003002D02*
X050895Y003002D01*
X050895Y003061D02*
X050336Y003061D01*
X050297Y003119D02*
X050895Y003119D01*
X050895Y003178D02*
X050238Y003178D01*
X050180Y003236D02*
X050895Y003236D01*
X050895Y003295D02*
X050121Y003295D01*
X050020Y003353D02*
X050895Y003353D01*
X050895Y003412D02*
X049879Y003412D01*
X049381Y003412D02*
X041657Y003412D01*
X041715Y003470D02*
X050895Y003470D01*
X050895Y003529D02*
X041774Y003529D01*
X041832Y003587D02*
X050895Y003587D01*
X050895Y003646D02*
X041891Y003646D01*
X041949Y003704D02*
X050895Y003704D01*
X050895Y003763D02*
X042008Y003763D01*
X042066Y003821D02*
X050895Y003821D01*
X050895Y003880D02*
X042125Y003880D01*
X042183Y003938D02*
X050895Y003938D01*
X050895Y003997D02*
X042242Y003997D01*
X042300Y004055D02*
X050895Y004055D01*
X050895Y004114D02*
X042359Y004114D01*
X042417Y004172D02*
X050895Y004172D01*
X050895Y004231D02*
X042476Y004231D01*
X042534Y004289D02*
X050895Y004289D01*
X050895Y004348D02*
X042593Y004348D01*
X042651Y004406D02*
X050895Y004406D01*
X050895Y004465D02*
X042710Y004465D01*
X042768Y004523D02*
X050895Y004523D01*
X050895Y004582D02*
X042827Y004582D01*
X042885Y004640D02*
X050895Y004640D01*
X050895Y004699D02*
X042944Y004699D01*
X043002Y004757D02*
X050895Y004757D01*
X050895Y004816D02*
X043061Y004816D01*
X043119Y004874D02*
X050895Y004874D01*
X050895Y004933D02*
X043178Y004933D01*
X043236Y004991D02*
X050895Y004991D01*
X050895Y005050D02*
X043295Y005050D01*
X043353Y005108D02*
X050895Y005108D01*
X050895Y005167D02*
X043412Y005167D01*
X043470Y005225D02*
X050895Y005225D01*
X050895Y005284D02*
X043529Y005284D01*
X043587Y005342D02*
X050895Y005342D01*
X050895Y005401D02*
X043646Y005401D01*
X043704Y005459D02*
X050895Y005459D01*
X050895Y005518D02*
X043763Y005518D01*
X043821Y005576D02*
X050895Y005576D01*
X050895Y005635D02*
X043880Y005635D01*
X043938Y005693D02*
X050895Y005693D01*
X050895Y005752D02*
X043997Y005752D01*
X044055Y005810D02*
X050895Y005810D01*
X050895Y005869D02*
X044114Y005869D01*
X044172Y005927D02*
X050895Y005927D01*
X050895Y005986D02*
X044967Y005986D01*
X045108Y006044D02*
X050895Y006044D01*
X050895Y006103D02*
X045191Y006103D01*
X045249Y006161D02*
X050895Y006161D01*
X050895Y006220D02*
X045308Y006220D01*
X045366Y006278D02*
X050895Y006278D01*
X050895Y006337D02*
X045406Y006337D01*
X045430Y006395D02*
X050895Y006395D01*
X050895Y006454D02*
X045454Y006454D01*
X045478Y006512D02*
X050895Y006512D01*
X050895Y006571D02*
X045502Y006571D01*
X045523Y006629D02*
X050895Y006629D01*
X050895Y006688D02*
X045523Y006688D01*
X045523Y006746D02*
X050895Y006746D01*
X050895Y006805D02*
X045523Y006805D01*
X045523Y006863D02*
X050895Y006863D01*
X050895Y006922D02*
X045523Y006922D01*
X045516Y006980D02*
X050895Y006980D01*
X050895Y007039D02*
X045492Y007039D01*
X045467Y007097D02*
X050895Y007097D01*
X050895Y007156D02*
X045443Y007156D01*
X045419Y007214D02*
X050895Y007214D01*
X050895Y007273D02*
X045395Y007273D01*
X045340Y007331D02*
X050895Y007331D01*
X050895Y007390D02*
X045282Y007390D01*
X045223Y007448D02*
X050895Y007448D01*
X050895Y007507D02*
X045165Y007507D01*
X045153Y007624D02*
X050895Y007624D01*
X050895Y007682D02*
X045211Y007682D01*
X045270Y007741D02*
X050895Y007741D01*
X050895Y007799D02*
X045328Y007799D01*
X045387Y007858D02*
X050895Y007858D01*
X050895Y007916D02*
X045414Y007916D01*
X045438Y007975D02*
X050895Y007975D01*
X050895Y008033D02*
X045462Y008033D01*
X045487Y008092D02*
X050895Y008092D01*
X050895Y008150D02*
X045511Y008150D01*
X045523Y008209D02*
X050895Y008209D01*
X050895Y008267D02*
X045523Y008267D01*
X045523Y008326D02*
X050895Y008326D01*
X050895Y008384D02*
X045523Y008384D01*
X045523Y008443D02*
X050895Y008443D01*
X050895Y008501D02*
X045523Y008501D01*
X045507Y008560D02*
X050895Y008560D01*
X050895Y008618D02*
X045483Y008618D01*
X045459Y008677D02*
X050895Y008677D01*
X050895Y008735D02*
X045435Y008735D01*
X045410Y008794D02*
X050895Y008794D01*
X050895Y008852D02*
X045378Y008852D01*
X045320Y008911D02*
X050895Y008911D01*
X050895Y008969D02*
X045261Y008969D01*
X045203Y009028D02*
X050895Y009028D01*
X050895Y009086D02*
X045137Y009086D01*
X044996Y009145D02*
X050895Y009145D01*
X050895Y009203D02*
X044854Y009203D01*
X044799Y009262D02*
X050895Y009262D01*
X050895Y009320D02*
X044963Y009320D01*
X044955Y009315D02*
X045030Y009358D01*
X045099Y009411D01*
X045160Y009472D01*
X045213Y009541D01*
X045256Y009616D01*
X045289Y009696D01*
X045312Y009780D01*
X045323Y009866D01*
X045323Y009880D01*
X044160Y009880D01*
X044160Y009940D01*
X044100Y009940D01*
X044100Y010571D01*
X043555Y010571D01*
X043469Y010560D01*
X043385Y010537D01*
X043305Y010504D01*
X043230Y010461D01*
X043161Y010408D01*
X043100Y010347D01*
X043047Y010278D01*
X043004Y010203D01*
X042971Y010123D01*
X042948Y010039D01*
X042937Y009953D01*
X042937Y009940D01*
X044100Y009940D01*
X044100Y009880D01*
X042937Y009880D01*
X042937Y009866D01*
X042948Y009780D01*
X042971Y009696D01*
X043004Y009616D01*
X043047Y009541D01*
X043100Y009472D01*
X043161Y009411D01*
X043230Y009358D01*
X043305Y009315D01*
X043385Y009282D01*
X043469Y009259D01*
X043555Y009248D01*
X044100Y009248D01*
X044100Y009880D01*
X044160Y009880D01*
X044160Y009248D01*
X044705Y009248D01*
X044791Y009259D01*
X044875Y009282D01*
X044955Y009315D01*
X045056Y009379D02*
X050895Y009379D01*
X050895Y009437D02*
X045125Y009437D01*
X045178Y009496D02*
X050895Y009496D01*
X050895Y009554D02*
X045220Y009554D01*
X045254Y009613D02*
X050895Y009613D01*
X050895Y009671D02*
X045279Y009671D01*
X045298Y009730D02*
X050895Y009730D01*
X050895Y009788D02*
X045313Y009788D01*
X045320Y009847D02*
X050895Y009847D01*
X050895Y009905D02*
X044160Y009905D01*
X044160Y009940D02*
X045323Y009940D01*
X045323Y009953D01*
X045312Y010039D01*
X045289Y010123D01*
X045256Y010203D01*
X045213Y010278D01*
X045160Y010347D01*
X045099Y010408D01*
X045030Y010461D01*
X044955Y010504D01*
X044875Y010537D01*
X044791Y010560D01*
X044705Y010571D01*
X044160Y010571D01*
X044160Y009940D01*
X044160Y009964D02*
X044100Y009964D01*
X044100Y010022D02*
X044160Y010022D01*
X044160Y010081D02*
X044100Y010081D01*
X044100Y010139D02*
X044160Y010139D01*
X044160Y010198D02*
X044100Y010198D01*
X044100Y010256D02*
X044160Y010256D01*
X044160Y010315D02*
X044100Y010315D01*
X044100Y010373D02*
X044160Y010373D01*
X044160Y010432D02*
X044100Y010432D01*
X044100Y010490D02*
X044160Y010490D01*
X044160Y010549D02*
X044100Y010549D01*
X043428Y010549D02*
X032814Y010549D01*
X032814Y010607D02*
X050895Y010607D01*
X050895Y010549D02*
X044832Y010549D01*
X044979Y010490D02*
X050895Y010490D01*
X050895Y010432D02*
X045068Y010432D01*
X045133Y010373D02*
X050895Y010373D01*
X050895Y010315D02*
X045185Y010315D01*
X045225Y010256D02*
X050895Y010256D01*
X050895Y010198D02*
X045258Y010198D01*
X045282Y010139D02*
X050895Y010139D01*
X050895Y010081D02*
X045301Y010081D01*
X045314Y010022D02*
X050895Y010022D01*
X050895Y009964D02*
X045322Y009964D01*
X044974Y010666D02*
X050895Y010666D01*
X050895Y010724D02*
X045115Y010724D01*
X045194Y010783D02*
X050895Y010783D01*
X050895Y010841D02*
X045252Y010841D01*
X045311Y010900D02*
X050895Y010900D01*
X050895Y010958D02*
X045369Y010958D01*
X045407Y011017D02*
X050895Y011017D01*
X050895Y011075D02*
X045431Y011075D01*
X045455Y011134D02*
X050895Y011134D01*
X050895Y011192D02*
X045479Y011192D01*
X045504Y011251D02*
X050895Y011251D01*
X050895Y011309D02*
X045523Y011309D01*
X045523Y011368D02*
X050895Y011368D01*
X050895Y011426D02*
X045523Y011426D01*
X045523Y011485D02*
X050895Y011485D01*
X050895Y011543D02*
X045523Y011543D01*
X045523Y011602D02*
X050895Y011602D01*
X050895Y011660D02*
X045515Y011660D01*
X045490Y011719D02*
X050895Y011719D01*
X050895Y011777D02*
X045466Y011777D01*
X045442Y011836D02*
X050895Y011836D01*
X050895Y011894D02*
X045418Y011894D01*
X045394Y011953D02*
X050895Y011953D01*
X050895Y012011D02*
X045337Y012011D01*
X045315Y012070D02*
X050895Y012070D01*
X050895Y012128D02*
X045373Y012128D01*
X045432Y012187D02*
X050895Y012187D01*
X050895Y012245D02*
X045490Y012245D01*
X045549Y012304D02*
X050895Y012304D01*
X050895Y012362D02*
X045607Y012362D01*
X045666Y012421D02*
X050895Y012421D01*
X050895Y012479D02*
X045724Y012479D01*
X045783Y012538D02*
X050895Y012538D01*
X050895Y012596D02*
X045841Y012596D01*
X045900Y012655D02*
X050895Y012655D01*
X050895Y012713D02*
X045958Y012713D01*
X046017Y012772D02*
X050895Y012772D01*
X050895Y012830D02*
X046075Y012830D01*
X046134Y012889D02*
X050895Y012889D01*
X050895Y012947D02*
X046192Y012947D01*
X046251Y013006D02*
X050895Y013006D01*
X050895Y013064D02*
X046309Y013064D01*
X046368Y013123D02*
X050895Y013123D01*
X050895Y013181D02*
X046426Y013181D01*
X046485Y013240D02*
X050895Y013240D01*
X050895Y013298D02*
X046543Y013298D01*
X046602Y013357D02*
X050895Y013357D01*
X050895Y013415D02*
X046660Y013415D01*
X046719Y013474D02*
X050895Y013474D01*
X050895Y013532D02*
X046777Y013532D01*
X046836Y013591D02*
X050895Y013591D01*
X050895Y013649D02*
X046894Y013649D01*
X046953Y013708D02*
X050895Y013708D01*
X050895Y013766D02*
X047011Y013766D01*
X047070Y013825D02*
X050895Y013825D01*
X050895Y013883D02*
X047128Y013883D01*
X047187Y013942D02*
X050895Y013942D01*
X050895Y014000D02*
X047245Y014000D01*
X047304Y014059D02*
X050895Y014059D01*
X050895Y014117D02*
X047362Y014117D01*
X047421Y014176D02*
X050895Y014176D01*
X050895Y014234D02*
X047479Y014234D01*
X047538Y014293D02*
X050895Y014293D01*
X050895Y014351D02*
X047596Y014351D01*
X047655Y014410D02*
X050895Y014410D01*
X050895Y014468D02*
X047713Y014468D01*
X047772Y014527D02*
X050895Y014527D01*
X050895Y014585D02*
X047830Y014585D01*
X047889Y014644D02*
X050895Y014644D01*
X050895Y014702D02*
X047947Y014702D01*
X048006Y014761D02*
X050895Y014761D01*
X050895Y014819D02*
X048064Y014819D01*
X048123Y014878D02*
X050895Y014878D01*
X050895Y014936D02*
X048181Y014936D01*
X048240Y014995D02*
X050895Y014995D01*
X050895Y015053D02*
X048298Y015053D01*
X048357Y015112D02*
X050895Y015112D01*
X050895Y015170D02*
X048415Y015170D01*
X048474Y015229D02*
X050895Y015229D01*
X050895Y015287D02*
X048532Y015287D01*
X048582Y015346D02*
X050895Y015346D01*
X050895Y015404D02*
X048607Y015404D01*
X048631Y015463D02*
X050895Y015463D01*
X050895Y015521D02*
X048655Y015521D01*
X048657Y015580D02*
X050895Y015580D01*
X050895Y015638D02*
X048657Y015638D01*
X048657Y015697D02*
X050895Y015697D01*
X050895Y015755D02*
X048657Y015755D01*
X048657Y015814D02*
X050895Y015814D01*
X050895Y015872D02*
X048657Y015872D01*
X048657Y015931D02*
X050895Y015931D01*
X050895Y015989D02*
X048657Y015989D01*
X048657Y016048D02*
X050895Y016048D01*
X050895Y016106D02*
X048657Y016106D01*
X048657Y016165D02*
X050895Y016165D01*
X050895Y016223D02*
X048657Y016223D01*
X048657Y016282D02*
X050895Y016282D01*
X050895Y016340D02*
X048657Y016340D01*
X048657Y016399D02*
X050895Y016399D01*
X050895Y016457D02*
X048657Y016457D01*
X048657Y016516D02*
X050895Y016516D01*
X050895Y016574D02*
X048657Y016574D01*
X048657Y016633D02*
X050895Y016633D01*
X050895Y016691D02*
X048657Y016691D01*
X048657Y016750D02*
X050895Y016750D01*
X050895Y016808D02*
X048657Y016808D01*
X048657Y016867D02*
X050895Y016867D01*
X050895Y016925D02*
X048657Y016925D01*
X048657Y016984D02*
X050895Y016984D01*
X050895Y017042D02*
X048657Y017042D01*
X048657Y017101D02*
X050895Y017101D01*
X050895Y017159D02*
X048657Y017159D01*
X048657Y017218D02*
X050895Y017218D01*
X050895Y017276D02*
X048657Y017276D01*
X048657Y017335D02*
X050895Y017335D01*
X050895Y017393D02*
X048657Y017393D01*
X048657Y017452D02*
X050895Y017452D01*
X050895Y017510D02*
X048657Y017510D01*
X048657Y017569D02*
X050895Y017569D01*
X050895Y017627D02*
X048657Y017627D01*
X048657Y017686D02*
X050895Y017686D01*
X050895Y017744D02*
X048657Y017744D01*
X048657Y017803D02*
X050895Y017803D01*
X050895Y017861D02*
X048657Y017861D01*
X048657Y017920D02*
X050895Y017920D01*
X050895Y017978D02*
X048657Y017978D01*
X048657Y018037D02*
X050895Y018037D01*
X050895Y018095D02*
X048657Y018095D01*
X048657Y018154D02*
X050895Y018154D01*
X050895Y018212D02*
X048657Y018212D01*
X048657Y018271D02*
X050895Y018271D01*
X050895Y018329D02*
X048657Y018329D01*
X048657Y018388D02*
X050895Y018388D01*
X050895Y018446D02*
X048657Y018446D01*
X048657Y018505D02*
X050895Y018505D01*
X050895Y018563D02*
X048657Y018563D01*
X048657Y018622D02*
X050895Y018622D01*
X050895Y018680D02*
X048657Y018680D01*
X048655Y018739D02*
X050895Y018739D01*
X050895Y018797D02*
X048631Y018797D01*
X048607Y018856D02*
X050895Y018856D01*
X050895Y018914D02*
X048583Y018914D01*
X048533Y018973D02*
X050895Y018973D01*
X050895Y019031D02*
X048474Y019031D01*
X048416Y019090D02*
X050895Y019090D01*
X050895Y019148D02*
X048357Y019148D01*
X048299Y019207D02*
X050895Y019207D01*
X050895Y019265D02*
X048240Y019265D01*
X048182Y019324D02*
X050895Y019324D01*
X050895Y019382D02*
X048123Y019382D01*
X048065Y019441D02*
X050895Y019441D01*
X050895Y019499D02*
X048006Y019499D01*
X047948Y019558D02*
X050895Y019558D01*
X050895Y019616D02*
X047889Y019616D01*
X047830Y019675D02*
X050895Y019675D01*
X050895Y019733D02*
X047772Y019733D01*
X047713Y019792D02*
X050895Y019792D01*
X050895Y019850D02*
X047622Y019850D01*
X047585Y018388D02*
X047603Y018388D01*
X047603Y018329D02*
X047585Y018329D01*
X047585Y018271D02*
X047603Y018271D01*
X047603Y018212D02*
X047585Y018212D01*
X047603Y018154D02*
X047160Y018154D01*
X047160Y018100D02*
X047585Y018100D01*
X047585Y017769D01*
X047574Y017699D01*
X047551Y017631D01*
X047519Y017567D01*
X047477Y017509D01*
X047426Y017458D01*
X047368Y017416D01*
X047305Y017384D01*
X047236Y017362D01*
X047166Y017350D01*
X047160Y017350D01*
X047160Y018100D01*
X047160Y018095D02*
X047100Y018095D01*
X047100Y018037D02*
X047160Y018037D01*
X047160Y017978D02*
X047100Y017978D01*
X047100Y017920D02*
X047160Y017920D01*
X047160Y017861D02*
X047100Y017861D01*
X047100Y017803D02*
X047160Y017803D01*
X047160Y017744D02*
X047100Y017744D01*
X047100Y017686D02*
X047160Y017686D01*
X047160Y017627D02*
X047100Y017627D01*
X047100Y017569D02*
X047160Y017569D01*
X047160Y017510D02*
X047100Y017510D01*
X047100Y017452D02*
X047160Y017452D01*
X047160Y017393D02*
X047100Y017393D01*
X046937Y017393D02*
X046657Y017393D01*
X046657Y017335D02*
X047603Y017335D01*
X047603Y017393D02*
X047323Y017393D01*
X047417Y017452D02*
X047603Y017452D01*
X047603Y017510D02*
X047478Y017510D01*
X047520Y017569D02*
X047603Y017569D01*
X047603Y017627D02*
X047550Y017627D01*
X047569Y017686D02*
X047603Y017686D01*
X047603Y017744D02*
X047581Y017744D01*
X047585Y017803D02*
X047603Y017803D01*
X047603Y017861D02*
X047585Y017861D01*
X047585Y017920D02*
X047603Y017920D01*
X047603Y017978D02*
X047585Y017978D01*
X047585Y018037D02*
X047603Y018037D01*
X047603Y018095D02*
X047585Y018095D01*
X047603Y017276D02*
X046657Y017276D01*
X046657Y017218D02*
X047603Y017218D01*
X047603Y017159D02*
X046657Y017159D01*
X046657Y017101D02*
X047603Y017101D01*
X047603Y017042D02*
X046657Y017042D01*
X046657Y016984D02*
X047603Y016984D01*
X047603Y016925D02*
X046657Y016925D01*
X046657Y016867D02*
X047603Y016867D01*
X047603Y016808D02*
X046657Y016808D01*
X046657Y016750D02*
X047603Y016750D01*
X047603Y016691D02*
X046657Y016691D01*
X046657Y016633D02*
X047603Y016633D01*
X047603Y016574D02*
X046657Y016574D01*
X046657Y016516D02*
X047603Y016516D01*
X047603Y016457D02*
X046657Y016457D01*
X046657Y016399D02*
X047603Y016399D01*
X047603Y016340D02*
X046657Y016340D01*
X046657Y016282D02*
X047603Y016282D01*
X047603Y016223D02*
X046657Y016223D01*
X046657Y016165D02*
X047603Y016165D01*
X047603Y016106D02*
X046657Y016106D01*
X046657Y016048D02*
X047603Y016048D01*
X047603Y015989D02*
X046642Y015989D01*
X046618Y015931D02*
X047603Y015931D01*
X047603Y015872D02*
X046593Y015872D01*
X046559Y015814D02*
X047568Y015814D01*
X047510Y015755D02*
X046500Y015755D01*
X046442Y015697D02*
X047451Y015697D01*
X047393Y015638D02*
X046383Y015638D01*
X046325Y015580D02*
X047334Y015580D01*
X047276Y015521D02*
X046266Y015521D01*
X046208Y015463D02*
X047217Y015463D01*
X047159Y015404D02*
X046149Y015404D01*
X046091Y015346D02*
X047100Y015346D01*
X047042Y015287D02*
X046032Y015287D01*
X045974Y015229D02*
X046983Y015229D01*
X046925Y015170D02*
X045915Y015170D01*
X045857Y015112D02*
X046866Y015112D01*
X046808Y015053D02*
X045798Y015053D01*
X045740Y014995D02*
X046749Y014995D01*
X046691Y014936D02*
X045681Y014936D01*
X045623Y014878D02*
X046632Y014878D01*
X046574Y014819D02*
X045564Y014819D01*
X045506Y014761D02*
X046515Y014761D01*
X046457Y014702D02*
X045447Y014702D01*
X045389Y014644D02*
X046398Y014644D01*
X046340Y014585D02*
X045330Y014585D01*
X045272Y014527D02*
X046281Y014527D01*
X046223Y014468D02*
X045213Y014468D01*
X045155Y014410D02*
X046164Y014410D01*
X046106Y014351D02*
X045096Y014351D01*
X045038Y014293D02*
X046047Y014293D01*
X045989Y014234D02*
X044979Y014234D01*
X044910Y014176D02*
X045930Y014176D01*
X045872Y014117D02*
X044768Y014117D01*
X045345Y013591D02*
X030086Y013591D01*
X030144Y013649D02*
X045404Y013649D01*
X045462Y013708D02*
X030203Y013708D01*
X030261Y013766D02*
X045521Y013766D01*
X045579Y013825D02*
X030320Y013825D01*
X030378Y013883D02*
X045638Y013883D01*
X045696Y013942D02*
X030437Y013942D01*
X030495Y014000D02*
X045755Y014000D01*
X045813Y014059D02*
X030554Y014059D01*
X030027Y013532D02*
X045287Y013532D01*
X045228Y013474D02*
X029969Y013474D01*
X029910Y013415D02*
X045170Y013415D01*
X045111Y013357D02*
X029852Y013357D01*
X029793Y013298D02*
X045053Y013298D01*
X044994Y013240D02*
X029735Y013240D01*
X029676Y013181D02*
X044936Y013181D01*
X044877Y013123D02*
X029618Y013123D01*
X029559Y013064D02*
X044819Y013064D01*
X044760Y013006D02*
X029501Y013006D01*
X029442Y012947D02*
X044702Y012947D01*
X044643Y012889D02*
X029384Y012889D01*
X029325Y012830D02*
X044585Y012830D01*
X044526Y012772D02*
X029267Y012772D01*
X029208Y012713D02*
X044468Y012713D01*
X044409Y012655D02*
X029150Y012655D01*
X029091Y012596D02*
X044351Y012596D01*
X044292Y012538D02*
X029033Y012538D01*
X028974Y012479D02*
X044234Y012479D01*
X044175Y012421D02*
X028916Y012421D01*
X028857Y012362D02*
X044117Y012362D01*
X043363Y012304D02*
X028799Y012304D01*
X028740Y012245D02*
X043222Y012245D01*
X043098Y012187D02*
X028682Y012187D01*
X028623Y012128D02*
X043040Y012128D01*
X042981Y012070D02*
X028565Y012070D01*
X028506Y012011D02*
X042923Y012011D01*
X042866Y011953D02*
X028448Y011953D01*
X028389Y011894D02*
X042842Y011894D01*
X042818Y011836D02*
X028331Y011836D01*
X028272Y011777D02*
X042794Y011777D01*
X042770Y011719D02*
X028214Y011719D01*
X028287Y011660D02*
X028973Y011660D01*
X028832Y011602D02*
X028428Y011602D01*
X028539Y011543D02*
X028721Y011543D01*
X028662Y011485D02*
X028598Y011485D01*
X029287Y011660D02*
X029973Y011660D01*
X029832Y011602D02*
X029428Y011602D01*
X029539Y011543D02*
X029721Y011543D01*
X029662Y011485D02*
X029598Y011485D01*
X030287Y011660D02*
X030973Y011660D01*
X030832Y011602D02*
X030428Y011602D01*
X030539Y011543D02*
X030721Y011543D01*
X030662Y011485D02*
X030598Y011485D01*
X031287Y011660D02*
X031973Y011660D01*
X031832Y011602D02*
X031428Y011602D01*
X031539Y011543D02*
X031721Y011543D01*
X031662Y011485D02*
X031598Y011485D01*
X032287Y011660D02*
X042745Y011660D01*
X042737Y011602D02*
X032428Y011602D01*
X032539Y011543D02*
X042737Y011543D01*
X042737Y011485D02*
X032598Y011485D01*
X032656Y011426D02*
X042737Y011426D01*
X042737Y011368D02*
X032712Y011368D01*
X032736Y011309D02*
X042737Y011309D01*
X042756Y011251D02*
X032760Y011251D01*
X032785Y011192D02*
X042781Y011192D01*
X042805Y011134D02*
X032809Y011134D01*
X032814Y011075D02*
X042829Y011075D01*
X042853Y011017D02*
X032814Y011017D01*
X032814Y010958D02*
X042891Y010958D01*
X042949Y010900D02*
X032814Y010900D01*
X032814Y010841D02*
X043008Y010841D01*
X043066Y010783D02*
X032814Y010783D01*
X032814Y010724D02*
X043145Y010724D01*
X043286Y010666D02*
X032814Y010666D01*
X032814Y010490D02*
X043281Y010490D01*
X043192Y010432D02*
X032814Y010432D01*
X032814Y010373D02*
X043127Y010373D01*
X043075Y010315D02*
X032814Y010315D01*
X032814Y010256D02*
X043035Y010256D01*
X043002Y010198D02*
X032814Y010198D01*
X032814Y010139D02*
X042978Y010139D01*
X042959Y010081D02*
X032790Y010081D01*
X032766Y010022D02*
X042946Y010022D01*
X042938Y009964D02*
X032741Y009964D01*
X032717Y009905D02*
X044100Y009905D01*
X044100Y009847D02*
X044160Y009847D01*
X044160Y009788D02*
X044100Y009788D01*
X044100Y009730D02*
X044160Y009730D01*
X044160Y009671D02*
X044100Y009671D01*
X044100Y009613D02*
X044160Y009613D01*
X044160Y009554D02*
X044100Y009554D01*
X044100Y009496D02*
X044160Y009496D01*
X044160Y009437D02*
X044100Y009437D01*
X044100Y009379D02*
X044160Y009379D01*
X044160Y009320D02*
X044100Y009320D01*
X044100Y009262D02*
X044160Y009262D01*
X043461Y009262D02*
X032894Y009262D01*
X033018Y009210D02*
X032766Y009314D01*
X032494Y009314D01*
X032242Y009210D01*
X032130Y009098D01*
X032018Y009210D01*
X031766Y009314D01*
X031494Y009314D01*
X031242Y009210D01*
X031050Y009018D01*
X030946Y008766D01*
X030946Y008494D01*
X031050Y008242D01*
X031162Y008130D01*
X031050Y008018D01*
X030946Y007766D01*
X030946Y007494D01*
X031050Y007242D01*
X031162Y007130D01*
X031050Y007018D01*
X030946Y006766D01*
X030946Y006494D01*
X031050Y006242D01*
X031242Y006050D01*
X031494Y005946D01*
X031766Y005946D01*
X032018Y006050D01*
X032130Y006162D01*
X032242Y006050D01*
X032494Y005946D01*
X032766Y005946D01*
X033018Y006050D01*
X033210Y006242D01*
X033314Y006494D01*
X033314Y006766D01*
X033210Y007018D01*
X033098Y007130D01*
X033210Y007242D01*
X033314Y007494D01*
X033314Y007766D01*
X033210Y008018D01*
X033098Y008130D01*
X033210Y008242D01*
X033314Y008494D01*
X033314Y008766D01*
X033210Y009018D01*
X033018Y009210D01*
X033025Y009203D02*
X043406Y009203D01*
X043264Y009145D02*
X033083Y009145D01*
X033142Y009086D02*
X043123Y009086D01*
X043057Y009028D02*
X033200Y009028D01*
X033230Y008969D02*
X042999Y008969D01*
X042940Y008911D02*
X033255Y008911D01*
X033279Y008852D02*
X042882Y008852D01*
X042850Y008794D02*
X033303Y008794D01*
X033314Y008735D02*
X042825Y008735D01*
X042801Y008677D02*
X033314Y008677D01*
X033314Y008618D02*
X042777Y008618D01*
X042753Y008560D02*
X033314Y008560D01*
X033314Y008501D02*
X042737Y008501D01*
X042737Y008443D02*
X033293Y008443D01*
X033269Y008384D02*
X042737Y008384D01*
X042737Y008326D02*
X033245Y008326D01*
X033220Y008267D02*
X042737Y008267D01*
X042713Y008209D02*
X033176Y008209D01*
X033118Y008150D02*
X042655Y008150D01*
X042596Y008092D02*
X033136Y008092D01*
X033195Y008033D02*
X042538Y008033D01*
X042479Y007975D02*
X033228Y007975D01*
X033252Y007916D02*
X042421Y007916D01*
X042362Y007858D02*
X033276Y007858D01*
X033301Y007799D02*
X042304Y007799D01*
X042245Y007741D02*
X033314Y007741D01*
X033314Y007682D02*
X042187Y007682D01*
X042128Y007624D02*
X033314Y007624D01*
X033314Y007565D02*
X042070Y007565D01*
X042011Y007507D02*
X033314Y007507D01*
X033295Y007448D02*
X041953Y007448D01*
X041894Y007390D02*
X033271Y007390D01*
X033247Y007331D02*
X041836Y007331D01*
X041777Y007273D02*
X033223Y007273D01*
X033182Y007214D02*
X041719Y007214D01*
X041660Y007156D02*
X033123Y007156D01*
X033131Y007097D02*
X041602Y007097D01*
X041543Y007039D02*
X033189Y007039D01*
X033226Y006980D02*
X041485Y006980D01*
X041426Y006922D02*
X033250Y006922D01*
X033274Y006863D02*
X041368Y006863D01*
X041309Y006805D02*
X033298Y006805D01*
X033314Y006746D02*
X041251Y006746D01*
X041192Y006688D02*
X033314Y006688D01*
X033314Y006629D02*
X041134Y006629D01*
X041075Y006571D02*
X033314Y006571D01*
X033314Y006512D02*
X041017Y006512D01*
X040958Y006454D02*
X033298Y006454D01*
X033273Y006395D02*
X040900Y006395D01*
X040841Y006337D02*
X033249Y006337D01*
X033225Y006278D02*
X040783Y006278D01*
X040724Y006220D02*
X033187Y006220D01*
X033129Y006161D02*
X040666Y006161D01*
X040607Y006103D02*
X033070Y006103D01*
X033004Y006044D02*
X040549Y006044D01*
X040490Y005986D02*
X032862Y005986D01*
X032398Y005986D02*
X031862Y005986D01*
X032004Y006044D02*
X032256Y006044D01*
X032190Y006103D02*
X032070Y006103D01*
X032129Y006161D02*
X032131Y006161D01*
X032349Y005635D02*
X040139Y005635D01*
X040198Y005693D02*
X029657Y005693D01*
X029657Y005635D02*
X029911Y005635D01*
X029770Y005576D02*
X029657Y005576D01*
X029657Y005518D02*
X029695Y005518D01*
X029657Y005752D02*
X040256Y005752D01*
X040315Y005810D02*
X029657Y005810D01*
X029657Y005869D02*
X040373Y005869D01*
X040432Y005927D02*
X029657Y005927D01*
X029657Y005986D02*
X031398Y005986D01*
X031256Y006044D02*
X029657Y006044D01*
X029657Y006103D02*
X031190Y006103D01*
X031131Y006161D02*
X029657Y006161D01*
X029657Y006220D02*
X031073Y006220D01*
X031035Y006278D02*
X029657Y006278D01*
X029657Y006337D02*
X031011Y006337D01*
X030987Y006395D02*
X029657Y006395D01*
X029657Y006454D02*
X030962Y006454D01*
X030946Y006512D02*
X029657Y006512D01*
X029657Y006571D02*
X030946Y006571D01*
X030946Y006629D02*
X029657Y006629D01*
X029657Y006688D02*
X030946Y006688D01*
X030946Y006746D02*
X029657Y006746D01*
X029657Y006805D02*
X030962Y006805D01*
X030986Y006863D02*
X029657Y006863D01*
X029657Y006922D02*
X031010Y006922D01*
X031034Y006980D02*
X029657Y006980D01*
X029635Y007039D02*
X031071Y007039D01*
X031129Y007097D02*
X029610Y007097D01*
X029586Y007156D02*
X031137Y007156D01*
X031078Y007214D02*
X029541Y007214D01*
X029483Y007273D02*
X031037Y007273D01*
X031013Y007331D02*
X029424Y007331D01*
X029366Y007390D02*
X030989Y007390D01*
X030965Y007448D02*
X029307Y007448D01*
X029249Y007507D02*
X030946Y007507D01*
X030946Y007565D02*
X029190Y007565D01*
X029132Y007624D02*
X030946Y007624D01*
X030946Y007682D02*
X029073Y007682D01*
X029015Y007741D02*
X030946Y007741D01*
X030959Y007799D02*
X028956Y007799D01*
X028898Y007858D02*
X030984Y007858D01*
X031008Y007916D02*
X028839Y007916D01*
X028781Y007975D02*
X031032Y007975D01*
X031065Y008033D02*
X028722Y008033D01*
X028664Y008092D02*
X031124Y008092D01*
X031142Y008150D02*
X028605Y008150D01*
X028547Y008209D02*
X031084Y008209D01*
X031040Y008267D02*
X028488Y008267D01*
X028430Y008326D02*
X031015Y008326D01*
X030991Y008384D02*
X028371Y008384D01*
X028313Y008443D02*
X030967Y008443D01*
X030946Y008501D02*
X028254Y008501D01*
X028196Y008560D02*
X030946Y008560D01*
X030946Y008618D02*
X028137Y008618D01*
X028079Y008677D02*
X030946Y008677D01*
X030946Y008735D02*
X028020Y008735D01*
X027962Y008794D02*
X030957Y008794D01*
X030981Y008852D02*
X027903Y008852D01*
X027845Y008911D02*
X031005Y008911D01*
X031030Y008969D02*
X027786Y008969D01*
X027728Y009028D02*
X031060Y009028D01*
X031118Y009086D02*
X027669Y009086D01*
X027611Y009145D02*
X031177Y009145D01*
X031235Y009203D02*
X027552Y009203D01*
X027494Y009262D02*
X031366Y009262D01*
X031317Y009613D02*
X031943Y009613D01*
X031801Y009671D02*
X031459Y009671D01*
X031552Y009730D02*
X031708Y009730D01*
X031650Y009788D02*
X031610Y009788D01*
X031894Y009262D02*
X032366Y009262D01*
X032235Y009203D02*
X032025Y009203D01*
X032083Y009145D02*
X032177Y009145D01*
X032317Y009613D02*
X043006Y009613D01*
X042981Y009671D02*
X032459Y009671D01*
X032552Y009730D02*
X042962Y009730D01*
X042947Y009788D02*
X032610Y009788D01*
X032669Y009847D02*
X042940Y009847D01*
X043040Y009554D02*
X027201Y009554D01*
X027260Y009496D02*
X043082Y009496D01*
X043135Y009437D02*
X027318Y009437D01*
X027377Y009379D02*
X043204Y009379D01*
X043297Y009320D02*
X027435Y009320D01*
X027317Y009613D02*
X027943Y009613D01*
X027801Y009671D02*
X027459Y009671D01*
X027552Y009730D02*
X027708Y009730D01*
X027650Y009788D02*
X027610Y009788D01*
X028317Y009613D02*
X028943Y009613D01*
X028801Y009671D02*
X028459Y009671D01*
X028552Y009730D02*
X028708Y009730D01*
X028650Y009788D02*
X028610Y009788D01*
X029317Y009613D02*
X029943Y009613D01*
X029801Y009671D02*
X029459Y009671D01*
X029552Y009730D02*
X029708Y009730D01*
X029650Y009788D02*
X029610Y009788D01*
X030317Y009613D02*
X030943Y009613D01*
X030801Y009671D02*
X030459Y009671D01*
X030552Y009730D02*
X030708Y009730D01*
X030650Y009788D02*
X030610Y009788D01*
X030349Y005635D02*
X031911Y005635D01*
X031770Y005576D02*
X030490Y005576D01*
X030565Y005518D02*
X031695Y005518D01*
X031637Y005459D02*
X031229Y005459D01*
X031160Y005459D02*
X031100Y005459D01*
X031100Y005401D02*
X031160Y005401D01*
X031160Y005342D02*
X031100Y005342D01*
X031100Y005284D02*
X031160Y005284D01*
X031160Y005225D02*
X031100Y005225D01*
X031100Y005167D02*
X031160Y005167D01*
X031160Y005108D02*
X031100Y005108D01*
X031100Y005050D02*
X031160Y005050D01*
X031160Y004991D02*
X031100Y004991D01*
X031100Y004933D02*
X031160Y004933D01*
X031160Y004874D02*
X031100Y004874D01*
X031100Y004816D02*
X031160Y004816D01*
X031160Y004757D02*
X031100Y004757D01*
X031100Y004699D02*
X031160Y004699D01*
X031511Y005284D02*
X031513Y005284D01*
X031537Y005342D02*
X031457Y005342D01*
X031380Y005401D02*
X031578Y005401D01*
X031031Y005459D02*
X030623Y005459D01*
X030682Y005401D02*
X030880Y005401D01*
X030803Y005342D02*
X030723Y005342D01*
X030747Y005284D02*
X030749Y005284D01*
X032490Y005576D02*
X040081Y005576D01*
X040022Y005518D02*
X032565Y005518D01*
X032623Y005459D02*
X039964Y005459D01*
X039905Y005401D02*
X032682Y005401D01*
X032723Y005342D02*
X039847Y005342D01*
X039788Y005284D02*
X032747Y005284D01*
X032771Y005225D02*
X039730Y005225D01*
X039671Y005167D02*
X032795Y005167D01*
X032814Y005108D02*
X039613Y005108D01*
X039554Y005050D02*
X032814Y005050D01*
X032814Y004991D02*
X039496Y004991D01*
X039437Y004933D02*
X032814Y004933D01*
X032814Y004874D02*
X039379Y004874D01*
X039320Y004816D02*
X032814Y004816D01*
X032814Y004757D02*
X039262Y004757D01*
X039203Y004699D02*
X032814Y004699D01*
X032814Y004640D02*
X039145Y004640D01*
X039086Y004582D02*
X032814Y004582D01*
X032814Y004523D02*
X039028Y004523D01*
X038969Y004465D02*
X032814Y004465D01*
X032814Y004406D02*
X038911Y004406D01*
X038852Y004348D02*
X032814Y004348D01*
X032814Y004289D02*
X038794Y004289D01*
X038735Y004231D02*
X032814Y004231D01*
X032814Y004172D02*
X038677Y004172D01*
X038618Y004114D02*
X032804Y004114D01*
X032779Y004055D02*
X038560Y004055D01*
X038501Y003997D02*
X032755Y003997D01*
X032731Y003938D02*
X038443Y003938D01*
X040487Y002242D02*
X048906Y002242D01*
X048882Y002300D02*
X040545Y002300D01*
X040604Y002359D02*
X048858Y002359D01*
X048833Y002417D02*
X040662Y002417D01*
X040721Y002476D02*
X048813Y002476D01*
X048813Y002534D02*
X040779Y002534D01*
X040838Y002593D02*
X048813Y002593D01*
X048813Y002651D02*
X040896Y002651D01*
X040955Y002710D02*
X048813Y002710D01*
X048813Y002768D02*
X041013Y002768D01*
X041072Y002827D02*
X048827Y002827D01*
X048851Y002885D02*
X041130Y002885D01*
X041189Y002944D02*
X048875Y002944D01*
X048899Y003002D02*
X041247Y003002D01*
X041306Y003061D02*
X048924Y003061D01*
X048963Y003119D02*
X041364Y003119D01*
X041423Y003178D02*
X049022Y003178D01*
X049080Y003236D02*
X041481Y003236D01*
X041540Y003295D02*
X049139Y003295D01*
X049240Y003353D02*
X041598Y003353D01*
X045045Y007565D02*
X050895Y007565D01*
X043662Y015907D02*
X035652Y015907D01*
X036991Y017246D01*
X037001Y017250D01*
X037185Y017434D01*
X037240Y017568D01*
X037241Y017567D01*
X037283Y017509D01*
X037334Y017458D01*
X037392Y017416D01*
X037455Y017384D01*
X037523Y017362D01*
X037594Y017350D01*
X037600Y017350D01*
X037600Y018100D01*
X037660Y018100D01*
X037660Y018160D01*
X038085Y018160D01*
X038085Y018491D01*
X038074Y018561D01*
X038051Y018629D01*
X038019Y018693D01*
X037977Y018751D01*
X037926Y018802D01*
X037868Y018844D01*
X037850Y018853D01*
X042662Y018853D01*
X042707Y018808D01*
X043475Y018040D01*
X043475Y017675D01*
X043575Y017434D01*
X043759Y017250D01*
X044000Y017150D01*
X044260Y017150D01*
X044501Y017250D01*
X044603Y017352D01*
X044603Y016848D01*
X043662Y015907D01*
X043685Y015931D02*
X035676Y015931D01*
X035734Y015989D02*
X043744Y015989D01*
X043802Y016048D02*
X035793Y016048D01*
X035851Y016106D02*
X043861Y016106D01*
X043919Y016165D02*
X035910Y016165D01*
X035968Y016223D02*
X043978Y016223D01*
X044036Y016282D02*
X036027Y016282D01*
X036085Y016340D02*
X044095Y016340D01*
X044153Y016399D02*
X036144Y016399D01*
X036202Y016457D02*
X044212Y016457D01*
X044270Y016516D02*
X036261Y016516D01*
X036319Y016574D02*
X044329Y016574D01*
X044387Y016633D02*
X036378Y016633D01*
X036436Y016691D02*
X044446Y016691D01*
X044504Y016750D02*
X036495Y016750D01*
X036553Y016808D02*
X044563Y016808D01*
X044603Y016867D02*
X036612Y016867D01*
X036670Y016925D02*
X044603Y016925D01*
X044603Y016984D02*
X036729Y016984D01*
X036787Y017042D02*
X044603Y017042D01*
X044603Y017101D02*
X036846Y017101D01*
X036904Y017159D02*
X043979Y017159D01*
X043838Y017218D02*
X036963Y017218D01*
X037027Y017276D02*
X043733Y017276D01*
X043675Y017335D02*
X037085Y017335D01*
X037144Y017393D02*
X037437Y017393D01*
X037343Y017452D02*
X037192Y017452D01*
X037217Y017510D02*
X037282Y017510D01*
X037600Y017510D02*
X037660Y017510D01*
X037660Y017452D02*
X037600Y017452D01*
X037600Y017393D02*
X037660Y017393D01*
X037660Y017350D02*
X037666Y017350D01*
X037736Y017362D01*
X037805Y017384D01*
X037868Y017416D01*
X037926Y017458D01*
X037977Y017509D01*
X038019Y017567D01*
X038051Y017631D01*
X038074Y017699D01*
X038085Y017769D01*
X038085Y018100D01*
X037660Y018100D01*
X037660Y017350D01*
X037823Y017393D02*
X043616Y017393D01*
X043568Y017452D02*
X037917Y017452D01*
X037978Y017510D02*
X043543Y017510D01*
X043519Y017569D02*
X038020Y017569D01*
X038050Y017627D02*
X043495Y017627D01*
X043475Y017686D02*
X038069Y017686D01*
X038081Y017744D02*
X043475Y017744D01*
X043475Y017803D02*
X038085Y017803D01*
X038085Y017861D02*
X043475Y017861D01*
X043475Y017920D02*
X038085Y017920D01*
X038085Y017978D02*
X043475Y017978D01*
X043475Y018037D02*
X038085Y018037D01*
X038085Y018095D02*
X043420Y018095D01*
X043361Y018154D02*
X037660Y018154D01*
X037660Y018095D02*
X037600Y018095D01*
X037600Y018037D02*
X037660Y018037D01*
X037660Y017978D02*
X037600Y017978D01*
X037600Y017920D02*
X037660Y017920D01*
X037660Y017861D02*
X037600Y017861D01*
X037600Y017803D02*
X037660Y017803D01*
X037660Y017744D02*
X037600Y017744D01*
X037600Y017686D02*
X037660Y017686D01*
X037660Y017627D02*
X037600Y017627D01*
X037600Y017569D02*
X037660Y017569D01*
X038085Y018212D02*
X043303Y018212D01*
X043244Y018271D02*
X038085Y018271D01*
X038085Y018329D02*
X043186Y018329D01*
X043127Y018388D02*
X038085Y018388D01*
X038085Y018446D02*
X043069Y018446D01*
X043010Y018505D02*
X038083Y018505D01*
X038073Y018563D02*
X042952Y018563D01*
X042893Y018622D02*
X038054Y018622D01*
X038026Y018680D02*
X042835Y018680D01*
X042776Y018739D02*
X037986Y018739D01*
X037931Y018797D02*
X042718Y018797D01*
X042707Y018808D02*
X042707Y018808D01*
X044281Y017159D02*
X044603Y017159D01*
X044603Y017218D02*
X044422Y017218D01*
X044527Y017276D02*
X044603Y017276D01*
X044603Y017335D02*
X044585Y017335D01*
X046692Y017452D02*
X046843Y017452D01*
X046782Y017510D02*
X046717Y017510D01*
X047000Y027150D02*
X046759Y027250D01*
X046630Y027379D01*
X046501Y027250D01*
X046260Y027150D01*
X046000Y027150D01*
X045759Y027250D01*
X045630Y027379D01*
X045501Y027250D01*
X045260Y027150D01*
X045000Y027150D01*
X044759Y027250D01*
X044630Y027379D01*
X044501Y027250D01*
X044260Y027150D01*
X044000Y027150D01*
X043759Y027250D01*
X043630Y027379D01*
X043501Y027250D01*
X043260Y027150D01*
X043000Y027150D01*
X042759Y027250D01*
X042575Y027434D01*
X042475Y027675D01*
X042475Y028585D01*
X042575Y028826D01*
X042759Y029010D01*
X043000Y029110D01*
X043260Y029110D01*
X043501Y029010D01*
X043630Y028881D01*
X043759Y029010D01*
X044000Y029110D01*
X044260Y029110D01*
X044501Y029010D01*
X044603Y028908D01*
X044603Y030412D01*
X043278Y031737D01*
X043120Y031737D01*
X042803Y031868D01*
X042561Y032111D01*
X042430Y032427D01*
X042430Y033833D01*
X042561Y034149D01*
X042803Y034392D01*
X043120Y034523D01*
X043463Y034523D01*
X043779Y034392D01*
X044022Y034149D01*
X044071Y034031D01*
X044120Y034149D01*
X044362Y034392D01*
X044679Y034523D01*
X045022Y034523D01*
X045338Y034392D01*
X045581Y034149D01*
X045630Y034031D01*
X045679Y034149D01*
X045922Y034392D01*
X046238Y034523D01*
X046581Y034523D01*
X046898Y034392D01*
X047140Y034149D01*
X047189Y034031D01*
X047238Y034149D01*
X047481Y034392D01*
X047797Y034523D01*
X048140Y034523D01*
X048457Y034392D01*
X048699Y034149D01*
X048830Y033833D01*
X048830Y032427D01*
X048699Y032111D01*
X048657Y032068D01*
X048657Y028854D01*
X048685Y028826D01*
X048785Y028585D01*
X048785Y027675D01*
X048685Y027434D01*
X048501Y027250D01*
X048260Y027150D01*
X048000Y027150D01*
X047759Y027250D01*
X047630Y027379D01*
X047501Y027250D01*
X047260Y027150D01*
X047000Y027150D01*
X046970Y027163D02*
X046290Y027163D01*
X046431Y027221D02*
X046829Y027221D01*
X046730Y027280D02*
X046530Y027280D01*
X046589Y027338D02*
X046671Y027338D01*
X047290Y027163D02*
X047970Y027163D01*
X047829Y027221D02*
X047431Y027221D01*
X047530Y027280D02*
X047730Y027280D01*
X047671Y027338D02*
X047589Y027338D01*
X048290Y027163D02*
X050895Y027163D01*
X050895Y027221D02*
X048431Y027221D01*
X048530Y027280D02*
X050895Y027280D01*
X050895Y027338D02*
X048589Y027338D01*
X048647Y027397D02*
X050895Y027397D01*
X050895Y027455D02*
X048694Y027455D01*
X048718Y027514D02*
X050895Y027514D01*
X050895Y027572D02*
X048742Y027572D01*
X048766Y027631D02*
X050895Y027631D01*
X050895Y027689D02*
X048785Y027689D01*
X048785Y027748D02*
X050895Y027748D01*
X050895Y027806D02*
X048785Y027806D01*
X048785Y027865D02*
X050895Y027865D01*
X050895Y027923D02*
X048785Y027923D01*
X048785Y027982D02*
X050895Y027982D01*
X050895Y028040D02*
X048785Y028040D01*
X048785Y028099D02*
X050895Y028099D01*
X050895Y028157D02*
X048785Y028157D01*
X048785Y028216D02*
X050895Y028216D01*
X050895Y028274D02*
X048785Y028274D01*
X048785Y028333D02*
X050895Y028333D01*
X050895Y028391D02*
X048785Y028391D01*
X048785Y028450D02*
X050895Y028450D01*
X050895Y028508D02*
X048785Y028508D01*
X048785Y028567D02*
X050895Y028567D01*
X050895Y028625D02*
X048768Y028625D01*
X048744Y028684D02*
X050895Y028684D01*
X050895Y028742D02*
X048720Y028742D01*
X048696Y028801D02*
X050895Y028801D01*
X050895Y028859D02*
X048657Y028859D01*
X048657Y028918D02*
X050895Y028918D01*
X050895Y028976D02*
X048657Y028976D01*
X048657Y029035D02*
X050895Y029035D01*
X050895Y029093D02*
X048657Y029093D01*
X048657Y029152D02*
X050895Y029152D01*
X050895Y029210D02*
X048657Y029210D01*
X048657Y029269D02*
X050895Y029269D01*
X050895Y029327D02*
X048657Y029327D01*
X048657Y029386D02*
X050895Y029386D01*
X050895Y029444D02*
X048657Y029444D01*
X048657Y029503D02*
X050895Y029503D01*
X050895Y029561D02*
X048657Y029561D01*
X048657Y029620D02*
X050895Y029620D01*
X050895Y029678D02*
X048657Y029678D01*
X048657Y029737D02*
X050895Y029737D01*
X050895Y029795D02*
X048657Y029795D01*
X048657Y029854D02*
X050895Y029854D01*
X050895Y029912D02*
X048657Y029912D01*
X048657Y029971D02*
X050895Y029971D01*
X050895Y030029D02*
X048657Y030029D01*
X048657Y030088D02*
X050895Y030088D01*
X050895Y030146D02*
X048657Y030146D01*
X048657Y030205D02*
X050895Y030205D01*
X050895Y030263D02*
X048657Y030263D01*
X048657Y030322D02*
X050895Y030322D01*
X050895Y030380D02*
X048657Y030380D01*
X048657Y030439D02*
X050895Y030439D01*
X050895Y030497D02*
X048657Y030497D01*
X048657Y030556D02*
X050895Y030556D01*
X050895Y030614D02*
X048657Y030614D01*
X048657Y030673D02*
X050895Y030673D01*
X050895Y030731D02*
X048657Y030731D01*
X048657Y030790D02*
X050895Y030790D01*
X050895Y030848D02*
X048657Y030848D01*
X048657Y030907D02*
X050895Y030907D01*
X050895Y030965D02*
X048657Y030965D01*
X048657Y031024D02*
X050895Y031024D01*
X050895Y031082D02*
X048657Y031082D01*
X048657Y031141D02*
X050895Y031141D01*
X050895Y031199D02*
X048657Y031199D01*
X048657Y031258D02*
X050895Y031258D01*
X050895Y031316D02*
X048657Y031316D01*
X048657Y031375D02*
X050895Y031375D01*
X050895Y031433D02*
X048657Y031433D01*
X048657Y031492D02*
X050895Y031492D01*
X050895Y031550D02*
X048657Y031550D01*
X048657Y031609D02*
X050895Y031609D01*
X050895Y031667D02*
X048657Y031667D01*
X048657Y031726D02*
X050895Y031726D01*
X050895Y031784D02*
X048657Y031784D01*
X048657Y031843D02*
X050895Y031843D01*
X050895Y031901D02*
X048657Y031901D01*
X048657Y031960D02*
X050895Y031960D01*
X050895Y032018D02*
X048657Y032018D01*
X048665Y032077D02*
X050895Y032077D01*
X050895Y032135D02*
X048709Y032135D01*
X048733Y032194D02*
X050895Y032194D01*
X050895Y032252D02*
X048758Y032252D01*
X048782Y032311D02*
X050895Y032311D01*
X050895Y032369D02*
X048806Y032369D01*
X048830Y032428D02*
X050895Y032428D01*
X050895Y032486D02*
X048830Y032486D01*
X048830Y032545D02*
X050895Y032545D01*
X050895Y032603D02*
X048830Y032603D01*
X048830Y032662D02*
X050895Y032662D01*
X050895Y032720D02*
X048830Y032720D01*
X048830Y032779D02*
X050895Y032779D01*
X050895Y032837D02*
X048830Y032837D01*
X048830Y032896D02*
X050895Y032896D01*
X050895Y032954D02*
X048830Y032954D01*
X048830Y033013D02*
X050895Y033013D01*
X050895Y033071D02*
X048830Y033071D01*
X048830Y033130D02*
X050895Y033130D01*
X050895Y033188D02*
X048830Y033188D01*
X048830Y033247D02*
X050895Y033247D01*
X050895Y033305D02*
X048830Y033305D01*
X048830Y033364D02*
X050895Y033364D01*
X050895Y033422D02*
X048830Y033422D01*
X048830Y033481D02*
X050895Y033481D01*
X050895Y033539D02*
X048830Y033539D01*
X048830Y033598D02*
X050895Y033598D01*
X050895Y033656D02*
X048830Y033656D01*
X048830Y033715D02*
X050895Y033715D01*
X050895Y033773D02*
X048830Y033773D01*
X048830Y033832D02*
X050895Y033832D01*
X050895Y033890D02*
X048806Y033890D01*
X048782Y033949D02*
X050895Y033949D01*
X050895Y034007D02*
X048758Y034007D01*
X048734Y034066D02*
X050895Y034066D01*
X050895Y034124D02*
X048709Y034124D01*
X048666Y034183D02*
X050895Y034183D01*
X050895Y034241D02*
X048607Y034241D01*
X048549Y034300D02*
X050895Y034300D01*
X050895Y034358D02*
X048490Y034358D01*
X048397Y034417D02*
X050895Y034417D01*
X050895Y034475D02*
X048255Y034475D01*
X047682Y034475D02*
X046696Y034475D01*
X046838Y034417D02*
X047540Y034417D01*
X047447Y034358D02*
X046931Y034358D01*
X046990Y034300D02*
X047388Y034300D01*
X047330Y034241D02*
X047048Y034241D01*
X047107Y034183D02*
X047271Y034183D01*
X047228Y034124D02*
X047150Y034124D01*
X047175Y034066D02*
X047204Y034066D01*
X046123Y034475D02*
X045137Y034475D01*
X045279Y034417D02*
X045981Y034417D01*
X045888Y034358D02*
X045372Y034358D01*
X045431Y034300D02*
X045829Y034300D01*
X045771Y034241D02*
X045489Y034241D01*
X045548Y034183D02*
X045712Y034183D01*
X045669Y034124D02*
X045591Y034124D01*
X045616Y034066D02*
X045644Y034066D01*
X044564Y034475D02*
X043578Y034475D01*
X043720Y034417D02*
X044422Y034417D01*
X044329Y034358D02*
X043813Y034358D01*
X043872Y034300D02*
X044270Y034300D01*
X044212Y034241D02*
X043930Y034241D01*
X043989Y034183D02*
X044153Y034183D01*
X044110Y034124D02*
X044032Y034124D01*
X044056Y034066D02*
X044085Y034066D01*
X043005Y034475D02*
X038255Y034475D01*
X038140Y034523D02*
X037797Y034523D01*
X037481Y034392D01*
X037238Y034149D01*
X037189Y034031D01*
X037140Y034149D01*
X036898Y034392D01*
X036581Y034523D01*
X036238Y034523D01*
X035922Y034392D01*
X035679Y034149D01*
X035630Y034031D01*
X035581Y034149D01*
X035338Y034392D01*
X035022Y034523D01*
X034679Y034523D01*
X034362Y034392D01*
X034120Y034149D01*
X034071Y034031D01*
X034022Y034149D01*
X033779Y034392D01*
X033463Y034523D01*
X033120Y034523D01*
X032803Y034392D01*
X032561Y034149D01*
X032430Y033833D01*
X032430Y032427D01*
X032561Y032111D01*
X032803Y031868D01*
X033120Y031737D01*
X033278Y031737D01*
X035103Y029912D01*
X029657Y029912D01*
X029657Y029854D02*
X035103Y029854D01*
X035103Y029912D02*
X035103Y028908D01*
X035001Y029010D01*
X034760Y029110D01*
X034500Y029110D01*
X034259Y029010D01*
X034130Y028881D01*
X034001Y029010D01*
X033760Y029110D01*
X033500Y029110D01*
X033259Y029010D01*
X033075Y028826D01*
X032975Y028585D01*
X032975Y027675D01*
X033075Y027434D01*
X033259Y027250D01*
X033500Y027150D01*
X033760Y027150D01*
X034001Y027250D01*
X034130Y027379D01*
X034259Y027250D01*
X034500Y027150D01*
X034760Y027150D01*
X035001Y027250D01*
X035130Y027379D01*
X035259Y027250D01*
X035500Y027150D01*
X035760Y027150D01*
X036001Y027250D01*
X036130Y027379D01*
X036259Y027250D01*
X036500Y027150D01*
X036760Y027150D01*
X037001Y027250D01*
X037130Y027379D01*
X037259Y027250D01*
X037500Y027150D01*
X037760Y027150D01*
X038001Y027250D01*
X038130Y027379D01*
X038259Y027250D01*
X038500Y027150D01*
X038760Y027150D01*
X039001Y027250D01*
X039185Y027434D01*
X039285Y027675D01*
X039285Y028585D01*
X039185Y028826D01*
X039157Y028854D01*
X039157Y033235D01*
X039077Y033428D01*
X038928Y033577D01*
X038830Y033617D01*
X038830Y033833D01*
X038699Y034149D01*
X038457Y034392D01*
X038140Y034523D01*
X038397Y034417D02*
X042863Y034417D01*
X042770Y034358D02*
X038490Y034358D01*
X038549Y034300D02*
X042711Y034300D01*
X042653Y034241D02*
X038607Y034241D01*
X038666Y034183D02*
X042594Y034183D01*
X042551Y034124D02*
X038709Y034124D01*
X038734Y034066D02*
X042526Y034066D01*
X042502Y034007D02*
X038758Y034007D01*
X038782Y033949D02*
X042478Y033949D01*
X042454Y033890D02*
X038806Y033890D01*
X038830Y033832D02*
X042430Y033832D01*
X042430Y033773D02*
X038830Y033773D01*
X038830Y033715D02*
X042430Y033715D01*
X042430Y033656D02*
X038830Y033656D01*
X038878Y033598D02*
X042430Y033598D01*
X042430Y033539D02*
X038966Y033539D01*
X039024Y033481D02*
X042430Y033481D01*
X042430Y033422D02*
X039079Y033422D01*
X039103Y033364D02*
X042430Y033364D01*
X042430Y033305D02*
X039128Y033305D01*
X039152Y033247D02*
X042430Y033247D01*
X042430Y033188D02*
X039157Y033188D01*
X039157Y033130D02*
X042430Y033130D01*
X042430Y033071D02*
X039157Y033071D01*
X039157Y033013D02*
X042430Y033013D01*
X042430Y032954D02*
X039157Y032954D01*
X039157Y032896D02*
X042430Y032896D01*
X042430Y032837D02*
X039157Y032837D01*
X039157Y032779D02*
X042430Y032779D01*
X042430Y032720D02*
X039157Y032720D01*
X039157Y032662D02*
X042430Y032662D01*
X042430Y032603D02*
X039157Y032603D01*
X039157Y032545D02*
X042430Y032545D01*
X042430Y032486D02*
X039157Y032486D01*
X039157Y032428D02*
X042430Y032428D01*
X042454Y032369D02*
X039157Y032369D01*
X039157Y032311D02*
X042478Y032311D01*
X042502Y032252D02*
X039157Y032252D01*
X039157Y032194D02*
X042527Y032194D01*
X042551Y032135D02*
X039157Y032135D01*
X039157Y032077D02*
X042595Y032077D01*
X042653Y032018D02*
X039157Y032018D01*
X039157Y031960D02*
X042712Y031960D01*
X042770Y031901D02*
X039157Y031901D01*
X039157Y031843D02*
X042865Y031843D01*
X043006Y031784D02*
X039157Y031784D01*
X039157Y031726D02*
X043289Y031726D01*
X043348Y031667D02*
X039157Y031667D01*
X039157Y031609D02*
X043406Y031609D01*
X043465Y031550D02*
X039157Y031550D01*
X039157Y031492D02*
X043523Y031492D01*
X043582Y031433D02*
X039157Y031433D01*
X039157Y031375D02*
X043640Y031375D01*
X043699Y031316D02*
X039157Y031316D01*
X039157Y031258D02*
X043757Y031258D01*
X043816Y031199D02*
X039157Y031199D01*
X039157Y031141D02*
X043874Y031141D01*
X043933Y031082D02*
X039157Y031082D01*
X039157Y031024D02*
X043991Y031024D01*
X044050Y030965D02*
X039157Y030965D01*
X039157Y030907D02*
X044108Y030907D01*
X044167Y030848D02*
X039157Y030848D01*
X039157Y030790D02*
X044225Y030790D01*
X044284Y030731D02*
X039157Y030731D01*
X039157Y030673D02*
X044342Y030673D01*
X044401Y030614D02*
X039157Y030614D01*
X039157Y030556D02*
X044459Y030556D01*
X044518Y030497D02*
X039157Y030497D01*
X039157Y030439D02*
X044576Y030439D01*
X044603Y030380D02*
X039157Y030380D01*
X039157Y030322D02*
X044603Y030322D01*
X044603Y030263D02*
X039157Y030263D01*
X039157Y030205D02*
X044603Y030205D01*
X044603Y030146D02*
X039157Y030146D01*
X039157Y030088D02*
X044603Y030088D01*
X044603Y030029D02*
X039157Y030029D01*
X039157Y029971D02*
X044603Y029971D01*
X044603Y029912D02*
X039157Y029912D01*
X039157Y029854D02*
X044603Y029854D01*
X044603Y029795D02*
X039157Y029795D01*
X039157Y029737D02*
X044603Y029737D01*
X044603Y029678D02*
X039157Y029678D01*
X039157Y029620D02*
X044603Y029620D01*
X044603Y029561D02*
X039157Y029561D01*
X039157Y029503D02*
X044603Y029503D01*
X044603Y029444D02*
X039157Y029444D01*
X039157Y029386D02*
X044603Y029386D01*
X044603Y029327D02*
X039157Y029327D01*
X039157Y029269D02*
X044603Y029269D01*
X044603Y029210D02*
X039157Y029210D01*
X039157Y029152D02*
X044603Y029152D01*
X044603Y029093D02*
X044300Y029093D01*
X044441Y029035D02*
X044603Y029035D01*
X044603Y028976D02*
X044535Y028976D01*
X044593Y028918D02*
X044603Y028918D01*
X043960Y029093D02*
X043300Y029093D01*
X043441Y029035D02*
X043819Y029035D01*
X043725Y028976D02*
X043535Y028976D01*
X043593Y028918D02*
X043667Y028918D01*
X042960Y029093D02*
X039157Y029093D01*
X039157Y029035D02*
X042819Y029035D01*
X042725Y028976D02*
X039157Y028976D01*
X039157Y028918D02*
X042667Y028918D01*
X042608Y028859D02*
X039157Y028859D01*
X039196Y028801D02*
X042564Y028801D01*
X042540Y028742D02*
X039220Y028742D01*
X039244Y028684D02*
X042516Y028684D01*
X042492Y028625D02*
X039268Y028625D01*
X039285Y028567D02*
X042475Y028567D01*
X042475Y028508D02*
X039285Y028508D01*
X039285Y028450D02*
X042475Y028450D01*
X042475Y028391D02*
X039285Y028391D01*
X039285Y028333D02*
X042475Y028333D01*
X042475Y028274D02*
X039285Y028274D01*
X039285Y028216D02*
X042475Y028216D01*
X042475Y028157D02*
X039285Y028157D01*
X039285Y028099D02*
X042475Y028099D01*
X042475Y028040D02*
X039285Y028040D01*
X039285Y027982D02*
X042475Y027982D01*
X042475Y027923D02*
X039285Y027923D01*
X039285Y027865D02*
X042475Y027865D01*
X042475Y027806D02*
X039285Y027806D01*
X039285Y027748D02*
X042475Y027748D01*
X042475Y027689D02*
X039285Y027689D01*
X039266Y027631D02*
X042494Y027631D01*
X042518Y027572D02*
X039242Y027572D01*
X039218Y027514D02*
X042542Y027514D01*
X042566Y027455D02*
X039194Y027455D01*
X039147Y027397D02*
X042613Y027397D01*
X042671Y027338D02*
X039089Y027338D01*
X039030Y027280D02*
X042730Y027280D01*
X042829Y027221D02*
X038931Y027221D01*
X038790Y027163D02*
X042970Y027163D01*
X043290Y027163D02*
X043970Y027163D01*
X043829Y027221D02*
X043431Y027221D01*
X043530Y027280D02*
X043730Y027280D01*
X043671Y027338D02*
X043589Y027338D01*
X044290Y027163D02*
X044970Y027163D01*
X044829Y027221D02*
X044431Y027221D01*
X044530Y027280D02*
X044730Y027280D01*
X044671Y027338D02*
X044589Y027338D01*
X045290Y027163D02*
X045970Y027163D01*
X045829Y027221D02*
X045431Y027221D01*
X045530Y027280D02*
X045730Y027280D01*
X045671Y027338D02*
X045589Y027338D01*
X038470Y027163D02*
X037790Y027163D01*
X037931Y027221D02*
X038329Y027221D01*
X038230Y027280D02*
X038030Y027280D01*
X038089Y027338D02*
X038171Y027338D01*
X037470Y027163D02*
X036790Y027163D01*
X036931Y027221D02*
X037329Y027221D01*
X037230Y027280D02*
X037030Y027280D01*
X037089Y027338D02*
X037171Y027338D01*
X036470Y027163D02*
X035790Y027163D01*
X035931Y027221D02*
X036329Y027221D01*
X036230Y027280D02*
X036030Y027280D01*
X036089Y027338D02*
X036171Y027338D01*
X035470Y027163D02*
X034790Y027163D01*
X034931Y027221D02*
X035329Y027221D01*
X035230Y027280D02*
X035030Y027280D01*
X035089Y027338D02*
X035171Y027338D01*
X034470Y027163D02*
X033790Y027163D01*
X033931Y027221D02*
X034329Y027221D01*
X034230Y027280D02*
X034030Y027280D01*
X034089Y027338D02*
X034171Y027338D01*
X033470Y027163D02*
X029290Y027163D01*
X029260Y027150D02*
X029501Y027250D01*
X029685Y027434D01*
X029785Y027675D01*
X029785Y028585D01*
X029685Y028826D01*
X029657Y028854D01*
X029657Y032068D01*
X029699Y032111D01*
X029830Y032427D01*
X029830Y033833D01*
X029699Y034149D01*
X029457Y034392D01*
X029140Y034523D01*
X028797Y034523D01*
X028481Y034392D01*
X028238Y034149D01*
X028189Y034031D01*
X028140Y034149D01*
X027898Y034392D01*
X027581Y034523D01*
X027238Y034523D01*
X026922Y034392D01*
X026679Y034149D01*
X026630Y034031D01*
X026581Y034149D01*
X026338Y034392D01*
X026022Y034523D01*
X025679Y034523D01*
X025362Y034392D01*
X025120Y034149D01*
X025071Y034031D01*
X025022Y034149D01*
X024779Y034392D01*
X024463Y034523D01*
X024120Y034523D01*
X023803Y034392D01*
X023561Y034149D01*
X023430Y033833D01*
X023430Y032427D01*
X023561Y032111D01*
X023803Y031868D01*
X024120Y031737D01*
X024278Y031737D01*
X025603Y030412D01*
X025603Y028908D01*
X025501Y029010D01*
X025260Y029110D01*
X025000Y029110D01*
X024759Y029010D01*
X024630Y028881D01*
X024501Y029010D01*
X024260Y029110D01*
X024000Y029110D01*
X023759Y029010D01*
X023575Y028826D01*
X023475Y028585D01*
X023475Y027675D01*
X023575Y027434D01*
X023759Y027250D01*
X024000Y027150D01*
X024260Y027150D01*
X024501Y027250D01*
X024630Y027379D01*
X024759Y027250D01*
X025000Y027150D01*
X025260Y027150D01*
X025501Y027250D01*
X025630Y027379D01*
X025759Y027250D01*
X026000Y027150D01*
X026260Y027150D01*
X026501Y027250D01*
X026630Y027379D01*
X026759Y027250D01*
X027000Y027150D01*
X027260Y027150D01*
X027501Y027250D01*
X027630Y027379D01*
X027759Y027250D01*
X028000Y027150D01*
X028260Y027150D01*
X028501Y027250D01*
X028630Y027379D01*
X028759Y027250D01*
X029000Y027150D01*
X029260Y027150D01*
X029431Y027221D02*
X033329Y027221D01*
X033230Y027280D02*
X029530Y027280D01*
X029589Y027338D02*
X033171Y027338D01*
X033113Y027397D02*
X029647Y027397D01*
X029694Y027455D02*
X033066Y027455D01*
X033042Y027514D02*
X029718Y027514D01*
X029742Y027572D02*
X033018Y027572D01*
X032994Y027631D02*
X029766Y027631D01*
X029785Y027689D02*
X032975Y027689D01*
X032975Y027748D02*
X029785Y027748D01*
X029785Y027806D02*
X032975Y027806D01*
X032975Y027865D02*
X029785Y027865D01*
X029785Y027923D02*
X032975Y027923D01*
X032975Y027982D02*
X029785Y027982D01*
X029785Y028040D02*
X032975Y028040D01*
X032975Y028099D02*
X029785Y028099D01*
X029785Y028157D02*
X032975Y028157D01*
X032975Y028216D02*
X029785Y028216D01*
X029785Y028274D02*
X032975Y028274D01*
X032975Y028333D02*
X029785Y028333D01*
X029785Y028391D02*
X032975Y028391D01*
X032975Y028450D02*
X029785Y028450D01*
X029785Y028508D02*
X032975Y028508D01*
X032975Y028567D02*
X029785Y028567D01*
X029768Y028625D02*
X032992Y028625D01*
X033016Y028684D02*
X029744Y028684D01*
X029720Y028742D02*
X033040Y028742D01*
X033064Y028801D02*
X029696Y028801D01*
X029657Y028859D02*
X033108Y028859D01*
X033167Y028918D02*
X029657Y028918D01*
X029657Y028976D02*
X033225Y028976D01*
X033319Y029035D02*
X029657Y029035D01*
X029657Y029093D02*
X033460Y029093D01*
X033800Y029093D02*
X034460Y029093D01*
X034319Y029035D02*
X033941Y029035D01*
X034035Y028976D02*
X034225Y028976D01*
X034167Y028918D02*
X034093Y028918D01*
X034800Y029093D02*
X035103Y029093D01*
X035103Y029035D02*
X034941Y029035D01*
X035035Y028976D02*
X035103Y028976D01*
X035093Y028918D02*
X035103Y028918D01*
X035103Y029152D02*
X029657Y029152D01*
X029657Y029210D02*
X035103Y029210D01*
X035103Y029269D02*
X029657Y029269D01*
X029657Y029327D02*
X035103Y029327D01*
X035103Y029386D02*
X029657Y029386D01*
X029657Y029444D02*
X035103Y029444D01*
X035103Y029503D02*
X029657Y029503D01*
X029657Y029561D02*
X035103Y029561D01*
X035103Y029620D02*
X029657Y029620D01*
X029657Y029678D02*
X035103Y029678D01*
X035103Y029737D02*
X029657Y029737D01*
X029657Y029795D02*
X035103Y029795D01*
X035044Y029971D02*
X029657Y029971D01*
X029657Y030029D02*
X034986Y030029D01*
X034927Y030088D02*
X029657Y030088D01*
X029657Y030146D02*
X034869Y030146D01*
X034810Y030205D02*
X029657Y030205D01*
X029657Y030263D02*
X034752Y030263D01*
X034693Y030322D02*
X029657Y030322D01*
X029657Y030380D02*
X034635Y030380D01*
X034576Y030439D02*
X029657Y030439D01*
X029657Y030497D02*
X034518Y030497D01*
X034459Y030556D02*
X029657Y030556D01*
X029657Y030614D02*
X034401Y030614D01*
X034342Y030673D02*
X029657Y030673D01*
X029657Y030731D02*
X034284Y030731D01*
X034225Y030790D02*
X029657Y030790D01*
X029657Y030848D02*
X034167Y030848D01*
X034108Y030907D02*
X029657Y030907D01*
X029657Y030965D02*
X034050Y030965D01*
X033991Y031024D02*
X029657Y031024D01*
X029657Y031082D02*
X033933Y031082D01*
X033874Y031141D02*
X029657Y031141D01*
X029657Y031199D02*
X033816Y031199D01*
X033757Y031258D02*
X029657Y031258D01*
X029657Y031316D02*
X033699Y031316D01*
X033640Y031375D02*
X029657Y031375D01*
X029657Y031433D02*
X033582Y031433D01*
X033523Y031492D02*
X029657Y031492D01*
X029657Y031550D02*
X033465Y031550D01*
X033406Y031609D02*
X029657Y031609D01*
X029657Y031667D02*
X033348Y031667D01*
X033289Y031726D02*
X029657Y031726D01*
X029657Y031784D02*
X033006Y031784D01*
X032865Y031843D02*
X029657Y031843D01*
X029657Y031901D02*
X032770Y031901D01*
X032712Y031960D02*
X029657Y031960D01*
X029657Y032018D02*
X032653Y032018D01*
X032595Y032077D02*
X029665Y032077D01*
X029709Y032135D02*
X032551Y032135D01*
X032527Y032194D02*
X029733Y032194D01*
X029758Y032252D02*
X032502Y032252D01*
X032478Y032311D02*
X029782Y032311D01*
X029806Y032369D02*
X032454Y032369D01*
X032430Y032428D02*
X029830Y032428D01*
X029830Y032486D02*
X032430Y032486D01*
X032430Y032545D02*
X029830Y032545D01*
X029830Y032603D02*
X032430Y032603D01*
X032430Y032662D02*
X029830Y032662D01*
X029830Y032720D02*
X032430Y032720D01*
X032430Y032779D02*
X029830Y032779D01*
X029830Y032837D02*
X032430Y032837D01*
X032430Y032896D02*
X029830Y032896D01*
X029830Y032954D02*
X032430Y032954D01*
X032430Y033013D02*
X029830Y033013D01*
X029830Y033071D02*
X032430Y033071D01*
X032430Y033130D02*
X029830Y033130D01*
X029830Y033188D02*
X032430Y033188D01*
X032430Y033247D02*
X029830Y033247D01*
X029830Y033305D02*
X032430Y033305D01*
X032430Y033364D02*
X029830Y033364D01*
X029830Y033422D02*
X032430Y033422D01*
X032430Y033481D02*
X029830Y033481D01*
X029830Y033539D02*
X032430Y033539D01*
X032430Y033598D02*
X029830Y033598D01*
X029830Y033656D02*
X032430Y033656D01*
X032430Y033715D02*
X029830Y033715D01*
X029830Y033773D02*
X032430Y033773D01*
X032430Y033832D02*
X029830Y033832D01*
X029806Y033890D02*
X032454Y033890D01*
X032478Y033949D02*
X029782Y033949D01*
X029758Y034007D02*
X032502Y034007D01*
X032526Y034066D02*
X029734Y034066D01*
X029709Y034124D02*
X032551Y034124D01*
X032594Y034183D02*
X029666Y034183D01*
X029607Y034241D02*
X032653Y034241D01*
X032711Y034300D02*
X029549Y034300D01*
X029490Y034358D02*
X032770Y034358D01*
X032863Y034417D02*
X029397Y034417D01*
X029255Y034475D02*
X033005Y034475D01*
X033578Y034475D02*
X034564Y034475D01*
X034422Y034417D02*
X033720Y034417D01*
X033813Y034358D02*
X034329Y034358D01*
X034270Y034300D02*
X033872Y034300D01*
X033930Y034241D02*
X034212Y034241D01*
X034153Y034183D02*
X033989Y034183D01*
X034032Y034124D02*
X034110Y034124D01*
X034085Y034066D02*
X034056Y034066D01*
X035137Y034475D02*
X036123Y034475D01*
X035981Y034417D02*
X035279Y034417D01*
X035372Y034358D02*
X035888Y034358D01*
X035829Y034300D02*
X035431Y034300D01*
X035489Y034241D02*
X035771Y034241D01*
X035712Y034183D02*
X035548Y034183D01*
X035591Y034124D02*
X035669Y034124D01*
X035644Y034066D02*
X035616Y034066D01*
X036696Y034475D02*
X037682Y034475D01*
X037540Y034417D02*
X036838Y034417D01*
X036931Y034358D02*
X037447Y034358D01*
X037388Y034300D02*
X036990Y034300D01*
X037048Y034241D02*
X037330Y034241D01*
X037271Y034183D02*
X037107Y034183D01*
X037150Y034124D02*
X037228Y034124D01*
X037204Y034066D02*
X037175Y034066D01*
X035338Y036868D02*
X035022Y036737D01*
X034679Y036737D01*
X034362Y036868D01*
X034120Y037111D01*
X033989Y037427D01*
X033989Y038833D01*
X034120Y039149D01*
X034362Y039392D01*
X034679Y039523D01*
X035022Y039523D01*
X035338Y039392D01*
X035581Y039149D01*
X035712Y038833D01*
X035712Y037427D01*
X035581Y037111D01*
X035338Y036868D01*
X035344Y036874D02*
X044357Y036874D01*
X044362Y036868D02*
X044679Y036737D01*
X045022Y036737D01*
X045338Y036868D01*
X045581Y037111D01*
X045712Y037427D01*
X045712Y038833D01*
X045581Y039149D01*
X045338Y039392D01*
X045022Y039523D01*
X044679Y039523D01*
X044362Y039392D01*
X044120Y039149D01*
X043989Y038833D01*
X043989Y037427D01*
X044120Y037111D01*
X044362Y036868D01*
X044298Y036932D02*
X035402Y036932D01*
X035461Y036991D02*
X036148Y036991D01*
X036116Y037004D02*
X036196Y036971D01*
X036280Y036948D01*
X036366Y036937D01*
X036380Y036937D01*
X036380Y038100D01*
X036440Y038100D01*
X036440Y038160D01*
X037071Y038160D01*
X037071Y038705D01*
X037060Y038791D01*
X037037Y038875D01*
X037004Y038955D01*
X036961Y039030D01*
X036908Y039099D01*
X036847Y039160D01*
X036778Y039213D01*
X036703Y039256D01*
X036623Y039289D01*
X036539Y039312D01*
X036453Y039323D01*
X036440Y039323D01*
X036440Y038160D01*
X036380Y038160D01*
X036380Y039323D01*
X036366Y039323D01*
X036280Y039312D01*
X036196Y039289D01*
X036116Y039256D01*
X036041Y039213D01*
X035972Y039160D01*
X035911Y039099D01*
X035858Y039030D01*
X035815Y038955D01*
X035782Y038875D01*
X035759Y038791D01*
X035748Y038705D01*
X035748Y038160D01*
X036380Y038160D01*
X036380Y038100D01*
X035748Y038100D01*
X035748Y037555D01*
X035759Y037469D01*
X035782Y037385D01*
X035815Y037305D01*
X035858Y037230D01*
X035911Y037161D01*
X035972Y037100D01*
X036041Y037047D01*
X036116Y037004D01*
X036039Y037049D02*
X035519Y037049D01*
X035578Y037108D02*
X035965Y037108D01*
X035907Y037166D02*
X035604Y037166D01*
X035628Y037225D02*
X035863Y037225D01*
X035828Y037283D02*
X035652Y037283D01*
X035677Y037342D02*
X035800Y037342D01*
X035778Y037400D02*
X035701Y037400D01*
X035712Y037459D02*
X035762Y037459D01*
X035753Y037517D02*
X035712Y037517D01*
X035712Y037576D02*
X035748Y037576D01*
X035748Y037634D02*
X035712Y037634D01*
X035712Y037693D02*
X035748Y037693D01*
X035748Y037751D02*
X035712Y037751D01*
X035712Y037810D02*
X035748Y037810D01*
X035748Y037868D02*
X035712Y037868D01*
X035712Y037927D02*
X035748Y037927D01*
X035748Y037985D02*
X035712Y037985D01*
X035712Y038044D02*
X035748Y038044D01*
X035712Y038102D02*
X036380Y038102D01*
X036380Y038044D02*
X036440Y038044D01*
X036440Y038100D02*
X036440Y036937D01*
X036453Y036937D01*
X036539Y036948D01*
X036623Y036971D01*
X036703Y037004D01*
X036778Y037047D01*
X036847Y037100D01*
X036908Y037161D01*
X036961Y037230D01*
X037004Y037305D01*
X037037Y037385D01*
X037060Y037469D01*
X037071Y037555D01*
X037071Y038100D01*
X036440Y038100D01*
X036440Y038102D02*
X043989Y038102D01*
X043989Y038044D02*
X037071Y038044D01*
X037071Y037985D02*
X043989Y037985D01*
X043989Y037927D02*
X037071Y037927D01*
X037071Y037868D02*
X043989Y037868D01*
X043989Y037810D02*
X037071Y037810D01*
X037071Y037751D02*
X043989Y037751D01*
X043989Y037693D02*
X037071Y037693D01*
X037071Y037634D02*
X043989Y037634D01*
X043989Y037576D02*
X037071Y037576D01*
X037066Y037517D02*
X043989Y037517D01*
X043989Y037459D02*
X037057Y037459D01*
X037041Y037400D02*
X044000Y037400D01*
X044024Y037342D02*
X037019Y037342D01*
X036991Y037283D02*
X044049Y037283D01*
X044073Y037225D02*
X036956Y037225D01*
X036912Y037166D02*
X044097Y037166D01*
X044123Y037108D02*
X036854Y037108D01*
X036780Y037049D02*
X044181Y037049D01*
X044240Y036991D02*
X036671Y036991D01*
X036440Y036991D02*
X036380Y036991D01*
X036380Y037049D02*
X036440Y037049D01*
X036440Y037108D02*
X036380Y037108D01*
X036380Y037166D02*
X036440Y037166D01*
X036440Y037225D02*
X036380Y037225D01*
X036380Y037283D02*
X036440Y037283D01*
X036440Y037342D02*
X036380Y037342D01*
X036380Y037400D02*
X036440Y037400D01*
X036440Y037459D02*
X036380Y037459D01*
X036380Y037517D02*
X036440Y037517D01*
X036440Y037576D02*
X036380Y037576D01*
X036380Y037634D02*
X036440Y037634D01*
X036440Y037693D02*
X036380Y037693D01*
X036380Y037751D02*
X036440Y037751D01*
X036440Y037810D02*
X036380Y037810D01*
X036380Y037868D02*
X036440Y037868D01*
X036440Y037927D02*
X036380Y037927D01*
X036380Y037985D02*
X036440Y037985D01*
X036440Y038161D02*
X036380Y038161D01*
X036380Y038219D02*
X036440Y038219D01*
X036440Y038278D02*
X036380Y038278D01*
X036380Y038336D02*
X036440Y038336D01*
X036440Y038395D02*
X036380Y038395D01*
X036380Y038453D02*
X036440Y038453D01*
X036440Y038512D02*
X036380Y038512D01*
X036380Y038570D02*
X036440Y038570D01*
X036440Y038629D02*
X036380Y038629D01*
X036380Y038687D02*
X036440Y038687D01*
X036440Y038746D02*
X036380Y038746D01*
X036380Y038804D02*
X036440Y038804D01*
X036440Y038863D02*
X036380Y038863D01*
X036380Y038921D02*
X036440Y038921D01*
X036440Y038980D02*
X036380Y038980D01*
X036380Y039038D02*
X036440Y039038D01*
X036440Y039097D02*
X036380Y039097D01*
X036380Y039155D02*
X036440Y039155D01*
X036440Y039214D02*
X036380Y039214D01*
X036380Y039272D02*
X036440Y039272D01*
X036664Y039272D02*
X044243Y039272D01*
X044301Y039331D02*
X035400Y039331D01*
X035458Y039272D02*
X036155Y039272D01*
X036043Y039214D02*
X035517Y039214D01*
X035575Y039155D02*
X035968Y039155D01*
X035910Y039097D02*
X035603Y039097D01*
X035627Y039038D02*
X035865Y039038D01*
X035829Y038980D02*
X035651Y038980D01*
X035675Y038921D02*
X035801Y038921D01*
X035779Y038863D02*
X035700Y038863D01*
X035712Y038804D02*
X035763Y038804D01*
X035753Y038746D02*
X035712Y038746D01*
X035712Y038687D02*
X035748Y038687D01*
X035748Y038629D02*
X035712Y038629D01*
X035712Y038570D02*
X035748Y038570D01*
X035748Y038512D02*
X035712Y038512D01*
X035712Y038453D02*
X035748Y038453D01*
X035748Y038395D02*
X035712Y038395D01*
X035712Y038336D02*
X035748Y038336D01*
X035748Y038278D02*
X035712Y038278D01*
X035712Y038219D02*
X035748Y038219D01*
X035748Y038161D02*
X035712Y038161D01*
X036776Y039214D02*
X044184Y039214D01*
X044126Y039155D02*
X036851Y039155D01*
X036909Y039097D02*
X044098Y039097D01*
X044074Y039038D02*
X036954Y039038D01*
X036990Y038980D02*
X044050Y038980D01*
X044026Y038921D02*
X037018Y038921D01*
X037040Y038863D02*
X044001Y038863D01*
X043989Y038804D02*
X037056Y038804D01*
X037066Y038746D02*
X043989Y038746D01*
X043989Y038687D02*
X037071Y038687D01*
X037071Y038629D02*
X043989Y038629D01*
X043989Y038570D02*
X037071Y038570D01*
X037071Y038512D02*
X043989Y038512D01*
X043989Y038453D02*
X037071Y038453D01*
X037071Y038395D02*
X043989Y038395D01*
X043989Y038336D02*
X037071Y038336D01*
X037071Y038278D02*
X043989Y038278D01*
X043989Y038219D02*
X037071Y038219D01*
X037071Y038161D02*
X043989Y038161D01*
X044360Y039389D02*
X035341Y039389D01*
X035204Y039448D02*
X044497Y039448D01*
X044638Y039506D02*
X035062Y039506D01*
X034638Y039506D02*
X026062Y039506D01*
X026022Y039523D02*
X025679Y039523D01*
X025362Y039392D01*
X025120Y039149D01*
X024989Y038833D01*
X024989Y037427D01*
X025120Y037111D01*
X025362Y036868D01*
X025679Y036737D01*
X026022Y036737D01*
X026338Y036868D01*
X026581Y037111D01*
X026712Y037427D01*
X026712Y038833D01*
X026581Y039149D01*
X026338Y039392D01*
X026022Y039523D01*
X026204Y039448D02*
X034497Y039448D01*
X034360Y039389D02*
X026341Y039389D01*
X026400Y039331D02*
X034301Y039331D01*
X034243Y039272D02*
X027664Y039272D01*
X027703Y039256D02*
X027623Y039289D01*
X027539Y039312D01*
X027453Y039323D01*
X027440Y039323D01*
X027440Y038160D01*
X028071Y038160D01*
X028071Y038705D01*
X028060Y038791D01*
X028037Y038875D01*
X028004Y038955D01*
X027961Y039030D01*
X027908Y039099D01*
X027847Y039160D01*
X027778Y039213D01*
X027703Y039256D01*
X027776Y039214D02*
X034184Y039214D01*
X034126Y039155D02*
X027851Y039155D01*
X027909Y039097D02*
X034098Y039097D01*
X034074Y039038D02*
X027954Y039038D01*
X027990Y038980D02*
X034050Y038980D01*
X034026Y038921D02*
X028018Y038921D01*
X028040Y038863D02*
X034001Y038863D01*
X033989Y038804D02*
X028056Y038804D01*
X028066Y038746D02*
X033989Y038746D01*
X033989Y038687D02*
X028071Y038687D01*
X028071Y038629D02*
X033989Y038629D01*
X033989Y038570D02*
X028071Y038570D01*
X028071Y038512D02*
X033989Y038512D01*
X033989Y038453D02*
X028071Y038453D01*
X028071Y038395D02*
X033989Y038395D01*
X033989Y038336D02*
X028071Y038336D01*
X028071Y038278D02*
X033989Y038278D01*
X033989Y038219D02*
X028071Y038219D01*
X028071Y038161D02*
X033989Y038161D01*
X033989Y038102D02*
X027440Y038102D01*
X027440Y038100D02*
X027440Y038160D01*
X027380Y038160D01*
X027380Y039323D01*
X027366Y039323D01*
X027280Y039312D01*
X027196Y039289D01*
X027116Y039256D01*
X027041Y039213D01*
X026972Y039160D01*
X026911Y039099D01*
X026858Y039030D01*
X026815Y038955D01*
X026782Y038875D01*
X026759Y038791D01*
X026748Y038705D01*
X026748Y038160D01*
X027380Y038160D01*
X027380Y038100D01*
X027440Y038100D01*
X028071Y038100D01*
X028071Y037555D01*
X028060Y037469D01*
X028037Y037385D01*
X028004Y037305D01*
X027961Y037230D01*
X027908Y037161D01*
X027847Y037100D01*
X027778Y037047D01*
X027703Y037004D01*
X027623Y036971D01*
X027539Y036948D01*
X027453Y036937D01*
X027440Y036937D01*
X027440Y038100D01*
X027440Y038044D02*
X027380Y038044D01*
X027380Y038100D02*
X027380Y036937D01*
X027366Y036937D01*
X027280Y036948D01*
X027196Y036971D01*
X027116Y037004D01*
X027041Y037047D01*
X026972Y037100D01*
X026911Y037161D01*
X026858Y037230D01*
X026815Y037305D01*
X026782Y037385D01*
X026759Y037469D01*
X026748Y037555D01*
X026748Y038100D01*
X027380Y038100D01*
X027380Y038102D02*
X026712Y038102D01*
X026712Y038044D02*
X026748Y038044D01*
X026748Y037985D02*
X026712Y037985D01*
X026712Y037927D02*
X026748Y037927D01*
X026748Y037868D02*
X026712Y037868D01*
X026712Y037810D02*
X026748Y037810D01*
X026748Y037751D02*
X026712Y037751D01*
X026712Y037693D02*
X026748Y037693D01*
X026748Y037634D02*
X026712Y037634D01*
X026712Y037576D02*
X026748Y037576D01*
X026753Y037517D02*
X026712Y037517D01*
X026712Y037459D02*
X026762Y037459D01*
X026778Y037400D02*
X026701Y037400D01*
X026677Y037342D02*
X026800Y037342D01*
X026828Y037283D02*
X026652Y037283D01*
X026628Y037225D02*
X026863Y037225D01*
X026907Y037166D02*
X026604Y037166D01*
X026578Y037108D02*
X026965Y037108D01*
X027039Y037049D02*
X026519Y037049D01*
X026461Y036991D02*
X027148Y036991D01*
X027380Y036991D02*
X027440Y036991D01*
X027440Y037049D02*
X027380Y037049D01*
X027380Y037108D02*
X027440Y037108D01*
X027440Y037166D02*
X027380Y037166D01*
X027380Y037225D02*
X027440Y037225D01*
X027440Y037283D02*
X027380Y037283D01*
X027380Y037342D02*
X027440Y037342D01*
X027440Y037400D02*
X027380Y037400D01*
X027380Y037459D02*
X027440Y037459D01*
X027440Y037517D02*
X027380Y037517D01*
X027380Y037576D02*
X027440Y037576D01*
X027440Y037634D02*
X027380Y037634D01*
X027380Y037693D02*
X027440Y037693D01*
X027440Y037751D02*
X027380Y037751D01*
X027380Y037810D02*
X027440Y037810D01*
X027440Y037868D02*
X027380Y037868D01*
X027380Y037927D02*
X027440Y037927D01*
X027440Y037985D02*
X027380Y037985D01*
X027380Y038161D02*
X027440Y038161D01*
X027440Y038219D02*
X027380Y038219D01*
X027380Y038278D02*
X027440Y038278D01*
X027440Y038336D02*
X027380Y038336D01*
X027380Y038395D02*
X027440Y038395D01*
X027440Y038453D02*
X027380Y038453D01*
X027380Y038512D02*
X027440Y038512D01*
X027440Y038570D02*
X027380Y038570D01*
X027380Y038629D02*
X027440Y038629D01*
X027440Y038687D02*
X027380Y038687D01*
X027380Y038746D02*
X027440Y038746D01*
X027440Y038804D02*
X027380Y038804D01*
X027380Y038863D02*
X027440Y038863D01*
X027440Y038921D02*
X027380Y038921D01*
X027380Y038980D02*
X027440Y038980D01*
X027440Y039038D02*
X027380Y039038D01*
X027380Y039097D02*
X027440Y039097D01*
X027440Y039155D02*
X027380Y039155D01*
X027380Y039214D02*
X027440Y039214D01*
X027440Y039272D02*
X027380Y039272D01*
X027155Y039272D02*
X026458Y039272D01*
X026517Y039214D02*
X027043Y039214D01*
X026968Y039155D02*
X026575Y039155D01*
X026603Y039097D02*
X026910Y039097D01*
X026865Y039038D02*
X026627Y039038D01*
X026651Y038980D02*
X026829Y038980D01*
X026801Y038921D02*
X026675Y038921D01*
X026700Y038863D02*
X026779Y038863D01*
X026763Y038804D02*
X026712Y038804D01*
X026712Y038746D02*
X026753Y038746D01*
X026748Y038687D02*
X026712Y038687D01*
X026712Y038629D02*
X026748Y038629D01*
X026748Y038570D02*
X026712Y038570D01*
X026712Y038512D02*
X026748Y038512D01*
X026748Y038453D02*
X026712Y038453D01*
X026712Y038395D02*
X026748Y038395D01*
X026748Y038336D02*
X026712Y038336D01*
X026712Y038278D02*
X026748Y038278D01*
X026748Y038219D02*
X026712Y038219D01*
X026712Y038161D02*
X026748Y038161D01*
X027956Y037225D02*
X034073Y037225D01*
X034049Y037283D02*
X027991Y037283D01*
X028019Y037342D02*
X034024Y037342D01*
X034000Y037400D02*
X028041Y037400D01*
X028057Y037459D02*
X033989Y037459D01*
X033989Y037517D02*
X028066Y037517D01*
X028071Y037576D02*
X033989Y037576D01*
X033989Y037634D02*
X028071Y037634D01*
X028071Y037693D02*
X033989Y037693D01*
X033989Y037751D02*
X028071Y037751D01*
X028071Y037810D02*
X033989Y037810D01*
X033989Y037868D02*
X028071Y037868D01*
X028071Y037927D02*
X033989Y037927D01*
X033989Y037985D02*
X028071Y037985D01*
X028071Y038044D02*
X033989Y038044D01*
X034097Y037166D02*
X027912Y037166D01*
X027854Y037108D02*
X034123Y037108D01*
X034181Y037049D02*
X027780Y037049D01*
X027671Y036991D02*
X034240Y036991D01*
X034298Y036932D02*
X026402Y036932D01*
X026344Y036874D02*
X034357Y036874D01*
X034490Y036815D02*
X026210Y036815D01*
X026069Y036757D02*
X034632Y036757D01*
X035069Y036757D02*
X044632Y036757D01*
X044490Y036815D02*
X035210Y036815D01*
X028682Y034475D02*
X027696Y034475D01*
X027838Y034417D02*
X028540Y034417D01*
X028447Y034358D02*
X027931Y034358D01*
X027990Y034300D02*
X028388Y034300D01*
X028330Y034241D02*
X028048Y034241D01*
X028107Y034183D02*
X028271Y034183D01*
X028228Y034124D02*
X028150Y034124D01*
X028175Y034066D02*
X028204Y034066D01*
X027123Y034475D02*
X026137Y034475D01*
X026279Y034417D02*
X026981Y034417D01*
X026888Y034358D02*
X026372Y034358D01*
X026431Y034300D02*
X026829Y034300D01*
X026771Y034241D02*
X026489Y034241D01*
X026548Y034183D02*
X026712Y034183D01*
X026669Y034124D02*
X026591Y034124D01*
X026616Y034066D02*
X026644Y034066D01*
X025564Y034475D02*
X024578Y034475D01*
X024720Y034417D02*
X025422Y034417D01*
X025329Y034358D02*
X024813Y034358D01*
X024872Y034300D02*
X025270Y034300D01*
X025212Y034241D02*
X024930Y034241D01*
X024989Y034183D02*
X025153Y034183D01*
X025110Y034124D02*
X025032Y034124D01*
X025056Y034066D02*
X025085Y034066D01*
X024005Y034475D02*
X020255Y034475D01*
X020140Y034523D02*
X019797Y034523D01*
X019481Y034392D01*
X019238Y034149D01*
X019189Y034031D01*
X019140Y034149D01*
X018898Y034392D01*
X018581Y034523D01*
X018238Y034523D01*
X017922Y034392D01*
X017679Y034149D01*
X017630Y034031D01*
X017581Y034149D01*
X017338Y034392D01*
X017022Y034523D01*
X016679Y034523D01*
X016362Y034392D01*
X016120Y034149D01*
X016071Y034031D01*
X016022Y034149D01*
X015779Y034392D01*
X015463Y034523D01*
X015120Y034523D01*
X014803Y034392D01*
X014561Y034149D01*
X014430Y033833D01*
X014430Y032427D01*
X014561Y032111D01*
X014803Y031868D01*
X015120Y031737D01*
X015278Y031737D01*
X016103Y030912D01*
X016103Y028908D01*
X016001Y029010D01*
X015760Y029110D01*
X015500Y029110D01*
X015259Y029010D01*
X015130Y028881D01*
X015001Y029010D01*
X014760Y029110D01*
X014500Y029110D01*
X014259Y029010D01*
X014075Y028826D01*
X013975Y028585D01*
X013975Y027675D01*
X014075Y027434D01*
X014259Y027250D01*
X014500Y027150D01*
X014760Y027150D01*
X015001Y027250D01*
X015130Y027379D01*
X015259Y027250D01*
X015500Y027150D01*
X015760Y027150D01*
X016001Y027250D01*
X016130Y027379D01*
X016259Y027250D01*
X016500Y027150D01*
X016760Y027150D01*
X017001Y027250D01*
X017130Y027379D01*
X017259Y027250D01*
X017500Y027150D01*
X017760Y027150D01*
X018001Y027250D01*
X018130Y027379D01*
X018259Y027250D01*
X018500Y027150D01*
X018760Y027150D01*
X019001Y027250D01*
X019130Y027379D01*
X019259Y027250D01*
X019500Y027150D01*
X019760Y027150D01*
X020001Y027250D01*
X020185Y027434D01*
X020285Y027675D01*
X020285Y028585D01*
X020185Y028826D01*
X020157Y028854D01*
X020157Y031744D01*
X020457Y031868D01*
X020699Y032111D01*
X020830Y032427D01*
X020830Y033833D01*
X020699Y034149D01*
X020457Y034392D01*
X020140Y034523D01*
X020397Y034417D02*
X023863Y034417D01*
X023770Y034358D02*
X020490Y034358D01*
X020549Y034300D02*
X023711Y034300D01*
X023653Y034241D02*
X020607Y034241D01*
X020666Y034183D02*
X023594Y034183D01*
X023551Y034124D02*
X020709Y034124D01*
X020734Y034066D02*
X023526Y034066D01*
X023502Y034007D02*
X020758Y034007D01*
X020782Y033949D02*
X023478Y033949D01*
X023454Y033890D02*
X020806Y033890D01*
X020830Y033832D02*
X023430Y033832D01*
X023430Y033773D02*
X020830Y033773D01*
X020830Y033715D02*
X023430Y033715D01*
X023430Y033656D02*
X020830Y033656D01*
X020830Y033598D02*
X023430Y033598D01*
X023430Y033539D02*
X020830Y033539D01*
X020830Y033481D02*
X023430Y033481D01*
X023430Y033422D02*
X020830Y033422D01*
X020830Y033364D02*
X023430Y033364D01*
X023430Y033305D02*
X020830Y033305D01*
X020830Y033247D02*
X023430Y033247D01*
X023430Y033188D02*
X020830Y033188D01*
X020830Y033130D02*
X023430Y033130D01*
X023430Y033071D02*
X020830Y033071D01*
X020830Y033013D02*
X023430Y033013D01*
X023430Y032954D02*
X020830Y032954D01*
X020830Y032896D02*
X023430Y032896D01*
X023430Y032837D02*
X020830Y032837D01*
X020830Y032779D02*
X023430Y032779D01*
X023430Y032720D02*
X020830Y032720D01*
X020830Y032662D02*
X023430Y032662D01*
X023430Y032603D02*
X020830Y032603D01*
X020830Y032545D02*
X023430Y032545D01*
X023430Y032486D02*
X020830Y032486D01*
X020830Y032428D02*
X023430Y032428D01*
X023454Y032369D02*
X020806Y032369D01*
X020782Y032311D02*
X023478Y032311D01*
X023502Y032252D02*
X020758Y032252D01*
X020733Y032194D02*
X023527Y032194D01*
X023551Y032135D02*
X020709Y032135D01*
X020665Y032077D02*
X023595Y032077D01*
X023653Y032018D02*
X020607Y032018D01*
X020548Y031960D02*
X023712Y031960D01*
X023770Y031901D02*
X020490Y031901D01*
X020395Y031843D02*
X023865Y031843D01*
X024006Y031784D02*
X020254Y031784D01*
X020157Y031726D02*
X024289Y031726D01*
X024348Y031667D02*
X020157Y031667D01*
X020157Y031609D02*
X024406Y031609D01*
X024465Y031550D02*
X020157Y031550D01*
X020157Y031492D02*
X024523Y031492D01*
X024582Y031433D02*
X020157Y031433D01*
X020157Y031375D02*
X024640Y031375D01*
X024699Y031316D02*
X020157Y031316D01*
X020157Y031258D02*
X024757Y031258D01*
X024816Y031199D02*
X020157Y031199D01*
X020157Y031141D02*
X024874Y031141D01*
X024933Y031082D02*
X020157Y031082D01*
X020157Y031024D02*
X024991Y031024D01*
X025050Y030965D02*
X020157Y030965D01*
X020157Y030907D02*
X025108Y030907D01*
X025167Y030848D02*
X020157Y030848D01*
X020157Y030790D02*
X025225Y030790D01*
X025284Y030731D02*
X020157Y030731D01*
X020157Y030673D02*
X025342Y030673D01*
X025401Y030614D02*
X020157Y030614D01*
X020157Y030556D02*
X025459Y030556D01*
X025518Y030497D02*
X020157Y030497D01*
X020157Y030439D02*
X025576Y030439D01*
X025603Y030380D02*
X020157Y030380D01*
X020157Y030322D02*
X025603Y030322D01*
X025603Y030263D02*
X020157Y030263D01*
X020157Y030205D02*
X025603Y030205D01*
X025603Y030146D02*
X020157Y030146D01*
X020157Y030088D02*
X025603Y030088D01*
X025603Y030029D02*
X020157Y030029D01*
X020157Y029971D02*
X025603Y029971D01*
X025603Y029912D02*
X020157Y029912D01*
X020157Y029854D02*
X025603Y029854D01*
X025603Y029795D02*
X020157Y029795D01*
X020157Y029737D02*
X025603Y029737D01*
X025603Y029678D02*
X020157Y029678D01*
X020157Y029620D02*
X025603Y029620D01*
X025603Y029561D02*
X020157Y029561D01*
X020157Y029503D02*
X025603Y029503D01*
X025603Y029444D02*
X020157Y029444D01*
X020157Y029386D02*
X025603Y029386D01*
X025603Y029327D02*
X020157Y029327D01*
X020157Y029269D02*
X025603Y029269D01*
X025603Y029210D02*
X020157Y029210D01*
X020157Y029152D02*
X025603Y029152D01*
X025603Y029093D02*
X025300Y029093D01*
X025441Y029035D02*
X025603Y029035D01*
X025603Y028976D02*
X025535Y028976D01*
X025593Y028918D02*
X025603Y028918D01*
X024960Y029093D02*
X024300Y029093D01*
X024441Y029035D02*
X024819Y029035D01*
X024725Y028976D02*
X024535Y028976D01*
X024593Y028918D02*
X024667Y028918D01*
X023960Y029093D02*
X020157Y029093D01*
X020157Y029035D02*
X023819Y029035D01*
X023725Y028976D02*
X020157Y028976D01*
X020157Y028918D02*
X023667Y028918D01*
X023608Y028859D02*
X020157Y028859D01*
X020196Y028801D02*
X023564Y028801D01*
X023540Y028742D02*
X020220Y028742D01*
X020244Y028684D02*
X023516Y028684D01*
X023492Y028625D02*
X020268Y028625D01*
X020285Y028567D02*
X023475Y028567D01*
X023475Y028508D02*
X020285Y028508D01*
X020285Y028450D02*
X023475Y028450D01*
X023475Y028391D02*
X020285Y028391D01*
X020285Y028333D02*
X023475Y028333D01*
X023475Y028274D02*
X020285Y028274D01*
X020285Y028216D02*
X023475Y028216D01*
X023475Y028157D02*
X020285Y028157D01*
X020285Y028099D02*
X023475Y028099D01*
X023475Y028040D02*
X020285Y028040D01*
X020285Y027982D02*
X023475Y027982D01*
X023475Y027923D02*
X020285Y027923D01*
X020285Y027865D02*
X023475Y027865D01*
X023475Y027806D02*
X020285Y027806D01*
X020285Y027748D02*
X023475Y027748D01*
X023475Y027689D02*
X020285Y027689D01*
X020266Y027631D02*
X023494Y027631D01*
X023518Y027572D02*
X020242Y027572D01*
X020218Y027514D02*
X023542Y027514D01*
X023566Y027455D02*
X020194Y027455D01*
X020147Y027397D02*
X023613Y027397D01*
X023671Y027338D02*
X020089Y027338D01*
X020030Y027280D02*
X023730Y027280D01*
X023829Y027221D02*
X019931Y027221D01*
X019790Y027163D02*
X023970Y027163D01*
X024290Y027163D02*
X024970Y027163D01*
X024829Y027221D02*
X024431Y027221D01*
X024530Y027280D02*
X024730Y027280D01*
X024671Y027338D02*
X024589Y027338D01*
X025290Y027163D02*
X025970Y027163D01*
X025829Y027221D02*
X025431Y027221D01*
X025530Y027280D02*
X025730Y027280D01*
X025671Y027338D02*
X025589Y027338D01*
X026290Y027163D02*
X026970Y027163D01*
X026829Y027221D02*
X026431Y027221D01*
X026530Y027280D02*
X026730Y027280D01*
X026671Y027338D02*
X026589Y027338D01*
X027290Y027163D02*
X027970Y027163D01*
X027829Y027221D02*
X027431Y027221D01*
X027530Y027280D02*
X027730Y027280D01*
X027671Y027338D02*
X027589Y027338D01*
X028290Y027163D02*
X028970Y027163D01*
X028829Y027221D02*
X028431Y027221D01*
X028530Y027280D02*
X028730Y027280D01*
X028671Y027338D02*
X028589Y027338D01*
X019682Y034475D02*
X018696Y034475D01*
X018838Y034417D02*
X019540Y034417D01*
X019447Y034358D02*
X018931Y034358D01*
X018990Y034300D02*
X019388Y034300D01*
X019330Y034241D02*
X019048Y034241D01*
X019107Y034183D02*
X019271Y034183D01*
X019228Y034124D02*
X019150Y034124D01*
X019175Y034066D02*
X019204Y034066D01*
X018123Y034475D02*
X017137Y034475D01*
X017279Y034417D02*
X017981Y034417D01*
X017888Y034358D02*
X017372Y034358D01*
X017431Y034300D02*
X017829Y034300D01*
X017771Y034241D02*
X017489Y034241D01*
X017548Y034183D02*
X017712Y034183D01*
X017669Y034124D02*
X017591Y034124D01*
X017616Y034066D02*
X017644Y034066D01*
X016564Y034475D02*
X015578Y034475D01*
X015720Y034417D02*
X016422Y034417D01*
X016329Y034358D02*
X015813Y034358D01*
X015872Y034300D02*
X016270Y034300D01*
X016212Y034241D02*
X015930Y034241D01*
X015989Y034183D02*
X016153Y034183D01*
X016110Y034124D02*
X016032Y034124D01*
X016056Y034066D02*
X016085Y034066D01*
X015005Y034475D02*
X010255Y034475D01*
X010397Y034417D02*
X014863Y034417D01*
X014770Y034358D02*
X010490Y034358D01*
X010549Y034300D02*
X014711Y034300D01*
X014653Y034241D02*
X010607Y034241D01*
X010666Y034183D02*
X014594Y034183D01*
X014551Y034124D02*
X010709Y034124D01*
X010734Y034066D02*
X014526Y034066D01*
X014502Y034007D02*
X010758Y034007D01*
X010782Y033949D02*
X014478Y033949D01*
X014454Y033890D02*
X010806Y033890D01*
X010830Y033832D02*
X014430Y033832D01*
X014430Y033773D02*
X010830Y033773D01*
X010830Y033715D02*
X014430Y033715D01*
X014430Y033656D02*
X010830Y033656D01*
X010830Y033598D02*
X014430Y033598D01*
X014430Y033539D02*
X010830Y033539D01*
X010830Y033481D02*
X014430Y033481D01*
X014430Y033422D02*
X010830Y033422D01*
X010830Y033364D02*
X014430Y033364D01*
X014430Y033305D02*
X010830Y033305D01*
X010830Y033247D02*
X014430Y033247D01*
X014430Y033188D02*
X010830Y033188D01*
X010830Y033130D02*
X014430Y033130D01*
X014430Y033071D02*
X010830Y033071D01*
X010830Y033013D02*
X014430Y033013D01*
X014430Y032954D02*
X010830Y032954D01*
X010830Y032896D02*
X014430Y032896D01*
X014430Y032837D02*
X010830Y032837D01*
X010830Y032779D02*
X014430Y032779D01*
X014430Y032720D02*
X010830Y032720D01*
X010830Y032662D02*
X014430Y032662D01*
X014430Y032603D02*
X010830Y032603D01*
X010830Y032545D02*
X014430Y032545D01*
X014430Y032486D02*
X010830Y032486D01*
X010830Y032428D02*
X014430Y032428D01*
X014454Y032369D02*
X010806Y032369D01*
X010782Y032311D02*
X014478Y032311D01*
X014502Y032252D02*
X010758Y032252D01*
X010733Y032194D02*
X014527Y032194D01*
X014551Y032135D02*
X010709Y032135D01*
X010665Y032077D02*
X014595Y032077D01*
X014653Y032018D02*
X010657Y032018D01*
X010657Y031960D02*
X014712Y031960D01*
X014770Y031901D02*
X010657Y031901D01*
X010657Y031843D02*
X014865Y031843D01*
X015006Y031784D02*
X010657Y031784D01*
X010657Y031726D02*
X015289Y031726D01*
X015348Y031667D02*
X010657Y031667D01*
X010657Y031609D02*
X015406Y031609D01*
X015465Y031550D02*
X010657Y031550D01*
X010657Y031492D02*
X015523Y031492D01*
X015582Y031433D02*
X010657Y031433D01*
X010657Y031375D02*
X015640Y031375D01*
X015699Y031316D02*
X010657Y031316D01*
X010657Y031258D02*
X015757Y031258D01*
X015816Y031199D02*
X010657Y031199D01*
X010657Y031141D02*
X015874Y031141D01*
X015933Y031082D02*
X010657Y031082D01*
X010657Y031024D02*
X015991Y031024D01*
X016050Y030965D02*
X010657Y030965D01*
X010657Y030907D02*
X016103Y030907D01*
X016103Y030848D02*
X010657Y030848D01*
X010657Y030790D02*
X016103Y030790D01*
X016103Y030731D02*
X010657Y030731D01*
X010657Y030673D02*
X016103Y030673D01*
X016103Y030614D02*
X010657Y030614D01*
X010657Y030556D02*
X016103Y030556D01*
X016103Y030497D02*
X010657Y030497D01*
X010657Y030439D02*
X016103Y030439D01*
X016103Y030380D02*
X010657Y030380D01*
X010657Y030322D02*
X016103Y030322D01*
X016103Y030263D02*
X010657Y030263D01*
X010657Y030205D02*
X016103Y030205D01*
X016103Y030146D02*
X010657Y030146D01*
X010657Y030088D02*
X016103Y030088D01*
X016103Y030029D02*
X010657Y030029D01*
X010657Y029971D02*
X016103Y029971D01*
X016103Y029912D02*
X010657Y029912D01*
X010657Y029854D02*
X016103Y029854D01*
X016103Y029795D02*
X010657Y029795D01*
X010657Y029737D02*
X016103Y029737D01*
X016103Y029678D02*
X010657Y029678D01*
X010657Y029620D02*
X016103Y029620D01*
X016103Y029561D02*
X010657Y029561D01*
X010657Y029503D02*
X016103Y029503D01*
X016103Y029444D02*
X010657Y029444D01*
X010657Y029386D02*
X016103Y029386D01*
X016103Y029327D02*
X010657Y029327D01*
X010657Y029269D02*
X016103Y029269D01*
X016103Y029210D02*
X010657Y029210D01*
X010657Y029152D02*
X016103Y029152D01*
X016103Y029093D02*
X015800Y029093D01*
X015941Y029035D02*
X016103Y029035D01*
X016103Y028976D02*
X016035Y028976D01*
X016093Y028918D02*
X016103Y028918D01*
X015460Y029093D02*
X014800Y029093D01*
X014941Y029035D02*
X015319Y029035D01*
X015225Y028976D02*
X015035Y028976D01*
X015093Y028918D02*
X015167Y028918D01*
X014460Y029093D02*
X010657Y029093D01*
X010657Y029035D02*
X014319Y029035D01*
X014225Y028976D02*
X010657Y028976D01*
X010657Y028918D02*
X014167Y028918D01*
X014108Y028859D02*
X010657Y028859D01*
X010696Y028801D02*
X014064Y028801D01*
X014040Y028742D02*
X010720Y028742D01*
X010744Y028684D02*
X014016Y028684D01*
X013992Y028625D02*
X010768Y028625D01*
X010785Y028567D02*
X013975Y028567D01*
X013975Y028508D02*
X010785Y028508D01*
X010785Y028450D02*
X013975Y028450D01*
X013975Y028391D02*
X010785Y028391D01*
X010785Y028333D02*
X013975Y028333D01*
X013975Y028274D02*
X010785Y028274D01*
X010785Y028216D02*
X013975Y028216D01*
X013975Y028157D02*
X010785Y028157D01*
X010785Y028099D02*
X013975Y028099D01*
X013975Y028040D02*
X010785Y028040D01*
X010785Y027982D02*
X013975Y027982D01*
X013975Y027923D02*
X010785Y027923D01*
X010785Y027865D02*
X013975Y027865D01*
X013975Y027806D02*
X010785Y027806D01*
X010785Y027748D02*
X013975Y027748D01*
X013975Y027689D02*
X010785Y027689D01*
X010766Y027631D02*
X013994Y027631D01*
X014018Y027572D02*
X010742Y027572D01*
X010718Y027514D02*
X014042Y027514D01*
X014066Y027455D02*
X010694Y027455D01*
X010647Y027397D02*
X014113Y027397D01*
X014171Y027338D02*
X010589Y027338D01*
X010530Y027280D02*
X014230Y027280D01*
X014329Y027221D02*
X010431Y027221D01*
X010290Y027163D02*
X014470Y027163D01*
X014790Y027163D02*
X015470Y027163D01*
X015329Y027221D02*
X014931Y027221D01*
X015030Y027280D02*
X015230Y027280D01*
X015171Y027338D02*
X015089Y027338D01*
X015790Y027163D02*
X016470Y027163D01*
X016329Y027221D02*
X015931Y027221D01*
X016030Y027280D02*
X016230Y027280D01*
X016171Y027338D02*
X016089Y027338D01*
X016790Y027163D02*
X017470Y027163D01*
X017329Y027221D02*
X016931Y027221D01*
X017030Y027280D02*
X017230Y027280D01*
X017171Y027338D02*
X017089Y027338D01*
X017790Y027163D02*
X018470Y027163D01*
X018329Y027221D02*
X017931Y027221D01*
X018030Y027280D02*
X018230Y027280D01*
X018171Y027338D02*
X018089Y027338D01*
X018790Y027163D02*
X019470Y027163D01*
X019329Y027221D02*
X018931Y027221D01*
X019030Y027280D02*
X019230Y027280D01*
X019171Y027338D02*
X019089Y027338D01*
X009970Y027163D02*
X009290Y027163D01*
X009431Y027221D02*
X009829Y027221D01*
X009730Y027280D02*
X009530Y027280D01*
X009589Y027338D02*
X009671Y027338D01*
X008970Y027163D02*
X008290Y027163D01*
X008431Y027221D02*
X008829Y027221D01*
X008730Y027280D02*
X008530Y027280D01*
X008589Y027338D02*
X008671Y027338D01*
X007970Y027163D02*
X007290Y027163D01*
X007431Y027221D02*
X007829Y027221D01*
X007730Y027280D02*
X007530Y027280D01*
X007589Y027338D02*
X007671Y027338D01*
X006970Y027163D02*
X006290Y027163D01*
X006431Y027221D02*
X006829Y027221D01*
X006730Y027280D02*
X006530Y027280D01*
X006589Y027338D02*
X006671Y027338D01*
X005970Y027163D02*
X005290Y027163D01*
X005431Y027221D02*
X005829Y027221D01*
X005730Y027280D02*
X005530Y027280D01*
X005589Y027338D02*
X005671Y027338D01*
X005667Y028918D02*
X005593Y028918D01*
X005535Y028976D02*
X005725Y028976D01*
X005819Y029035D02*
X005441Y029035D01*
X005300Y029093D02*
X005960Y029093D01*
X006300Y029093D02*
X006603Y029093D01*
X006603Y029035D02*
X006441Y029035D01*
X006535Y028976D02*
X006603Y028976D01*
X006593Y028918D02*
X006603Y028918D01*
X006085Y034066D02*
X006056Y034066D01*
X006032Y034124D02*
X006110Y034124D01*
X006153Y034183D02*
X005989Y034183D01*
X005930Y034241D02*
X006212Y034241D01*
X006270Y034300D02*
X005872Y034300D01*
X005813Y034358D02*
X006329Y034358D01*
X006422Y034417D02*
X005720Y034417D01*
X005578Y034475D02*
X006564Y034475D01*
X007137Y034475D02*
X008123Y034475D01*
X007981Y034417D02*
X007279Y034417D01*
X007372Y034358D02*
X007888Y034358D01*
X007829Y034300D02*
X007431Y034300D01*
X007489Y034241D02*
X007771Y034241D01*
X007712Y034183D02*
X007548Y034183D01*
X007591Y034124D02*
X007669Y034124D01*
X007644Y034066D02*
X007616Y034066D01*
X008696Y034475D02*
X009682Y034475D01*
X009540Y034417D02*
X008838Y034417D01*
X008931Y034358D02*
X009447Y034358D01*
X009388Y034300D02*
X008990Y034300D01*
X009048Y034241D02*
X009330Y034241D01*
X009271Y034183D02*
X009107Y034183D01*
X009150Y034124D02*
X009228Y034124D01*
X009204Y034066D02*
X009175Y034066D01*
X017569Y036757D02*
X025632Y036757D01*
X025490Y036815D02*
X017710Y036815D01*
X017844Y036874D02*
X025357Y036874D01*
X025298Y036932D02*
X017902Y036932D01*
X017961Y036991D02*
X018648Y036991D01*
X018616Y037004D02*
X018696Y036971D01*
X018780Y036948D01*
X018866Y036937D01*
X018880Y036937D01*
X018880Y038100D01*
X018940Y038100D01*
X018940Y038160D01*
X019571Y038160D01*
X019571Y038705D01*
X019560Y038791D01*
X019537Y038875D01*
X019504Y038955D01*
X019461Y039030D01*
X019408Y039099D01*
X019347Y039160D01*
X019278Y039213D01*
X019203Y039256D01*
X019123Y039289D01*
X019039Y039312D01*
X018953Y039323D01*
X018940Y039323D01*
X018940Y038160D01*
X018880Y038160D01*
X018880Y039323D01*
X018866Y039323D01*
X018780Y039312D01*
X018696Y039289D01*
X018616Y039256D01*
X018541Y039213D01*
X018472Y039160D01*
X018411Y039099D01*
X018358Y039030D01*
X018315Y038955D01*
X018282Y038875D01*
X018259Y038791D01*
X018248Y038705D01*
X018248Y038160D01*
X018880Y038160D01*
X018880Y038100D01*
X018248Y038100D01*
X018248Y037555D01*
X018259Y037469D01*
X018282Y037385D01*
X018315Y037305D01*
X018358Y037230D01*
X018411Y037161D01*
X018472Y037100D01*
X018541Y037047D01*
X018616Y037004D01*
X018539Y037049D02*
X018019Y037049D01*
X018078Y037108D02*
X018465Y037108D01*
X018407Y037166D02*
X018104Y037166D01*
X018128Y037225D02*
X018363Y037225D01*
X018328Y037283D02*
X018152Y037283D01*
X018177Y037342D02*
X018300Y037342D01*
X018278Y037400D02*
X018201Y037400D01*
X018212Y037459D02*
X018262Y037459D01*
X018253Y037517D02*
X018212Y037517D01*
X018212Y037576D02*
X018248Y037576D01*
X018248Y037634D02*
X018212Y037634D01*
X018212Y037693D02*
X018248Y037693D01*
X018248Y037751D02*
X018212Y037751D01*
X018212Y037810D02*
X018248Y037810D01*
X018248Y037868D02*
X018212Y037868D01*
X018212Y037927D02*
X018248Y037927D01*
X018248Y037985D02*
X018212Y037985D01*
X018212Y038044D02*
X018248Y038044D01*
X018212Y038102D02*
X018880Y038102D01*
X018880Y038044D02*
X018940Y038044D01*
X018940Y038100D02*
X018940Y036937D01*
X018953Y036937D01*
X019039Y036948D01*
X019123Y036971D01*
X019203Y037004D01*
X019278Y037047D01*
X019347Y037100D01*
X019408Y037161D01*
X019461Y037230D01*
X019504Y037305D01*
X019537Y037385D01*
X019560Y037469D01*
X019571Y037555D01*
X019571Y038100D01*
X018940Y038100D01*
X018940Y038102D02*
X024989Y038102D01*
X024989Y038044D02*
X019571Y038044D01*
X019571Y037985D02*
X024989Y037985D01*
X024989Y037927D02*
X019571Y037927D01*
X019571Y037868D02*
X024989Y037868D01*
X024989Y037810D02*
X019571Y037810D01*
X019571Y037751D02*
X024989Y037751D01*
X024989Y037693D02*
X019571Y037693D01*
X019571Y037634D02*
X024989Y037634D01*
X024989Y037576D02*
X019571Y037576D01*
X019566Y037517D02*
X024989Y037517D01*
X024989Y037459D02*
X019557Y037459D01*
X019541Y037400D02*
X025000Y037400D01*
X025024Y037342D02*
X019519Y037342D01*
X019491Y037283D02*
X025049Y037283D01*
X025073Y037225D02*
X019456Y037225D01*
X019412Y037166D02*
X025097Y037166D01*
X025123Y037108D02*
X019354Y037108D01*
X019280Y037049D02*
X025181Y037049D01*
X025240Y036991D02*
X019171Y036991D01*
X018940Y036991D02*
X018880Y036991D01*
X018880Y037049D02*
X018940Y037049D01*
X018940Y037108D02*
X018880Y037108D01*
X018880Y037166D02*
X018940Y037166D01*
X018940Y037225D02*
X018880Y037225D01*
X018880Y037283D02*
X018940Y037283D01*
X018940Y037342D02*
X018880Y037342D01*
X018880Y037400D02*
X018940Y037400D01*
X018940Y037459D02*
X018880Y037459D01*
X018880Y037517D02*
X018940Y037517D01*
X018940Y037576D02*
X018880Y037576D01*
X018880Y037634D02*
X018940Y037634D01*
X018940Y037693D02*
X018880Y037693D01*
X018880Y037751D02*
X018940Y037751D01*
X018940Y037810D02*
X018880Y037810D01*
X018880Y037868D02*
X018940Y037868D01*
X018940Y037927D02*
X018880Y037927D01*
X018880Y037985D02*
X018940Y037985D01*
X018940Y038161D02*
X018880Y038161D01*
X018880Y038219D02*
X018940Y038219D01*
X018940Y038278D02*
X018880Y038278D01*
X018880Y038336D02*
X018940Y038336D01*
X018940Y038395D02*
X018880Y038395D01*
X018880Y038453D02*
X018940Y038453D01*
X018940Y038512D02*
X018880Y038512D01*
X018880Y038570D02*
X018940Y038570D01*
X018940Y038629D02*
X018880Y038629D01*
X018880Y038687D02*
X018940Y038687D01*
X018940Y038746D02*
X018880Y038746D01*
X018880Y038804D02*
X018940Y038804D01*
X018940Y038863D02*
X018880Y038863D01*
X018880Y038921D02*
X018940Y038921D01*
X018940Y038980D02*
X018880Y038980D01*
X018880Y039038D02*
X018940Y039038D01*
X018940Y039097D02*
X018880Y039097D01*
X018880Y039155D02*
X018940Y039155D01*
X018940Y039214D02*
X018880Y039214D01*
X018880Y039272D02*
X018940Y039272D01*
X019164Y039272D02*
X025243Y039272D01*
X025301Y039331D02*
X017900Y039331D01*
X017958Y039272D02*
X018655Y039272D01*
X018543Y039214D02*
X018017Y039214D01*
X018075Y039155D02*
X018468Y039155D01*
X018410Y039097D02*
X018103Y039097D01*
X018127Y039038D02*
X018365Y039038D01*
X018329Y038980D02*
X018151Y038980D01*
X018175Y038921D02*
X018301Y038921D01*
X018279Y038863D02*
X018200Y038863D01*
X018212Y038804D02*
X018263Y038804D01*
X018253Y038746D02*
X018212Y038746D01*
X018212Y038687D02*
X018248Y038687D01*
X018248Y038629D02*
X018212Y038629D01*
X018212Y038570D02*
X018248Y038570D01*
X018248Y038512D02*
X018212Y038512D01*
X018212Y038453D02*
X018248Y038453D01*
X018248Y038395D02*
X018212Y038395D01*
X018212Y038336D02*
X018248Y038336D01*
X018248Y038278D02*
X018212Y038278D01*
X018212Y038219D02*
X018248Y038219D01*
X018248Y038161D02*
X018212Y038161D01*
X019276Y039214D02*
X025184Y039214D01*
X025126Y039155D02*
X019351Y039155D01*
X019409Y039097D02*
X025098Y039097D01*
X025074Y039038D02*
X019454Y039038D01*
X019490Y038980D02*
X025050Y038980D01*
X025026Y038921D02*
X019518Y038921D01*
X019540Y038863D02*
X025001Y038863D01*
X024989Y038804D02*
X019556Y038804D01*
X019566Y038746D02*
X024989Y038746D01*
X024989Y038687D02*
X019571Y038687D01*
X019571Y038629D02*
X024989Y038629D01*
X024989Y038570D02*
X019571Y038570D01*
X019571Y038512D02*
X024989Y038512D01*
X024989Y038453D02*
X019571Y038453D01*
X019571Y038395D02*
X024989Y038395D01*
X024989Y038336D02*
X019571Y038336D01*
X019571Y038278D02*
X024989Y038278D01*
X024989Y038219D02*
X019571Y038219D01*
X019571Y038161D02*
X024989Y038161D01*
X025360Y039389D02*
X017841Y039389D01*
X017704Y039448D02*
X025497Y039448D01*
X025638Y039506D02*
X017562Y039506D01*
X018850Y018853D02*
X023662Y018853D01*
X024475Y018040D01*
X024475Y017675D01*
X024575Y017434D01*
X024759Y017250D01*
X025000Y017150D01*
X025260Y017150D01*
X025501Y017250D01*
X025603Y017352D01*
X025603Y015598D01*
X021832Y011827D01*
X021683Y011678D01*
X021630Y011550D01*
X021577Y011678D01*
X018157Y015098D01*
X018157Y017406D01*
X018185Y017434D01*
X018240Y017568D01*
X018241Y017567D01*
X018283Y017509D01*
X018334Y017458D01*
X018392Y017416D01*
X018455Y017384D01*
X018523Y017362D01*
X018594Y017350D01*
X018600Y017350D01*
X018600Y018100D01*
X018660Y018100D01*
X018660Y018160D01*
X019085Y018160D01*
X019085Y018491D01*
X019074Y018561D01*
X019051Y018629D01*
X019019Y018693D01*
X018977Y018751D01*
X018926Y018802D01*
X018868Y018844D01*
X018850Y018853D01*
X018931Y018797D02*
X023718Y018797D01*
X023776Y018739D02*
X018986Y018739D01*
X019026Y018680D02*
X023835Y018680D01*
X023893Y018622D02*
X019054Y018622D01*
X019073Y018563D02*
X023952Y018563D01*
X024010Y018505D02*
X019083Y018505D01*
X019085Y018446D02*
X024069Y018446D01*
X024127Y018388D02*
X019085Y018388D01*
X019085Y018329D02*
X024186Y018329D01*
X024244Y018271D02*
X019085Y018271D01*
X019085Y018212D02*
X024303Y018212D01*
X024361Y018154D02*
X018660Y018154D01*
X018660Y018100D02*
X019085Y018100D01*
X019085Y017769D01*
X019074Y017699D01*
X019051Y017631D01*
X019019Y017567D01*
X018977Y017509D01*
X018926Y017458D01*
X018868Y017416D01*
X018805Y017384D01*
X018736Y017362D01*
X018666Y017350D01*
X018660Y017350D01*
X018660Y018100D01*
X018660Y018095D02*
X018600Y018095D01*
X018600Y018037D02*
X018660Y018037D01*
X018660Y017978D02*
X018600Y017978D01*
X018600Y017920D02*
X018660Y017920D01*
X018660Y017861D02*
X018600Y017861D01*
X018600Y017803D02*
X018660Y017803D01*
X018660Y017744D02*
X018600Y017744D01*
X018600Y017686D02*
X018660Y017686D01*
X018660Y017627D02*
X018600Y017627D01*
X018600Y017569D02*
X018660Y017569D01*
X018660Y017510D02*
X018600Y017510D01*
X018600Y017452D02*
X018660Y017452D01*
X018660Y017393D02*
X018600Y017393D01*
X018437Y017393D02*
X018157Y017393D01*
X018157Y017335D02*
X024675Y017335D01*
X024616Y017393D02*
X018823Y017393D01*
X018917Y017452D02*
X024568Y017452D01*
X024543Y017510D02*
X018978Y017510D01*
X019020Y017569D02*
X024519Y017569D01*
X024495Y017627D02*
X019050Y017627D01*
X019069Y017686D02*
X024475Y017686D01*
X024475Y017744D02*
X019081Y017744D01*
X019085Y017803D02*
X024475Y017803D01*
X024475Y017861D02*
X019085Y017861D01*
X019085Y017920D02*
X024475Y017920D01*
X024475Y017978D02*
X019085Y017978D01*
X019085Y018037D02*
X024475Y018037D01*
X024420Y018095D02*
X019085Y018095D01*
X018343Y017452D02*
X018192Y017452D01*
X018217Y017510D02*
X018282Y017510D01*
X018157Y017276D02*
X024733Y017276D01*
X024838Y017218D02*
X018157Y017218D01*
X018157Y017159D02*
X024979Y017159D01*
X025281Y017159D02*
X025603Y017159D01*
X025603Y017101D02*
X018157Y017101D01*
X018157Y017042D02*
X025603Y017042D01*
X025603Y016984D02*
X018157Y016984D01*
X018157Y016925D02*
X025603Y016925D01*
X025603Y016867D02*
X018157Y016867D01*
X018157Y016808D02*
X025603Y016808D01*
X025603Y016750D02*
X018157Y016750D01*
X018157Y016691D02*
X025603Y016691D01*
X025603Y016633D02*
X018157Y016633D01*
X018157Y016574D02*
X025603Y016574D01*
X025603Y016516D02*
X018157Y016516D01*
X018157Y016457D02*
X025603Y016457D01*
X025603Y016399D02*
X018157Y016399D01*
X018157Y016340D02*
X025603Y016340D01*
X025603Y016282D02*
X018157Y016282D01*
X018157Y016223D02*
X025603Y016223D01*
X025603Y016165D02*
X018157Y016165D01*
X018157Y016106D02*
X025603Y016106D01*
X025603Y016048D02*
X018157Y016048D01*
X018157Y015989D02*
X025603Y015989D01*
X025603Y015931D02*
X018157Y015931D01*
X018157Y015872D02*
X025603Y015872D01*
X025603Y015814D02*
X018157Y015814D01*
X018157Y015755D02*
X025603Y015755D01*
X025603Y015697D02*
X018157Y015697D01*
X018157Y015638D02*
X025603Y015638D01*
X025584Y015580D02*
X018157Y015580D01*
X018157Y015521D02*
X025526Y015521D01*
X025467Y015463D02*
X018157Y015463D01*
X018157Y015404D02*
X025409Y015404D01*
X025350Y015346D02*
X018157Y015346D01*
X018157Y015287D02*
X025292Y015287D01*
X025233Y015229D02*
X018157Y015229D01*
X018157Y015170D02*
X025175Y015170D01*
X025116Y015112D02*
X018157Y015112D01*
X018202Y015053D02*
X025058Y015053D01*
X024999Y014995D02*
X018261Y014995D01*
X018319Y014936D02*
X024941Y014936D01*
X024882Y014878D02*
X018378Y014878D01*
X018436Y014819D02*
X024824Y014819D01*
X024765Y014761D02*
X018495Y014761D01*
X018553Y014702D02*
X024707Y014702D01*
X024648Y014644D02*
X018612Y014644D01*
X018670Y014585D02*
X024590Y014585D01*
X024531Y014527D02*
X018729Y014527D01*
X018787Y014468D02*
X024473Y014468D01*
X024414Y014410D02*
X018846Y014410D01*
X018904Y014351D02*
X024356Y014351D01*
X024297Y014293D02*
X018963Y014293D01*
X019021Y014234D02*
X024239Y014234D01*
X024180Y014176D02*
X019080Y014176D01*
X019138Y014117D02*
X024122Y014117D01*
X024063Y014059D02*
X019197Y014059D01*
X019255Y014000D02*
X024005Y014000D01*
X023946Y013942D02*
X019314Y013942D01*
X019372Y013883D02*
X023888Y013883D01*
X023829Y013825D02*
X019431Y013825D01*
X019489Y013766D02*
X023771Y013766D01*
X023712Y013708D02*
X019548Y013708D01*
X019606Y013649D02*
X023654Y013649D01*
X023595Y013591D02*
X019665Y013591D01*
X019723Y013532D02*
X023537Y013532D01*
X023478Y013474D02*
X019782Y013474D01*
X019840Y013415D02*
X023420Y013415D01*
X023361Y013357D02*
X019899Y013357D01*
X019957Y013298D02*
X023303Y013298D01*
X023244Y013240D02*
X020016Y013240D01*
X020074Y013181D02*
X023186Y013181D01*
X023127Y013123D02*
X020133Y013123D01*
X020191Y013064D02*
X023069Y013064D01*
X023010Y013006D02*
X020250Y013006D01*
X020308Y012947D02*
X022952Y012947D01*
X022893Y012889D02*
X020367Y012889D01*
X020425Y012830D02*
X022835Y012830D01*
X022776Y012772D02*
X020484Y012772D01*
X020542Y012713D02*
X022718Y012713D01*
X022659Y012655D02*
X020601Y012655D01*
X020659Y012596D02*
X022601Y012596D01*
X022542Y012538D02*
X020718Y012538D01*
X020776Y012479D02*
X022484Y012479D01*
X022425Y012421D02*
X020835Y012421D01*
X020893Y012362D02*
X022367Y012362D01*
X022308Y012304D02*
X020952Y012304D01*
X021010Y012245D02*
X022250Y012245D01*
X022191Y012187D02*
X021069Y012187D01*
X021127Y012128D02*
X022133Y012128D01*
X022074Y012070D02*
X021186Y012070D01*
X021244Y012011D02*
X022016Y012011D01*
X021957Y011953D02*
X021303Y011953D01*
X021361Y011894D02*
X021899Y011894D01*
X021840Y011836D02*
X021420Y011836D01*
X021478Y011777D02*
X021782Y011777D01*
X021723Y011719D02*
X021537Y011719D01*
X021584Y011660D02*
X021676Y011660D01*
X021652Y011602D02*
X021608Y011602D01*
X018358Y012407D02*
X016332Y014433D01*
X016183Y014582D01*
X016103Y014775D01*
X016103Y017352D01*
X016001Y017250D01*
X015760Y017150D01*
X015500Y017150D01*
X015259Y017250D01*
X015075Y017434D01*
X014975Y017675D01*
X014975Y018040D01*
X014207Y018808D01*
X014162Y018853D01*
X009350Y018853D01*
X009368Y018844D01*
X009426Y018802D01*
X009477Y018751D01*
X009519Y018693D01*
X009551Y018629D01*
X009574Y018561D01*
X009585Y018491D01*
X009585Y018160D01*
X009160Y018160D01*
X009160Y018100D01*
X009585Y018100D01*
X009585Y017769D01*
X009574Y017699D01*
X009551Y017631D01*
X009519Y017567D01*
X009477Y017509D01*
X009426Y017458D01*
X009368Y017416D01*
X009305Y017384D01*
X009236Y017362D01*
X009166Y017350D01*
X009160Y017350D01*
X009160Y018100D01*
X009100Y018100D01*
X009100Y017405D01*
X014098Y012407D01*
X018358Y012407D01*
X018344Y012421D02*
X014085Y012421D01*
X014026Y012479D02*
X018286Y012479D01*
X018227Y012538D02*
X013968Y012538D01*
X013909Y012596D02*
X018169Y012596D01*
X018110Y012655D02*
X013851Y012655D01*
X013792Y012713D02*
X018052Y012713D01*
X017993Y012772D02*
X013734Y012772D01*
X013675Y012830D02*
X017935Y012830D01*
X017876Y012889D02*
X013617Y012889D01*
X013558Y012947D02*
X017818Y012947D01*
X017759Y013006D02*
X013500Y013006D01*
X013441Y013064D02*
X017701Y013064D01*
X017642Y013123D02*
X013383Y013123D01*
X013324Y013181D02*
X017584Y013181D01*
X017525Y013240D02*
X013266Y013240D01*
X013207Y013298D02*
X017467Y013298D01*
X017408Y013357D02*
X013149Y013357D01*
X013090Y013415D02*
X017350Y013415D01*
X017291Y013474D02*
X013032Y013474D01*
X012973Y013532D02*
X017233Y013532D01*
X017174Y013591D02*
X012915Y013591D01*
X012856Y013649D02*
X017116Y013649D01*
X017057Y013708D02*
X012798Y013708D01*
X012739Y013766D02*
X016999Y013766D01*
X016940Y013825D02*
X012681Y013825D01*
X012622Y013883D02*
X016882Y013883D01*
X016823Y013942D02*
X012564Y013942D01*
X012505Y014000D02*
X016765Y014000D01*
X016706Y014059D02*
X012447Y014059D01*
X012388Y014117D02*
X016648Y014117D01*
X016589Y014176D02*
X012330Y014176D01*
X012271Y014234D02*
X016531Y014234D01*
X016472Y014293D02*
X012213Y014293D01*
X012154Y014351D02*
X016414Y014351D01*
X016355Y014410D02*
X012096Y014410D01*
X012037Y014468D02*
X016297Y014468D01*
X016238Y014527D02*
X011979Y014527D01*
X011920Y014585D02*
X016182Y014585D01*
X016158Y014644D02*
X011862Y014644D01*
X011803Y014702D02*
X016133Y014702D01*
X016109Y014761D02*
X011745Y014761D01*
X011686Y014819D02*
X016103Y014819D01*
X016103Y014878D02*
X011628Y014878D01*
X011569Y014936D02*
X016103Y014936D01*
X016103Y014995D02*
X011511Y014995D01*
X011452Y015053D02*
X016103Y015053D01*
X016103Y015112D02*
X011394Y015112D01*
X011335Y015170D02*
X016103Y015170D01*
X016103Y015229D02*
X011277Y015229D01*
X011218Y015287D02*
X016103Y015287D01*
X016103Y015346D02*
X011160Y015346D01*
X011101Y015404D02*
X016103Y015404D01*
X016103Y015463D02*
X011043Y015463D01*
X010984Y015521D02*
X016103Y015521D01*
X016103Y015580D02*
X010926Y015580D01*
X010867Y015638D02*
X016103Y015638D01*
X016103Y015697D02*
X010809Y015697D01*
X010750Y015755D02*
X016103Y015755D01*
X016103Y015814D02*
X010692Y015814D01*
X010633Y015872D02*
X016103Y015872D01*
X016103Y015931D02*
X010575Y015931D01*
X010516Y015989D02*
X016103Y015989D01*
X016103Y016048D02*
X010458Y016048D01*
X010399Y016106D02*
X016103Y016106D01*
X016103Y016165D02*
X010341Y016165D01*
X010282Y016223D02*
X016103Y016223D01*
X016103Y016282D02*
X010224Y016282D01*
X010165Y016340D02*
X016103Y016340D01*
X016103Y016399D02*
X010107Y016399D01*
X010048Y016457D02*
X016103Y016457D01*
X016103Y016516D02*
X009990Y016516D01*
X009931Y016574D02*
X016103Y016574D01*
X016103Y016633D02*
X009873Y016633D01*
X009814Y016691D02*
X016103Y016691D01*
X016103Y016750D02*
X009756Y016750D01*
X009697Y016808D02*
X016103Y016808D01*
X016103Y016867D02*
X009639Y016867D01*
X009580Y016925D02*
X016103Y016925D01*
X016103Y016984D02*
X009522Y016984D01*
X009463Y017042D02*
X016103Y017042D01*
X016103Y017101D02*
X009405Y017101D01*
X009346Y017159D02*
X015479Y017159D01*
X015338Y017218D02*
X009288Y017218D01*
X009229Y017276D02*
X015233Y017276D01*
X015175Y017335D02*
X009171Y017335D01*
X009160Y017393D02*
X009112Y017393D01*
X009100Y017452D02*
X009160Y017452D01*
X009160Y017510D02*
X009100Y017510D01*
X009100Y017569D02*
X009160Y017569D01*
X009160Y017627D02*
X009100Y017627D01*
X009100Y017686D02*
X009160Y017686D01*
X009160Y017744D02*
X009100Y017744D01*
X009100Y017803D02*
X009160Y017803D01*
X009160Y017861D02*
X009100Y017861D01*
X009100Y017920D02*
X009160Y017920D01*
X009160Y017978D02*
X009100Y017978D01*
X009100Y018037D02*
X009160Y018037D01*
X009160Y018095D02*
X009100Y018095D01*
X009160Y018154D02*
X014861Y018154D01*
X014803Y018212D02*
X009585Y018212D01*
X009585Y018271D02*
X014744Y018271D01*
X014686Y018329D02*
X009585Y018329D01*
X009585Y018388D02*
X014627Y018388D01*
X014569Y018446D02*
X009585Y018446D01*
X009583Y018505D02*
X014510Y018505D01*
X014452Y018563D02*
X009573Y018563D01*
X009554Y018622D02*
X014393Y018622D01*
X014335Y018680D02*
X009526Y018680D01*
X009486Y018739D02*
X014276Y018739D01*
X014218Y018797D02*
X009431Y018797D01*
X009585Y018095D02*
X014920Y018095D01*
X014975Y018037D02*
X009585Y018037D01*
X009585Y017978D02*
X014975Y017978D01*
X014975Y017920D02*
X009585Y017920D01*
X009585Y017861D02*
X014975Y017861D01*
X014975Y017803D02*
X009585Y017803D01*
X009581Y017744D02*
X014975Y017744D01*
X014975Y017686D02*
X009569Y017686D01*
X009550Y017627D02*
X014995Y017627D01*
X015019Y017569D02*
X009520Y017569D01*
X009478Y017510D02*
X015043Y017510D01*
X015068Y017452D02*
X009417Y017452D01*
X009323Y017393D02*
X015116Y017393D01*
X015781Y017159D02*
X016103Y017159D01*
X016103Y017218D02*
X015922Y017218D01*
X016027Y017276D02*
X016103Y017276D01*
X016103Y017335D02*
X016085Y017335D01*
X025422Y017218D02*
X025603Y017218D01*
X025603Y017276D02*
X025527Y017276D01*
X025585Y017335D02*
X025603Y017335D01*
X027657Y017335D02*
X029351Y017335D01*
X029332Y017327D02*
X029183Y017178D01*
X027657Y015652D01*
X027657Y017406D01*
X027685Y017434D01*
X027740Y017568D01*
X027741Y017567D01*
X027783Y017509D01*
X027834Y017458D01*
X027892Y017416D01*
X027955Y017384D01*
X028023Y017362D01*
X028094Y017350D01*
X028100Y017350D01*
X028100Y018100D01*
X028160Y018100D01*
X028160Y018160D01*
X028585Y018160D01*
X028585Y018491D01*
X028574Y018561D01*
X028551Y018629D01*
X028519Y018693D01*
X028477Y018751D01*
X028426Y018802D01*
X028368Y018844D01*
X028350Y018853D01*
X033162Y018853D01*
X033207Y018808D01*
X033975Y018040D01*
X033975Y017675D01*
X034075Y017434D01*
X034102Y017407D01*
X029525Y017407D01*
X029332Y017327D01*
X029281Y017276D02*
X027657Y017276D01*
X027657Y017218D02*
X029222Y017218D01*
X029164Y017159D02*
X027657Y017159D01*
X027657Y017101D02*
X029105Y017101D01*
X029047Y017042D02*
X027657Y017042D01*
X027657Y016984D02*
X028988Y016984D01*
X028930Y016925D02*
X027657Y016925D01*
X027657Y016867D02*
X028871Y016867D01*
X028813Y016808D02*
X027657Y016808D01*
X027657Y016750D02*
X028754Y016750D01*
X028696Y016691D02*
X027657Y016691D01*
X027657Y016633D02*
X028637Y016633D01*
X028579Y016574D02*
X027657Y016574D01*
X027657Y016516D02*
X028520Y016516D01*
X028462Y016457D02*
X027657Y016457D01*
X027657Y016399D02*
X028403Y016399D01*
X028345Y016340D02*
X027657Y016340D01*
X027657Y016282D02*
X028286Y016282D01*
X028228Y016223D02*
X027657Y016223D01*
X027657Y016165D02*
X028169Y016165D01*
X028111Y016106D02*
X027657Y016106D01*
X027657Y016048D02*
X028052Y016048D01*
X027994Y015989D02*
X027657Y015989D01*
X027657Y015931D02*
X027935Y015931D01*
X027877Y015872D02*
X027657Y015872D01*
X027657Y015814D02*
X027818Y015814D01*
X027760Y015755D02*
X027657Y015755D01*
X027657Y015697D02*
X027701Y015697D01*
X027657Y017393D02*
X027937Y017393D01*
X027843Y017452D02*
X027692Y017452D01*
X027717Y017510D02*
X027782Y017510D01*
X028100Y017510D02*
X028160Y017510D01*
X028160Y017452D02*
X028100Y017452D01*
X028100Y017393D02*
X028160Y017393D01*
X028160Y017350D02*
X028166Y017350D01*
X028236Y017362D01*
X028305Y017384D01*
X028368Y017416D01*
X028426Y017458D01*
X028477Y017509D01*
X028519Y017567D01*
X028551Y017631D01*
X028574Y017699D01*
X028585Y017769D01*
X028585Y018100D01*
X028160Y018100D01*
X028160Y017350D01*
X028323Y017393D02*
X029492Y017393D01*
X028569Y017686D02*
X033975Y017686D01*
X033975Y017744D02*
X028581Y017744D01*
X028585Y017803D02*
X033975Y017803D01*
X033975Y017861D02*
X028585Y017861D01*
X028585Y017920D02*
X033975Y017920D01*
X033975Y017978D02*
X028585Y017978D01*
X028585Y018037D02*
X033975Y018037D01*
X033920Y018095D02*
X028585Y018095D01*
X028585Y018212D02*
X033803Y018212D01*
X033861Y018154D02*
X028160Y018154D01*
X028160Y018095D02*
X028100Y018095D01*
X028100Y018037D02*
X028160Y018037D01*
X028160Y017978D02*
X028100Y017978D01*
X028100Y017920D02*
X028160Y017920D01*
X028160Y017861D02*
X028100Y017861D01*
X028100Y017803D02*
X028160Y017803D01*
X028160Y017744D02*
X028100Y017744D01*
X028100Y017686D02*
X028160Y017686D01*
X028160Y017627D02*
X028100Y017627D01*
X028100Y017569D02*
X028160Y017569D01*
X028417Y017452D02*
X034068Y017452D01*
X034043Y017510D02*
X028478Y017510D01*
X028520Y017569D02*
X034019Y017569D01*
X033995Y017627D02*
X028550Y017627D01*
X028585Y018271D02*
X033744Y018271D01*
X033686Y018329D02*
X028585Y018329D01*
X028585Y018388D02*
X033627Y018388D01*
X033569Y018446D02*
X028585Y018446D01*
X028583Y018505D02*
X033510Y018505D01*
X033452Y018563D02*
X028573Y018563D01*
X028554Y018622D02*
X033393Y018622D01*
X033335Y018680D02*
X028526Y018680D01*
X028486Y018739D02*
X033276Y018739D01*
X033218Y018797D02*
X028431Y018797D01*
X033207Y018808D02*
X033207Y018808D01*
X024603Y003763D02*
X024585Y003763D01*
X024603Y003704D02*
X024526Y003704D01*
X024603Y003646D02*
X024397Y003646D01*
X023863Y003646D02*
X023397Y003646D01*
X023526Y003704D02*
X023734Y003704D01*
X023675Y003763D02*
X023585Y003763D01*
X022863Y003646D02*
X022397Y003646D01*
X022526Y003704D02*
X022734Y003704D01*
X022675Y003763D02*
X022585Y003763D01*
X021863Y003646D02*
X021397Y003646D01*
X021526Y003704D02*
X021734Y003704D01*
X021675Y003763D02*
X021585Y003763D01*
X020863Y003646D02*
X020397Y003646D01*
X020526Y003704D02*
X020734Y003704D01*
X020675Y003763D02*
X020585Y003763D01*
X019863Y003646D02*
X019397Y003646D01*
X019526Y003704D02*
X019734Y003704D01*
X019675Y003763D02*
X019585Y003763D01*
X018863Y003646D02*
X018397Y003646D01*
X018526Y003704D02*
X018734Y003704D01*
X018675Y003763D02*
X018585Y003763D01*
X025832Y002183D02*
X026025Y002103D01*
X045069Y036757D02*
X050895Y036757D01*
X050895Y036815D02*
X045210Y036815D01*
X045344Y036874D02*
X050895Y036874D01*
X050895Y036932D02*
X045402Y036932D01*
X045461Y036991D02*
X046148Y036991D01*
X046116Y037004D02*
X046196Y036971D01*
X046280Y036948D01*
X046366Y036937D01*
X046380Y036937D01*
X046380Y038100D01*
X046440Y038100D01*
X046440Y038160D01*
X047071Y038160D01*
X047071Y038705D01*
X047060Y038791D01*
X047037Y038875D01*
X047004Y038955D01*
X046961Y039030D01*
X046908Y039099D01*
X046847Y039160D01*
X046778Y039213D01*
X046703Y039256D01*
X046623Y039289D01*
X046539Y039312D01*
X046453Y039323D01*
X046440Y039323D01*
X046440Y038160D01*
X046380Y038160D01*
X046380Y039323D01*
X046366Y039323D01*
X046280Y039312D01*
X046196Y039289D01*
X046116Y039256D01*
X046041Y039213D01*
X045972Y039160D01*
X045911Y039099D01*
X045858Y039030D01*
X045815Y038955D01*
X045782Y038875D01*
X045759Y038791D01*
X045748Y038705D01*
X045748Y038160D01*
X046380Y038160D01*
X046380Y038100D01*
X045748Y038100D01*
X045748Y037555D01*
X045759Y037469D01*
X045782Y037385D01*
X045815Y037305D01*
X045858Y037230D01*
X045911Y037161D01*
X045972Y037100D01*
X046041Y037047D01*
X046116Y037004D01*
X046039Y037049D02*
X045519Y037049D01*
X045578Y037108D02*
X045965Y037108D01*
X045907Y037166D02*
X045604Y037166D01*
X045628Y037225D02*
X045863Y037225D01*
X045828Y037283D02*
X045652Y037283D01*
X045677Y037342D02*
X045800Y037342D01*
X045778Y037400D02*
X045701Y037400D01*
X045712Y037459D02*
X045762Y037459D01*
X045753Y037517D02*
X045712Y037517D01*
X045712Y037576D02*
X045748Y037576D01*
X045748Y037634D02*
X045712Y037634D01*
X045712Y037693D02*
X045748Y037693D01*
X045748Y037751D02*
X045712Y037751D01*
X045712Y037810D02*
X045748Y037810D01*
X045748Y037868D02*
X045712Y037868D01*
X045712Y037927D02*
X045748Y037927D01*
X045748Y037985D02*
X045712Y037985D01*
X045712Y038044D02*
X045748Y038044D01*
X045712Y038102D02*
X046380Y038102D01*
X046380Y038044D02*
X046440Y038044D01*
X046440Y038100D02*
X046440Y036937D01*
X046453Y036937D01*
X046539Y036948D01*
X046623Y036971D01*
X046703Y037004D01*
X046778Y037047D01*
X046847Y037100D01*
X046908Y037161D01*
X046961Y037230D01*
X047004Y037305D01*
X047037Y037385D01*
X047060Y037469D01*
X047071Y037555D01*
X047071Y038100D01*
X046440Y038100D01*
X046440Y038102D02*
X050895Y038102D01*
X050895Y038044D02*
X047071Y038044D01*
X047071Y037985D02*
X050895Y037985D01*
X050895Y037927D02*
X047071Y037927D01*
X047071Y037868D02*
X050895Y037868D01*
X050895Y037810D02*
X047071Y037810D01*
X047071Y037751D02*
X050895Y037751D01*
X050895Y037693D02*
X047071Y037693D01*
X047071Y037634D02*
X050895Y037634D01*
X050895Y037576D02*
X047071Y037576D01*
X047066Y037517D02*
X050895Y037517D01*
X050895Y037459D02*
X047057Y037459D01*
X047041Y037400D02*
X050895Y037400D01*
X050895Y037342D02*
X047019Y037342D01*
X046991Y037283D02*
X050895Y037283D01*
X050895Y037225D02*
X046956Y037225D01*
X046912Y037166D02*
X050895Y037166D01*
X050895Y037108D02*
X046854Y037108D01*
X046780Y037049D02*
X050895Y037049D01*
X050895Y036991D02*
X046671Y036991D01*
X046440Y036991D02*
X046380Y036991D01*
X046380Y037049D02*
X046440Y037049D01*
X046440Y037108D02*
X046380Y037108D01*
X046380Y037166D02*
X046440Y037166D01*
X046440Y037225D02*
X046380Y037225D01*
X046380Y037283D02*
X046440Y037283D01*
X046440Y037342D02*
X046380Y037342D01*
X046380Y037400D02*
X046440Y037400D01*
X046440Y037459D02*
X046380Y037459D01*
X046380Y037517D02*
X046440Y037517D01*
X046440Y037576D02*
X046380Y037576D01*
X046380Y037634D02*
X046440Y037634D01*
X046440Y037693D02*
X046380Y037693D01*
X046380Y037751D02*
X046440Y037751D01*
X046440Y037810D02*
X046380Y037810D01*
X046380Y037868D02*
X046440Y037868D01*
X046440Y037927D02*
X046380Y037927D01*
X046380Y037985D02*
X046440Y037985D01*
X046440Y038161D02*
X046380Y038161D01*
X046380Y038219D02*
X046440Y038219D01*
X046440Y038278D02*
X046380Y038278D01*
X046380Y038336D02*
X046440Y038336D01*
X046440Y038395D02*
X046380Y038395D01*
X046380Y038453D02*
X046440Y038453D01*
X046440Y038512D02*
X046380Y038512D01*
X046380Y038570D02*
X046440Y038570D01*
X046440Y038629D02*
X046380Y038629D01*
X046380Y038687D02*
X046440Y038687D01*
X046440Y038746D02*
X046380Y038746D01*
X046380Y038804D02*
X046440Y038804D01*
X046440Y038863D02*
X046380Y038863D01*
X046380Y038921D02*
X046440Y038921D01*
X046440Y038980D02*
X046380Y038980D01*
X046380Y039038D02*
X046440Y039038D01*
X046440Y039097D02*
X046380Y039097D01*
X046380Y039155D02*
X046440Y039155D01*
X046440Y039214D02*
X046380Y039214D01*
X046380Y039272D02*
X046440Y039272D01*
X046664Y039272D02*
X050895Y039272D01*
X050895Y039214D02*
X046776Y039214D01*
X046851Y039155D02*
X050895Y039155D01*
X050895Y039097D02*
X046909Y039097D01*
X046954Y039038D02*
X050895Y039038D01*
X050895Y038980D02*
X046990Y038980D01*
X047018Y038921D02*
X050895Y038921D01*
X050895Y038863D02*
X047040Y038863D01*
X047056Y038804D02*
X050895Y038804D01*
X050895Y038746D02*
X047066Y038746D01*
X047071Y038687D02*
X050895Y038687D01*
X050895Y038629D02*
X047071Y038629D01*
X047071Y038570D02*
X050895Y038570D01*
X050895Y038512D02*
X047071Y038512D01*
X047071Y038453D02*
X050895Y038453D01*
X050895Y038395D02*
X047071Y038395D01*
X047071Y038336D02*
X050895Y038336D01*
X050895Y038278D02*
X047071Y038278D01*
X047071Y038219D02*
X050895Y038219D01*
X050895Y038161D02*
X047071Y038161D01*
X046155Y039272D02*
X045458Y039272D01*
X045517Y039214D02*
X046043Y039214D01*
X045968Y039155D02*
X045575Y039155D01*
X045603Y039097D02*
X045910Y039097D01*
X045865Y039038D02*
X045627Y039038D01*
X045651Y038980D02*
X045829Y038980D01*
X045801Y038921D02*
X045675Y038921D01*
X045700Y038863D02*
X045779Y038863D01*
X045763Y038804D02*
X045712Y038804D01*
X045712Y038746D02*
X045753Y038746D01*
X045748Y038687D02*
X045712Y038687D01*
X045712Y038629D02*
X045748Y038629D01*
X045748Y038570D02*
X045712Y038570D01*
X045712Y038512D02*
X045748Y038512D01*
X045748Y038453D02*
X045712Y038453D01*
X045712Y038395D02*
X045748Y038395D01*
X045748Y038336D02*
X045712Y038336D01*
X045712Y038278D02*
X045748Y038278D01*
X045748Y038219D02*
X045712Y038219D01*
X045712Y038161D02*
X045748Y038161D01*
X045400Y039331D02*
X049424Y039331D01*
X049283Y039389D02*
X045341Y039389D01*
X045204Y039448D02*
X049156Y039448D01*
X049098Y039506D02*
X045062Y039506D01*
X049836Y039331D02*
X050895Y039331D01*
X050895Y039389D02*
X049977Y039389D01*
X050104Y039448D02*
X050895Y039448D01*
X050895Y039506D02*
X050162Y039506D01*
X050221Y039565D02*
X050895Y039565D01*
X050895Y039623D02*
X050279Y039623D01*
X050329Y039682D02*
X050895Y039682D01*
X050895Y039740D02*
X050353Y039740D01*
X050378Y039799D02*
X050895Y039799D01*
X050895Y039857D02*
X050402Y039857D01*
X050426Y039916D02*
X050895Y039916D01*
X050895Y039974D02*
X050447Y039974D01*
X050447Y040033D02*
X050895Y040033D01*
X050895Y040091D02*
X050447Y040091D01*
X050447Y040150D02*
X050895Y040150D01*
X050895Y040208D02*
X050447Y040208D01*
X050447Y040267D02*
X050895Y040267D01*
X050895Y040325D02*
X050434Y040325D01*
X050410Y040384D02*
X050895Y040384D01*
X050895Y040442D02*
X050385Y040442D01*
X050361Y040501D02*
X050895Y040501D01*
X050895Y040559D02*
X050337Y040559D01*
X050298Y040618D02*
X050895Y040618D01*
X050895Y040676D02*
X050240Y040676D01*
X050181Y040735D02*
X050895Y040735D01*
X050895Y040793D02*
X050123Y040793D01*
X050024Y040852D02*
X050895Y040852D01*
X050895Y040910D02*
X049882Y040910D01*
M02*
