%
M48
M72
T01C0.0256
T02C0.0315
T03C0.0669
T04C0.1181
%
T01
X6130Y18130
X7130Y18130
X8130Y18130
X9130Y18130
X15630Y18130
X16630Y18130
X17630Y18130
X18630Y18130
X25130Y18130
X26130Y18130
X27130Y18130
X28130Y18130
X34630Y18130
X35630Y18130
X36630Y18130
X37630Y18130
X44130Y18130
X45130Y18130
X46130Y18130
X47130Y18130
X47130Y28130
X46130Y28130
X45130Y28130
X44130Y28130
X43130Y28130
X38630Y28130
X37630Y28130
X36630Y28130
X35630Y28130
X34630Y28130
X33630Y28130
X29130Y28130
X28130Y28130
X27130Y28130
X26130Y28130
X25130Y28130
X24130Y28130
X19630Y28130
X18630Y28130
X17630Y28130
X16630Y28130
X15630Y28130
X14630Y28130
X10130Y28130
X9130Y28130
X8130Y28130
X7130Y28130
X6130Y28130
X5130Y28130
X48130Y28130
T02
X32130Y10630
X31130Y10630
X30130Y10630
X29130Y10630
X28130Y10630
X27130Y10630
X26130Y10630
X25130Y10630
X24130Y10630
X23130Y10630
X22130Y10630
X21130Y10630
X20130Y10630
X19130Y10630
X18130Y10630
X18130Y4630
X19130Y4630
X20130Y4630
X21130Y4630
X22130Y4630
X23130Y4630
X24130Y4630
X25130Y4630
X26130Y4630
X27130Y4630
X28130Y4630
X29130Y4630
X30130Y4630
X31130Y4630
X32130Y4630
X31630Y6630
X31630Y7630
X31630Y8630
X32630Y8630
X32630Y7630
X32630Y6630
T03
X44130Y6791
X44130Y8350
X44130Y9910
X44130Y11469
X44850Y33130
X46410Y33130
X47969Y33130
X43291Y33130
X37969Y33130
X36410Y33130
X34850Y33130
X33291Y33130
X28969Y33130
X27410Y33130
X25850Y33130
X24291Y33130
X19969Y33130
X18410Y33130
X16850Y33130
X15291Y33130
X9969Y33130
X8410Y33130
X6850Y33130
X5291Y33130
X6850Y38130
X8410Y38130
X17350Y38130
X18910Y38130
X25850Y38130
X27410Y38130
X34850Y38130
X36410Y38130
X44850Y38130
X46410Y38130
T04
X3630Y2630
X3630Y40130
X49630Y40130
X49630Y2630
M30
